<?xml version="1.0" encoding="UTF-8" standalone="no"?>
<!DOCTYPE svg PUBLIC "-//W3C//DTD SVG 1.1//EN"
 "http://www.w3.org/Graphics/SVG/1.1/DTD/svg11.dtd">
<!-- Generated by graphviz version 3.0.0 (20220226.1711)
 -->
<!-- Title: G Pages: 1 -->
<svg width="1115pt" height="690pt"
 viewBox="0.00 0.00 1115.20 690.45" xmlns="http://www.w3.org/2000/svg" xmlns:xlink="http://www.w3.org/1999/xlink">
<g id="graph0" class="graph" transform="scale(1 1) rotate(0) translate(21.6 668.85)">
<title>G</title>
<polygon fill="#111111" stroke="transparent" points="-21.6,21.6 -21.6,-668.85 1093.6,-668.85 1093.6,21.6 -21.6,21.6"/>
<!-- Calculus.ts -->
<g id="node1" class="node">
<title>Calculus.ts</title>
<path fill="none" stroke="#c6c5fe" d="M709.33,-258.32C709.33,-258.32 638.67,-258.32 638.67,-258.32 634.83,-258.32 631,-254.49 631,-250.65 631,-250.65 631,-242.99 631,-242.99 631,-239.15 634.83,-235.32 638.67,-235.32 638.67,-235.32 709.33,-235.32 709.33,-235.32 713.17,-235.32 717,-239.15 717,-242.99 717,-242.99 717,-250.65 717,-250.65 717,-254.49 713.17,-258.32 709.33,-258.32"/>
<text text-anchor="middle" x="674" y="-243.12" font-family="Arial" font-size="14.00" fill="#c6c5fe">Calculus.ts</text>
</g>
<!-- pidraw.common.ts -->
<g id="node2" class="node">
<title>pidraw.common.ts</title>
<path fill="none" stroke="#cfffac" d="M1064.33,-313.32C1064.33,-313.32 947.67,-313.32 947.67,-313.32 943.83,-313.32 940,-309.49 940,-305.65 940,-305.65 940,-297.99 940,-297.99 940,-294.15 943.83,-290.32 947.67,-290.32 947.67,-290.32 1064.33,-290.32 1064.33,-290.32 1068.17,-290.32 1072,-294.15 1072,-297.99 1072,-297.99 1072,-305.65 1072,-305.65 1072,-309.49 1068.17,-313.32 1064.33,-313.32"/>
<text text-anchor="middle" x="1006" y="-298.12" font-family="Arial" font-size="14.00" fill="#cfffac">pidraw.common.ts</text>
</g>
<!-- Calculus.ts&#45;&gt;pidraw.common.ts -->
<g id="edge1" class="edge">
<title>Calculus.ts&#45;&gt;pidraw.common.ts</title>
<path fill="none" stroke="#757575" d="M717.2,-248.1C763.47,-250.14 839.68,-255.39 904,-268.82 924.82,-273.17 947.37,-280.29 965.87,-286.81"/>
<polygon fill="#757575" stroke="#757575" points="964.82,-290.15 975.42,-290.24 967.19,-283.56 964.82,-290.15"/>
</g>
<!-- Graph.ts -->
<g id="node3" class="node">
<title>Graph.ts</title>
<path fill="none" stroke="#c6c5fe" d="M164.33,-320.32C164.33,-320.32 108.67,-320.32 108.67,-320.32 104.83,-320.32 101,-316.49 101,-312.65 101,-312.65 101,-304.99 101,-304.99 101,-301.15 104.83,-297.32 108.67,-297.32 108.67,-297.32 164.33,-297.32 164.33,-297.32 168.17,-297.32 172,-301.15 172,-304.99 172,-304.99 172,-312.65 172,-312.65 172,-316.49 168.17,-320.32 164.33,-320.32"/>
<text text-anchor="middle" x="136.5" y="-305.12" font-family="Arial" font-size="14.00" fill="#c6c5fe">Graph.ts</text>
</g>
<!-- Graph.ts&#45;&gt;Calculus.ts -->
<g id="edge2" class="edge">
<title>Graph.ts&#45;&gt;Calculus.ts</title>
<path fill="none" stroke="#757575" d="M140.43,-297.07C147.42,-271.5 167.64,-210.65 208,-179.82 261.38,-139.06 288.3,-152.65 355,-144.82 441.96,-134.61 469.76,-114.78 552,-144.82 596.79,-161.18 636.46,-202.23 657.36,-226.98"/>
<polygon fill="#757575" stroke="#757575" points="654.9,-229.49 663.96,-234.99 660.3,-225.04 654.9,-229.49"/>
</g>
<!-- Graph.ts&#45;&gt;pidraw.common.ts -->
<g id="edge16" class="edge">
<title>Graph.ts&#45;&gt;pidraw.common.ts</title>
<path fill="none" stroke="#757575" d="M138.87,-320.45C144.68,-368.04 168.9,-547.2 208,-585.82 287.53,-664.37 340.71,-644.82 452.5,-644.82 452.5,-644.82 452.5,-644.82 675,-644.82 787.15,-644.82 825.92,-619.33 904,-538.82 965.42,-475.49 992.15,-369.06 1001.19,-323.54"/>
<polygon fill="#757575" stroke="#757575" points="1004.65,-324.06 1003.07,-313.58 997.77,-322.75 1004.65,-324.06"/>
</g>
<!-- Parser.ts -->
<g id="node4" class="node">
<title>Parser.ts</title>
<path fill="none" stroke="#c6c5fe" d="M482.83,-502.32C482.83,-502.32 424.17,-502.32 424.17,-502.32 420.33,-502.32 416.5,-498.49 416.5,-494.65 416.5,-494.65 416.5,-486.99 416.5,-486.99 416.5,-483.15 420.33,-479.32 424.17,-479.32 424.17,-479.32 482.83,-479.32 482.83,-479.32 486.67,-479.32 490.5,-483.15 490.5,-486.99 490.5,-486.99 490.5,-494.65 490.5,-494.65 490.5,-498.49 486.67,-502.32 482.83,-502.32"/>
<text text-anchor="middle" x="453.5" y="-487.12" font-family="Arial" font-size="14.00" fill="#c6c5fe">Parser.ts</text>
</g>
<!-- Graph.ts&#45;&gt;Parser.ts -->
<g id="edge3" class="edge">
<title>Graph.ts&#45;&gt;Parser.ts</title>
<path fill="none" stroke="#757575" d="M141.01,-320.36C148.9,-344.32 170.37,-399.67 208,-428.82 266.1,-473.82 353.09,-486.46 406.13,-489.84"/>
<polygon fill="#757575" stroke="#757575" points="406.09,-493.34 416.27,-490.39 406.48,-486.35 406.09,-493.34"/>
</g>
<!-- figures/AbstractFigure.ts -->
<g id="node5" class="node">
<title>figures/AbstractFigure.ts</title>
<path fill="none" stroke="#c6c5fe" d="M752.33,-339.32C752.33,-339.32 595.67,-339.32 595.67,-339.32 591.83,-339.32 588,-335.49 588,-331.65 588,-331.65 588,-323.99 588,-323.99 588,-320.15 591.83,-316.32 595.67,-316.32 595.67,-316.32 752.33,-316.32 752.33,-316.32 756.17,-316.32 760,-320.15 760,-323.99 760,-323.99 760,-331.65 760,-331.65 760,-335.49 756.17,-339.32 752.33,-339.32"/>
<text text-anchor="middle" x="674" y="-324.12" font-family="Arial" font-size="14.00" fill="#c6c5fe">figures/AbstractFigure.ts</text>
</g>
<!-- Graph.ts&#45;&gt;figures/AbstractFigure.ts -->
<g id="edge4" class="edge">
<title>Graph.ts&#45;&gt;figures/AbstractFigure.ts</title>
<path fill="none" stroke="#757575" d="M172.27,-311.57C183.65,-312.39 196.36,-313.23 208,-313.82 335.83,-320.27 483.59,-324.1 577.62,-326.08"/>
<polygon fill="#757575" stroke="#757575" points="577.61,-329.58 587.68,-326.29 577.76,-322.59 577.61,-329.58"/>
</g>
<!-- figures/Arc.ts -->
<g id="node6" class="node">
<title>figures/Arc.ts</title>
<path fill="none" stroke="#c6c5fe" d="M496.33,-461.32C496.33,-461.32 410.67,-461.32 410.67,-461.32 406.83,-461.32 403,-457.49 403,-453.65 403,-453.65 403,-445.99 403,-445.99 403,-442.15 406.83,-438.32 410.67,-438.32 410.67,-438.32 496.33,-438.32 496.33,-438.32 500.17,-438.32 504,-442.15 504,-445.99 504,-445.99 504,-453.65 504,-453.65 504,-457.49 500.17,-461.32 496.33,-461.32"/>
<text text-anchor="middle" x="453.5" y="-446.12" font-family="Arial" font-size="14.00" fill="#c6c5fe">figures/Arc.ts</text>
</g>
<!-- Graph.ts&#45;&gt;figures/Arc.ts -->
<g id="edge5" class="edge">
<title>Graph.ts&#45;&gt;figures/Arc.ts</title>
<path fill="none" stroke="#757575" d="M143.6,-320.32C154.13,-339.01 177.56,-375.78 208,-394.82 264.37,-430.08 340.56,-442.84 392.83,-447.4"/>
<polygon fill="#757575" stroke="#757575" points="392.7,-450.9 402.95,-448.21 393.26,-443.92 392.7,-450.9"/>
</g>
<!-- figures/Circle.ts -->
<g id="node7" class="node">
<title>figures/Circle.ts</title>
<path fill="none" stroke="#c6c5fe" d="M503.83,-299.32C503.83,-299.32 403.17,-299.32 403.17,-299.32 399.33,-299.32 395.5,-295.49 395.5,-291.65 395.5,-291.65 395.5,-283.99 395.5,-283.99 395.5,-280.15 399.33,-276.32 403.17,-276.32 403.17,-276.32 503.83,-276.32 503.83,-276.32 507.67,-276.32 511.5,-280.15 511.5,-283.99 511.5,-283.99 511.5,-291.65 511.5,-291.65 511.5,-295.49 507.67,-299.32 503.83,-299.32"/>
<text text-anchor="middle" x="453.5" y="-284.12" font-family="Arial" font-size="14.00" fill="#c6c5fe">figures/Circle.ts</text>
</g>
<!-- Graph.ts&#45;&gt;figures/Circle.ts -->
<g id="edge6" class="edge">
<title>Graph.ts&#45;&gt;figures/Circle.ts</title>
<path fill="none" stroke="#757575" d="M172.11,-306.51C223.24,-303.1 319.93,-296.66 385.29,-292.3"/>
<polygon fill="#757575" stroke="#757575" points="385.75,-295.78 395.5,-291.62 385.29,-288.79 385.75,-295.78"/>
</g>
<!-- figures/CoordinateSystem.ts -->
<g id="node8" class="node">
<title>figures/CoordinateSystem.ts</title>
<path fill="none" stroke="#c6c5fe" d="M544.33,-55.32C544.33,-55.32 362.67,-55.32 362.67,-55.32 358.83,-55.32 355,-51.49 355,-47.65 355,-47.65 355,-39.99 355,-39.99 355,-36.15 358.83,-32.32 362.67,-32.32 362.67,-32.32 544.33,-32.32 544.33,-32.32 548.17,-32.32 552,-36.15 552,-39.99 552,-39.99 552,-47.65 552,-47.65 552,-51.49 548.17,-55.32 544.33,-55.32"/>
<text text-anchor="middle" x="453.5" y="-40.12" font-family="Arial" font-size="14.00" fill="#c6c5fe">figures/CoordinateSystem.ts</text>
</g>
<!-- Graph.ts&#45;&gt;figures/CoordinateSystem.ts -->
<g id="edge7" class="edge">
<title>Graph.ts&#45;&gt;figures/CoordinateSystem.ts</title>
<path fill="none" stroke="#757575" d="M136.86,-297.25C135.39,-258.07 136.39,-129.52 208,-69.82 253.9,-31.56 322.7,-27.36 375.64,-31.42"/>
<polygon fill="#757575" stroke="#757575" points="375.4,-34.92 385.67,-32.3 376.01,-27.94 375.4,-34.92"/>
</g>
<!-- figures/Follow.ts -->
<g id="node9" class="node">
<title>figures/Follow.ts</title>
<path fill="none" stroke="#c6c5fe" d="M505.83,-379.32C505.83,-379.32 401.17,-379.32 401.17,-379.32 397.33,-379.32 393.5,-375.49 393.5,-371.65 393.5,-371.65 393.5,-363.99 393.5,-363.99 393.5,-360.15 397.33,-356.32 401.17,-356.32 401.17,-356.32 505.83,-356.32 505.83,-356.32 509.67,-356.32 513.5,-360.15 513.5,-363.99 513.5,-363.99 513.5,-371.65 513.5,-371.65 513.5,-375.49 509.67,-379.32 505.83,-379.32"/>
<text text-anchor="middle" x="453.5" y="-364.12" font-family="Arial" font-size="14.00" fill="#c6c5fe">figures/Follow.ts</text>
</g>
<!-- Graph.ts&#45;&gt;figures/Follow.ts -->
<g id="edge8" class="edge">
<title>Graph.ts&#45;&gt;figures/Follow.ts</title>
<path fill="none" stroke="#757575" d="M157.48,-320.36C171.23,-327.75 190.17,-336.85 208,-341.82 265.58,-357.87 333.33,-364.14 382.89,-366.53"/>
<polygon fill="#757575" stroke="#757575" points="383.04,-370.04 393.18,-366.98 383.34,-363.05 383.04,-370.04"/>
</g>
<!-- figures/Grid.ts -->
<g id="node10" class="node">
<title>figures/Grid.ts</title>
<path fill="none" stroke="#c6c5fe" d="M498.83,-258.32C498.83,-258.32 408.17,-258.32 408.17,-258.32 404.33,-258.32 400.5,-254.49 400.5,-250.65 400.5,-250.65 400.5,-242.99 400.5,-242.99 400.5,-239.15 404.33,-235.32 408.17,-235.32 408.17,-235.32 498.83,-235.32 498.83,-235.32 502.67,-235.32 506.5,-239.15 506.5,-242.99 506.5,-242.99 506.5,-250.65 506.5,-250.65 506.5,-254.49 502.67,-258.32 498.83,-258.32"/>
<text text-anchor="middle" x="453.5" y="-243.12" font-family="Arial" font-size="14.00" fill="#c6c5fe">figures/Grid.ts</text>
</g>
<!-- Graph.ts&#45;&gt;figures/Grid.ts -->
<g id="edge9" class="edge">
<title>Graph.ts&#45;&gt;figures/Grid.ts</title>
<path fill="none" stroke="#757575" d="M172.23,-300.67C183.61,-298.07 196.33,-295.24 208,-292.82 269.92,-279.97 340.99,-266.77 390.49,-257.83"/>
<polygon fill="#757575" stroke="#757575" points="391.18,-261.26 400.4,-256.04 389.94,-254.37 391.18,-261.26"/>
</g>
<!-- figures/Line.ts -->
<g id="node11" class="node">
<title>figures/Line.ts</title>
<path fill="none" stroke="#c6c5fe" d="M498.83,-420.32C498.83,-420.32 408.17,-420.32 408.17,-420.32 404.33,-420.32 400.5,-416.49 400.5,-412.65 400.5,-412.65 400.5,-404.99 400.5,-404.99 400.5,-401.15 404.33,-397.32 408.17,-397.32 408.17,-397.32 498.83,-397.32 498.83,-397.32 502.67,-397.32 506.5,-401.15 506.5,-404.99 506.5,-404.99 506.5,-412.65 506.5,-412.65 506.5,-416.49 502.67,-420.32 498.83,-420.32"/>
<text text-anchor="middle" x="453.5" y="-405.12" font-family="Arial" font-size="14.00" fill="#c6c5fe">figures/Line.ts</text>
</g>
<!-- Graph.ts&#45;&gt;figures/Line.ts -->
<g id="edge10" class="edge">
<title>Graph.ts&#45;&gt;figures/Line.ts</title>
<path fill="none" stroke="#757575" d="M148.75,-320.75C161.73,-333.76 184.36,-354.13 208,-364.82 266.27,-391.17 339.07,-401.76 390.02,-406"/>
<polygon fill="#757575" stroke="#757575" points="389.98,-409.51 400.22,-406.79 390.52,-402.53 389.98,-409.51"/>
</g>
<!-- figures/Parametric.ts -->
<g id="node12" class="node">
<title>figures/Parametric.ts</title>
<path fill="none" stroke="#c6c5fe" d="M519.33,-217.32C519.33,-217.32 387.67,-217.32 387.67,-217.32 383.83,-217.32 380,-213.49 380,-209.65 380,-209.65 380,-201.99 380,-201.99 380,-198.15 383.83,-194.32 387.67,-194.32 387.67,-194.32 519.33,-194.32 519.33,-194.32 523.17,-194.32 527,-198.15 527,-201.99 527,-201.99 527,-209.65 527,-209.65 527,-213.49 523.17,-217.32 519.33,-217.32"/>
<text text-anchor="middle" x="453.5" y="-202.12" font-family="Arial" font-size="14.00" fill="#c6c5fe">figures/Parametric.ts</text>
</g>
<!-- Graph.ts&#45;&gt;figures/Parametric.ts -->
<g id="edge11" class="edge">
<title>Graph.ts&#45;&gt;figures/Parametric.ts</title>
<path fill="none" stroke="#757575" d="M153.91,-297.29C167.78,-287.98 188.46,-275.12 208,-266.82 260.65,-244.47 323.29,-229.04 371.99,-219.29"/>
<polygon fill="#757575" stroke="#757575" points="372.71,-222.71 381.85,-217.35 371.36,-215.84 372.71,-222.71"/>
</g>
<!-- figures/Plot.ts -->
<g id="node13" class="node">
<title>figures/Plot.ts</title>
<path fill="none" stroke="#c6c5fe" d="M497.83,-176.32C497.83,-176.32 409.17,-176.32 409.17,-176.32 405.33,-176.32 401.5,-172.49 401.5,-168.65 401.5,-168.65 401.5,-160.99 401.5,-160.99 401.5,-157.15 405.33,-153.32 409.17,-153.32 409.17,-153.32 497.83,-153.32 497.83,-153.32 501.67,-153.32 505.5,-157.15 505.5,-160.99 505.5,-160.99 505.5,-168.65 505.5,-168.65 505.5,-172.49 501.67,-176.32 497.83,-176.32"/>
<text text-anchor="middle" x="453.5" y="-161.12" font-family="Arial" font-size="14.00" fill="#c6c5fe">figures/Plot.ts</text>
</g>
<!-- Graph.ts&#45;&gt;figures/Plot.ts -->
<g id="edge12" class="edge">
<title>Graph.ts&#45;&gt;figures/Plot.ts</title>
<path fill="none" stroke="#757575" d="M144.41,-297.28C155.56,-279.65 179.21,-246.13 208,-227.82 263.83,-192.31 338.82,-176.78 390.97,-170"/>
<polygon fill="#757575" stroke="#757575" points="391.58,-173.45 401.08,-168.76 390.73,-166.51 391.58,-173.45"/>
</g>
<!-- figures/Point.ts -->
<g id="node14" class="node">
<title>figures/Point.ts</title>
<path fill="none" stroke="#c6c5fe" d="M311.33,-540.32C311.33,-540.32 215.67,-540.32 215.67,-540.32 211.83,-540.32 208,-536.49 208,-532.65 208,-532.65 208,-524.99 208,-524.99 208,-521.15 211.83,-517.32 215.67,-517.32 215.67,-517.32 311.33,-517.32 311.33,-517.32 315.17,-517.32 319,-521.15 319,-524.99 319,-524.99 319,-532.65 319,-532.65 319,-536.49 315.17,-540.32 311.33,-540.32"/>
<text text-anchor="middle" x="263.5" y="-525.12" font-family="Arial" font-size="14.00" fill="#c6c5fe">figures/Point.ts</text>
</g>
<!-- Graph.ts&#45;&gt;figures/Point.ts -->
<g id="edge13" class="edge">
<title>Graph.ts&#45;&gt;figures/Point.ts</title>
<path fill="none" stroke="#757575" d="M138.73,-320.33C142.74,-352.79 158.25,-446.29 208,-501.82 211.52,-505.75 215.74,-509.17 220.26,-512.14"/>
<polygon fill="#757575" stroke="#757575" points="218.79,-515.33 229.2,-517.29 222.28,-509.27 218.79,-515.33"/>
</g>
<!-- figures/Polygon.ts -->
<g id="node15" class="node">
<title>figures/Polygon.ts</title>
<path fill="none" stroke="#c6c5fe" d="M511.33,-96.32C511.33,-96.32 395.67,-96.32 395.67,-96.32 391.83,-96.32 388,-92.49 388,-88.65 388,-88.65 388,-80.99 388,-80.99 388,-77.15 391.83,-73.32 395.67,-73.32 395.67,-73.32 511.33,-73.32 511.33,-73.32 515.17,-73.32 519,-77.15 519,-80.99 519,-80.99 519,-88.65 519,-88.65 519,-92.49 515.17,-96.32 511.33,-96.32"/>
<text text-anchor="middle" x="453.5" y="-81.12" font-family="Arial" font-size="14.00" fill="#c6c5fe">figures/Polygon.ts</text>
</g>
<!-- Graph.ts&#45;&gt;figures/Polygon.ts -->
<g id="edge14" class="edge">
<title>Graph.ts&#45;&gt;figures/Polygon.ts</title>
<path fill="none" stroke="#757575" d="M137.66,-297.28C138.81,-262.57 147.38,-158.58 208,-110.82 255.41,-73.47 325.03,-69.44 377.87,-73.33"/>
<polygon fill="#757575" stroke="#757575" points="377.6,-76.82 387.86,-74.17 378.19,-69.84 377.6,-76.82"/>
</g>
<!-- labels/Label.ts -->
<g id="node16" class="node">
<title>labels/Label.ts</title>
<path fill="none" stroke="#c6c5fe" d="M896.33,-372.32C896.33,-372.32 803.67,-372.32 803.67,-372.32 799.83,-372.32 796,-368.49 796,-364.65 796,-364.65 796,-356.99 796,-356.99 796,-353.15 799.83,-349.32 803.67,-349.32 803.67,-349.32 896.33,-349.32 896.33,-349.32 900.17,-349.32 904,-353.15 904,-356.99 904,-356.99 904,-364.65 904,-364.65 904,-368.49 900.17,-372.32 896.33,-372.32"/>
<text text-anchor="middle" x="850" y="-357.12" font-family="Arial" font-size="14.00" fill="#c6c5fe">labels/Label.ts</text>
</g>
<!-- Graph.ts&#45;&gt;labels/Label.ts -->
<g id="edge15" class="edge">
<title>Graph.ts&#45;&gt;labels/Label.ts</title>
<path fill="none" stroke="#757575" d="M139.06,-320.37C145.25,-364.46 169.71,-521.13 208,-549.82 413.31,-703.68 742.22,-450.7 828,-378.94"/>
<polygon fill="#757575" stroke="#757575" points="830.36,-381.52 835.74,-372.4 825.85,-376.18 830.36,-381.52"/>
</g>
<!-- Parser.ts&#45;&gt;Calculus.ts -->
<g id="edge17" class="edge">
<title>Parser.ts&#45;&gt;Calculus.ts</title>
<path fill="none" stroke="#757575" d="M490.95,-492.49C511.49,-491.42 536.12,-486.46 552,-470.82 604.85,-418.76 547.17,-369.76 588,-307.82 600.51,-288.84 621.11,-273.83 638.9,-263.46"/>
<polygon fill="#757575" stroke="#757575" points="640.85,-266.38 647.89,-258.45 637.45,-260.26 640.85,-266.38"/>
</g>
<!-- Parser.ts&#45;&gt;pidraw.common.ts -->
<g id="edge19" class="edge">
<title>Parser.ts&#45;&gt;pidraw.common.ts</title>
<path fill="none" stroke="#757575" d="M490.8,-499.79C572.73,-517.8 774.9,-549.49 904,-460.82 954.08,-426.42 984.67,-358.21 997.68,-323.38"/>
<polygon fill="#757575" stroke="#757575" points="1001.06,-324.31 1001.15,-313.72 994.47,-321.94 1001.06,-324.31"/>
</g>
<!-- Parser.ts&#45;&gt;figures/AbstractFigure.ts -->
<g id="edge18" class="edge">
<title>Parser.ts&#45;&gt;figures/AbstractFigure.ts</title>
<path fill="none" stroke="#757575" d="M490.84,-489.07C510.12,-486.79 533.57,-481.75 552,-470.82 603.46,-440.29 643.44,-379.79 661.87,-348.16"/>
<polygon fill="#757575" stroke="#757575" points="664.99,-349.76 666.89,-339.34 658.9,-346.3 664.99,-349.76"/>
</g>
<!-- figures/AbstractFigure.ts&#45;&gt;pidraw.common.ts -->
<g id="edge21" class="edge">
<title>figures/AbstractFigure.ts&#45;&gt;pidraw.common.ts</title>
<path fill="none" stroke="#757575" d="M760.41,-321.09C812.76,-316.97 879.16,-311.73 929.57,-307.76"/>
<polygon fill="#757575" stroke="#757575" points="930.05,-311.24 939.75,-306.96 929.5,-304.26 930.05,-311.24"/>
</g>
<!-- figures/AbstractFigure.ts&#45;&gt;labels/Label.ts -->
<g id="edge20" class="edge">
<title>figures/AbstractFigure.ts&#45;&gt;labels/Label.ts</title>
<path fill="none" stroke="#757575" d="M735.86,-339.36C752.09,-342.44 769.66,-345.77 786,-348.87"/>
<polygon fill="#757575" stroke="#757575" points="785.52,-352.34 796,-350.77 786.82,-345.47 785.52,-352.34"/>
</g>
<!-- figures/Arc.ts&#45;&gt;Calculus.ts -->
<g id="edge22" class="edge">
<title>figures/Arc.ts&#45;&gt;Calculus.ts</title>
<path fill="none" stroke="#757575" d="M504.06,-449.73C521.08,-447.29 539.08,-441.69 552,-429.82 593.63,-391.57 555.26,-353.91 588,-307.82 601.26,-289.16 622.06,-274.09 639.77,-263.59"/>
<polygon fill="#757575" stroke="#757575" points="641.72,-266.51 648.69,-258.53 638.27,-260.42 641.72,-266.51"/>
</g>
<!-- figures/Arc.ts&#45;&gt;pidraw.common.ts -->
<g id="edge24" class="edge">
<title>figures/Arc.ts&#45;&gt;pidraw.common.ts</title>
<path fill="none" stroke="#757575" d="M504.07,-461.1C591.43,-478.15 775.68,-501.28 904,-427.82 947.31,-403.02 979.22,-351.79 994.65,-322.87"/>
<polygon fill="#757575" stroke="#757575" points="997.93,-324.15 999.41,-313.66 991.71,-320.93 997.93,-324.15"/>
</g>
<!-- figures/Arc.ts&#45;&gt;figures/AbstractFigure.ts -->
<g id="edge23" class="edge">
<title>figures/Arc.ts&#45;&gt;figures/AbstractFigure.ts</title>
<path fill="none" stroke="#757575" d="M504.16,-444.53C519.99,-441.58 537.23,-436.98 552,-429.82 594.46,-409.24 634.41,-370.36 656.11,-347"/>
<polygon fill="#757575" stroke="#757575" points="658.85,-349.19 662.99,-339.44 653.67,-344.48 658.85,-349.19"/>
</g>
<!-- figures/Circle.ts&#45;&gt;Calculus.ts -->
<g id="edge25" class="edge">
<title>figures/Circle.ts&#45;&gt;Calculus.ts</title>
<path fill="none" stroke="#757575" d="M511.62,-277.1C545.43,-270.76 587.93,-262.78 620.83,-256.61"/>
<polygon fill="#757575" stroke="#757575" points="621.53,-260.04 630.71,-254.76 620.23,-253.16 621.53,-260.04"/>
</g>
<!-- figures/Circle.ts&#45;&gt;pidraw.common.ts -->
<g id="edge27" class="edge">
<title>figures/Circle.ts&#45;&gt;pidraw.common.ts</title>
<path fill="none" stroke="#757575" d="M511.6,-289.27C611.48,-291.81 817.91,-297.06 929.48,-299.9"/>
<polygon fill="#757575" stroke="#757575" points="929.56,-303.4 939.64,-300.16 929.74,-296.4 929.56,-303.4"/>
</g>
<!-- figures/Circle.ts&#45;&gt;figures/AbstractFigure.ts -->
<g id="edge26" class="edge">
<title>figures/Circle.ts&#45;&gt;figures/AbstractFigure.ts</title>
<path fill="none" stroke="#757575" d="M511.62,-298.28C538.66,-303.23 571.25,-309.19 600.05,-314.47"/>
<polygon fill="#757575" stroke="#757575" points="599.59,-317.94 610.06,-316.3 600.86,-311.05 599.59,-317.94"/>
</g>
<!-- figures/CoordinateSystem.ts&#45;&gt;Calculus.ts -->
<g id="edge28" class="edge">
<title>figures/CoordinateSystem.ts&#45;&gt;Calculus.ts</title>
<path fill="none" stroke="#757575" d="M536.32,-55.43C541.84,-57.76 547.13,-60.53 552,-63.82 612.28,-104.57 649.98,-186.41 665.22,-225.32"/>
<polygon fill="#757575" stroke="#757575" points="662.11,-226.98 668.93,-235.09 668.66,-224.5 662.11,-226.98"/>
</g>
<!-- figures/CoordinateSystem.ts&#45;&gt;pidraw.common.ts -->
<g id="edge30" class="edge">
<title>figures/CoordinateSystem.ts&#45;&gt;pidraw.common.ts</title>
<path fill="none" stroke="#757575" d="M532.69,-32.29C629.88,-22.43 796.07,-20.78 904,-102.82 963.74,-148.23 990.9,-238.84 1000.58,-280.26"/>
<polygon fill="#757575" stroke="#757575" points="997.18,-281.12 1002.77,-290.12 1004.02,-279.6 997.18,-281.12"/>
</g>
<!-- figures/CoordinateSystem.ts&#45;&gt;figures/AbstractFigure.ts -->
<g id="edge29" class="edge">
<title>figures/CoordinateSystem.ts&#45;&gt;figures/AbstractFigure.ts</title>
<path fill="none" stroke="#757575" d="M541.6,-55.44C545.37,-57.83 548.87,-60.6 552,-63.82 616.2,-129.82 538.67,-190.08 588,-267.82 599.95,-286.65 620.15,-301.28 637.85,-311.37"/>
<polygon fill="#757575" stroke="#757575" points="636.37,-314.55 646.83,-316.23 639.71,-308.39 636.37,-314.55"/>
</g>
<!-- figures/Follow.ts&#45;&gt;Calculus.ts -->
<g id="edge31" class="edge">
<title>figures/Follow.ts&#45;&gt;Calculus.ts</title>
<path fill="none" stroke="#757575" d="M475.45,-356.22C514.44,-334.63 598.25,-288.21 643.15,-263.35"/>
<polygon fill="#757575" stroke="#757575" points="645.06,-266.29 652.11,-258.39 641.67,-260.17 645.06,-266.29"/>
</g>
<!-- figures/Follow.ts&#45;&gt;pidraw.common.ts -->
<g id="edge33" class="edge">
<title>figures/Follow.ts&#45;&gt;pidraw.common.ts</title>
<path fill="none" stroke="#757575" d="M513.51,-374.86C618.59,-386.53 833.67,-406.3 904,-381.82 938.54,-369.8 970.15,-340.51 988.49,-320.91"/>
<polygon fill="#757575" stroke="#757575" points="991.15,-323.18 995.29,-313.43 985.97,-318.47 991.15,-323.18"/>
</g>
<!-- figures/Follow.ts&#45;&gt;figures/AbstractFigure.ts -->
<g id="edge32" class="edge">
<title>figures/Follow.ts&#45;&gt;figures/AbstractFigure.ts</title>
<path fill="none" stroke="#757575" d="M513.63,-357C540.19,-352.13 571.81,-346.35 599.85,-341.21"/>
<polygon fill="#757575" stroke="#757575" points="600.79,-344.6 610,-339.35 599.53,-337.71 600.79,-344.6"/>
</g>
<!-- figures/Grid.ts&#45;&gt;Calculus.ts -->
<g id="edge34" class="edge">
<title>figures/Grid.ts&#45;&gt;Calculus.ts</title>
<path fill="none" stroke="#757575" d="M506.56,-246.82C540.99,-246.82 585.98,-246.82 620.5,-246.82"/>
<polygon fill="#757575" stroke="#757575" points="620.85,-250.32 630.85,-246.82 620.85,-243.32 620.85,-250.32"/>
</g>
<!-- figures/Grid.ts&#45;&gt;pidraw.common.ts -->
<g id="edge36" class="edge">
<title>figures/Grid.ts&#45;&gt;pidraw.common.ts</title>
<path fill="none" stroke="#757575" d="M506.7,-236.91C592.24,-222.88 766.47,-203.64 904,-248.82 930.64,-257.57 958.7,-272.85 978.47,-284.77"/>
<polygon fill="#757575" stroke="#757575" points="976.85,-287.88 987.2,-290.13 980.51,-281.91 976.85,-287.88"/>
</g>
<!-- figures/Grid.ts&#45;&gt;figures/AbstractFigure.ts -->
<g id="edge35" class="edge">
<title>figures/Grid.ts&#45;&gt;figures/AbstractFigure.ts</title>
<path fill="none" stroke="#757575" d="M506.52,-255.53C521.42,-258.69 537.53,-262.76 552,-267.82 585.02,-279.36 620.65,-297.83 644.63,-311.23"/>
<polygon fill="#757575" stroke="#757575" points="643.11,-314.39 653.54,-316.27 646.56,-308.3 643.11,-314.39"/>
</g>
<!-- figures/Line.ts&#45;&gt;Calculus.ts -->
<g id="edge37" class="edge">
<title>figures/Line.ts&#45;&gt;Calculus.ts</title>
<path fill="none" stroke="#757575" d="M506.51,-407.25C522.49,-404.52 539.21,-399.11 552,-388.82 582.7,-364.13 563.13,-338.37 588,-307.82 602.75,-289.71 624.12,-274.4 641.75,-263.65"/>
<polygon fill="#757575" stroke="#757575" points="643.73,-266.54 650.57,-258.45 640.18,-260.51 643.73,-266.54"/>
</g>
<!-- figures/Line.ts&#45;&gt;pidraw.common.ts -->
<g id="edge39" class="edge">
<title>figures/Line.ts&#45;&gt;pidraw.common.ts</title>
<path fill="none" stroke="#757575" d="M506.56,-419.87C593.01,-435.65 769.91,-456.97 904,-400.82 942.76,-384.59 974.83,-345.82 991.84,-321.89"/>
<polygon fill="#757575" stroke="#757575" points="994.81,-323.75 997.6,-313.53 989.05,-319.78 994.81,-323.75"/>
</g>
<!-- figures/Line.ts&#45;&gt;figures/AbstractFigure.ts -->
<g id="edge38" class="edge">
<title>figures/Line.ts&#45;&gt;figures/AbstractFigure.ts</title>
<path fill="none" stroke="#757575" d="M506.55,-400.79C521.45,-397.78 537.56,-393.84 552,-388.82 585.35,-377.22 621.18,-358.26 645.12,-344.55"/>
<polygon fill="#757575" stroke="#757575" points="647.11,-347.45 654,-339.4 643.59,-341.39 647.11,-347.45"/>
</g>
<!-- figures/Parametric.ts&#45;&gt;Calculus.ts -->
<g id="edge40" class="edge">
<title>figures/Parametric.ts&#45;&gt;Calculus.ts</title>
<path fill="none" stroke="#757575" d="M515.95,-217.35C548.98,-223.55 589.27,-231.11 620.77,-237.02"/>
<polygon fill="#757575" stroke="#757575" points="620.2,-240.47 630.67,-238.88 621.49,-233.59 620.2,-240.47"/>
</g>
<!-- figures/Parametric.ts&#45;&gt;pidraw.common.ts -->
<g id="edge42" class="edge">
<title>figures/Parametric.ts&#45;&gt;pidraw.common.ts</title>
<path fill="none" stroke="#757575" d="M527.26,-194.75C618.47,-183.9 778.1,-175.04 904,-221.82 938.09,-234.49 969.62,-263.34 988.09,-282.7"/>
<polygon fill="#757575" stroke="#757575" points="985.59,-285.15 994.95,-290.1 990.72,-280.39 985.59,-285.15"/>
</g>
<!-- figures/Parametric.ts&#45;&gt;figures/AbstractFigure.ts -->
<g id="edge41" class="edge">
<title>figures/Parametric.ts&#45;&gt;figures/AbstractFigure.ts</title>
<path fill="none" stroke="#757575" d="M527.03,-215.96C535.77,-218.75 544.31,-222.3 552,-226.82 572.91,-239.1 569.97,-251.6 588,-267.82 605.84,-283.87 628.06,-299.42 645.3,-310.66"/>
<polygon fill="#757575" stroke="#757575" points="643.51,-313.67 653.81,-316.13 647.29,-307.78 643.51,-313.67"/>
</g>
<!-- figures/Plot.ts&#45;&gt;Calculus.ts -->
<g id="edge43" class="edge">
<title>figures/Plot.ts&#45;&gt;Calculus.ts</title>
<path fill="none" stroke="#757575" d="M505.53,-173.26C520.71,-176.45 537.22,-180.6 552,-185.82 585.29,-197.58 621.13,-216.52 645.1,-230.17"/>
<polygon fill="#757575" stroke="#757575" points="643.57,-233.33 653.98,-235.3 647.07,-227.27 643.57,-233.33"/>
</g>
<!-- figures/Plot.ts&#45;&gt;pidraw.common.ts -->
<g id="edge45" class="edge">
<title>figures/Plot.ts&#45;&gt;pidraw.common.ts</title>
<path fill="none" stroke="#757575" d="M505.81,-155.88C592.67,-143.27 772.1,-128.32 904,-191.82 944.78,-211.45 976.91,-255.46 993.22,-281.47"/>
<polygon fill="#757575" stroke="#757575" points="990.32,-283.43 998.5,-290.16 996.3,-279.79 990.32,-283.43"/>
</g>
<!-- figures/Plot.ts&#45;&gt;figures/AbstractFigure.ts -->
<g id="edge44" class="edge">
<title>figures/Plot.ts&#45;&gt;figures/AbstractFigure.ts</title>
<path fill="none" stroke="#757575" d="M505.56,-166.77C521.84,-169.61 538.99,-175.2 552,-185.82 582.83,-210.99 562.82,-236.99 588,-267.82 602.6,-285.69 623.79,-300.66 641.36,-311.18"/>
<polygon fill="#757575" stroke="#757575" points="639.76,-314.3 650.17,-316.27 643.26,-308.24 639.76,-314.3"/>
</g>
<!-- figures/Point.ts&#45;&gt;pidraw.common.ts -->
<g id="edge48" class="edge">
<title>figures/Point.ts&#45;&gt;pidraw.common.ts</title>
<path fill="none" stroke="#757575" d="M302.34,-540.32C409.75,-570.45 720.58,-639.87 904,-496.82 961.83,-451.72 989.78,-364.29 1000.1,-323.62"/>
<polygon fill="#757575" stroke="#757575" points="1003.56,-324.22 1002.5,-313.68 996.75,-322.57 1003.56,-324.22"/>
</g>
<!-- figures/Point.ts&#45;&gt;figures/AbstractFigure.ts -->
<g id="edge46" class="edge">
<title>figures/Point.ts&#45;&gt;figures/AbstractFigure.ts</title>
<path fill="none" stroke="#757575" d="M319.2,-539.35C380.29,-548.16 480.03,-553.42 552,-511.82 615.81,-474.94 652.13,-389.27 666.18,-349.2"/>
<polygon fill="#757575" stroke="#757575" points="669.53,-350.21 669.42,-339.62 662.9,-347.97 669.53,-350.21"/>
</g>
<!-- figures/Point.ts&#45;&gt;figures/Line.ts -->
<g id="edge47" class="edge">
<title>figures/Point.ts&#45;&gt;figures/Line.ts</title>
<path fill="none" stroke="#757575" d="M271.58,-517.2C285.04,-496.17 316.43,-451.97 355,-429.82 365.84,-423.6 378.32,-419.21 390.66,-416.13"/>
<polygon fill="#757575" stroke="#757575" points="391.49,-419.52 400.48,-413.92 389.96,-412.69 391.49,-419.52"/>
</g>
<!-- figures/Polygon.ts&#45;&gt;Calculus.ts -->
<g id="edge49" class="edge">
<title>figures/Polygon.ts&#45;&gt;Calculus.ts</title>
<path fill="none" stroke="#757575" d="M519.12,-96.34C530.57,-99.95 542.01,-104.66 552,-110.82 600.8,-140.89 641.19,-196.61 660.59,-226.55"/>
<polygon fill="#757575" stroke="#757575" points="657.82,-228.73 666.13,-235.3 663.74,-224.98 657.82,-228.73"/>
</g>
<!-- figures/Polygon.ts&#45;&gt;pidraw.common.ts -->
<g id="edge51" class="edge">
<title>figures/Polygon.ts&#45;&gt;pidraw.common.ts</title>
<path fill="none" stroke="#757575" d="M519.21,-79.14C611.87,-74.23 784.33,-77.36 904,-152.82 952.66,-183.5 983.56,-247.1 997.09,-280.41"/>
<polygon fill="#757575" stroke="#757575" points="993.97,-282.04 1000.87,-290.08 1000.49,-279.5 993.97,-282.04"/>
</g>
<!-- figures/Polygon.ts&#45;&gt;figures/AbstractFigure.ts -->
<g id="edge50" class="edge">
<title>figures/Polygon.ts&#45;&gt;figures/AbstractFigure.ts</title>
<path fill="none" stroke="#757575" d="M484.64,-96.36C506.35,-106.15 534.76,-122.23 552,-144.82 586.56,-190.1 554.88,-221.48 588,-267.82 601.15,-286.22 621.76,-300.97 639.39,-311.24"/>
<polygon fill="#757575" stroke="#757575" points="637.85,-314.39 648.29,-316.2 641.26,-308.27 637.85,-314.39"/>
</g>
<!-- labels/Label.ts&#45;&gt;pidraw.common.ts -->
<g id="edge54" class="edge">
<title>labels/Label.ts&#45;&gt;pidraw.common.ts</title>
<path fill="none" stroke="#757575" d="M881.06,-349.3C905.04,-340.12 938.85,-327.16 965.1,-317.11"/>
<polygon fill="#757575" stroke="#757575" points="966.67,-320.25 974.75,-313.41 964.16,-313.72 966.67,-320.25"/>
</g>
<!-- index.ts -->
<g id="node17" class="node">
<title>index.ts</title>
<path fill="none" stroke="#c6c5fe" d="M57.33,-157.32C57.33,-157.32 7.67,-157.32 7.67,-157.32 3.83,-157.32 0,-153.49 0,-149.65 0,-149.65 0,-141.99 0,-141.99 0,-138.15 3.83,-134.32 7.67,-134.32 7.67,-134.32 57.33,-134.32 57.33,-134.32 61.17,-134.32 65,-138.15 65,-141.99 65,-141.99 65,-149.65 65,-149.65 65,-153.49 61.17,-157.32 57.33,-157.32"/>
<text text-anchor="middle" x="32.5" y="-142.12" font-family="Arial" font-size="14.00" fill="#c6c5fe">index.ts</text>
</g>
<!-- index.ts&#45;&gt;pidraw.common.ts -->
<g id="edge53" class="edge">
<title>index.ts&#45;&gt;pidraw.common.ts</title>
<path fill="none" stroke="#757575" d="M43.09,-134.2C72.23,-100.29 163.79,-3.82 262.5,-3.82 262.5,-3.82 262.5,-3.82 675,-3.82 778.72,-3.82 824.17,17.4 904,-48.82 977.11,-109.47 997.67,-230.69 1003.14,-280.1"/>
<polygon fill="#757575" stroke="#757575" points="999.68,-280.68 1004.16,-290.28 1006.64,-279.98 999.68,-280.68"/>
</g>
<!-- index.ts&#45;&gt;Graph.ts -->
<g id="edge52" class="edge">
<title>index.ts&#45;&gt;Graph.ts</title>
<path fill="none" stroke="#757575" d="M40.84,-157.54C58.04,-185.03 101.15,-253.93 122.75,-288.44"/>
<polygon fill="#757575" stroke="#757575" points="119.96,-290.58 128.23,-297.2 125.89,-286.87 119.96,-290.58"/>
</g>
</g>
</svg>
