<?xml version="1.0" encoding="UTF-8" standalone="no"?>
<!DOCTYPE svg PUBLIC "-//W3C//DTD SVG 1.1//EN"
 "http://www.w3.org/Graphics/SVG/1.1/DTD/svg11.dtd">
<!-- Generated by graphviz version 3.0.0 (20220226.1711)
 -->
<!-- Title: G Pages: 1 -->
<svg width="1572pt" height="1741pt"
 viewBox="0.00 0.00 1572.20 1740.76" xmlns="http://www.w3.org/2000/svg" xmlns:xlink="http://www.w3.org/1999/xlink">
<g id="graph0" class="graph" transform="scale(1 1) rotate(0) translate(21.6 1719.16)">
<title>G</title>
<polygon fill="#111111" stroke="transparent" points="-21.6,21.6 -21.6,-1719.16 1550.6,-1719.16 1550.6,21.6 -21.6,21.6"/>
<!-- Calculus.ts -->
<g id="node1" class="node">
<title>Calculus.ts</title>
<path fill="none" stroke="#c6c5fe" d="M1342.33,-710.06C1342.33,-710.06 1271.67,-710.06 1271.67,-710.06 1267.83,-710.06 1264,-706.22 1264,-702.39 1264,-702.39 1264,-694.72 1264,-694.72 1264,-690.89 1267.83,-687.06 1271.67,-687.06 1271.67,-687.06 1342.33,-687.06 1342.33,-687.06 1346.17,-687.06 1350,-690.89 1350,-694.72 1350,-694.72 1350,-702.39 1350,-702.39 1350,-706.22 1346.17,-710.06 1342.33,-710.06"/>
<text text-anchor="middle" x="1307" y="-694.86" font-family="Arial" font-size="14.00" fill="#c6c5fe">Calculus.ts</text>
</g>
<!-- pidraw.common.ts -->
<g id="node2" class="node">
<title>pidraw.common.ts</title>
<path fill="none" stroke="#cfffac" d="M1521.33,-805.06C1521.33,-805.06 1404.67,-805.06 1404.67,-805.06 1400.83,-805.06 1397,-801.22 1397,-797.39 1397,-797.39 1397,-789.72 1397,-789.72 1397,-785.89 1400.83,-782.06 1404.67,-782.06 1404.67,-782.06 1521.33,-782.06 1521.33,-782.06 1525.17,-782.06 1529,-785.89 1529,-789.72 1529,-789.72 1529,-797.39 1529,-797.39 1529,-801.22 1525.17,-805.06 1521.33,-805.06"/>
<text text-anchor="middle" x="1463" y="-789.86" font-family="Arial" font-size="14.00" fill="#cfffac">pidraw.common.ts</text>
</g>
<!-- Calculus.ts&#45;&gt;pidraw.common.ts -->
<g id="edge1" class="edge">
<title>Calculus.ts&#45;&gt;pidraw.common.ts</title>
<path fill="none" stroke="#757575" d="M1326.88,-710.2C1353.78,-726.8 1403.31,-757.35 1434.35,-776.5"/>
<polygon fill="#757575" stroke="#757575" points="1432.61,-779.54 1442.96,-781.81 1436.29,-773.58 1432.61,-779.54"/>
</g>
<!-- Graph.ts -->
<g id="node3" class="node">
<title>Graph.ts</title>
<path fill="none" stroke="#c6c5fe" d="M512.83,-616.06C512.83,-616.06 457.17,-616.06 457.17,-616.06 453.33,-616.06 449.5,-612.22 449.5,-608.39 449.5,-608.39 449.5,-600.72 449.5,-600.72 449.5,-596.89 453.33,-593.06 457.17,-593.06 457.17,-593.06 512.83,-593.06 512.83,-593.06 516.67,-593.06 520.5,-596.89 520.5,-600.72 520.5,-600.72 520.5,-608.39 520.5,-608.39 520.5,-612.22 516.67,-616.06 512.83,-616.06"/>
<text text-anchor="middle" x="485" y="-600.86" font-family="Arial" font-size="14.00" fill="#c6c5fe">Graph.ts</text>
</g>
<!-- Graph.ts&#45;&gt;Calculus.ts -->
<g id="edge2" class="edge">
<title>Graph.ts&#45;&gt;Calculus.ts</title>
<path fill="none" stroke="#757575" d="M487.64,-592.83C493.82,-553.83 519.54,-428.09 600,-378.56 677.53,-330.83 919.05,-388.45 1009,-402.56 1020.67,-404.39 1208.12,-438.77 1217,-446.56 1286.91,-507.86 1301.91,-627.6 1305.12,-676.73"/>
<polygon fill="#757575" stroke="#757575" points="1301.64,-677.07 1305.68,-686.86 1308.62,-676.68 1301.64,-677.07"/>
</g>
<!-- Graph.ts&#45;&gt;pidraw.common.ts -->
<g id="edge16" class="edge">
<title>Graph.ts&#45;&gt;pidraw.common.ts</title>
<path fill="none" stroke="#757575" d="M486.58,-592.87C489.57,-544.59 506.92,-358.1 600,-248.56 700.01,-130.86 755.06,-90.56 909.5,-90.56 909.5,-90.56 909.5,-90.56 1132,-90.56 1238.69,-90.56 1291.26,-81.82 1361,-162.56 1442.44,-256.84 1458.72,-671.36 1461.49,-771.65"/>
<polygon fill="#757575" stroke="#757575" points="1458,-771.9 1461.75,-781.81 1464.99,-771.72 1458,-771.9"/>
</g>
<!-- figures/AbstractFigure.ts -->
<g id="node4" class="node">
<title>figures/AbstractFigure.ts</title>
<path fill="none" stroke="#c6c5fe" d="M1209.33,-970.06C1209.33,-970.06 1052.67,-970.06 1052.67,-970.06 1048.83,-970.06 1045,-966.22 1045,-962.39 1045,-962.39 1045,-954.72 1045,-954.72 1045,-950.89 1048.83,-947.06 1052.67,-947.06 1052.67,-947.06 1209.33,-947.06 1209.33,-947.06 1213.17,-947.06 1217,-950.89 1217,-954.72 1217,-954.72 1217,-962.39 1217,-962.39 1217,-966.22 1213.17,-970.06 1209.33,-970.06"/>
<text text-anchor="middle" x="1131" y="-954.86" font-family="Arial" font-size="14.00" fill="#c6c5fe">figures/AbstractFigure.ts</text>
</g>
<!-- Graph.ts&#45;&gt;figures/AbstractFigure.ts -->
<g id="edge3" class="edge">
<title>Graph.ts&#45;&gt;figures/AbstractFigure.ts</title>
<path fill="none" stroke="#757575" d="M520.76,-607.02C535.59,-609.68 552.18,-615 564,-625.56 596.45,-654.51 566.83,-688.42 600,-716.56 661.03,-768.31 718.94,-698.45 776,-754.56 826.12,-803.83 760.5,-860.72 812,-908.56 820.25,-916.22 944.21,-934.06 1034.88,-946.22"/>
<polygon fill="#757575" stroke="#757575" points="1034.55,-949.71 1044.93,-947.56 1035.48,-942.77 1034.55,-949.71"/>
</g>
<!-- figures/Arc.ts -->
<g id="node5" class="node">
<title>figures/Arc.ts</title>
<path fill="none" stroke="#c6c5fe" d="M953.33,-708.06C953.33,-708.06 867.67,-708.06 867.67,-708.06 863.83,-708.06 860,-704.22 860,-700.39 860,-700.39 860,-692.72 860,-692.72 860,-688.89 863.83,-685.06 867.67,-685.06 867.67,-685.06 953.33,-685.06 953.33,-685.06 957.17,-685.06 961,-688.89 961,-692.72 961,-692.72 961,-700.39 961,-700.39 961,-704.22 957.17,-708.06 953.33,-708.06"/>
<text text-anchor="middle" x="910.5" y="-692.86" font-family="Arial" font-size="14.00" fill="#c6c5fe">figures/Arc.ts</text>
</g>
<!-- Graph.ts&#45;&gt;figures/Arc.ts -->
<g id="edge4" class="edge">
<title>Graph.ts&#45;&gt;figures/Arc.ts</title>
<path fill="none" stroke="#757575" d="M520.77,-611.98C534.48,-615.41 550.22,-619.97 564,-625.56 580.96,-632.43 582.72,-639.53 600,-645.56 683.79,-674.74 786.29,-687.44 849.75,-692.81"/>
<polygon fill="#757575" stroke="#757575" points="849.72,-696.32 859.97,-693.64 850.29,-689.34 849.72,-696.32"/>
</g>
<!-- figures/Circle.ts -->
<g id="node6" class="node">
<title>figures/Circle.ts</title>
<path fill="none" stroke="#c6c5fe" d="M960.83,-864.06C960.83,-864.06 860.17,-864.06 860.17,-864.06 856.33,-864.06 852.5,-860.22 852.5,-856.39 852.5,-856.39 852.5,-848.72 852.5,-848.72 852.5,-844.89 856.33,-841.06 860.17,-841.06 860.17,-841.06 960.83,-841.06 960.83,-841.06 964.67,-841.06 968.5,-844.89 968.5,-848.72 968.5,-848.72 968.5,-856.39 968.5,-856.39 968.5,-860.22 964.67,-864.06 960.83,-864.06"/>
<text text-anchor="middle" x="910.5" y="-848.86" font-family="Arial" font-size="14.00" fill="#c6c5fe">figures/Circle.ts</text>
</g>
<!-- Graph.ts&#45;&gt;figures/Circle.ts -->
<g id="edge5" class="edge">
<title>Graph.ts&#45;&gt;figures/Circle.ts</title>
<path fill="none" stroke="#757575" d="M520.52,-608.45C534.97,-611.38 551.32,-616.53 564,-625.56 587.2,-642.07 576.83,-662.01 600,-678.56 665.98,-725.68 716.44,-671.54 776,-726.56 810.7,-758.61 777.21,-794.6 812,-826.56 820.58,-834.44 831.29,-839.98 842.43,-843.86"/>
<polygon fill="#757575" stroke="#757575" points="841.71,-847.3 852.3,-846.87 843.75,-840.61 841.71,-847.3"/>
</g>
<!-- figures/CoordinateSystem.ts -->
<g id="node7" class="node">
<title>figures/CoordinateSystem.ts</title>
<path fill="none" stroke="#c6c5fe" d="M1001.33,-343.06C1001.33,-343.06 819.67,-343.06 819.67,-343.06 815.83,-343.06 812,-339.22 812,-335.39 812,-335.39 812,-327.72 812,-327.72 812,-323.89 815.83,-320.06 819.67,-320.06 819.67,-320.06 1001.33,-320.06 1001.33,-320.06 1005.17,-320.06 1009,-323.89 1009,-327.72 1009,-327.72 1009,-335.39 1009,-335.39 1009,-339.22 1005.17,-343.06 1001.33,-343.06"/>
<text text-anchor="middle" x="910.5" y="-327.86" font-family="Arial" font-size="14.00" fill="#c6c5fe">figures/CoordinateSystem.ts</text>
</g>
<!-- Graph.ts&#45;&gt;figures/CoordinateSystem.ts -->
<g id="edge6" class="edge">
<title>Graph.ts&#45;&gt;figures/CoordinateSystem.ts</title>
<path fill="none" stroke="#757575" d="M486.68,-592.86C489.9,-549.38 507.65,-396.45 600,-334.56 679.44,-281.31 798.02,-300.65 862.92,-317.38"/>
<polygon fill="#757575" stroke="#757575" points="862.29,-320.84 872.86,-320.04 864.1,-314.08 862.29,-320.84"/>
</g>
<!-- figures/FillBetween.ts -->
<g id="node8" class="node">
<title>figures/FillBetween.ts</title>
<path fill="none" stroke="#c6c5fe" d="M756.33,-636.06C756.33,-636.06 619.67,-636.06 619.67,-636.06 615.83,-636.06 612,-632.22 612,-628.39 612,-628.39 612,-620.72 612,-620.72 612,-616.89 615.83,-613.06 619.67,-613.06 619.67,-613.06 756.33,-613.06 756.33,-613.06 760.17,-613.06 764,-616.89 764,-620.72 764,-620.72 764,-628.39 764,-628.39 764,-632.22 760.17,-636.06 756.33,-636.06"/>
<text text-anchor="middle" x="688" y="-620.86" font-family="Arial" font-size="14.00" fill="#c6c5fe">figures/FillBetween.ts</text>
</g>
<!-- Graph.ts&#45;&gt;figures/FillBetween.ts -->
<g id="edge7" class="edge">
<title>Graph.ts&#45;&gt;figures/FillBetween.ts</title>
<path fill="none" stroke="#757575" d="M520.55,-607.99C542.94,-610.22 573.15,-613.23 601.69,-616.07"/>
<polygon fill="#757575" stroke="#757575" points="601.4,-619.55 611.7,-617.06 602.09,-612.59 601.4,-619.55"/>
</g>
<!-- figures/Follow.ts -->
<g id="node9" class="node">
<title>figures/Follow.ts</title>
<path fill="none" stroke="#c6c5fe" d="M740.33,-556.06C740.33,-556.06 635.67,-556.06 635.67,-556.06 631.83,-556.06 628,-552.22 628,-548.39 628,-548.39 628,-540.72 628,-540.72 628,-536.89 631.83,-533.06 635.67,-533.06 635.67,-533.06 740.33,-533.06 740.33,-533.06 744.17,-533.06 748,-536.89 748,-540.72 748,-540.72 748,-548.39 748,-548.39 748,-552.22 744.17,-556.06 740.33,-556.06"/>
<text text-anchor="middle" x="688" y="-540.86" font-family="Arial" font-size="14.00" fill="#c6c5fe">figures/Follow.ts</text>
</g>
<!-- Graph.ts&#45;&gt;figures/Follow.ts -->
<g id="edge8" class="edge">
<title>Graph.ts&#45;&gt;figures/Follow.ts</title>
<path fill="none" stroke="#757575" d="M520.55,-594.24C553.08,-584.53 602.1,-569.9 638.53,-559.02"/>
<polygon fill="#757575" stroke="#757575" points="639.86,-562.28 648.44,-556.06 637.86,-555.57 639.86,-562.28"/>
</g>
<!-- figures/Grid.ts -->
<g id="node10" class="node">
<title>figures/Grid.ts</title>
<path fill="none" stroke="#c6c5fe" d="M955.83,-288.06C955.83,-288.06 865.17,-288.06 865.17,-288.06 861.33,-288.06 857.5,-284.22 857.5,-280.39 857.5,-280.39 857.5,-272.72 857.5,-272.72 857.5,-268.89 861.33,-265.06 865.17,-265.06 865.17,-265.06 955.83,-265.06 955.83,-265.06 959.67,-265.06 963.5,-268.89 963.5,-272.72 963.5,-272.72 963.5,-280.39 963.5,-280.39 963.5,-284.22 959.67,-288.06 955.83,-288.06"/>
<text text-anchor="middle" x="910.5" y="-272.86" font-family="Arial" font-size="14.00" fill="#c6c5fe">figures/Grid.ts</text>
</g>
<!-- Graph.ts&#45;&gt;figures/Grid.ts -->
<g id="edge9" class="edge">
<title>Graph.ts&#45;&gt;figures/Grid.ts</title>
<path fill="none" stroke="#757575" d="M486.12,-593.04C487.31,-546.46 498.59,-370.95 600,-295.56 673.45,-240.94 785.86,-250.49 853.07,-263.06"/>
<polygon fill="#757575" stroke="#757575" points="852.57,-266.53 863.06,-265.02 853.91,-259.66 852.57,-266.53"/>
</g>
<!-- figures/Line.ts -->
<g id="node11" class="node">
<title>figures/Line.ts</title>
<path fill="none" stroke="#c6c5fe" d="M955.83,-1289.06C955.83,-1289.06 865.17,-1289.06 865.17,-1289.06 861.33,-1289.06 857.5,-1285.22 857.5,-1281.39 857.5,-1281.39 857.5,-1273.72 857.5,-1273.72 857.5,-1269.89 861.33,-1266.06 865.17,-1266.06 865.17,-1266.06 955.83,-1266.06 955.83,-1266.06 959.67,-1266.06 963.5,-1269.89 963.5,-1273.72 963.5,-1273.72 963.5,-1281.39 963.5,-1281.39 963.5,-1285.22 959.67,-1289.06 955.83,-1289.06"/>
<text text-anchor="middle" x="910.5" y="-1273.86" font-family="Arial" font-size="14.00" fill="#c6c5fe">figures/Line.ts</text>
</g>
<!-- Graph.ts&#45;&gt;figures/Line.ts -->
<g id="edge10" class="edge">
<title>Graph.ts&#45;&gt;figures/Line.ts</title>
<path fill="none" stroke="#757575" d="M520.89,-605.51C536.31,-607.82 553.32,-613.28 564,-625.56 648.95,-723.22 545.08,-797.35 600,-914.56 648.56,-1018.2 722.1,-1001.58 776,-1102.56 809.3,-1164.95 761.35,-1208.2 812,-1257.56 821.57,-1266.88 834.24,-1272.39 847.28,-1275.55"/>
<polygon fill="#757575" stroke="#757575" points="846.79,-1279.02 857.28,-1277.53 848.15,-1272.15 846.79,-1279.02"/>
</g>
<!-- figures/Parametric.ts -->
<g id="node12" class="node">
<title>figures/Parametric.ts</title>
<path fill="none" stroke="#c6c5fe" d="M976.33,-434.06C976.33,-434.06 844.67,-434.06 844.67,-434.06 840.83,-434.06 837,-430.22 837,-426.39 837,-426.39 837,-418.72 837,-418.72 837,-414.89 840.83,-411.06 844.67,-411.06 844.67,-411.06 976.33,-411.06 976.33,-411.06 980.17,-411.06 984,-414.89 984,-418.72 984,-418.72 984,-426.39 984,-426.39 984,-430.22 980.17,-434.06 976.33,-434.06"/>
<text text-anchor="middle" x="910.5" y="-418.86" font-family="Arial" font-size="14.00" fill="#c6c5fe">figures/Parametric.ts</text>
</g>
<!-- Graph.ts&#45;&gt;figures/Parametric.ts -->
<g id="edge11" class="edge">
<title>Graph.ts&#45;&gt;figures/Parametric.ts</title>
<path fill="none" stroke="#757575" d="M488.58,-592.98C497.11,-557.74 528.12,-451.69 600,-410.56 684.84,-362.01 805.24,-388.45 867.93,-407.87"/>
<polygon fill="#757575" stroke="#757575" points="866.89,-411.21 877.48,-410.91 869.01,-404.54 866.89,-411.21"/>
</g>
<!-- figures/Plot.ts -->
<g id="node13" class="node">
<title>figures/Plot.ts</title>
<path fill="none" stroke="#c6c5fe" d="M954.83,-590.06C954.83,-590.06 866.17,-590.06 866.17,-590.06 862.33,-590.06 858.5,-586.22 858.5,-582.39 858.5,-582.39 858.5,-574.72 858.5,-574.72 858.5,-570.89 862.33,-567.06 866.17,-567.06 866.17,-567.06 954.83,-567.06 954.83,-567.06 958.67,-567.06 962.5,-570.89 962.5,-574.72 962.5,-574.72 962.5,-582.39 962.5,-582.39 962.5,-586.22 958.67,-590.06 954.83,-590.06"/>
<text text-anchor="middle" x="910.5" y="-574.86" font-family="Arial" font-size="14.00" fill="#c6c5fe">figures/Plot.ts</text>
</g>
<!-- Graph.ts&#45;&gt;figures/Plot.ts -->
<g id="edge12" class="edge">
<title>Graph.ts&#45;&gt;figures/Plot.ts</title>
<path fill="none" stroke="#757575" d="M497.29,-592.92C516.37,-574.19 557.12,-538.1 600,-524.56 674.59,-500.99 702.01,-499.17 776,-524.56 795.17,-531.13 793.84,-543.54 812,-552.56 823.39,-558.21 836.16,-562.75 848.61,-566.35"/>
<polygon fill="#757575" stroke="#757575" points="847.93,-569.79 858.5,-569.04 849.77,-563.04 847.93,-569.79"/>
</g>
<!-- figures/Point.ts -->
<g id="node14" class="node">
<title>figures/Point.ts</title>
<path fill="none" stroke="#c6c5fe" d="M735.83,-1134.06C735.83,-1134.06 640.17,-1134.06 640.17,-1134.06 636.33,-1134.06 632.5,-1130.22 632.5,-1126.39 632.5,-1126.39 632.5,-1118.72 632.5,-1118.72 632.5,-1114.89 636.33,-1111.06 640.17,-1111.06 640.17,-1111.06 735.83,-1111.06 735.83,-1111.06 739.67,-1111.06 743.5,-1114.89 743.5,-1118.72 743.5,-1118.72 743.5,-1126.39 743.5,-1126.39 743.5,-1130.22 739.67,-1134.06 735.83,-1134.06"/>
<text text-anchor="middle" x="688" y="-1118.86" font-family="Arial" font-size="14.00" fill="#c6c5fe">figures/Point.ts</text>
</g>
<!-- Graph.ts&#45;&gt;figures/Point.ts -->
<g id="edge13" class="edge">
<title>Graph.ts&#45;&gt;figures/Point.ts</title>
<path fill="none" stroke="#757575" d="M520.75,-605.23C536.34,-607.45 553.53,-612.92 564,-625.56 630.98,-706.38 534.13,-1014.82 600,-1096.56 606.02,-1104.03 614.1,-1109.41 622.91,-1113.29"/>
<polygon fill="#757575" stroke="#757575" points="621.71,-1116.58 632.3,-1116.8 624.16,-1110.02 621.71,-1116.58"/>
</g>
<!-- figures/Polygon.ts -->
<g id="node15" class="node">
<title>figures/Polygon.ts</title>
<path fill="none" stroke="#c6c5fe" d="M968.33,-1248.06C968.33,-1248.06 852.67,-1248.06 852.67,-1248.06 848.83,-1248.06 845,-1244.22 845,-1240.39 845,-1240.39 845,-1232.72 845,-1232.72 845,-1228.89 848.83,-1225.06 852.67,-1225.06 852.67,-1225.06 968.33,-1225.06 968.33,-1225.06 972.17,-1225.06 976,-1228.89 976,-1232.72 976,-1232.72 976,-1240.39 976,-1240.39 976,-1244.22 972.17,-1248.06 968.33,-1248.06"/>
<text text-anchor="middle" x="910.5" y="-1232.86" font-family="Arial" font-size="14.00" fill="#c6c5fe">figures/Polygon.ts</text>
</g>
<!-- Graph.ts&#45;&gt;figures/Polygon.ts -->
<g id="edge14" class="edge">
<title>Graph.ts&#45;&gt;figures/Polygon.ts</title>
<path fill="none" stroke="#757575" d="M520.89,-606.38C535.93,-608.91 552.64,-614.3 564,-625.56 606.28,-667.45 575.65,-700.24 600,-754.56 686.85,-948.26 844.05,-1154.05 893.9,-1217.1"/>
<polygon fill="#757575" stroke="#757575" points="891.24,-1219.38 900.2,-1225.03 896.72,-1215.02 891.24,-1219.38"/>
</g>
<!-- figures/Riemann.ts -->
<g id="node16" class="node">
<title>figures/Riemann.ts</title>
<path fill="none" stroke="#c6c5fe" d="M747.83,-476.06C747.83,-476.06 628.17,-476.06 628.17,-476.06 624.33,-476.06 620.5,-472.22 620.5,-468.39 620.5,-468.39 620.5,-460.72 620.5,-460.72 620.5,-456.89 624.33,-453.06 628.17,-453.06 628.17,-453.06 747.83,-453.06 747.83,-453.06 751.67,-453.06 755.5,-456.89 755.5,-460.72 755.5,-460.72 755.5,-468.39 755.5,-468.39 755.5,-472.22 751.67,-476.06 747.83,-476.06"/>
<text text-anchor="middle" x="688" y="-460.86" font-family="Arial" font-size="14.00" fill="#c6c5fe">figures/Riemann.ts</text>
</g>
<!-- Graph.ts&#45;&gt;figures/Riemann.ts -->
<g id="edge15" class="edge">
<title>Graph.ts&#45;&gt;figures/Riemann.ts</title>
<path fill="none" stroke="#757575" d="M494.35,-592.98C511.52,-570.03 553.13,-518.52 600,-490.56 607.3,-486.2 615.38,-482.53 623.59,-479.44"/>
<polygon fill="#757575" stroke="#757575" points="624.96,-482.67 633.25,-476.08 622.66,-476.06 624.96,-482.67"/>
</g>
<!-- figures/AbstractFigure.ts&#45;&gt;Calculus.ts -->
<g id="edge24" class="edge">
<title>figures/AbstractFigure.ts&#45;&gt;Calculus.ts</title>
<path fill="none" stroke="#757575" d="M1144.29,-946.9C1161.8,-929.88 1194.32,-896.75 1217,-864.56 1251.32,-815.83 1281.89,-752.33 1296.65,-719.8"/>
<polygon fill="#757575" stroke="#757575" points="1299.97,-720.95 1300.87,-710.39 1293.58,-718.08 1299.97,-720.95"/>
</g>
<!-- figures/AbstractFigure.ts&#45;&gt;pidraw.common.ts -->
<g id="edge26" class="edge">
<title>figures/AbstractFigure.ts&#45;&gt;pidraw.common.ts</title>
<path fill="none" stroke="#757575" d="M1217.25,-949.72C1262.38,-942.17 1317.34,-928.23 1361,-902.56 1399.25,-880.06 1431.7,-838.58 1448.87,-813.78"/>
<polygon fill="#757575" stroke="#757575" points="1451.99,-815.42 1454.69,-805.17 1446.19,-811.5 1451.99,-815.42"/>
</g>
<!-- labels/Label.ts -->
<g id="node18" class="node">
<title>labels/Label.ts</title>
<path fill="none" stroke="#c6c5fe" d="M1353.33,-1248.06C1353.33,-1248.06 1260.67,-1248.06 1260.67,-1248.06 1256.83,-1248.06 1253,-1244.22 1253,-1240.39 1253,-1240.39 1253,-1232.72 1253,-1232.72 1253,-1228.89 1256.83,-1225.06 1260.67,-1225.06 1260.67,-1225.06 1353.33,-1225.06 1353.33,-1225.06 1357.17,-1225.06 1361,-1228.89 1361,-1232.72 1361,-1232.72 1361,-1240.39 1361,-1240.39 1361,-1244.22 1357.17,-1248.06 1353.33,-1248.06"/>
<text text-anchor="middle" x="1307" y="-1232.86" font-family="Arial" font-size="14.00" fill="#c6c5fe">labels/Label.ts</text>
</g>
<!-- figures/AbstractFigure.ts&#45;&gt;labels/Label.ts -->
<g id="edge25" class="edge">
<title>figures/AbstractFigure.ts&#45;&gt;labels/Label.ts</title>
<path fill="none" stroke="#757575" d="M1139.26,-970.15C1165.95,-1012.8 1258.95,-1161.39 1293.21,-1216.11"/>
<polygon fill="#757575" stroke="#757575" points="1290.44,-1218.29 1298.71,-1224.91 1296.38,-1214.58 1290.44,-1218.29"/>
</g>
<!-- figures/Arc.ts&#45;&gt;Calculus.ts -->
<g id="edge27" class="edge">
<title>figures/Arc.ts&#45;&gt;Calculus.ts</title>
<path fill="none" stroke="#757575" d="M961.06,-696.81C1035.87,-697.19 1177,-697.9 1253.5,-698.29"/>
<polygon fill="#757575" stroke="#757575" points="1253.83,-701.79 1263.85,-698.34 1253.87,-694.79 1253.83,-701.79"/>
</g>
<!-- figures/Arc.ts&#45;&gt;pidraw.common.ts -->
<g id="edge29" class="edge">
<title>figures/Arc.ts&#45;&gt;pidraw.common.ts</title>
<path fill="none" stroke="#757575" d="M961.32,-705.33C1058.18,-722.4 1272.36,-760.14 1386.67,-780.28"/>
<polygon fill="#757575" stroke="#757575" points="1386.29,-783.77 1396.74,-782.06 1387.5,-776.87 1386.29,-783.77"/>
</g>
<!-- figures/Arc.ts&#45;&gt;figures/AbstractFigure.ts -->
<g id="edge28" class="edge">
<title>figures/Arc.ts&#45;&gt;figures/AbstractFigure.ts</title>
<path fill="none" stroke="#757575" d="M923.37,-708.08C942.2,-726.55 979.78,-764.23 1009,-798.56 1050.3,-847.07 1094.36,-907.96 1116.15,-938.75"/>
<polygon fill="#757575" stroke="#757575" points="1113.31,-940.79 1121.93,-946.95 1119.03,-936.76 1113.31,-940.79"/>
</g>
<!-- figures/Circle.ts&#45;&gt;Calculus.ts -->
<g id="edge30" class="edge">
<title>figures/Circle.ts&#45;&gt;Calculus.ts</title>
<path fill="none" stroke="#757575" d="M955.32,-841.01C1015.64,-824.44 1126.98,-791.35 1217,-750.56 1239.07,-740.55 1262.69,-726.59 1280.05,-715.64"/>
<polygon fill="#757575" stroke="#757575" points="1281.97,-718.57 1288.51,-710.24 1278.2,-712.67 1281.97,-718.57"/>
</g>
<!-- figures/Circle.ts&#45;&gt;pidraw.common.ts -->
<g id="edge32" class="edge">
<title>figures/Circle.ts&#45;&gt;pidraw.common.ts</title>
<path fill="none" stroke="#757575" d="M968.84,-853.93C1054.84,-854.95 1221.98,-852.83 1361,-826.56 1382.2,-822.55 1405.12,-815.31 1423.75,-808.64"/>
<polygon fill="#757575" stroke="#757575" points="1425.17,-811.84 1433.35,-805.11 1422.76,-805.27 1425.17,-811.84"/>
</g>
<!-- figures/Circle.ts&#45;&gt;figures/AbstractFigure.ts -->
<g id="edge31" class="edge">
<title>figures/Circle.ts&#45;&gt;figures/AbstractFigure.ts</title>
<path fill="none" stroke="#757575" d="M967.25,-864.06C981.2,-867.85 995.91,-872.64 1009,-878.56 1026.52,-886.47 1028.97,-891.93 1045,-902.56 1064.64,-915.57 1086.87,-930.22 1103.68,-941.26"/>
<polygon fill="#757575" stroke="#757575" points="1102.12,-944.43 1112.4,-947 1105.97,-938.58 1102.12,-944.43"/>
</g>
<!-- figures/CoordinateSystem.ts&#45;&gt;Calculus.ts -->
<g id="edge33" class="edge">
<title>figures/CoordinateSystem.ts&#45;&gt;Calculus.ts</title>
<path fill="none" stroke="#757575" d="M950.6,-343.11C977.2,-350.94 1013.19,-361.47 1045,-370.56 1121.31,-392.35 1159.89,-363.44 1217,-418.56 1291.55,-490.49 1303.83,-624.52 1305.72,-676.84"/>
<polygon fill="#757575" stroke="#757575" points="1302.22,-677.08 1305.99,-686.98 1309.22,-676.89 1302.22,-677.08"/>
</g>
<!-- figures/CoordinateSystem.ts&#45;&gt;pidraw.common.ts -->
<g id="edge35" class="edge">
<title>figures/CoordinateSystem.ts&#45;&gt;pidraw.common.ts</title>
<path fill="none" stroke="#757575" d="M972.9,-320.01C1068.47,-305.85 1253.02,-294.34 1361,-390.56 1419.26,-442.47 1451.19,-694.56 1459.68,-771.33"/>
<polygon fill="#757575" stroke="#757575" points="1456.25,-772.15 1460.8,-781.71 1463.21,-771.39 1456.25,-772.15"/>
</g>
<!-- figures/CoordinateSystem.ts&#45;&gt;figures/AbstractFigure.ts -->
<g id="edge34" class="edge">
<title>figures/CoordinateSystem.ts&#45;&gt;figures/AbstractFigure.ts</title>
<path fill="none" stroke="#757575" d="M936.34,-343.07C958.86,-354.81 991.16,-375.19 1009,-402.56 1126.26,-582.38 1131.63,-857.56 1130.58,-936.62"/>
<polygon fill="#757575" stroke="#757575" points="1127.08,-936.76 1130.39,-946.83 1134.07,-936.89 1127.08,-936.76"/>
</g>
<!-- figures/FillBetween.ts&#45;&gt;Calculus.ts -->
<g id="edge36" class="edge">
<title>figures/FillBetween.ts&#45;&gt;Calculus.ts</title>
<path fill="none" stroke="#757575" d="M764.04,-633.55C890.82,-648.76 1144.28,-679.16 1253.71,-692.28"/>
<polygon fill="#757575" stroke="#757575" points="1253.5,-695.78 1263.84,-693.5 1254.33,-688.83 1253.5,-695.78"/>
</g>
<!-- figures/FillBetween.ts&#45;&gt;pidraw.common.ts -->
<g id="edge39" class="edge">
<title>figures/FillBetween.ts&#45;&gt;pidraw.common.ts</title>
<path fill="none" stroke="#757575" d="M764.26,-623.25C917.37,-621.78 1259.25,-624.82 1361,-678.56 1402.23,-700.33 1434.38,-746.27 1450.54,-773.03"/>
<polygon fill="#757575" stroke="#757575" points="1447.68,-775.08 1455.75,-781.94 1453.72,-771.54 1447.68,-775.08"/>
</g>
<!-- figures/FillBetween.ts&#45;&gt;figures/AbstractFigure.ts -->
<g id="edge37" class="edge">
<title>figures/FillBetween.ts&#45;&gt;figures/AbstractFigure.ts</title>
<path fill="none" stroke="#757575" d="M702.4,-636.33C721.65,-653.99 756.91,-689.26 776,-726.56 806.65,-786.43 763.84,-826.6 812,-873.56 876.16,-936.12 922.74,-892.26 1009,-916.56 1036.53,-924.31 1066.94,-934.87 1090.39,-943.47"/>
<polygon fill="#757575" stroke="#757575" points="1089.39,-946.83 1099.98,-947.02 1091.82,-940.26 1089.39,-946.83"/>
</g>
<!-- figures/FillBetween.ts&#45;&gt;figures/Plot.ts -->
<g id="edge38" class="edge">
<title>figures/FillBetween.ts&#45;&gt;figures/Plot.ts</title>
<path fill="none" stroke="#757575" d="M744.36,-613.01C776.03,-606.4 815.83,-598.1 848.42,-591.3"/>
<polygon fill="#757575" stroke="#757575" points="849.21,-594.71 858.28,-589.24 847.78,-587.86 849.21,-594.71"/>
</g>
<!-- figures/Follow.ts&#45;&gt;Calculus.ts -->
<g id="edge40" class="edge">
<title>figures/Follow.ts&#45;&gt;Calculus.ts</title>
<path fill="none" stroke="#757575" d="M748.19,-544.56C812.57,-545.17 918.42,-547.92 1009,-558.56 1102.5,-569.53 1135.15,-552.04 1217,-598.56 1250.92,-617.83 1278.63,-654.83 1293.68,-678.01"/>
<polygon fill="#757575" stroke="#757575" points="1290.88,-680.13 1299.16,-686.73 1296.8,-676.4 1290.88,-680.13"/>
</g>
<!-- figures/Follow.ts&#45;&gt;pidraw.common.ts -->
<g id="edge43" class="edge">
<title>figures/Follow.ts&#45;&gt;pidraw.common.ts</title>
<path fill="none" stroke="#757575" d="M717.13,-532.89C736.87,-523.2 762.12,-507.44 776,-485.56 831.2,-398.56 735.3,-325.34 812,-256.56 902.84,-175.09 1272.55,-181.5 1361,-265.56 1436.1,-336.92 1456.9,-681.59 1461.1,-771.87"/>
<polygon fill="#757575" stroke="#757575" points="1457.61,-772.18 1461.55,-782.02 1464.61,-771.87 1457.61,-772.18"/>
</g>
<!-- figures/Follow.ts&#45;&gt;figures/AbstractFigure.ts -->
<g id="edge41" class="edge">
<title>figures/Follow.ts&#45;&gt;figures/AbstractFigure.ts</title>
<path fill="none" stroke="#757575" d="M714.15,-556.14C733.64,-566.32 759.94,-582.89 776,-604.56 807.38,-646.9 779.05,-676.42 812,-717.56 875.39,-796.68 929.35,-769.84 1009,-832.56 1050.93,-865.57 1092.38,-912.73 1114.21,-938.99"/>
<polygon fill="#757575" stroke="#757575" points="1111.52,-941.23 1120.58,-946.73 1116.93,-936.79 1111.52,-941.23"/>
</g>
<!-- figures/Follow.ts&#45;&gt;figures/Plot.ts -->
<g id="edge42" class="edge">
<title>figures/Follow.ts&#45;&gt;figures/Plot.ts</title>
<path fill="none" stroke="#757575" d="M748.09,-553.67C779.17,-558.46 817.22,-564.33 848.57,-569.16"/>
<polygon fill="#757575" stroke="#757575" points="848.08,-572.63 858.49,-570.69 849.14,-565.71 848.08,-572.63"/>
</g>
<!-- figures/Grid.ts&#45;&gt;Calculus.ts -->
<g id="edge44" class="edge">
<title>figures/Grid.ts&#45;&gt;Calculus.ts</title>
<path fill="none" stroke="#757575" d="M963.62,-277.87C1031.52,-282.45 1149.49,-300.75 1217,-370.56 1301.79,-458.24 1307.68,-618.18 1306.8,-676.52"/>
<polygon fill="#757575" stroke="#757575" points="1303.3,-676.7 1306.56,-686.78 1310.29,-676.86 1303.3,-676.7"/>
</g>
<!-- figures/Grid.ts&#45;&gt;pidraw.common.ts -->
<g id="edge46" class="edge">
<title>figures/Grid.ts&#45;&gt;pidraw.common.ts</title>
<path fill="none" stroke="#757575" d="M962.57,-265.04C1055.25,-247.43 1251.65,-225.81 1361,-328.56 1427.05,-390.61 1454.07,-687.88 1460.45,-771.58"/>
<polygon fill="#757575" stroke="#757575" points="1456.97,-772.01 1461.2,-781.73 1463.95,-771.49 1456.97,-772.01"/>
</g>
<!-- figures/Grid.ts&#45;&gt;figures/AbstractFigure.ts -->
<g id="edge45" class="edge">
<title>figures/Grid.ts&#45;&gt;figures/AbstractFigure.ts</title>
<path fill="none" stroke="#757575" d="M963.51,-284.61C980.26,-289.7 997.45,-298 1009,-311.56 1092.39,-409.46 1122.68,-835.34 1128.78,-936.8"/>
<polygon fill="#757575" stroke="#757575" points="1125.3,-937.27 1129.38,-947.05 1132.29,-936.86 1125.3,-937.27"/>
</g>
<!-- figures/Line.ts&#45;&gt;Calculus.ts -->
<g id="edge47" class="edge">
<title>figures/Line.ts&#45;&gt;Calculus.ts</title>
<path fill="none" stroke="#757575" d="M963.56,-1268.73C978.38,-1265.72 994.45,-1261.98 1009,-1257.56 1104.55,-1228.51 1153.88,-1249.94 1217,-1172.56 1275.06,-1101.37 1298.97,-804.01 1304.62,-720.47"/>
<polygon fill="#757575" stroke="#757575" points="1308.13,-720.56 1305.29,-710.35 1301.14,-720.1 1308.13,-720.56"/>
</g>
<!-- figures/Line.ts&#45;&gt;pidraw.common.ts -->
<g id="edge49" class="edge">
<title>figures/Line.ts&#45;&gt;pidraw.common.ts</title>
<path fill="none" stroke="#757575" d="M963.55,-1282.83C1068.89,-1292.33 1302.32,-1307.03 1361,-1257.56 1430.15,-1199.26 1454.96,-900.04 1460.64,-815.7"/>
<polygon fill="#757575" stroke="#757575" points="1464.15,-815.69 1461.3,-805.48 1457.16,-815.23 1464.15,-815.69"/>
</g>
<!-- figures/Line.ts&#45;&gt;figures/AbstractFigure.ts -->
<g id="edge48" class="edge">
<title>figures/Line.ts&#45;&gt;figures/AbstractFigure.ts</title>
<path fill="none" stroke="#757575" d="M963.72,-1276.24C979.71,-1273.52 996.38,-1268.06 1009,-1257.56 1097.38,-1183.98 1121.83,-1036.05 1128.04,-980.39"/>
<polygon fill="#757575" stroke="#757575" points="1131.54,-980.57 1129.08,-970.26 1124.58,-979.85 1131.54,-980.57"/>
</g>
<!-- figures/Parametric.ts&#45;&gt;Calculus.ts -->
<g id="edge50" class="edge">
<title>figures/Parametric.ts&#45;&gt;Calculus.ts</title>
<path fill="none" stroke="#757575" d="M984.32,-432.79C1051.78,-445.65 1151.33,-473.64 1217,-532.56 1262.22,-573.12 1288.68,-642.23 1299.79,-677.1"/>
<polygon fill="#757575" stroke="#757575" points="1296.47,-678.21 1302.75,-686.75 1303.17,-676.16 1296.47,-678.21"/>
</g>
<!-- figures/Parametric.ts&#45;&gt;pidraw.common.ts -->
<g id="edge52" class="edge">
<title>figures/Parametric.ts&#45;&gt;pidraw.common.ts</title>
<path fill="none" stroke="#757575" d="M950.29,-411C1035.07,-388.32 1239.03,-348.13 1361,-444.56 1413.85,-486.34 1448.82,-701.38 1458.96,-771.45"/>
<polygon fill="#757575" stroke="#757575" points="1455.55,-772.34 1460.42,-781.75 1462.48,-771.36 1455.55,-772.34"/>
</g>
<!-- figures/Parametric.ts&#45;&gt;figures/AbstractFigure.ts -->
<g id="edge51" class="edge">
<title>figures/Parametric.ts&#45;&gt;figures/AbstractFigure.ts</title>
<path fill="none" stroke="#757575" d="M926.77,-434.34C948.28,-451.76 987.31,-486.44 1009,-524.56 1090.92,-668.51 1120.11,-871.25 1127.75,-937.04"/>
<polygon fill="#757575" stroke="#757575" points="1124.28,-937.49 1128.86,-947.04 1131.23,-936.72 1124.28,-937.49"/>
</g>
<!-- figures/Plot.ts&#45;&gt;Calculus.ts -->
<g id="edge53" class="edge">
<title>figures/Plot.ts&#45;&gt;Calculus.ts</title>
<path fill="none" stroke="#757575" d="M962.65,-585C1024.51,-593.9 1131.01,-612.82 1217,-646.56 1239.98,-655.57 1264.04,-669.97 1281.34,-681.33"/>
<polygon fill="#757575" stroke="#757575" points="1279.47,-684.3 1289.73,-686.95 1283.37,-678.48 1279.47,-684.3"/>
</g>
<!-- figures/Plot.ts&#45;&gt;pidraw.common.ts -->
<g id="edge55" class="edge">
<title>figures/Plot.ts&#45;&gt;pidraw.common.ts</title>
<path fill="none" stroke="#757575" d="M924.28,-566.94C946.72,-547.44 995.54,-508.82 1045,-494.56 1179.94,-455.63 1246.9,-412.66 1361,-494.56 1453.02,-560.6 1462.28,-714.94 1462.44,-771.92"/>
<polygon fill="#757575" stroke="#757575" points="1458.94,-771.94 1462.37,-781.96 1465.94,-771.99 1458.94,-771.94"/>
</g>
<!-- figures/Plot.ts&#45;&gt;figures/AbstractFigure.ts -->
<g id="edge54" class="edge">
<title>figures/Plot.ts&#45;&gt;figures/AbstractFigure.ts</title>
<path fill="none" stroke="#757575" d="M926.13,-590.16C946.87,-607.23 984.95,-640.96 1009,-676.56 1068.88,-765.21 1109.27,-888.3 1123.9,-937.25"/>
<polygon fill="#757575" stroke="#757575" points="1120.6,-938.43 1126.78,-947.04 1127.32,-936.46 1120.6,-938.43"/>
</g>
<!-- figures/Point.ts&#45;&gt;Calculus.ts -->
<g id="edge56" class="edge">
<title>figures/Point.ts&#45;&gt;Calculus.ts</title>
<path fill="none" stroke="#757575" d="M743.82,-1126.44C853.47,-1130.84 1099.36,-1123.19 1217,-979.56 1282.41,-899.69 1300,-771.19 1304.52,-720.31"/>
<polygon fill="#757575" stroke="#757575" points="1308.02,-720.4 1305.33,-710.15 1301.04,-719.84 1308.02,-720.4"/>
</g>
<!-- figures/Point.ts&#45;&gt;pidraw.common.ts -->
<g id="edge59" class="edge">
<title>figures/Point.ts&#45;&gt;pidraw.common.ts</title>
<path fill="none" stroke="#757575" d="M743.53,-1129.54C755.58,-1133.42 767.33,-1139.4 776,-1148.56 823.13,-1198.35 758.62,-1255.53 812,-1298.56 1002.03,-1451.7 1181.28,-1451.68 1361,-1286.56 1432.03,-1221.29 1455.67,-901.8 1460.83,-815.23"/>
<polygon fill="#757575" stroke="#757575" points="1464.32,-815.41 1461.4,-805.23 1457.33,-815.01 1464.32,-815.41"/>
</g>
<!-- figures/Point.ts&#45;&gt;figures/AbstractFigure.ts -->
<g id="edge57" class="edge">
<title>figures/Point.ts&#45;&gt;figures/AbstractFigure.ts</title>
<path fill="none" stroke="#757575" d="M743.71,-1114.92C822.29,-1103.39 962.76,-1080.55 1009,-1058.56 1051.05,-1038.55 1090.87,-1000.71 1112.7,-977.74"/>
<polygon fill="#757575" stroke="#757575" points="1115.39,-980 1119.65,-970.3 1110.27,-975.22 1115.39,-980"/>
</g>
<!-- figures/Point.ts&#45;&gt;figures/Line.ts -->
<g id="edge58" class="edge">
<title>figures/Point.ts&#45;&gt;figures/Line.ts</title>
<path fill="none" stroke="#757575" d="M743.9,-1130.36C755.66,-1134.22 767.18,-1139.99 776,-1148.56 812.59,-1184.11 773.88,-1223.64 812,-1257.56 821.88,-1266.34 834.56,-1271.66 847.48,-1274.8"/>
<polygon fill="#757575" stroke="#757575" points="846.88,-1278.25 857.37,-1276.8 848.27,-1271.39 846.88,-1278.25"/>
</g>
<!-- figures/Polygon.ts&#45;&gt;Calculus.ts -->
<g id="edge60" class="edge">
<title>figures/Polygon.ts&#45;&gt;Calculus.ts</title>
<path fill="none" stroke="#757575" d="M970.12,-1224.99C983.28,-1221.3 996.92,-1216.55 1009,-1210.56 1027.16,-1201.54 1026.9,-1191.67 1045,-1182.56 1115.88,-1146.85 1162.9,-1192.63 1217,-1134.56 1274.34,-1073 1298.53,-800.62 1304.48,-720.68"/>
<polygon fill="#757575" stroke="#757575" points="1307.99,-720.56 1305.22,-710.33 1301.01,-720.05 1307.99,-720.56"/>
</g>
<!-- figures/Polygon.ts&#45;&gt;pidraw.common.ts -->
<g id="edge62" class="edge">
<title>figures/Polygon.ts&#45;&gt;pidraw.common.ts</title>
<path fill="none" stroke="#757575" d="M976.16,-1237.08C1042.15,-1234.6 1144.85,-1222.09 1217,-1172.56 1354.05,-1078.45 1432.23,-879.97 1454.97,-814.79"/>
<polygon fill="#757575" stroke="#757575" points="1458.33,-815.78 1458.25,-805.18 1451.71,-813.51 1458.33,-815.78"/>
</g>
<!-- figures/Polygon.ts&#45;&gt;figures/AbstractFigure.ts -->
<g id="edge61" class="edge">
<title>figures/Polygon.ts&#45;&gt;figures/AbstractFigure.ts</title>
<path fill="none" stroke="#757575" d="M976.16,-1227.71C987.99,-1223.87 999.56,-1218.38 1009,-1210.56 1018.8,-1202.43 1093.85,-1038.28 1120.58,-979.37"/>
<polygon fill="#757575" stroke="#757575" points="1123.77,-980.81 1124.71,-970.25 1117.4,-977.92 1123.77,-980.81"/>
</g>
<!-- figures/Riemann.ts&#45;&gt;Calculus.ts -->
<g id="edge63" class="edge">
<title>figures/Riemann.ts&#45;&gt;Calculus.ts</title>
<path fill="none" stroke="#757575" d="M755.61,-470.06C880.1,-481.41 1142.24,-510.61 1217,-560.56 1260.02,-589.29 1286.77,-646.64 1298.7,-677.59"/>
<polygon fill="#757575" stroke="#757575" points="1295.43,-678.83 1302.18,-686.99 1302,-676.4 1295.43,-678.83"/>
</g>
<!-- figures/Riemann.ts&#45;&gt;pidraw.common.ts -->
<g id="edge66" class="edge">
<title>figures/Riemann.ts&#45;&gt;pidraw.common.ts</title>
<path fill="none" stroke="#757575" d="M690.1,-452.9C694.89,-409.6 718.1,-257.35 812,-196.56 914.46,-130.22 1272.93,-129.04 1361,-213.56 1443.38,-292.61 1458.9,-675.44 1461.51,-771.6"/>
<polygon fill="#757575" stroke="#757575" points="1458.02,-771.96 1461.77,-781.87 1465.02,-771.78 1458.02,-771.96"/>
</g>
<!-- figures/Riemann.ts&#45;&gt;figures/AbstractFigure.ts -->
<g id="edge64" class="edge">
<title>figures/Riemann.ts&#45;&gt;figures/AbstractFigure.ts</title>
<path fill="none" stroke="#757575" d="M754.03,-476.12C836.7,-492.05 973.03,-522.87 1009,-558.56 1118.07,-666.75 1129.49,-869.63 1130.18,-936.53"/>
<polygon fill="#757575" stroke="#757575" points="1126.68,-936.74 1130.21,-946.73 1133.68,-936.72 1126.68,-936.74"/>
</g>
<!-- figures/Riemann.ts&#45;&gt;figures/Plot.ts -->
<g id="edge65" class="edge">
<title>figures/Riemann.ts&#45;&gt;figures/Plot.ts</title>
<path fill="none" stroke="#757575" d="M749.49,-476.12C758.97,-479.71 768.2,-484.41 776,-490.56 801.02,-510.28 786.69,-533.2 812,-552.56 822.59,-560.65 835.5,-566.23 848.42,-570.08"/>
<polygon fill="#757575" stroke="#757575" points="847.69,-573.51 858.26,-572.69 849.49,-566.74 847.69,-573.51"/>
</g>
<!-- Parser.ts -->
<g id="node17" class="node">
<title>Parser.ts</title>
<path fill="none" stroke="#c6c5fe" d="M167.33,-1171.06C167.33,-1171.06 108.67,-1171.06 108.67,-1171.06 104.83,-1171.06 101,-1167.22 101,-1163.39 101,-1163.39 101,-1155.72 101,-1155.72 101,-1151.89 104.83,-1148.06 108.67,-1148.06 108.67,-1148.06 167.33,-1148.06 167.33,-1148.06 171.17,-1148.06 175,-1151.89 175,-1155.72 175,-1155.72 175,-1163.39 175,-1163.39 175,-1167.22 171.17,-1171.06 167.33,-1171.06"/>
<text text-anchor="middle" x="138" y="-1155.86" font-family="Arial" font-size="14.00" fill="#c6c5fe">Parser.ts</text>
</g>
<!-- Parser.ts&#45;&gt;pidraw.common.ts -->
<g id="edge23" class="edge">
<title>Parser.ts&#45;&gt;pidraw.common.ts</title>
<path fill="none" stroke="#757575" d="M139.87,-1147.85C149.1,-1027.2 234.09,-14.56 484,-14.56 484,-14.56 484,-14.56 1132,-14.56 1234.43,-14.56 1287.84,31.14 1361,-40.56 1414.9,-93.38 1453.15,-653.59 1460.65,-771.75"/>
<polygon fill="#757575" stroke="#757575" points="1457.16,-772.01 1461.28,-781.77 1464.15,-771.58 1457.16,-772.01"/>
</g>
<!-- Parser.ts&#45;&gt;Graph.ts -->
<g id="edge17" class="edge">
<title>Parser.ts&#45;&gt;Graph.ts</title>
<path fill="none" stroke="#757575" d="M146.41,-1147.74C177.08,-1098.55 295.84,-904.51 370,-733.56 390.14,-687.14 369.19,-660.27 406,-625.56 415.09,-616.99 427.29,-611.84 439.35,-608.77"/>
<polygon fill="#757575" stroke="#757575" points="440.31,-612.14 449.36,-606.65 438.86,-605.29 440.31,-612.14"/>
</g>
<!-- Parser.ts&#45;&gt;figures/AbstractFigure.ts -->
<g id="edge18" class="edge">
<title>Parser.ts&#45;&gt;figures/AbstractFigure.ts</title>
<path fill="none" stroke="#757575" d="M145.22,-1171.32C170.25,-1217.17 268.89,-1383.95 406,-1437.56 656.26,-1535.4 813.07,-1577.45 1009,-1393.56 1066.58,-1339.51 1024.74,-1295.88 1045,-1219.56 1069,-1129.13 1106.18,-1023.91 1122.21,-979.76"/>
<polygon fill="#757575" stroke="#757575" points="1125.58,-980.72 1125.72,-970.12 1119.01,-978.32 1125.58,-980.72"/>
</g>
<!-- Parser.ts&#45;&gt;figures/Point.ts -->
<g id="edge19" class="edge">
<title>Parser.ts&#45;&gt;figures/Point.ts</title>
<path fill="none" stroke="#757575" d="M175.26,-1156.67C226.61,-1152.63 323.45,-1145.14 406,-1139.56 480.02,-1134.54 565.06,-1129.5 622.03,-1126.22"/>
<polygon fill="#757575" stroke="#757575" points="622.54,-1129.7 632.33,-1125.63 622.14,-1122.71 622.54,-1129.7"/>
</g>
<!-- Parser.ts&#45;&gt;labels/Label.ts -->
<g id="edge20" class="edge">
<title>Parser.ts&#45;&gt;labels/Label.ts</title>
<path fill="none" stroke="#757575" d="M140.99,-1171.42C154.41,-1247.14 238.8,-1659.56 484,-1659.56 484,-1659.56 484,-1659.56 911.5,-1659.56 1133.7,-1659.56 1266.51,-1343.54 1298.46,-1257.8"/>
<polygon fill="#757575" stroke="#757575" points="1301.78,-1258.9 1301.93,-1248.31 1295.2,-1256.5 1301.78,-1258.9"/>
</g>
<!-- parser/parser.common.ts -->
<g id="node19" class="node">
<title>parser/parser.common.ts</title>
<path fill="none" stroke="#c6c5fe" d="M768.33,-1290.06C768.33,-1290.06 607.67,-1290.06 607.67,-1290.06 603.83,-1290.06 600,-1286.22 600,-1282.39 600,-1282.39 600,-1274.72 600,-1274.72 600,-1270.89 603.83,-1267.06 607.67,-1267.06 607.67,-1267.06 768.33,-1267.06 768.33,-1267.06 772.17,-1267.06 776,-1270.89 776,-1274.72 776,-1274.72 776,-1282.39 776,-1282.39 776,-1286.22 772.17,-1290.06 768.33,-1290.06"/>
<text text-anchor="middle" x="688" y="-1274.86" font-family="Arial" font-size="14.00" fill="#c6c5fe">parser/parser.common.ts</text>
</g>
<!-- Parser.ts&#45;&gt;parser/parser.common.ts -->
<g id="edge21" class="edge">
<title>Parser.ts&#45;&gt;parser/parser.common.ts</title>
<path fill="none" stroke="#757575" d="M148.85,-1171.37C161.59,-1185.78 185.23,-1209.68 211,-1221.56 332.86,-1277.71 490.01,-1285.74 589.67,-1283.99"/>
<polygon fill="#757575" stroke="#757575" points="589.81,-1287.49 599.74,-1283.78 589.66,-1280.49 589.81,-1287.49"/>
</g>
<!-- parser/parser.config.ts -->
<g id="node20" class="node">
<title>parser/parser.config.ts</title>
<path fill="none" stroke="#c6c5fe" d="M362.33,-1212.06C362.33,-1212.06 218.67,-1212.06 218.67,-1212.06 214.83,-1212.06 211,-1208.22 211,-1204.39 211,-1204.39 211,-1196.72 211,-1196.72 211,-1192.89 214.83,-1189.06 218.67,-1189.06 218.67,-1189.06 362.33,-1189.06 362.33,-1189.06 366.17,-1189.06 370,-1192.89 370,-1196.72 370,-1196.72 370,-1204.39 370,-1204.39 370,-1208.22 366.17,-1212.06 362.33,-1212.06"/>
<text text-anchor="middle" x="290.5" y="-1196.86" font-family="Arial" font-size="14.00" fill="#c6c5fe">parser/parser.config.ts</text>
</g>
<!-- Parser.ts&#45;&gt;parser/parser.config.ts -->
<g id="edge22" class="edge">
<title>Parser.ts&#45;&gt;parser/parser.config.ts</title>
<path fill="none" stroke="#757575" d="M175.05,-1169.38C193.66,-1174.45 216.7,-1180.72 237.23,-1186.31"/>
<polygon fill="#757575" stroke="#757575" points="236.5,-1189.74 247.07,-1189 238.34,-1182.99 236.5,-1189.74"/>
</g>
<!-- labels/Label.ts&#45;&gt;pidraw.common.ts -->
<g id="edge69" class="edge">
<title>labels/Label.ts&#45;&gt;pidraw.common.ts</title>
<path fill="none" stroke="#757575" d="M1342.8,-1224.93C1349.65,-1221.26 1356.19,-1216.55 1361,-1210.56 1411.54,-1147.57 1448.92,-892.11 1459.18,-815.43"/>
<polygon fill="#757575" stroke="#757575" points="1462.66,-815.82 1460.49,-805.45 1455.72,-814.91 1462.66,-815.82"/>
</g>
<!-- parser/parser.common.ts&#45;&gt;pidraw.common.ts -->
<g id="edge102" class="edge">
<title>parser/parser.common.ts&#45;&gt;pidraw.common.ts</title>
<path fill="none" stroke="#757575" d="M690.65,-1290.3C697.12,-1331.22 724.79,-1467.95 812,-1521.56 863.97,-1553.5 1315,-1561.62 1361,-1521.56 1415.94,-1473.71 1453.24,-931.78 1460.65,-815.46"/>
<polygon fill="#757575" stroke="#757575" points="1464.15,-815.49 1461.29,-805.29 1457.17,-815.05 1464.15,-815.49"/>
</g>
<!-- parser/parser.common.ts&#45;&gt;figures/AbstractFigure.ts -->
<g id="edge101" class="edge">
<title>parser/parser.common.ts&#45;&gt;figures/AbstractFigure.ts</title>
<path fill="none" stroke="#757575" d="M701.88,-1266.77C723.46,-1247.43 768.82,-1208.52 812,-1182.56 894.18,-1133.14 931.62,-1151.2 1009,-1094.56 1054.79,-1061.03 1095.88,-1007.63 1116.33,-978.72"/>
<polygon fill="#757575" stroke="#757575" points="1119.38,-980.46 1122.22,-970.25 1113.64,-976.46 1119.38,-980.46"/>
</g>
<!-- parser/parser.config.ts&#45;&gt;pidraw.common.ts -->
<g id="edge110" class="edge">
<title>parser/parser.config.ts&#45;&gt;pidraw.common.ts</title>
<path fill="none" stroke="#757575" d="M292.84,-1188.82C306.98,-1067.86 433.25,-52.56 687,-52.56 687,-52.56 687,-52.56 1132,-52.56 1235.24,-52.56 1288.94,-17.62 1361,-91.56 1458.32,-191.42 1462.49,-664.09 1462.16,-771.71"/>
<polygon fill="#757575" stroke="#757575" points="1458.66,-771.97 1462.11,-781.99 1465.66,-772 1458.66,-771.97"/>
</g>
<!-- parser/parser.config.ts&#45;&gt;figures/AbstractFigure.ts -->
<g id="edge103" class="edge">
<title>parser/parser.config.ts&#45;&gt;figures/AbstractFigure.ts</title>
<path fill="none" stroke="#757575" d="M293.47,-1212.26C300.53,-1250.03 328.41,-1368.97 406,-1415.56 466.2,-1451.7 493.78,-1416.55 564,-1415.56 663.86,-1414.14 936.36,-1421.1 1009,-1352.56 1119.2,-1248.57 1129.88,-1047.04 1130.28,-980.48"/>
<polygon fill="#757575" stroke="#757575" points="1133.78,-980.32 1130.27,-970.33 1126.78,-980.33 1133.78,-980.32"/>
</g>
<!-- parser/parser.config.ts&#45;&gt;parser/parser.common.ts -->
<g id="edge109" class="edge">
<title>parser/parser.config.ts&#45;&gt;parser/parser.common.ts</title>
<path fill="none" stroke="#757575" d="M349.86,-1212.06C421.42,-1226.18 542.54,-1250.06 618.46,-1265.04"/>
<polygon fill="#757575" stroke="#757575" points="617.91,-1268.5 628.4,-1267 619.27,-1261.63 617.91,-1268.5"/>
</g>
<!-- parser/buildCircle.ts -->
<g id="node22" class="node">
<title>parser/buildCircle.ts</title>
<path fill="none" stroke="#c6c5fe" d="M548.83,-1171.06C548.83,-1171.06 421.17,-1171.06 421.17,-1171.06 417.33,-1171.06 413.5,-1167.22 413.5,-1163.39 413.5,-1163.39 413.5,-1155.72 413.5,-1155.72 413.5,-1151.89 417.33,-1148.06 421.17,-1148.06 421.17,-1148.06 548.83,-1148.06 548.83,-1148.06 552.67,-1148.06 556.5,-1151.89 556.5,-1155.72 556.5,-1155.72 556.5,-1163.39 556.5,-1163.39 556.5,-1167.22 552.67,-1171.06 548.83,-1171.06"/>
<text text-anchor="middle" x="485" y="-1155.86" font-family="Arial" font-size="14.00" fill="#c6c5fe">parser/buildCircle.ts</text>
</g>
<!-- parser/parser.config.ts&#45;&gt;parser/buildCircle.ts -->
<g id="edge104" class="edge">
<title>parser/parser.config.ts&#45;&gt;parser/buildCircle.ts</title>
<path fill="none" stroke="#757575" d="M345.63,-1189.03C368.8,-1184.09 396.02,-1178.29 420.16,-1173.15"/>
<polygon fill="#757575" stroke="#757575" points="420.89,-1176.58 429.94,-1171.07 419.43,-1169.73 420.89,-1176.58"/>
</g>
<!-- parser/buildLine.ts -->
<g id="node23" class="node">
<title>parser/buildLine.ts</title>
<path fill="none" stroke="#c6c5fe" d="M543.83,-1212.06C543.83,-1212.06 426.17,-1212.06 426.17,-1212.06 422.33,-1212.06 418.5,-1208.22 418.5,-1204.39 418.5,-1204.39 418.5,-1196.72 418.5,-1196.72 418.5,-1192.89 422.33,-1189.06 426.17,-1189.06 426.17,-1189.06 543.83,-1189.06 543.83,-1189.06 547.67,-1189.06 551.5,-1192.89 551.5,-1196.72 551.5,-1196.72 551.5,-1204.39 551.5,-1204.39 551.5,-1208.22 547.67,-1212.06 543.83,-1212.06"/>
<text text-anchor="middle" x="485" y="-1196.86" font-family="Arial" font-size="14.00" fill="#c6c5fe">parser/buildLine.ts</text>
</g>
<!-- parser/parser.config.ts&#45;&gt;parser/buildLine.ts -->
<g id="edge105" class="edge">
<title>parser/parser.config.ts&#45;&gt;parser/buildLine.ts</title>
<path fill="none" stroke="#757575" d="M370.07,-1200.56C382.58,-1200.56 395.5,-1200.56 407.95,-1200.56"/>
<polygon fill="#757575" stroke="#757575" points="408.28,-1204.06 418.28,-1200.56 408.28,-1197.06 408.28,-1204.06"/>
</g>
<!-- parser/buildPlot.ts -->
<g id="node24" class="node">
<title>parser/buildPlot.ts</title>
<path fill="none" stroke="#c6c5fe" d="M542.83,-657.06C542.83,-657.06 427.17,-657.06 427.17,-657.06 423.33,-657.06 419.5,-653.22 419.5,-649.39 419.5,-649.39 419.5,-641.72 419.5,-641.72 419.5,-637.89 423.33,-634.06 427.17,-634.06 427.17,-634.06 542.83,-634.06 542.83,-634.06 546.67,-634.06 550.5,-637.89 550.5,-641.72 550.5,-641.72 550.5,-649.39 550.5,-649.39 550.5,-653.22 546.67,-657.06 542.83,-657.06"/>
<text text-anchor="middle" x="485" y="-641.86" font-family="Arial" font-size="14.00" fill="#c6c5fe">parser/buildPlot.ts</text>
</g>
<!-- parser/parser.config.ts&#45;&gt;parser/buildPlot.ts -->
<g id="edge106" class="edge">
<title>parser/parser.config.ts&#45;&gt;parser/buildPlot.ts</title>
<path fill="none" stroke="#757575" d="M295.82,-1188.65C307.77,-1155.66 342.24,-1060.21 370,-980.56 411.24,-862.24 459.12,-719.82 476.89,-666.8"/>
<polygon fill="#757575" stroke="#757575" points="480.27,-667.74 480.12,-657.15 473.63,-665.52 480.27,-667.74"/>
</g>
<!-- parser/buildPoint.ts -->
<g id="node25" class="node">
<title>parser/buildPoint.ts</title>
<path fill="none" stroke="#c6c5fe" d="M546.33,-1406.06C546.33,-1406.06 423.67,-1406.06 423.67,-1406.06 419.83,-1406.06 416,-1402.22 416,-1398.39 416,-1398.39 416,-1390.72 416,-1390.72 416,-1386.89 419.83,-1383.06 423.67,-1383.06 423.67,-1383.06 546.33,-1383.06 546.33,-1383.06 550.17,-1383.06 554,-1386.89 554,-1390.72 554,-1390.72 554,-1398.39 554,-1398.39 554,-1402.22 550.17,-1406.06 546.33,-1406.06"/>
<text text-anchor="middle" x="485" y="-1390.86" font-family="Arial" font-size="14.00" fill="#c6c5fe">parser/buildPoint.ts</text>
</g>
<!-- parser/parser.config.ts&#45;&gt;parser/buildPoint.ts -->
<g id="edge107" class="edge">
<title>parser/parser.config.ts&#45;&gt;parser/buildPoint.ts</title>
<path fill="none" stroke="#757575" d="M299.48,-1212.24C316.94,-1237.33 360.62,-1297.45 406,-1339.56 421.33,-1353.78 440.51,-1367.35 456.01,-1377.45"/>
<polygon fill="#757575" stroke="#757575" points="454.34,-1380.54 464.66,-1382.98 458.11,-1374.64 454.34,-1380.54"/>
</g>
<!-- parser/buildPolygon.ts -->
<g id="node26" class="node">
<title>parser/buildPolygon.ts</title>
<path fill="none" stroke="#c6c5fe" d="M556.33,-1330.06C556.33,-1330.06 413.67,-1330.06 413.67,-1330.06 409.83,-1330.06 406,-1326.22 406,-1322.39 406,-1322.39 406,-1314.72 406,-1314.72 406,-1310.89 409.83,-1307.06 413.67,-1307.06 413.67,-1307.06 556.33,-1307.06 556.33,-1307.06 560.17,-1307.06 564,-1310.89 564,-1314.72 564,-1314.72 564,-1322.39 564,-1322.39 564,-1326.22 560.17,-1330.06 556.33,-1330.06"/>
<text text-anchor="middle" x="485" y="-1314.86" font-family="Arial" font-size="14.00" fill="#c6c5fe">parser/buildPolygon.ts</text>
</g>
<!-- parser/parser.config.ts&#45;&gt;parser/buildPolygon.ts -->
<g id="edge108" class="edge">
<title>parser/parser.config.ts&#45;&gt;parser/buildPolygon.ts</title>
<path fill="none" stroke="#757575" d="M310.31,-1212.08C344.45,-1233.01 416.76,-1277.34 456.46,-1301.68"/>
<polygon fill="#757575" stroke="#757575" points="454.76,-1304.74 465.12,-1306.98 458.42,-1298.77 454.76,-1304.74"/>
</g>
<!-- index.ts -->
<g id="node21" class="node">
<title>index.ts</title>
<path fill="none" stroke="#c6c5fe" d="M57.33,-978.06C57.33,-978.06 7.67,-978.06 7.67,-978.06 3.83,-978.06 0,-974.22 0,-970.39 0,-970.39 0,-962.72 0,-962.72 0,-958.89 3.83,-955.06 7.67,-955.06 7.67,-955.06 57.33,-955.06 57.33,-955.06 61.17,-955.06 65,-958.89 65,-962.72 65,-962.72 65,-970.39 65,-970.39 65,-974.22 61.17,-978.06 57.33,-978.06"/>
<text text-anchor="middle" x="32.5" y="-962.86" font-family="Arial" font-size="14.00" fill="#c6c5fe">index.ts</text>
</g>
<!-- index.ts&#45;&gt;Graph.ts -->
<g id="edge67" class="edge">
<title>index.ts&#45;&gt;Graph.ts</title>
<path fill="none" stroke="#757575" d="M39.91,-955.04C60.59,-918.65 129.06,-804.39 211,-733.56 285.95,-668.77 314.16,-662.71 406,-625.56 416.55,-621.29 428.25,-617.61 439.31,-614.59"/>
<polygon fill="#757575" stroke="#757575" points="440.45,-617.91 449.24,-611.99 438.68,-611.14 440.45,-617.91"/>
</g>
<!-- index.ts&#45;&gt;Parser.ts -->
<g id="edge68" class="edge">
<title>index.ts&#45;&gt;Parser.ts</title>
<path fill="none" stroke="#757575" d="M39.82,-978.34C56.93,-1010.24 104.33,-1098.63 125.97,-1138.98"/>
<polygon fill="#757575" stroke="#757575" points="122.95,-1140.77 130.76,-1147.93 129.12,-1137.46 122.95,-1140.77"/>
</g>
<!-- parser/buildCircle.ts&#45;&gt;pidraw.common.ts -->
<g id="edge75" class="edge">
<title>parser/buildCircle.ts&#45;&gt;pidraw.common.ts</title>
<path fill="none" stroke="#757575" d="M556.76,-1155.93C622.21,-1156.58 717.88,-1168.32 776,-1224.56 821.86,-1268.93 765.85,-1319.48 812,-1363.56 943.13,-1488.77 1040.65,-1454.7 1217,-1412.56 1286.79,-1395.88 1318.02,-1397.01 1361,-1339.56 1425.1,-1253.87 1453.98,-906.18 1460.52,-815.35"/>
<polygon fill="#757575" stroke="#757575" points="1464.03,-815.37 1461.24,-805.15 1457.05,-814.88 1464.03,-815.37"/>
</g>
<!-- parser/buildCircle.ts&#45;&gt;figures/AbstractFigure.ts -->
<g id="edge70" class="edge">
<title>parser/buildCircle.ts&#45;&gt;figures/AbstractFigure.ts</title>
<path fill="none" stroke="#757575" d="M492.37,-1147.71C507.25,-1121.41 547.03,-1058.26 600,-1030.56 762.18,-945.72 828.21,-1011.05 1009,-982.56 1027.83,-979.59 1048.19,-975.78 1066.74,-972.08"/>
<polygon fill="#757575" stroke="#757575" points="1067.44,-975.51 1076.55,-970.1 1066.06,-968.65 1067.44,-975.51"/>
</g>
<!-- parser/buildCircle.ts&#45;&gt;figures/Arc.ts -->
<g id="edge71" class="edge">
<title>parser/buildCircle.ts&#45;&gt;figures/Arc.ts</title>
<path fill="none" stroke="#757575" d="M488.31,-1147.98C496.87,-1107.3 530.04,-968.53 600,-878.56 671.81,-786.21 706.54,-773.17 812,-722.56 823.89,-716.85 837.23,-712.25 850.12,-708.6"/>
<polygon fill="#757575" stroke="#757575" points="851.11,-711.96 859.87,-705.99 849.3,-705.19 851.11,-711.96"/>
</g>
<!-- parser/buildCircle.ts&#45;&gt;figures/Circle.ts -->
<g id="edge72" class="edge">
<title>parser/buildCircle.ts&#45;&gt;figures/Circle.ts</title>
<path fill="none" stroke="#757575" d="M491.21,-1147.82C504.94,-1118.08 544.88,-1038.82 600,-992.56 677.44,-927.55 789.97,-886.82 855.86,-867.01"/>
<polygon fill="#757575" stroke="#757575" points="857.03,-870.31 865.63,-864.12 855.05,-863.6 857.03,-870.31"/>
</g>
<!-- parser/buildCircle.ts&#45;&gt;figures/Point.ts -->
<g id="edge73" class="edge">
<title>parser/buildCircle.ts&#45;&gt;figures/Point.ts</title>
<path fill="none" stroke="#757575" d="M548.5,-1148.05C571.99,-1143.73 598.74,-1138.8 622.42,-1134.44"/>
<polygon fill="#757575" stroke="#757575" points="623.16,-1137.87 632.36,-1132.61 621.89,-1130.98 623.16,-1137.87"/>
</g>
<!-- parser/buildCircle.ts&#45;&gt;parser/parser.common.ts -->
<g id="edge74" class="edge">
<title>parser/buildCircle.ts&#45;&gt;parser/parser.common.ts</title>
<path fill="none" stroke="#757575" d="M540.36,-1171.09C548.49,-1173.7 556.62,-1176.82 564,-1180.56 605.42,-1201.48 646.06,-1237.82 668.69,-1259.88"/>
<polygon fill="#757575" stroke="#757575" points="666.35,-1262.49 675.92,-1267.04 671.28,-1257.51 666.35,-1262.49"/>
</g>
<!-- parser/buildLine.ts&#45;&gt;Calculus.ts -->
<g id="edge76" class="edge">
<title>parser/buildLine.ts&#45;&gt;Calculus.ts</title>
<path fill="none" stroke="#757575" d="M551.66,-1189.83C556.2,-1187.31 560.39,-1184.26 564,-1180.56 614.24,-1128.95 563.46,-1084.62 600,-1022.56 664.19,-913.52 703.13,-897.02 812,-832.56 906.47,-776.63 939.12,-779.58 1045,-750.56 1116.43,-730.98 1200.75,-715.53 1253.81,-706.71"/>
<polygon fill="#757575" stroke="#757575" points="1254.69,-710.11 1263.99,-705.04 1253.55,-703.21 1254.69,-710.11"/>
</g>
<!-- parser/buildLine.ts&#45;&gt;pidraw.common.ts -->
<g id="edge81" class="edge">
<title>parser/buildLine.ts&#45;&gt;pidraw.common.ts</title>
<path fill="none" stroke="#757575" d="M545.9,-1212.12C630.21,-1228.45 773.93,-1256.53 776,-1258.56 828.71,-1310.15 756.81,-1371.63 812,-1420.56 903.48,-1501.65 1284.28,-1480.73 1361,-1385.56 1434.09,-1294.88 1456.53,-911.58 1461.06,-815.48"/>
<polygon fill="#757575" stroke="#757575" points="1464.57,-815.37 1461.53,-805.22 1457.58,-815.05 1464.57,-815.37"/>
</g>
<!-- parser/buildLine.ts&#45;&gt;figures/AbstractFigure.ts -->
<g id="edge77" class="edge">
<title>parser/buildLine.ts&#45;&gt;figures/AbstractFigure.ts</title>
<path fill="none" stroke="#757575" d="M550.86,-1188.96C555.57,-1186.64 560.03,-1183.87 564,-1180.56 593.33,-1156.11 570.62,-1126.93 600,-1102.56 744.27,-982.87 829.2,-1052.57 1009,-999.56 1035.71,-991.68 1065.33,-981.67 1088.58,-973.51"/>
<polygon fill="#757575" stroke="#757575" points="1089.86,-976.77 1098.12,-970.14 1087.53,-970.17 1089.86,-976.77"/>
</g>
<!-- parser/buildLine.ts&#45;&gt;figures/Line.ts -->
<g id="edge78" class="edge">
<title>parser/buildLine.ts&#45;&gt;figures/Line.ts</title>
<path fill="none" stroke="#757575" d="M551.71,-1194.19C612.49,-1190.99 704.02,-1193.08 776,-1224.56 795.89,-1233.25 792.67,-1247.68 812,-1257.56 822.88,-1263.11 835.19,-1267.12 847.3,-1270.02"/>
<polygon fill="#757575" stroke="#757575" points="846.89,-1273.51 857.4,-1272.2 848.37,-1266.67 846.89,-1273.51"/>
</g>
<!-- parser/buildLine.ts&#45;&gt;figures/Point.ts -->
<g id="edge79" class="edge">
<title>parser/buildLine.ts&#45;&gt;figures/Point.ts</title>
<path fill="none" stroke="#757575" d="M536.78,-1189.03C545.93,-1186.53 555.32,-1183.68 564,-1180.56 596.55,-1168.83 632.14,-1151.52 656.62,-1138.86"/>
<polygon fill="#757575" stroke="#757575" points="658.51,-1141.83 665.75,-1134.09 655.27,-1135.62 658.51,-1141.83"/>
</g>
<!-- parser/buildLine.ts&#45;&gt;parser/parser.common.ts -->
<g id="edge80" class="edge">
<title>parser/buildLine.ts&#45;&gt;parser/parser.common.ts</title>
<path fill="none" stroke="#757575" d="M528.65,-1212.18C540.4,-1216.07 552.95,-1220.89 564,-1226.56 581.56,-1235.56 582.3,-1243.83 600,-1252.56 608.91,-1256.95 618.7,-1260.75 628.4,-1263.99"/>
<polygon fill="#757575" stroke="#757575" points="627.45,-1267.36 638.04,-1267.04 629.56,-1260.69 627.45,-1267.36"/>
</g>
<!-- parser/buildPlot.ts&#45;&gt;pidraw.common.ts -->
<g id="edge89" class="edge">
<title>parser/buildPlot.ts&#45;&gt;pidraw.common.ts</title>
<path fill="none" stroke="#757575" d="M522.46,-657.12C544.72,-663.92 573.83,-672.38 600,-678.56 885.82,-746.03 960.89,-749.28 1253,-779.56 1297.26,-784.14 1346.95,-787.54 1386.77,-789.84"/>
<polygon fill="#757575" stroke="#757575" points="1386.76,-793.35 1396.94,-790.42 1387.15,-786.36 1386.76,-793.35"/>
</g>
<!-- parser/buildPlot.ts&#45;&gt;figures/AbstractFigure.ts -->
<g id="edge82" class="edge">
<title>parser/buildPlot.ts&#45;&gt;figures/AbstractFigure.ts</title>
<path fill="none" stroke="#757575" d="M493.41,-657.35C524.62,-705.73 651.24,-888.95 812,-944.56 883.76,-969.38 970.09,-971.59 1034.69,-968.31"/>
<polygon fill="#757575" stroke="#757575" points="1035.07,-971.79 1044.86,-967.74 1034.68,-964.8 1035.07,-971.79"/>
</g>
<!-- parser/buildPlot.ts&#45;&gt;figures/FillBetween.ts -->
<g id="edge83" class="edge">
<title>parser/buildPlot.ts&#45;&gt;figures/FillBetween.ts</title>
<path fill="none" stroke="#757575" d="M550.7,-638.79C567.01,-637.09 584.77,-635.24 601.91,-633.44"/>
<polygon fill="#757575" stroke="#757575" points="602.34,-636.92 611.92,-632.4 601.61,-629.96 602.34,-636.92"/>
</g>
<!-- parser/buildPlot.ts&#45;&gt;figures/Follow.ts -->
<g id="edge84" class="edge">
<title>parser/buildPlot.ts&#45;&gt;figures/Follow.ts</title>
<path fill="none" stroke="#757575" d="M548.78,-633.99C554.17,-631.67 559.34,-628.89 564,-625.56 587.76,-608.55 576.58,-588.02 600,-570.56 605.52,-566.44 611.69,-562.97 618.12,-560.05"/>
<polygon fill="#757575" stroke="#757575" points="619.76,-563.16 627.69,-556.15 617.11,-556.68 619.76,-563.16"/>
</g>
<!-- parser/buildPlot.ts&#45;&gt;figures/Parametric.ts -->
<g id="edge85" class="edge">
<title>parser/buildPlot.ts&#45;&gt;figures/Parametric.ts</title>
<path fill="none" stroke="#757575" d="M550.67,-635.54C555.61,-632.9 560.16,-629.62 564,-625.56 620.39,-565.99 538.48,-498.81 600,-444.56 632.55,-415.85 746.71,-414.56 826.87,-417.55"/>
<polygon fill="#757575" stroke="#757575" points="826.83,-421.05 836.96,-417.96 827.11,-414.06 826.83,-421.05"/>
</g>
<!-- parser/buildPlot.ts&#45;&gt;figures/Plot.ts -->
<g id="edge86" class="edge">
<title>parser/buildPlot.ts&#45;&gt;figures/Plot.ts</title>
<path fill="none" stroke="#757575" d="M539.51,-633.94C547.83,-631.53 556.24,-628.74 564,-625.56 581.14,-618.52 582.34,-610.13 600,-604.56 683.04,-578.32 784.49,-574.84 848.07,-575.85"/>
<polygon fill="#757575" stroke="#757575" points="848.26,-579.35 858.33,-576.05 848.4,-572.35 848.26,-579.35"/>
</g>
<!-- parser/buildPlot.ts&#45;&gt;figures/Riemann.ts -->
<g id="edge87" class="edge">
<title>parser/buildPlot.ts&#45;&gt;figures/Riemann.ts</title>
<path fill="none" stroke="#757575" d="M550.82,-634.54C555.6,-632.09 560.08,-629.14 564,-625.56 599.2,-593.43 570.98,-562.36 600,-524.56 614.08,-506.21 635.38,-491.39 653.38,-481.06"/>
<polygon fill="#757575" stroke="#757575" points="655.37,-483.97 662.44,-476.08 651.99,-477.84 655.37,-483.97"/>
</g>
<!-- parser/buildPlot.ts&#45;&gt;parser/parser.common.ts -->
<g id="edge88" class="edge">
<title>parser/buildPlot.ts&#45;&gt;parser/parser.common.ts</title>
<path fill="none" stroke="#757575" d="M487.16,-657.23C493.04,-713.23 522.34,-959.24 600,-1143.56 618.59,-1187.69 651.4,-1233.37 670.98,-1258.65"/>
<polygon fill="#757575" stroke="#757575" points="668.37,-1261.01 677.3,-1266.71 673.88,-1256.69 668.37,-1261.01"/>
</g>
<!-- parser/buildPoint.ts&#45;&gt;Calculus.ts -->
<g id="edge90" class="edge">
<title>parser/buildPoint.ts&#45;&gt;Calculus.ts</title>
<path fill="none" stroke="#757575" d="M554.28,-1405.02C569.3,-1406.91 585.16,-1408.58 600,-1409.56 678.05,-1414.67 698.34,-1418.92 776,-1409.56 987.19,-1384.1 1098.33,-1400.1 1217,-1223.56 1274.06,-1138.66 1298.98,-808.22 1304.68,-720.2"/>
<polygon fill="#757575" stroke="#757575" points="1308.19,-720.26 1305.32,-710.06 1301.2,-719.82 1308.19,-720.26"/>
</g>
<!-- parser/buildPoint.ts&#45;&gt;pidraw.common.ts -->
<g id="edge95" class="edge">
<title>parser/buildPoint.ts&#45;&gt;pidraw.common.ts</title>
<path fill="none" stroke="#757575" d="M493.67,-1406.06C531.56,-1461.41 705.19,-1697.56 909.5,-1697.56 909.5,-1697.56 909.5,-1697.56 1132,-1697.56 1245.69,-1697.56 1299.68,-1679.29 1361,-1583.56 1445.9,-1451.01 1459.67,-929.35 1461.68,-815.55"/>
<polygon fill="#757575" stroke="#757575" points="1465.19,-815.36 1461.85,-805.3 1458.19,-815.25 1465.19,-815.36"/>
</g>
<!-- parser/buildPoint.ts&#45;&gt;figures/AbstractFigure.ts -->
<g id="edge91" class="edge">
<title>parser/buildPoint.ts&#45;&gt;figures/AbstractFigure.ts</title>
<path fill="none" stroke="#757575" d="M554.1,-1400.12C613.33,-1403.36 701.16,-1404.32 776,-1389.56 803.27,-1384.18 989.65,-1318.5 1009,-1298.56 1099.57,-1205.18 1122.82,-1039.63 1128.37,-980.39"/>
<polygon fill="#757575" stroke="#757575" points="1131.87,-980.57 1129.24,-970.31 1124.9,-979.97 1131.87,-980.57"/>
</g>
<!-- parser/buildPoint.ts&#45;&gt;figures/Line.ts -->
<g id="edge92" class="edge">
<title>parser/buildPoint.ts&#45;&gt;figures/Line.ts</title>
<path fill="none" stroke="#757575" d="M554.07,-1394.5C614.04,-1392.56 702.97,-1385.01 776,-1359.56 798.42,-1351.74 852.35,-1316.45 884.38,-1294.79"/>
<polygon fill="#757575" stroke="#757575" points="886.49,-1297.59 892.79,-1289.08 882.56,-1291.8 886.49,-1297.59"/>
</g>
<!-- parser/buildPoint.ts&#45;&gt;figures/Point.ts -->
<g id="edge93" class="edge">
<title>parser/buildPoint.ts&#45;&gt;figures/Point.ts</title>
<path fill="none" stroke="#757575" d="M508.68,-1382.97C525.76,-1373.3 548.75,-1358.12 564,-1339.56 589,-1309.11 581.33,-1293.25 600,-1258.56 623.05,-1215.72 654.83,-1168.46 672.91,-1142.46"/>
<polygon fill="#757575" stroke="#757575" points="675.83,-1144.4 678.7,-1134.2 670.09,-1140.38 675.83,-1144.4"/>
</g>
<!-- parser/buildPoint.ts&#45;&gt;parser/parser.common.ts -->
<g id="edge94" class="edge">
<title>parser/buildPoint.ts&#45;&gt;parser/parser.common.ts</title>
<path fill="none" stroke="#757575" d="M506.01,-1383.01C541.73,-1362.39 616.62,-1319.17 658,-1295.29"/>
<polygon fill="#757575" stroke="#757575" points="659.86,-1298.26 666.78,-1290.23 656.36,-1292.19 659.86,-1298.26"/>
</g>
<!-- parser/buildPolygon.ts&#45;&gt;pidraw.common.ts -->
<g id="edge100" class="edge">
<title>parser/buildPolygon.ts&#45;&gt;pidraw.common.ts</title>
<path fill="none" stroke="#757575" d="M502.53,-1330.34C566.5,-1375.95 795.16,-1538.72 812,-1547.56 852.91,-1569.01 863.31,-1583.56 909.5,-1583.56 909.5,-1583.56 909.5,-1583.56 1132,-1583.56 1235.1,-1583.56 1289.08,-1620.43 1361,-1546.56 1465.74,-1438.96 1464.06,-927.13 1462.41,-815.21"/>
<polygon fill="#757575" stroke="#757575" points="1465.91,-815.07 1462.24,-805.13 1458.91,-815.18 1465.91,-815.07"/>
</g>
<!-- parser/buildPolygon.ts&#45;&gt;figures/AbstractFigure.ts -->
<g id="edge96" class="edge">
<title>parser/buildPolygon.ts&#45;&gt;figures/AbstractFigure.ts</title>
<path fill="none" stroke="#757575" d="M564.18,-1322.36C638.29,-1324.4 743.05,-1322.76 776,-1299.56 808.88,-1276.41 782.25,-1243.6 812,-1216.56 880.12,-1154.63 936.48,-1209.26 1009,-1152.56 1069.28,-1105.42 1107.39,-1019.27 1122.53,-979.59"/>
<polygon fill="#757575" stroke="#757575" points="1125.85,-980.71 1126.04,-970.12 1119.29,-978.28 1125.85,-980.71"/>
</g>
<!-- parser/buildPolygon.ts&#45;&gt;figures/Point.ts -->
<g id="edge97" class="edge">
<title>parser/buildPolygon.ts&#45;&gt;figures/Point.ts</title>
<path fill="none" stroke="#757575" d="M497.97,-1306.88C531.56,-1274.13 626.88,-1181.18 667.87,-1141.21"/>
<polygon fill="#757575" stroke="#757575" points="670.38,-1143.66 675.09,-1134.17 665.49,-1138.64 670.38,-1143.66"/>
</g>
<!-- parser/buildPolygon.ts&#45;&gt;figures/Polygon.ts -->
<g id="edge98" class="edge">
<title>parser/buildPolygon.ts&#45;&gt;figures/Polygon.ts</title>
<path fill="none" stroke="#757575" d="M515.08,-1330.09C570.65,-1350.1 693.66,-1384.37 776,-1332.56 807.29,-1312.86 782.97,-1280.45 812,-1257.56 818.92,-1252.1 826.93,-1247.99 835.34,-1244.89"/>
<polygon fill="#757575" stroke="#757575" points="836.5,-1248.2 844.96,-1241.82 834.37,-1241.53 836.5,-1248.2"/>
</g>
<!-- parser/buildPolygon.ts&#45;&gt;parser/parser.common.ts -->
<g id="edge99" class="edge">
<title>parser/buildPolygon.ts&#45;&gt;parser/parser.common.ts</title>
<path fill="none" stroke="#757575" d="M543.87,-1307.04C567.41,-1302.35 594.79,-1296.9 619.26,-1292.04"/>
<polygon fill="#757575" stroke="#757575" points="620.07,-1295.44 629.19,-1290.06 618.7,-1288.58 620.07,-1295.44"/>
</g>
</g>
</svg>
