<?xml version="1.0" encoding="UTF-8" standalone="no"?>
<!DOCTYPE svg PUBLIC "-//W3C//DTD SVG 1.1//EN"
 "http://www.w3.org/Graphics/SVG/1.1/DTD/svg11.dtd">
<!-- Generated by graphviz version 3.0.0 (20220226.1711)
 -->
<!-- Title: G Pages: 1 -->
<svg width="902pt" height="462pt"
 viewBox="0.00 0.00 902.20 461.91" xmlns="http://www.w3.org/2000/svg" xmlns:xlink="http://www.w3.org/1999/xlink">
<g id="graph0" class="graph" transform="scale(1 1) rotate(0) translate(21.6 440.31)">
<title>G</title>
<polygon fill="#111111" stroke="transparent" points="-21.6,21.6 -21.6,-440.31 880.6,-440.31 880.6,21.6 -21.6,21.6"/>
<!-- Calculus.ts -->
<g id="node1" class="node">
<title>Calculus.ts</title>
<path fill="none" stroke="#c6c5fe" d="M640.33,-256.35C640.33,-256.35 569.67,-256.35 569.67,-256.35 565.83,-256.35 562,-252.52 562,-248.68 562,-248.68 562,-241.02 562,-241.02 562,-237.18 565.83,-233.35 569.67,-233.35 569.67,-233.35 640.33,-233.35 640.33,-233.35 644.17,-233.35 648,-237.18 648,-241.02 648,-241.02 648,-248.68 648,-248.68 648,-252.52 644.17,-256.35 640.33,-256.35"/>
<text text-anchor="middle" x="605" y="-241.15" font-family="Arial" font-size="14.00" fill="#c6c5fe">Calculus.ts</text>
</g>
<!-- pidraw.common.ts -->
<g id="node2" class="node">
<title>pidraw.common.ts</title>
<path fill="none" stroke="#cfffac" d="M851.33,-216.35C851.33,-216.35 734.67,-216.35 734.67,-216.35 730.83,-216.35 727,-212.52 727,-208.68 727,-208.68 727,-201.02 727,-201.02 727,-197.18 730.83,-193.35 734.67,-193.35 734.67,-193.35 851.33,-193.35 851.33,-193.35 855.17,-193.35 859,-197.18 859,-201.02 859,-201.02 859,-208.68 859,-208.68 859,-212.52 855.17,-216.35 851.33,-216.35"/>
<text text-anchor="middle" x="793" y="-201.15" font-family="Arial" font-size="14.00" fill="#cfffac">pidraw.common.ts</text>
</g>
<!-- Calculus.ts&#45;&gt;pidraw.common.ts -->
<g id="edge1" class="edge">
<title>Calculus.ts&#45;&gt;pidraw.common.ts</title>
<path fill="none" stroke="#757575" d="M648.21,-235.77C671.87,-230.68 701.87,-224.23 728.33,-218.54"/>
<polygon fill="#757575" stroke="#757575" points="729.24,-221.93 738.28,-216.4 727.77,-215.08 729.24,-221.93"/>
</g>
<!-- Graph.ts -->
<g id="node3" class="node">
<title>Graph.ts</title>
<path fill="none" stroke="#c6c5fe" d="M161.33,-216.35C161.33,-216.35 105.67,-216.35 105.67,-216.35 101.83,-216.35 98,-212.52 98,-208.68 98,-208.68 98,-201.02 98,-201.02 98,-197.18 101.83,-193.35 105.67,-193.35 105.67,-193.35 161.33,-193.35 161.33,-193.35 165.17,-193.35 169,-197.18 169,-201.02 169,-201.02 169,-208.68 169,-208.68 169,-212.52 165.17,-216.35 161.33,-216.35"/>
<text text-anchor="middle" x="133.5" y="-201.15" font-family="Arial" font-size="14.00" fill="#c6c5fe">Graph.ts</text>
</g>
<!-- Graph.ts&#45;&gt;Calculus.ts -->
<g id="edge2" class="edge">
<title>Graph.ts&#45;&gt;Calculus.ts</title>
<path fill="none" stroke="#757575" d="M153.26,-216.42C167.09,-224.45 186.61,-234.75 205,-240.85 322.75,-279.91 359.4,-276.5 483,-265.85 505.83,-263.88 530.82,-259.87 552.13,-255.87"/>
<polygon fill="#757575" stroke="#757575" points="552.8,-259.3 561.95,-253.98 551.47,-252.43 552.8,-259.3"/>
</g>
<!-- Graph.ts&#45;&gt;pidraw.common.ts -->
<g id="edge12" class="edge">
<title>Graph.ts&#45;&gt;pidraw.common.ts</title>
<path fill="none" stroke="#757575" d="M134.98,-216.68C137.02,-249.83 147.84,-343.78 205,-383.85 306.18,-454.78 359.75,-396.69 483,-387.85 576.16,-381.17 612.13,-407.88 691,-357.85 740.93,-326.18 771.58,-259.9 784.64,-225.92"/>
<polygon fill="#757575" stroke="#757575" points="787.94,-227.08 788.13,-216.49 781.38,-224.65 787.94,-227.08"/>
</g>
<!-- Parser.ts -->
<g id="node4" class="node">
<title>Parser.ts</title>
<path fill="none" stroke="#c6c5fe" d="M289.83,-375.35C289.83,-375.35 231.17,-375.35 231.17,-375.35 227.33,-375.35 223.5,-371.52 223.5,-367.68 223.5,-367.68 223.5,-360.02 223.5,-360.02 223.5,-356.18 227.33,-352.35 231.17,-352.35 231.17,-352.35 289.83,-352.35 289.83,-352.35 293.67,-352.35 297.5,-356.18 297.5,-360.02 297.5,-360.02 297.5,-367.68 297.5,-367.68 297.5,-371.52 293.67,-375.35 289.83,-375.35"/>
<text text-anchor="middle" x="260.5" y="-360.15" font-family="Arial" font-size="14.00" fill="#c6c5fe">Parser.ts</text>
</g>
<!-- Graph.ts&#45;&gt;Parser.ts -->
<g id="edge3" class="edge">
<title>Graph.ts&#45;&gt;Parser.ts</title>
<path fill="none" stroke="#757575" d="M137.96,-216.72C145.9,-242.06 167.65,-302.04 205,-337.85 208.74,-341.43 213.06,-344.6 217.6,-347.38"/>
<polygon fill="#757575" stroke="#757575" points="216.06,-350.52 226.51,-352.25 219.42,-344.38 216.06,-350.52"/>
</g>
<!-- figures/AbstractFigure.ts -->
<g id="node5" class="node">
<title>figures/AbstractFigure.ts</title>
<path fill="none" stroke="#c6c5fe" d="M683.33,-138.35C683.33,-138.35 526.67,-138.35 526.67,-138.35 522.83,-138.35 519,-134.52 519,-130.68 519,-130.68 519,-123.02 519,-123.02 519,-119.18 522.83,-115.35 526.67,-115.35 526.67,-115.35 683.33,-115.35 683.33,-115.35 687.17,-115.35 691,-119.18 691,-123.02 691,-123.02 691,-130.68 691,-130.68 691,-134.52 687.17,-138.35 683.33,-138.35"/>
<text text-anchor="middle" x="605" y="-123.15" font-family="Arial" font-size="14.00" fill="#c6c5fe">figures/AbstractFigure.ts</text>
</g>
<!-- Graph.ts&#45;&gt;figures/AbstractFigure.ts -->
<g id="edge4" class="edge">
<title>Graph.ts&#45;&gt;figures/AbstractFigure.ts</title>
<path fill="none" stroke="#757575" d="M134.85,-193.29C136.55,-160.01 146.54,-63.82 205,-23.85 235.36,-3.1 464.53,-31.91 483,-38.85 523.72,-54.14 562.93,-87.07 585.19,-108.03"/>
<polygon fill="#757575" stroke="#757575" points="582.97,-110.74 592.6,-115.15 587.82,-105.7 582.97,-110.74"/>
</g>
<!-- figures/Arc.ts -->
<g id="node6" class="node">
<title>figures/Arc.ts</title>
<path fill="none" stroke="#c6c5fe" d="M460.33,-175.35C460.33,-175.35 374.67,-175.35 374.67,-175.35 370.83,-175.35 367,-171.52 367,-167.68 367,-167.68 367,-160.02 367,-160.02 367,-156.18 370.83,-152.35 374.67,-152.35 374.67,-152.35 460.33,-152.35 460.33,-152.35 464.17,-152.35 468,-156.18 468,-160.02 468,-160.02 468,-167.68 468,-167.68 468,-171.52 464.17,-175.35 460.33,-175.35"/>
<text text-anchor="middle" x="417.5" y="-160.15" font-family="Arial" font-size="14.00" fill="#c6c5fe">figures/Arc.ts</text>
</g>
<!-- Graph.ts&#45;&gt;figures/Arc.ts -->
<g id="edge5" class="edge">
<title>Graph.ts&#45;&gt;figures/Arc.ts</title>
<path fill="none" stroke="#757575" d="M169.08,-199.82C215.84,-193.02 299.92,-180.8 356.95,-172.51"/>
<polygon fill="#757575" stroke="#757575" points="357.52,-175.96 366.92,-171.06 356.52,-169.03 357.52,-175.96"/>
</g>
<!-- figures/Circle.ts -->
<g id="node7" class="node">
<title>figures/Circle.ts</title>
<path fill="none" stroke="#c6c5fe" d="M467.83,-134.35C467.83,-134.35 367.17,-134.35 367.17,-134.35 363.33,-134.35 359.5,-130.52 359.5,-126.68 359.5,-126.68 359.5,-119.02 359.5,-119.02 359.5,-115.18 363.33,-111.35 367.17,-111.35 367.17,-111.35 467.83,-111.35 467.83,-111.35 471.67,-111.35 475.5,-115.18 475.5,-119.02 475.5,-119.02 475.5,-126.68 475.5,-126.68 475.5,-130.52 471.67,-134.35 467.83,-134.35"/>
<text text-anchor="middle" x="417.5" y="-119.15" font-family="Arial" font-size="14.00" fill="#c6c5fe">figures/Circle.ts</text>
</g>
<!-- Graph.ts&#45;&gt;figures/Circle.ts -->
<g id="edge6" class="edge">
<title>Graph.ts&#45;&gt;figures/Circle.ts</title>
<path fill="none" stroke="#757575" d="M159.95,-193.34C173.21,-187.61 189.79,-180.86 205,-175.85 253.27,-159.97 309.07,-146.17 351.23,-136.63"/>
<polygon fill="#757575" stroke="#757575" points="352.11,-140.03 361.1,-134.43 350.58,-133.2 352.11,-140.03"/>
</g>
<!-- figures/Grid.ts -->
<g id="node8" class="node">
<title>figures/Grid.ts</title>
<path fill="none" stroke="#c6c5fe" d="M462.83,-257.35C462.83,-257.35 372.17,-257.35 372.17,-257.35 368.33,-257.35 364.5,-253.52 364.5,-249.68 364.5,-249.68 364.5,-242.02 364.5,-242.02 364.5,-238.18 368.33,-234.35 372.17,-234.35 372.17,-234.35 462.83,-234.35 462.83,-234.35 466.67,-234.35 470.5,-238.18 470.5,-242.02 470.5,-242.02 470.5,-249.68 470.5,-249.68 470.5,-253.52 466.67,-257.35 462.83,-257.35"/>
<text text-anchor="middle" x="417.5" y="-242.15" font-family="Arial" font-size="14.00" fill="#c6c5fe">figures/Grid.ts</text>
</g>
<!-- Graph.ts&#45;&gt;figures/Grid.ts -->
<g id="edge7" class="edge">
<title>Graph.ts&#45;&gt;figures/Grid.ts</title>
<path fill="none" stroke="#757575" d="M169.2,-212.24C180.57,-214.52 193.3,-216.94 205,-218.85 254.95,-226.99 311.88,-234.14 354.08,-239.03"/>
<polygon fill="#757575" stroke="#757575" points="353.87,-242.53 364.2,-240.19 354.67,-235.57 353.87,-242.53"/>
</g>
<!-- figures/Line.ts -->
<g id="node9" class="node">
<title>figures/Line.ts</title>
<path fill="none" stroke="#c6c5fe" d="M462.83,-93.35C462.83,-93.35 372.17,-93.35 372.17,-93.35 368.33,-93.35 364.5,-89.52 364.5,-85.68 364.5,-85.68 364.5,-78.02 364.5,-78.02 364.5,-74.18 368.33,-70.35 372.17,-70.35 372.17,-70.35 462.83,-70.35 462.83,-70.35 466.67,-70.35 470.5,-74.18 470.5,-78.02 470.5,-78.02 470.5,-85.68 470.5,-85.68 470.5,-89.52 466.67,-93.35 462.83,-93.35"/>
<text text-anchor="middle" x="417.5" y="-78.15" font-family="Arial" font-size="14.00" fill="#c6c5fe">figures/Line.ts</text>
</g>
<!-- Graph.ts&#45;&gt;figures/Line.ts -->
<g id="edge8" class="edge">
<title>Graph.ts&#45;&gt;figures/Line.ts</title>
<path fill="none" stroke="#757575" d="M144.3,-193.35C156.94,-179.22 180.26,-155.46 205,-141.85 251.85,-116.08 310.76,-100.55 354.5,-91.76"/>
<polygon fill="#757575" stroke="#757575" points="355.28,-95.18 364.43,-89.83 353.95,-88.31 355.28,-95.18"/>
</g>
<!-- figures/Plot.ts -->
<g id="node10" class="node">
<title>figures/Plot.ts</title>
<path fill="none" stroke="#c6c5fe" d="M461.83,-216.35C461.83,-216.35 373.17,-216.35 373.17,-216.35 369.33,-216.35 365.5,-212.52 365.5,-208.68 365.5,-208.68 365.5,-201.02 365.5,-201.02 365.5,-197.18 369.33,-193.35 373.17,-193.35 373.17,-193.35 461.83,-193.35 461.83,-193.35 465.67,-193.35 469.5,-197.18 469.5,-201.02 469.5,-201.02 469.5,-208.68 469.5,-208.68 469.5,-212.52 465.67,-216.35 461.83,-216.35"/>
<text text-anchor="middle" x="417.5" y="-201.15" font-family="Arial" font-size="14.00" fill="#c6c5fe">figures/Plot.ts</text>
</g>
<!-- Graph.ts&#45;&gt;figures/Plot.ts -->
<g id="edge9" class="edge">
<title>Graph.ts&#45;&gt;figures/Plot.ts</title>
<path fill="none" stroke="#757575" d="M169.08,-204.85C215.32,-204.85 298.08,-204.85 355.07,-204.85"/>
<polygon fill="#757575" stroke="#757575" points="355.39,-208.35 365.39,-204.85 355.39,-201.35 355.39,-208.35"/>
</g>
<!-- figures/Point.ts -->
<g id="node11" class="node">
<title>figures/Point.ts</title>
<path fill="none" stroke="#c6c5fe" d="M308.33,-56.35C308.33,-56.35 212.67,-56.35 212.67,-56.35 208.83,-56.35 205,-52.52 205,-48.68 205,-48.68 205,-41.02 205,-41.02 205,-37.18 208.83,-33.35 212.67,-33.35 212.67,-33.35 308.33,-33.35 308.33,-33.35 312.17,-33.35 316,-37.18 316,-41.02 316,-41.02 316,-48.68 316,-48.68 316,-52.52 312.17,-56.35 308.33,-56.35"/>
<text text-anchor="middle" x="260.5" y="-41.15" font-family="Arial" font-size="14.00" fill="#c6c5fe">figures/Point.ts</text>
</g>
<!-- Graph.ts&#45;&gt;figures/Point.ts -->
<g id="edge10" class="edge">
<title>Graph.ts&#45;&gt;figures/Point.ts</title>
<path fill="none" stroke="#757575" d="M138.01,-193.02C146.02,-167.76 167.91,-107.93 205,-71.85 209.07,-67.89 213.83,-64.41 218.82,-61.37"/>
<polygon fill="#757575" stroke="#757575" points="220.84,-64.25 227.93,-56.38 217.48,-58.11 220.84,-64.25"/>
</g>
<!-- figures/Polygon.ts -->
<g id="node12" class="node">
<title>figures/Polygon.ts</title>
<path fill="none" stroke="#c6c5fe" d="M475.33,-337.35C475.33,-337.35 359.67,-337.35 359.67,-337.35 355.83,-337.35 352,-333.52 352,-329.68 352,-329.68 352,-322.02 352,-322.02 352,-318.18 355.83,-314.35 359.67,-314.35 359.67,-314.35 475.33,-314.35 475.33,-314.35 479.17,-314.35 483,-318.18 483,-322.02 483,-322.02 483,-329.68 483,-329.68 483,-333.52 479.17,-337.35 475.33,-337.35"/>
<text text-anchor="middle" x="417.5" y="-322.15" font-family="Arial" font-size="14.00" fill="#c6c5fe">figures/Polygon.ts</text>
</g>
<!-- Graph.ts&#45;&gt;figures/Polygon.ts -->
<g id="edge11" class="edge">
<title>Graph.ts&#45;&gt;figures/Polygon.ts</title>
<path fill="none" stroke="#757575" d="M139.42,-216.62C148.78,-237.39 171.28,-280.21 205,-299.85 245.99,-323.72 298.98,-330.2 341.66,-330.73"/>
<polygon fill="#757575" stroke="#757575" points="341.71,-334.23 351.72,-330.74 341.72,-327.23 341.71,-334.23"/>
</g>
<!-- Parser.ts&#45;&gt;pidraw.common.ts -->
<g id="edge13" class="edge">
<title>Parser.ts&#45;&gt;pidraw.common.ts</title>
<path fill="none" stroke="#757575" d="M297.74,-368.71C375.11,-377.3 560.01,-388.29 691,-318.85 731.78,-297.23 763.91,-252.09 780.22,-225.56"/>
<polygon fill="#757575" stroke="#757575" points="783.39,-227.08 785.5,-216.7 777.37,-223.5 783.39,-227.08"/>
</g>
<!-- figures/AbstractFigure.ts&#45;&gt;pidraw.common.ts -->
<g id="edge15" class="edge">
<title>figures/AbstractFigure.ts&#45;&gt;pidraw.common.ts</title>
<path fill="none" stroke="#757575" d="M649.33,-138.48C662.85,-142.54 677.71,-147.44 691,-152.85 716.08,-163.05 743.3,-177.26 763.16,-188.25"/>
<polygon fill="#757575" stroke="#757575" points="761.56,-191.37 772,-193.2 764.98,-185.26 761.56,-191.37"/>
</g>
<!-- labels/Label.ts -->
<g id="node13" class="node">
<title>labels/Label.ts</title>
<path fill="none" stroke="#cfffac" d="M839.33,-138.35C839.33,-138.35 746.67,-138.35 746.67,-138.35 742.83,-138.35 739,-134.52 739,-130.68 739,-130.68 739,-123.02 739,-123.02 739,-119.18 742.83,-115.35 746.67,-115.35 746.67,-115.35 839.33,-115.35 839.33,-115.35 843.17,-115.35 847,-119.18 847,-123.02 847,-123.02 847,-130.68 847,-130.68 847,-134.52 843.17,-138.35 839.33,-138.35"/>
<text text-anchor="middle" x="793" y="-123.15" font-family="Arial" font-size="14.00" fill="#cfffac">labels/Label.ts</text>
</g>
<!-- figures/AbstractFigure.ts&#45;&gt;labels/Label.ts -->
<g id="edge14" class="edge">
<title>figures/AbstractFigure.ts&#45;&gt;labels/Label.ts</title>
<path fill="none" stroke="#757575" d="M691.11,-126.85C703.81,-126.85 716.71,-126.85 728.86,-126.85"/>
<polygon fill="#757575" stroke="#757575" points="728.86,-130.35 738.86,-126.85 728.86,-123.35 728.86,-130.35"/>
</g>
<!-- figures/Arc.ts&#45;&gt;Calculus.ts -->
<g id="edge16" class="edge">
<title>figures/Arc.ts&#45;&gt;Calculus.ts</title>
<path fill="none" stroke="#757575" d="M459.46,-175.43C467.36,-177.97 475.5,-180.82 483,-183.85 515.16,-196.84 550.41,-215.1 574.52,-228.25"/>
<polygon fill="#757575" stroke="#757575" points="573.06,-231.44 583.5,-233.19 576.43,-225.3 573.06,-231.44"/>
</g>
<!-- figures/Arc.ts&#45;&gt;pidraw.common.ts -->
<g id="edge18" class="edge">
<title>figures/Arc.ts&#45;&gt;pidraw.common.ts</title>
<path fill="none" stroke="#757575" d="M468.1,-169.29C531.68,-176.27 642.54,-188.44 716.6,-196.57"/>
<polygon fill="#757575" stroke="#757575" points="716.48,-200.08 726.8,-197.69 717.24,-193.12 716.48,-200.08"/>
</g>
<!-- figures/Arc.ts&#45;&gt;figures/AbstractFigure.ts -->
<g id="edge17" class="edge">
<title>figures/Arc.ts&#45;&gt;figures/AbstractFigure.ts</title>
<path fill="none" stroke="#757575" d="M468.21,-153.93C489.15,-149.76 513.85,-144.83 536.41,-140.33"/>
<polygon fill="#757575" stroke="#757575" points="537.14,-143.76 546.26,-138.37 535.77,-136.89 537.14,-143.76"/>
</g>
<!-- figures/Circle.ts&#45;&gt;Calculus.ts -->
<g id="edge19" class="edge">
<title>figures/Circle.ts&#45;&gt;Calculus.ts</title>
<path fill="none" stroke="#757575" d="M463.86,-134.38C470.46,-136.78 477.03,-139.59 483,-142.85 524.18,-165.38 564.29,-203.27 586.42,-225.98"/>
<polygon fill="#757575" stroke="#757575" points="584.02,-228.54 593.46,-233.33 589.07,-223.69 584.02,-228.54"/>
</g>
<!-- figures/Circle.ts&#45;&gt;pidraw.common.ts -->
<g id="edge21" class="edge">
<title>figures/Circle.ts&#45;&gt;pidraw.common.ts</title>
<path fill="none" stroke="#757575" d="M451.32,-111.31C504.38,-94.67 611.11,-69.68 691,-105.85 713.09,-115.85 709.92,-129.63 727,-146.85 740.81,-160.77 757.29,-175.46 770.21,-186.57"/>
<polygon fill="#757575" stroke="#757575" points="768.24,-189.49 778.12,-193.32 772.78,-184.16 768.24,-189.49"/>
</g>
<!-- figures/Circle.ts&#45;&gt;figures/AbstractFigure.ts -->
<g id="edge20" class="edge">
<title>figures/Circle.ts&#45;&gt;figures/AbstractFigure.ts</title>
<path fill="none" stroke="#757575" d="M475.67,-124.08C486.1,-124.31 497.24,-124.55 508.44,-124.79"/>
<polygon fill="#757575" stroke="#757575" points="508.64,-128.29 518.72,-125.01 508.79,-121.3 508.64,-128.29"/>
</g>
<!-- figures/Grid.ts&#45;&gt;Calculus.ts -->
<g id="edge22" class="edge">
<title>figures/Grid.ts&#45;&gt;Calculus.ts</title>
<path fill="none" stroke="#757575" d="M470.67,-245.57C496,-245.43 526.37,-245.27 551.72,-245.13"/>
<polygon fill="#757575" stroke="#757575" points="551.91,-248.63 561.89,-245.08 551.87,-241.63 551.91,-248.63"/>
</g>
<!-- figures/Grid.ts&#45;&gt;pidraw.common.ts -->
<g id="edge24" class="edge">
<title>figures/Grid.ts&#45;&gt;pidraw.common.ts</title>
<path fill="none" stroke="#757575" d="M460.91,-257.4C515.25,-270.26 611.89,-286.58 691,-264.85 720.68,-256.7 750.46,-237.31 769.91,-222.77"/>
<polygon fill="#757575" stroke="#757575" points="772.29,-225.35 778.08,-216.48 768.02,-219.8 772.29,-225.35"/>
</g>
<!-- figures/Grid.ts&#45;&gt;figures/AbstractFigure.ts -->
<g id="edge23" class="edge">
<title>figures/Grid.ts&#45;&gt;figures/AbstractFigure.ts</title>
<path fill="none" stroke="#757575" d="M461.41,-234.33C468.81,-231.66 476.27,-228.5 483,-224.85 523.16,-203.03 563.05,-167.29 585.51,-145.53"/>
<polygon fill="#757575" stroke="#757575" points="588.02,-147.97 592.7,-138.46 583.11,-142.98 588.02,-147.97"/>
</g>
<!-- figures/Line.ts&#45;&gt;Calculus.ts -->
<g id="edge25" class="edge">
<title>figures/Line.ts&#45;&gt;Calculus.ts</title>
<path fill="none" stroke="#757575" d="M467.17,-93.44C472.74,-95.77 478.16,-98.55 483,-101.85 504.16,-116.28 502.61,-127.17 519,-146.85 542.08,-174.56 569.55,-205.94 586.88,-225.57"/>
<polygon fill="#757575" stroke="#757575" points="584.39,-228.04 593.64,-233.21 589.64,-223.4 584.39,-228.04"/>
</g>
<!-- figures/Line.ts&#45;&gt;pidraw.common.ts -->
<g id="edge27" class="edge">
<title>figures/Line.ts&#45;&gt;pidraw.common.ts</title>
<path fill="none" stroke="#757575" d="M459.21,-70.33C515.55,-56.88 618.52,-41.43 691,-83.85 718.83,-100.14 706.7,-121.79 727,-146.85 739.02,-161.7 755.01,-176.02 768.12,-186.71"/>
<polygon fill="#757575" stroke="#757575" points="766.24,-189.69 776.25,-193.18 770.61,-184.22 766.24,-189.69"/>
</g>
<!-- figures/Line.ts&#45;&gt;figures/AbstractFigure.ts -->
<g id="edge26" class="edge">
<title>figures/Line.ts&#45;&gt;figures/AbstractFigure.ts</title>
<path fill="none" stroke="#757575" d="M466.27,-93.44C490.72,-99.37 520.67,-106.64 546.39,-112.88"/>
<polygon fill="#757575" stroke="#757575" points="545.85,-116.34 556.39,-115.3 547.5,-109.54 545.85,-116.34"/>
</g>
<!-- figures/Plot.ts&#45;&gt;Calculus.ts -->
<g id="edge28" class="edge">
<title>figures/Plot.ts&#45;&gt;Calculus.ts</title>
<path fill="none" stroke="#757575" d="M469.68,-215.89C495.24,-221.4 526.11,-228.06 551.81,-233.6"/>
<polygon fill="#757575" stroke="#757575" points="551.24,-237.05 561.75,-235.74 552.71,-230.21 551.24,-237.05"/>
</g>
<!-- figures/Plot.ts&#45;&gt;pidraw.common.ts -->
<g id="edge30" class="edge">
<title>figures/Plot.ts&#45;&gt;pidraw.common.ts</title>
<path fill="none" stroke="#757575" d="M469.65,-204.85C533.48,-204.85 643.16,-204.85 716.62,-204.85"/>
<polygon fill="#757575" stroke="#757575" points="716.73,-208.35 726.73,-204.85 716.73,-201.35 716.73,-208.35"/>
</g>
<!-- figures/Plot.ts&#45;&gt;figures/AbstractFigure.ts -->
<g id="edge29" class="edge">
<title>figures/Plot.ts&#45;&gt;figures/AbstractFigure.ts</title>
<path fill="none" stroke="#757575" d="M456.64,-193.31C465.38,-190.42 474.57,-187.19 483,-183.85 514.06,-171.53 548.44,-155.05 572.58,-142.98"/>
<polygon fill="#757575" stroke="#757575" points="574.27,-146.05 581.63,-138.43 571.12,-139.8 574.27,-146.05"/>
</g>
<!-- figures/Point.ts&#45;&gt;pidraw.common.ts -->
<g id="edge33" class="edge">
<title>figures/Point.ts&#45;&gt;pidraw.common.ts</title>
<path fill="none" stroke="#757575" d="M296.35,-33.29C375.39,-9.42 570.72,35.98 691,-52.85 726.99,-79.43 701.59,-110.03 727,-146.85 737.71,-162.37 753.41,-176.53 766.69,-186.98"/>
<polygon fill="#757575" stroke="#757575" points="764.92,-190.02 775,-193.28 769.15,-184.45 764.92,-190.02"/>
</g>
<!-- figures/Point.ts&#45;&gt;figures/AbstractFigure.ts -->
<g id="edge31" class="edge">
<title>figures/Point.ts&#45;&gt;figures/AbstractFigure.ts</title>
<path fill="none" stroke="#757575" d="M316.35,-42.41C361.89,-41.89 427.88,-44.66 483,-60.85 519.03,-71.44 556.36,-93.85 579.86,-109.61"/>
<polygon fill="#757575" stroke="#757575" points="577.92,-112.53 588.15,-115.28 581.88,-106.75 577.92,-112.53"/>
</g>
<!-- figures/Point.ts&#45;&gt;figures/Line.ts -->
<g id="edge32" class="edge">
<title>figures/Point.ts&#45;&gt;figures/Line.ts</title>
<path fill="none" stroke="#757575" d="M309.69,-56.35C325.07,-60.03 342.26,-64.13 358.28,-67.95"/>
<polygon fill="#757575" stroke="#757575" points="357.53,-71.37 368.07,-70.29 359.16,-64.56 357.53,-71.37"/>
</g>
<!-- figures/Polygon.ts&#45;&gt;Calculus.ts -->
<g id="edge34" class="edge">
<title>figures/Polygon.ts&#45;&gt;Calculus.ts</title>
<path fill="none" stroke="#757575" d="M447.83,-314.34C458.9,-309.91 471.57,-304.75 483,-299.85 512.58,-287.17 545.85,-271.98 570.01,-260.78"/>
<polygon fill="#757575" stroke="#757575" points="571.52,-263.93 579.11,-256.54 568.57,-257.59 571.52,-263.93"/>
</g>
<!-- figures/Polygon.ts&#45;&gt;pidraw.common.ts -->
<g id="edge36" class="edge">
<title>figures/Polygon.ts&#45;&gt;pidraw.common.ts</title>
<path fill="none" stroke="#757575" d="M483.01,-325.42C539.91,-322.92 623.97,-313.95 691,-284.85 724.03,-270.51 755.47,-242.56 774.24,-223.8"/>
<polygon fill="#757575" stroke="#757575" points="777,-225.98 781.49,-216.38 771.99,-221.09 777,-225.98"/>
</g>
<!-- figures/Polygon.ts&#45;&gt;figures/AbstractFigure.ts -->
<g id="edge35" class="edge">
<title>figures/Polygon.ts&#45;&gt;figures/AbstractFigure.ts</title>
<path fill="none" stroke="#757575" d="M431.76,-314.31C445.09,-302.53 466.05,-283.5 483,-265.85 500.03,-248.12 502.9,-242.43 519,-223.85 542.48,-196.76 569.84,-165.61 587.04,-146.07"/>
<polygon fill="#757575" stroke="#757575" points="589.77,-148.28 593.75,-138.46 584.52,-143.65 589.77,-148.28"/>
</g>
<!-- main.ts -->
<g id="node14" class="node">
<title>main.ts</title>
<path fill="none" stroke="#c6c5fe" d="M54.33,-216.35C54.33,-216.35 7.67,-216.35 7.67,-216.35 3.83,-216.35 0,-212.52 0,-208.68 0,-208.68 0,-201.02 0,-201.02 0,-197.18 3.83,-193.35 7.67,-193.35 7.67,-193.35 54.33,-193.35 54.33,-193.35 58.17,-193.35 62,-197.18 62,-201.02 62,-201.02 62,-208.68 62,-208.68 62,-212.52 58.17,-216.35 54.33,-216.35"/>
<text text-anchor="middle" x="31" y="-201.15" font-family="Arial" font-size="14.00" fill="#c6c5fe">main.ts</text>
</g>
<!-- main.ts&#45;&gt;Graph.ts -->
<g id="edge37" class="edge">
<title>main.ts&#45;&gt;Graph.ts</title>
<path fill="none" stroke="#757575" d="M62.15,-204.85C70.22,-204.85 79.1,-204.85 87.77,-204.85"/>
<polygon fill="#757575" stroke="#757575" points="87.78,-208.35 97.78,-204.85 87.78,-201.35 87.78,-208.35"/>
</g>
</g>
</svg>
