<?xml version="1.0" encoding="UTF-8" standalone="no"?>
<!DOCTYPE svg PUBLIC "-//W3C//DTD SVG 1.1//EN"
 "http://www.w3.org/Graphics/SVG/1.1/DTD/svg11.dtd">
<!-- Generated by graphviz version 3.0.0 (20220226.1711)
 -->
<!-- Title: G Pages: 1 -->
<svg width="1572pt" height="1649pt"
 viewBox="0.00 0.00 1572.20 1648.96" xmlns="http://www.w3.org/2000/svg" xmlns:xlink="http://www.w3.org/1999/xlink">
<g id="graph0" class="graph" transform="scale(1 1) rotate(0) translate(21.6 1627.36)">
<title>G</title>
<polygon fill="#111111" stroke="transparent" points="-21.6,21.6 -21.6,-1627.36 1550.6,-1627.36 1550.6,21.6 -21.6,21.6"/>
<!-- Calculus.ts -->
<g id="node1" class="node">
<title>Calculus.ts</title>
<path fill="none" stroke="#c6c5fe" d="M1166.33,-1129.26C1166.33,-1129.26 1095.67,-1129.26 1095.67,-1129.26 1091.83,-1129.26 1088,-1125.43 1088,-1121.59 1088,-1121.59 1088,-1113.93 1088,-1113.93 1088,-1110.09 1091.83,-1106.26 1095.67,-1106.26 1095.67,-1106.26 1166.33,-1106.26 1166.33,-1106.26 1170.17,-1106.26 1174,-1110.09 1174,-1113.93 1174,-1113.93 1174,-1121.59 1174,-1121.59 1174,-1125.43 1170.17,-1129.26 1166.33,-1129.26"/>
<text text-anchor="middle" x="1131" y="-1114.06" font-family="Arial" font-size="14.00" fill="#c6c5fe">Calculus.ts</text>
</g>
<!-- pidraw.common.ts -->
<g id="node2" class="node">
<title>pidraw.common.ts</title>
<path fill="none" stroke="#cfffac" d="M1521.33,-782.26C1521.33,-782.26 1404.67,-782.26 1404.67,-782.26 1400.83,-782.26 1397,-778.43 1397,-774.59 1397,-774.59 1397,-766.93 1397,-766.93 1397,-763.09 1400.83,-759.26 1404.67,-759.26 1404.67,-759.26 1521.33,-759.26 1521.33,-759.26 1525.17,-759.26 1529,-763.09 1529,-766.93 1529,-766.93 1529,-774.59 1529,-774.59 1529,-778.43 1525.17,-782.26 1521.33,-782.26"/>
<text text-anchor="middle" x="1463" y="-767.06" font-family="Arial" font-size="14.00" fill="#cfffac">pidraw.common.ts</text>
</g>
<!-- Calculus.ts&#45;&gt;pidraw.common.ts -->
<g id="edge1" class="edge">
<title>Calculus.ts&#45;&gt;pidraw.common.ts</title>
<path fill="none" stroke="#757575" d="M1174.2,-1121.53C1224.74,-1123.66 1309.08,-1119.24 1361,-1073.76 1446.84,-998.55 1459.94,-848.42 1461.77,-792.45"/>
<polygon fill="#757575" stroke="#757575" points="1465.28,-792.36 1462.01,-782.28 1458.28,-792.2 1465.28,-792.36"/>
</g>
<!-- Graph.ts -->
<g id="node3" class="node">
<title>Graph.ts</title>
<path fill="none" stroke="#c6c5fe" d="M512.83,-1183.26C512.83,-1183.26 457.17,-1183.26 457.17,-1183.26 453.33,-1183.26 449.5,-1179.43 449.5,-1175.59 449.5,-1175.59 449.5,-1167.93 449.5,-1167.93 449.5,-1164.09 453.33,-1160.26 457.17,-1160.26 457.17,-1160.26 512.83,-1160.26 512.83,-1160.26 516.67,-1160.26 520.5,-1164.09 520.5,-1167.93 520.5,-1167.93 520.5,-1175.59 520.5,-1175.59 520.5,-1179.43 516.67,-1183.26 512.83,-1183.26"/>
<text text-anchor="middle" x="485" y="-1168.06" font-family="Arial" font-size="14.00" fill="#c6c5fe">Graph.ts</text>
</g>
<!-- Graph.ts&#45;&gt;Calculus.ts -->
<g id="edge2" class="edge">
<title>Graph.ts&#45;&gt;Calculus.ts</title>
<path fill="none" stroke="#757575" d="M487.17,-1183.37C491.98,-1224.53 514.31,-1364.07 600,-1422.76 750.04,-1525.52 859.22,-1537.9 1009,-1434.76 1109.96,-1365.23 1126.74,-1199.29 1129.48,-1139.61"/>
<polygon fill="#757575" stroke="#757575" points="1132.98,-1139.57 1129.85,-1129.45 1125.99,-1139.31 1132.98,-1139.57"/>
</g>
<!-- Graph.ts&#45;&gt;pidraw.common.ts -->
<g id="edge16" class="edge">
<title>Graph.ts&#45;&gt;pidraw.common.ts</title>
<path fill="none" stroke="#757575" d="M487.09,-1183.4C491.84,-1227.57 514.43,-1386.79 600,-1475.76 703.43,-1583.29 760.3,-1605.76 909.5,-1605.76 909.5,-1605.76 909.5,-1605.76 1132,-1605.76 1247.53,-1605.76 1298.26,-1579.77 1361,-1482.76 1437.7,-1364.16 1457.72,-899.04 1461.33,-792.56"/>
<polygon fill="#757575" stroke="#757575" points="1464.84,-792.49 1461.66,-782.38 1457.84,-792.26 1464.84,-792.49"/>
</g>
<!-- figures/AbstractFigure.ts -->
<g id="node4" class="node">
<title>figures/AbstractFigure.ts</title>
<path fill="none" stroke="#c6c5fe" d="M1209.33,-725.26C1209.33,-725.26 1052.67,-725.26 1052.67,-725.26 1048.83,-725.26 1045,-721.43 1045,-717.59 1045,-717.59 1045,-709.93 1045,-709.93 1045,-706.09 1048.83,-702.26 1052.67,-702.26 1052.67,-702.26 1209.33,-702.26 1209.33,-702.26 1213.17,-702.26 1217,-706.09 1217,-709.93 1217,-709.93 1217,-717.59 1217,-717.59 1217,-721.43 1213.17,-725.26 1209.33,-725.26"/>
<text text-anchor="middle" x="1131" y="-710.06" font-family="Arial" font-size="14.00" fill="#c6c5fe">figures/AbstractFigure.ts</text>
</g>
<!-- Graph.ts&#45;&gt;figures/AbstractFigure.ts -->
<g id="edge3" class="edge">
<title>Graph.ts&#45;&gt;figures/AbstractFigure.ts</title>
<path fill="none" stroke="#757575" d="M498.73,-1160.22C554.6,-1109.63 776.87,-908.91 812,-885.76 893,-832.38 924.28,-839.02 1009,-791.76 1043.26,-772.65 1080.99,-747.65 1105.06,-731.17"/>
<polygon fill="#757575" stroke="#757575" points="1107.33,-733.86 1113.58,-725.3 1103.36,-728.09 1107.33,-733.86"/>
</g>
<!-- figures/Arc.ts -->
<g id="node5" class="node">
<title>figures/Arc.ts</title>
<path fill="none" stroke="#c6c5fe" d="M953.33,-605.26C953.33,-605.26 867.67,-605.26 867.67,-605.26 863.83,-605.26 860,-601.43 860,-597.59 860,-597.59 860,-589.93 860,-589.93 860,-586.09 863.83,-582.26 867.67,-582.26 867.67,-582.26 953.33,-582.26 953.33,-582.26 957.17,-582.26 961,-586.09 961,-589.93 961,-589.93 961,-597.59 961,-597.59 961,-601.43 957.17,-605.26 953.33,-605.26"/>
<text text-anchor="middle" x="910.5" y="-590.06" font-family="Arial" font-size="14.00" fill="#c6c5fe">figures/Arc.ts</text>
</g>
<!-- Graph.ts&#45;&gt;figures/Arc.ts -->
<g id="edge4" class="edge">
<title>Graph.ts&#45;&gt;figures/Arc.ts</title>
<path fill="none" stroke="#757575" d="M499.33,-1160.07C517.28,-1143.49 548.72,-1111.3 564,-1076.76 608.69,-975.7 546.04,-927.18 600,-830.76 663.32,-717.62 805.2,-641.09 872.59,-609.74"/>
<polygon fill="#757575" stroke="#757575" points="874.34,-612.78 881.98,-605.44 871.43,-606.42 874.34,-612.78"/>
</g>
<!-- figures/Circle.ts -->
<g id="node6" class="node">
<title>figures/Circle.ts</title>
<path fill="none" stroke="#c6c5fe" d="M960.83,-449.26C960.83,-449.26 860.17,-449.26 860.17,-449.26 856.33,-449.26 852.5,-445.43 852.5,-441.59 852.5,-441.59 852.5,-433.93 852.5,-433.93 852.5,-430.09 856.33,-426.26 860.17,-426.26 860.17,-426.26 960.83,-426.26 960.83,-426.26 964.67,-426.26 968.5,-430.09 968.5,-433.93 968.5,-433.93 968.5,-441.59 968.5,-441.59 968.5,-445.43 964.67,-449.26 960.83,-449.26"/>
<text text-anchor="middle" x="910.5" y="-434.06" font-family="Arial" font-size="14.00" fill="#c6c5fe">figures/Circle.ts</text>
</g>
<!-- Graph.ts&#45;&gt;figures/Circle.ts -->
<g id="edge5" class="edge">
<title>Graph.ts&#45;&gt;figures/Circle.ts</title>
<path fill="none" stroke="#757575" d="M499.63,-1160.2C517.92,-1143.76 549.75,-1111.74 564,-1076.76 599.01,-990.83 539.42,-731.04 600,-660.76 652.51,-599.85 708.94,-663.15 776,-618.76 784.22,-613.32 862.61,-503.73 895.3,-457.77"/>
<polygon fill="#757575" stroke="#757575" points="898.25,-459.66 901.19,-449.48 892.55,-455.6 898.25,-459.66"/>
</g>
<!-- figures/CoordinateSystem.ts -->
<g id="node7" class="node">
<title>figures/CoordinateSystem.ts</title>
<path fill="none" stroke="#c6c5fe" d="M1001.33,-1425.26C1001.33,-1425.26 819.67,-1425.26 819.67,-1425.26 815.83,-1425.26 812,-1421.43 812,-1417.59 812,-1417.59 812,-1409.93 812,-1409.93 812,-1406.09 815.83,-1402.26 819.67,-1402.26 819.67,-1402.26 1001.33,-1402.26 1001.33,-1402.26 1005.17,-1402.26 1009,-1406.09 1009,-1409.93 1009,-1409.93 1009,-1417.59 1009,-1417.59 1009,-1421.43 1005.17,-1425.26 1001.33,-1425.26"/>
<text text-anchor="middle" x="910.5" y="-1410.06" font-family="Arial" font-size="14.00" fill="#c6c5fe">figures/CoordinateSystem.ts</text>
</g>
<!-- Graph.ts&#45;&gt;figures/CoordinateSystem.ts -->
<g id="edge6" class="edge">
<title>Graph.ts&#45;&gt;figures/CoordinateSystem.ts</title>
<path fill="none" stroke="#757575" d="M488.14,-1183.51C495.64,-1220.94 524.5,-1337.81 600,-1387.76 669.4,-1433.68 767.61,-1433.68 834.66,-1426.44"/>
<polygon fill="#757575" stroke="#757575" points="835.2,-1429.9 844.74,-1425.27 834.4,-1422.95 835.2,-1429.9"/>
</g>
<!-- figures/FillBetween.ts -->
<g id="node8" class="node">
<title>figures/FillBetween.ts</title>
<path fill="none" stroke="#c6c5fe" d="M756.33,-1263.26C756.33,-1263.26 619.67,-1263.26 619.67,-1263.26 615.83,-1263.26 612,-1259.43 612,-1255.59 612,-1255.59 612,-1247.93 612,-1247.93 612,-1244.09 615.83,-1240.26 619.67,-1240.26 619.67,-1240.26 756.33,-1240.26 756.33,-1240.26 760.17,-1240.26 764,-1244.09 764,-1247.93 764,-1247.93 764,-1255.59 764,-1255.59 764,-1259.43 760.17,-1263.26 756.33,-1263.26"/>
<text text-anchor="middle" x="688" y="-1248.06" font-family="Arial" font-size="14.00" fill="#c6c5fe">figures/FillBetween.ts</text>
</g>
<!-- Graph.ts&#45;&gt;figures/FillBetween.ts -->
<g id="edge7" class="edge">
<title>Graph.ts&#45;&gt;figures/FillBetween.ts</title>
<path fill="none" stroke="#757575" d="M507.85,-1183.33C530.48,-1195.03 567.08,-1213.13 600,-1225.76 610.81,-1229.91 622.59,-1233.82 633.88,-1237.28"/>
<polygon fill="#757575" stroke="#757575" points="633.06,-1240.69 643.64,-1240.21 635.07,-1233.99 633.06,-1240.69"/>
</g>
<!-- figures/Follow.ts -->
<g id="node9" class="node">
<title>figures/Follow.ts</title>
<path fill="none" stroke="#c6c5fe" d="M740.33,-1183.26C740.33,-1183.26 635.67,-1183.26 635.67,-1183.26 631.83,-1183.26 628,-1179.43 628,-1175.59 628,-1175.59 628,-1167.93 628,-1167.93 628,-1164.09 631.83,-1160.26 635.67,-1160.26 635.67,-1160.26 740.33,-1160.26 740.33,-1160.26 744.17,-1160.26 748,-1164.09 748,-1167.93 748,-1167.93 748,-1175.59 748,-1175.59 748,-1179.43 744.17,-1183.26 740.33,-1183.26"/>
<text text-anchor="middle" x="688" y="-1168.06" font-family="Arial" font-size="14.00" fill="#c6c5fe">figures/Follow.ts</text>
</g>
<!-- Graph.ts&#45;&gt;figures/Follow.ts -->
<g id="edge8" class="edge">
<title>Graph.ts&#45;&gt;figures/Follow.ts</title>
<path fill="none" stroke="#757575" d="M520.55,-1171.76C547.2,-1171.76 584.93,-1171.76 617.73,-1171.76"/>
<polygon fill="#757575" stroke="#757575" points="617.74,-1175.26 627.74,-1171.76 617.74,-1168.26 617.74,-1175.26"/>
</g>
<!-- figures/Grid.ts -->
<g id="node10" class="node">
<title>figures/Grid.ts</title>
<path fill="none" stroke="#c6c5fe" d="M955.83,-1384.26C955.83,-1384.26 865.17,-1384.26 865.17,-1384.26 861.33,-1384.26 857.5,-1380.43 857.5,-1376.59 857.5,-1376.59 857.5,-1368.93 857.5,-1368.93 857.5,-1365.09 861.33,-1361.26 865.17,-1361.26 865.17,-1361.26 955.83,-1361.26 955.83,-1361.26 959.67,-1361.26 963.5,-1365.09 963.5,-1368.93 963.5,-1368.93 963.5,-1376.59 963.5,-1376.59 963.5,-1380.43 959.67,-1384.26 955.83,-1384.26"/>
<text text-anchor="middle" x="910.5" y="-1369.06" font-family="Arial" font-size="14.00" fill="#c6c5fe">figures/Grid.ts</text>
</g>
<!-- Graph.ts&#45;&gt;figures/Grid.ts -->
<g id="edge9" class="edge">
<title>Graph.ts&#45;&gt;figures/Grid.ts</title>
<path fill="none" stroke="#757575" d="M488.62,-1183.26C497.27,-1218.3 528.59,-1323.82 600,-1365.76 640.36,-1389.46 769.08,-1384.15 847.23,-1378.34"/>
<polygon fill="#757575" stroke="#757575" points="847.74,-1381.81 857.44,-1377.55 847.2,-1374.83 847.74,-1381.81"/>
</g>
<!-- figures/Line.ts -->
<g id="node11" class="node">
<title>figures/Line.ts</title>
<path fill="none" stroke="#c6c5fe" d="M955.83,-685.26C955.83,-685.26 865.17,-685.26 865.17,-685.26 861.33,-685.26 857.5,-681.43 857.5,-677.59 857.5,-677.59 857.5,-669.93 857.5,-669.93 857.5,-666.09 861.33,-662.26 865.17,-662.26 865.17,-662.26 955.83,-662.26 955.83,-662.26 959.67,-662.26 963.5,-666.09 963.5,-669.93 963.5,-669.93 963.5,-677.59 963.5,-677.59 963.5,-681.43 959.67,-685.26 955.83,-685.26"/>
<text text-anchor="middle" x="910.5" y="-670.06" font-family="Arial" font-size="14.00" fill="#c6c5fe">figures/Line.ts</text>
</g>
<!-- Graph.ts&#45;&gt;figures/Line.ts -->
<g id="edge10" class="edge">
<title>Graph.ts&#45;&gt;figures/Line.ts</title>
<path fill="none" stroke="#757575" d="M496.05,-1159.94C551.76,-1094.43 822.63,-775.91 892.85,-693.34"/>
<polygon fill="#757575" stroke="#757575" points="895.54,-695.57 899.36,-685.69 890.21,-691.04 895.54,-695.57"/>
</g>
<!-- figures/Parametric.ts -->
<g id="node12" class="node">
<title>figures/Parametric.ts</title>
<path fill="none" stroke="#c6c5fe" d="M976.33,-1343.26C976.33,-1343.26 844.67,-1343.26 844.67,-1343.26 840.83,-1343.26 837,-1339.43 837,-1335.59 837,-1335.59 837,-1327.93 837,-1327.93 837,-1324.09 840.83,-1320.26 844.67,-1320.26 844.67,-1320.26 976.33,-1320.26 976.33,-1320.26 980.17,-1320.26 984,-1324.09 984,-1327.93 984,-1327.93 984,-1335.59 984,-1335.59 984,-1339.43 980.17,-1343.26 976.33,-1343.26"/>
<text text-anchor="middle" x="910.5" y="-1328.06" font-family="Arial" font-size="14.00" fill="#c6c5fe">figures/Parametric.ts</text>
</g>
<!-- Graph.ts&#45;&gt;figures/Parametric.ts -->
<g id="edge11" class="edge">
<title>Graph.ts&#45;&gt;figures/Parametric.ts</title>
<path fill="none" stroke="#757575" d="M489.38,-1183.64C499.55,-1216.86 533.37,-1310.65 600,-1346.76 638.25,-1367.49 751.71,-1356.04 830.07,-1344.79"/>
<polygon fill="#757575" stroke="#757575" points="831.02,-1348.19 840.41,-1343.28 830.01,-1341.27 831.02,-1348.19"/>
</g>
<!-- figures/Plot.ts -->
<g id="node13" class="node">
<title>figures/Plot.ts</title>
<path fill="none" stroke="#c6c5fe" d="M954.83,-1187.26C954.83,-1187.26 866.17,-1187.26 866.17,-1187.26 862.33,-1187.26 858.5,-1183.43 858.5,-1179.59 858.5,-1179.59 858.5,-1171.93 858.5,-1171.93 858.5,-1168.09 862.33,-1164.26 866.17,-1164.26 866.17,-1164.26 954.83,-1164.26 954.83,-1164.26 958.67,-1164.26 962.5,-1168.09 962.5,-1171.93 962.5,-1171.93 962.5,-1179.59 962.5,-1179.59 962.5,-1183.43 958.67,-1187.26 954.83,-1187.26"/>
<text text-anchor="middle" x="910.5" y="-1172.06" font-family="Arial" font-size="14.00" fill="#c6c5fe">figures/Plot.ts</text>
</g>
<!-- Graph.ts&#45;&gt;figures/Plot.ts -->
<g id="edge12" class="edge">
<title>Graph.ts&#45;&gt;figures/Plot.ts</title>
<path fill="none" stroke="#757575" d="M520.7,-1179.85C543.17,-1184.67 573.14,-1190.31 600,-1192.76 677.9,-1199.87 697.93,-1197.71 776,-1192.76 799.66,-1191.26 825.53,-1188.28 848.15,-1185.22"/>
<polygon fill="#757575" stroke="#757575" points="848.87,-1188.66 858.3,-1183.82 847.91,-1181.72 848.87,-1188.66"/>
</g>
<!-- figures/Point.ts -->
<g id="node14" class="node">
<title>figures/Point.ts</title>
<path fill="none" stroke="#c6c5fe" d="M735.83,-609.26C735.83,-609.26 640.17,-609.26 640.17,-609.26 636.33,-609.26 632.5,-605.43 632.5,-601.59 632.5,-601.59 632.5,-593.93 632.5,-593.93 632.5,-590.09 636.33,-586.26 640.17,-586.26 640.17,-586.26 735.83,-586.26 735.83,-586.26 739.67,-586.26 743.5,-590.09 743.5,-593.93 743.5,-593.93 743.5,-601.59 743.5,-601.59 743.5,-605.43 739.67,-609.26 735.83,-609.26"/>
<text text-anchor="middle" x="688" y="-594.06" font-family="Arial" font-size="14.00" fill="#c6c5fe">figures/Point.ts</text>
</g>
<!-- Graph.ts&#45;&gt;figures/Point.ts -->
<g id="edge13" class="edge">
<title>Graph.ts&#45;&gt;figures/Point.ts</title>
<path fill="none" stroke="#757575" d="M499.66,-1160.21C517.99,-1143.79 549.87,-1111.79 564,-1076.76 601.77,-983.11 536.51,-702.29 600,-623.76 606.03,-616.3 614.11,-610.91 622.93,-607.04"/>
<polygon fill="#757575" stroke="#757575" points="624.18,-610.31 632.32,-603.53 621.73,-603.75 624.18,-610.31"/>
</g>
<!-- figures/Polygon.ts -->
<g id="node15" class="node">
<title>figures/Polygon.ts</title>
<path fill="none" stroke="#c6c5fe" d="M968.33,-917.26C968.33,-917.26 852.67,-917.26 852.67,-917.26 848.83,-917.26 845,-913.43 845,-909.59 845,-909.59 845,-901.93 845,-901.93 845,-898.09 848.83,-894.26 852.67,-894.26 852.67,-894.26 968.33,-894.26 968.33,-894.26 972.17,-894.26 976,-898.09 976,-901.93 976,-901.93 976,-909.59 976,-909.59 976,-913.43 972.17,-917.26 968.33,-917.26"/>
<text text-anchor="middle" x="910.5" y="-902.06" font-family="Arial" font-size="14.00" fill="#c6c5fe">figures/Polygon.ts</text>
</g>
<!-- Graph.ts&#45;&gt;figures/Polygon.ts -->
<g id="edge14" class="edge">
<title>Graph.ts&#45;&gt;figures/Polygon.ts</title>
<path fill="none" stroke="#757575" d="M520.54,-1165.18C595.47,-1150.75 766.97,-1116.93 776,-1107.76 832.02,-1050.87 757.23,-989.85 812,-931.76 818.56,-924.81 826.74,-919.63 835.57,-915.8"/>
<polygon fill="#757575" stroke="#757575" points="836.83,-919.07 844.96,-912.28 834.37,-912.52 836.83,-919.07"/>
</g>
<!-- figures/Riemann.ts -->
<g id="node16" class="node">
<title>figures/Riemann.ts</title>
<path fill="none" stroke="#c6c5fe" d="M747.83,-1304.26C747.83,-1304.26 628.17,-1304.26 628.17,-1304.26 624.33,-1304.26 620.5,-1300.43 620.5,-1296.59 620.5,-1296.59 620.5,-1288.93 620.5,-1288.93 620.5,-1285.09 624.33,-1281.26 628.17,-1281.26 628.17,-1281.26 747.83,-1281.26 747.83,-1281.26 751.67,-1281.26 755.5,-1285.09 755.5,-1288.93 755.5,-1288.93 755.5,-1296.59 755.5,-1296.59 755.5,-1300.43 751.67,-1304.26 747.83,-1304.26"/>
<text text-anchor="middle" x="688" y="-1289.06" font-family="Arial" font-size="14.00" fill="#c6c5fe">figures/Riemann.ts</text>
</g>
<!-- Graph.ts&#45;&gt;figures/Riemann.ts -->
<g id="edge15" class="edge">
<title>Graph.ts&#45;&gt;figures/Riemann.ts</title>
<path fill="none" stroke="#757575" d="M495.63,-1183.51C513.74,-1204.8 555.1,-1249.64 600,-1272.76 603.54,-1274.58 607.25,-1276.24 611.05,-1277.75"/>
<polygon fill="#757575" stroke="#757575" points="610.08,-1281.12 620.67,-1281.2 612.44,-1274.53 610.08,-1281.12"/>
</g>
<!-- figures/AbstractFigure.ts&#45;&gt;pidraw.common.ts -->
<g id="edge25" class="edge">
<title>figures/AbstractFigure.ts&#45;&gt;pidraw.common.ts</title>
<path fill="none" stroke="#757575" d="M1198.78,-725.29C1253.24,-734.7 1330.13,-747.98 1386.75,-757.76"/>
<polygon fill="#757575" stroke="#757575" points="1386.28,-761.23 1396.73,-759.48 1387.47,-754.33 1386.28,-761.23"/>
</g>
<!-- labels/Label.ts -->
<g id="node18" class="node">
<title>labels/Label.ts</title>
<path fill="none" stroke="#c6c5fe" d="M1353.33,-217.26C1353.33,-217.26 1260.67,-217.26 1260.67,-217.26 1256.83,-217.26 1253,-213.43 1253,-209.59 1253,-209.59 1253,-201.93 1253,-201.93 1253,-198.09 1256.83,-194.26 1260.67,-194.26 1260.67,-194.26 1353.33,-194.26 1353.33,-194.26 1357.17,-194.26 1361,-198.09 1361,-201.93 1361,-201.93 1361,-209.59 1361,-209.59 1361,-213.43 1357.17,-217.26 1353.33,-217.26"/>
<text text-anchor="middle" x="1307" y="-202.06" font-family="Arial" font-size="14.00" fill="#c6c5fe">labels/Label.ts</text>
</g>
<!-- figures/AbstractFigure.ts&#45;&gt;labels/Label.ts -->
<g id="edge24" class="edge">
<title>figures/AbstractFigure.ts&#45;&gt;labels/Label.ts</title>
<path fill="none" stroke="#757575" d="M1135.96,-702.19C1158.35,-636.84 1269.07,-313.58 1298.7,-227.08"/>
<polygon fill="#757575" stroke="#757575" points="1302.04,-228.12 1301.97,-217.53 1295.42,-225.85 1302.04,-228.12"/>
</g>
<!-- figures/Arc.ts&#45;&gt;Calculus.ts -->
<g id="edge26" class="edge">
<title>figures/Arc.ts&#45;&gt;Calculus.ts</title>
<path fill="none" stroke="#757575" d="M942.3,-605.36C964.05,-615.09 992.21,-631.07 1009,-653.76 1036.34,-690.7 1106.54,-1009.15 1125.32,-1095.97"/>
<polygon fill="#757575" stroke="#757575" points="1121.96,-1096.97 1127.49,-1106.01 1128.8,-1095.5 1121.96,-1096.97"/>
</g>
<!-- figures/Arc.ts&#45;&gt;pidraw.common.ts -->
<g id="edge28" class="edge">
<title>figures/Arc.ts&#45;&gt;pidraw.common.ts</title>
<path fill="none" stroke="#757575" d="M961.28,-598.1C1046.63,-607.03 1224.85,-632.24 1361,-695.76 1392.17,-710.3 1423.22,-735.34 1442.49,-752.45"/>
<polygon fill="#757575" stroke="#757575" points="1440.24,-755.13 1450,-759.25 1444.94,-749.94 1440.24,-755.13"/>
</g>
<!-- figures/Arc.ts&#45;&gt;figures/AbstractFigure.ts -->
<g id="edge27" class="edge">
<title>figures/Arc.ts&#45;&gt;figures/AbstractFigure.ts</title>
<path fill="none" stroke="#757575" d="M961.24,-602.96C977,-606.93 994.17,-612.4 1009,-619.76 1048.9,-639.55 1088.37,-673.67 1110.9,-694.9"/>
<polygon fill="#757575" stroke="#757575" points="1108.76,-697.7 1118.41,-702.09 1113.61,-692.64 1108.76,-697.7"/>
</g>
<!-- figures/Circle.ts&#45;&gt;Calculus.ts -->
<g id="edge29" class="edge">
<title>figures/Circle.ts&#45;&gt;Calculus.ts</title>
<path fill="none" stroke="#757575" d="M922.47,-449.46C942.77,-471.8 986.23,-522.84 1009,-573.76 1009.7,-575.31 1102.89,-995.49 1125.23,-1096.24"/>
<polygon fill="#757575" stroke="#757575" points="1121.85,-1097.18 1127.43,-1106.18 1128.69,-1095.66 1121.85,-1097.18"/>
</g>
<!-- figures/Circle.ts&#45;&gt;pidraw.common.ts -->
<g id="edge31" class="edge">
<title>figures/Circle.ts&#45;&gt;pidraw.common.ts</title>
<path fill="none" stroke="#757575" d="M968.54,-444.36C982.03,-446.84 996.21,-450.2 1009,-454.76 1178.07,-515.04 1222.29,-538.83 1361,-652.76 1397,-682.33 1430.42,-725.74 1448.33,-750.83"/>
<polygon fill="#757575" stroke="#757575" points="1445.6,-753.02 1454.21,-759.19 1451.32,-749 1445.6,-753.02"/>
</g>
<!-- figures/Circle.ts&#45;&gt;figures/AbstractFigure.ts -->
<g id="edge30" class="edge">
<title>figures/Circle.ts&#45;&gt;figures/AbstractFigure.ts</title>
<path fill="none" stroke="#757575" d="M968.52,-444.37C982.91,-448.22 997.52,-454.28 1009,-463.76 1028.38,-479.76 1096.44,-635.51 1121.04,-692.77"/>
<polygon fill="#757575" stroke="#757575" points="1117.83,-694.16 1124.99,-701.97 1124.26,-691.4 1117.83,-694.16"/>
</g>
<!-- figures/CoordinateSystem.ts&#45;&gt;Calculus.ts -->
<g id="edge32" class="edge">
<title>figures/CoordinateSystem.ts&#45;&gt;Calculus.ts</title>
<path fill="none" stroke="#757575" d="M995.87,-1402.14C1000.54,-1399.79 1004.97,-1397.02 1009,-1393.76 1091.63,-1326.95 1119.31,-1192.43 1127.22,-1139.69"/>
<polygon fill="#757575" stroke="#757575" points="1130.73,-1139.85 1128.66,-1129.46 1123.8,-1138.87 1130.73,-1139.85"/>
</g>
<!-- figures/CoordinateSystem.ts&#45;&gt;pidraw.common.ts -->
<g id="edge34" class="edge">
<title>figures/CoordinateSystem.ts&#45;&gt;pidraw.common.ts</title>
<path fill="none" stroke="#757575" d="M1009.25,-1412.83C1116.22,-1405.87 1282.85,-1376.26 1361,-1263.76 1415.86,-1184.79 1451.05,-877.14 1459.84,-792.45"/>
<polygon fill="#757575" stroke="#757575" points="1463.33,-792.73 1460.86,-782.43 1456.36,-792.02 1463.33,-792.73"/>
</g>
<!-- figures/CoordinateSystem.ts&#45;&gt;figures/AbstractFigure.ts -->
<g id="edge33" class="edge">
<title>figures/CoordinateSystem.ts&#45;&gt;figures/AbstractFigure.ts</title>
<path fill="none" stroke="#757575" d="M999.24,-1402.05C1002.79,-1399.68 1006.07,-1396.93 1009,-1393.76 1053.91,-1345.04 1033.83,-1163.07 1045,-1097.76 1068.85,-958.34 1109.76,-793.12 1124.5,-735.14"/>
<polygon fill="#757575" stroke="#757575" points="1127.93,-735.86 1127.01,-725.3 1121.15,-734.12 1127.93,-735.86"/>
</g>
<!-- figures/FillBetween.ts&#45;&gt;Calculus.ts -->
<g id="edge35" class="edge">
<title>figures/FillBetween.ts&#45;&gt;Calculus.ts</title>
<path fill="none" stroke="#757575" d="M764.06,-1247.5C830.42,-1241.74 928.86,-1228.24 1009,-1196.76 1046.89,-1181.87 1085.36,-1154.12 1108.45,-1135.79"/>
<polygon fill="#757575" stroke="#757575" points="1110.94,-1138.28 1116.52,-1129.27 1106.54,-1132.84 1110.94,-1138.28"/>
</g>
<!-- figures/FillBetween.ts&#45;&gt;pidraw.common.ts -->
<g id="edge38" class="edge">
<title>figures/FillBetween.ts&#45;&gt;pidraw.common.ts</title>
<path fill="none" stroke="#757575" d="M763.98,-1263.35C768.39,-1265.94 772.46,-1269.05 776,-1272.76 834.71,-1334.33 746.43,-1406.55 812,-1460.76 907.31,-1539.55 1286.88,-1468.75 1361,-1369.76 1431.68,-1275.36 1455.95,-888.74 1460.95,-792.52"/>
<polygon fill="#757575" stroke="#757575" points="1464.45,-792.66 1461.46,-782.49 1457.46,-792.3 1464.45,-792.66"/>
</g>
<!-- figures/FillBetween.ts&#45;&gt;figures/AbstractFigure.ts -->
<g id="edge36" class="edge">
<title>figures/FillBetween.ts&#45;&gt;figures/AbstractFigure.ts</title>
<path fill="none" stroke="#757575" d="M708.47,-1240.15C726.65,-1228.95 754.18,-1211.05 776,-1192.76 793.59,-1178.02 795.83,-1172.03 812,-1155.76 898.63,-1068.61 937.25,-1061.52 1009,-961.76 1064.16,-885.07 1106.13,-779.38 1122.51,-734.87"/>
<polygon fill="#757575" stroke="#757575" points="1125.83,-735.98 1125.95,-725.39 1119.25,-733.59 1125.83,-735.98"/>
</g>
<!-- figures/FillBetween.ts&#45;&gt;figures/Plot.ts -->
<g id="edge37" class="edge">
<title>figures/FillBetween.ts&#45;&gt;figures/Plot.ts</title>
<path fill="none" stroke="#757575" d="M736.91,-1240.22C749.88,-1236.35 763.73,-1231.52 776,-1225.76 793.4,-1217.58 794.48,-1209.68 812,-1201.76 823.46,-1196.58 836.17,-1192.26 848.51,-1188.73"/>
<polygon fill="#757575" stroke="#757575" points="849.58,-1192.06 858.31,-1186.06 847.74,-1185.31 849.58,-1192.06"/>
</g>
<!-- figures/Follow.ts&#45;&gt;Calculus.ts -->
<g id="edge39" class="edge">
<title>figures/Follow.ts&#45;&gt;Calculus.ts</title>
<path fill="none" stroke="#757575" d="M748.11,-1163.94C768.36,-1161.3 791.17,-1158.36 812,-1155.76 905.55,-1144.08 1014.68,-1131.2 1077.72,-1123.84"/>
<polygon fill="#757575" stroke="#757575" points="1078.28,-1127.3 1087.8,-1122.66 1077.46,-1120.34 1078.28,-1127.3"/>
</g>
<!-- figures/Follow.ts&#45;&gt;pidraw.common.ts -->
<g id="edge42" class="edge">
<title>figures/Follow.ts&#45;&gt;pidraw.common.ts</title>
<path fill="none" stroke="#757575" d="M716.18,-1183.4C735.97,-1193.33 761.71,-1209.53 776,-1231.76 825.55,-1308.84 741.78,-1375.89 812,-1434.76 881.16,-1492.73 1131.79,-1434.49 1217,-1404.76 1286.96,-1380.35 1318.42,-1381.4 1361,-1320.76 1422.93,-1232.56 1453.4,-883.71 1460.41,-792.61"/>
<polygon fill="#757575" stroke="#757575" points="1463.92,-792.61 1461.18,-782.38 1456.94,-792.09 1463.92,-792.61"/>
</g>
<!-- figures/Follow.ts&#45;&gt;figures/AbstractFigure.ts -->
<g id="edge40" class="edge">
<title>figures/Follow.ts&#45;&gt;figures/AbstractFigure.ts</title>
<path fill="none" stroke="#757575" d="M748.33,-1160.55C758.75,-1156.19 768.6,-1150.15 776,-1141.76 827.65,-1083.17 757.01,-1025.22 812,-969.76 875.1,-906.12 936.83,-979.88 1009,-926.76 1076.1,-877.37 1111.36,-778.84 1124.22,-735.3"/>
<polygon fill="#757575" stroke="#757575" points="1127.64,-736.05 1127.01,-725.48 1120.91,-734.14 1127.64,-736.05"/>
</g>
<!-- figures/Follow.ts&#45;&gt;figures/Plot.ts -->
<g id="edge41" class="edge">
<title>figures/Follow.ts&#45;&gt;figures/Plot.ts</title>
<path fill="none" stroke="#757575" d="M748.09,-1172.83C779.04,-1173.39 816.89,-1174.08 848.16,-1174.65"/>
<polygon fill="#757575" stroke="#757575" points="848.43,-1178.15 858.49,-1174.83 848.56,-1171.15 848.43,-1178.15"/>
</g>
<!-- figures/Grid.ts&#45;&gt;Calculus.ts -->
<g id="edge43" class="edge">
<title>figures/Grid.ts&#45;&gt;Calculus.ts</title>
<path fill="none" stroke="#757575" d="M963.67,-1370.66C979.47,-1367.88 996.06,-1362.57 1009,-1352.76 1081.78,-1297.57 1114.53,-1186.14 1125.5,-1139.28"/>
<polygon fill="#757575" stroke="#757575" points="1128.97,-1139.85 1127.73,-1129.32 1122.13,-1138.32 1128.97,-1139.85"/>
</g>
<!-- figures/Grid.ts&#45;&gt;pidraw.common.ts -->
<g id="edge45" class="edge">
<title>figures/Grid.ts&#45;&gt;pidraw.common.ts</title>
<path fill="none" stroke="#757575" d="M963.68,-1371.19C1060.95,-1365.11 1268.51,-1336.63 1361,-1205.76 1455.96,-1071.39 1462.89,-860.86 1462.48,-792.78"/>
<polygon fill="#757575" stroke="#757575" points="1465.98,-792.4 1462.35,-782.44 1458.98,-792.48 1465.98,-792.4"/>
</g>
<!-- figures/Grid.ts&#45;&gt;figures/AbstractFigure.ts -->
<g id="edge44" class="edge">
<title>figures/Grid.ts&#45;&gt;figures/AbstractFigure.ts</title>
<path fill="none" stroke="#757575" d="M963.57,-1373.45C980.22,-1370.98 997.34,-1365.16 1009,-1352.76 1048.19,-1311.06 1034.81,-1154.07 1045,-1097.76 1070.19,-958.58 1110.27,-793.21 1124.65,-735.17"/>
<polygon fill="#757575" stroke="#757575" points="1128.08,-735.87 1127.1,-725.32 1121.29,-734.18 1128.08,-735.87"/>
</g>
<!-- figures/Line.ts&#45;&gt;Calculus.ts -->
<g id="edge46" class="edge">
<title>figures/Line.ts&#45;&gt;Calculus.ts</title>
<path fill="none" stroke="#757575" d="M918.19,-685.26C934.44,-713.35 976.99,-787.79 1009,-851.76 1053.97,-941.62 1101.79,-1051.67 1121.13,-1096.87"/>
<polygon fill="#757575" stroke="#757575" points="1117.97,-1098.38 1125.11,-1106.21 1124.41,-1095.64 1117.97,-1098.38"/>
</g>
<!-- figures/Line.ts&#45;&gt;pidraw.common.ts -->
<g id="edge48" class="edge">
<title>figures/Line.ts&#45;&gt;pidraw.common.ts</title>
<path fill="none" stroke="#757575" d="M963.72,-674.23C1024.81,-675.46 1128.82,-679.67 1217,-693.76 1282.25,-704.18 1298.16,-710.33 1361,-730.76 1382.94,-737.89 1406.98,-747.34 1426.09,-755.26"/>
<polygon fill="#757575" stroke="#757575" points="1424.75,-758.5 1435.33,-759.13 1427.46,-752.04 1424.75,-758.5"/>
</g>
<!-- figures/Line.ts&#45;&gt;figures/AbstractFigure.ts -->
<g id="edge47" class="edge">
<title>figures/Line.ts&#45;&gt;figures/AbstractFigure.ts</title>
<path fill="none" stroke="#757575" d="M963.56,-683.29C991.46,-688.4 1026.28,-694.77 1056.86,-700.37"/>
<polygon fill="#757575" stroke="#757575" points="1056.58,-703.88 1067.05,-702.23 1057.84,-696.99 1056.58,-703.88"/>
</g>
<!-- figures/Parametric.ts&#45;&gt;Calculus.ts -->
<g id="edge49" class="edge">
<title>figures/Parametric.ts&#45;&gt;Calculus.ts</title>
<path fill="none" stroke="#757575" d="M980.76,-1320.17C990.8,-1316.59 1000.58,-1311.9 1009,-1305.76 1016.96,-1299.96 1088.36,-1185.18 1117.6,-1137.87"/>
<polygon fill="#757575" stroke="#757575" points="1120.58,-1139.71 1122.85,-1129.36 1114.62,-1136.03 1120.58,-1139.71"/>
</g>
<!-- figures/Parametric.ts&#45;&gt;pidraw.common.ts -->
<g id="edge51" class="edge">
<title>figures/Parametric.ts&#45;&gt;pidraw.common.ts</title>
<path fill="none" stroke="#757575" d="M984.06,-1322.95C1083.75,-1306.94 1261.97,-1263.65 1361,-1151.76 1456.41,-1043.96 1463.22,-856.05 1462.61,-792.48"/>
<polygon fill="#757575" stroke="#757575" points="1466.11,-792.36 1462.44,-782.42 1459.11,-792.48 1466.11,-792.36"/>
</g>
<!-- figures/Parametric.ts&#45;&gt;figures/AbstractFigure.ts -->
<g id="edge50" class="edge">
<title>figures/Parametric.ts&#45;&gt;figures/AbstractFigure.ts</title>
<path fill="none" stroke="#757575" d="M926.99,-1320.09C948.76,-1302.82 988.11,-1268.31 1009,-1229.76 1021.26,-1207.14 1104.45,-830.23 1125.28,-735.32"/>
<polygon fill="#757575" stroke="#757575" points="1128.73,-735.93 1127.45,-725.41 1121.89,-734.43 1128.73,-735.93"/>
</g>
<!-- figures/Plot.ts&#45;&gt;Calculus.ts -->
<g id="edge52" class="edge">
<title>figures/Plot.ts&#45;&gt;Calculus.ts</title>
<path fill="none" stroke="#757575" d="M954.93,-1164.23C990.35,-1154.83 1040.48,-1141.52 1078.02,-1131.56"/>
<polygon fill="#757575" stroke="#757575" points="1079,-1134.92 1087.77,-1128.97 1077.2,-1128.15 1079,-1134.92"/>
</g>
<!-- figures/Plot.ts&#45;&gt;pidraw.common.ts -->
<g id="edge54" class="edge">
<title>figures/Plot.ts&#45;&gt;pidraw.common.ts</title>
<path fill="none" stroke="#757575" d="M962.62,-1184.76C1054.93,-1197.85 1250.15,-1210.56 1361,-1108.76 1454.86,-1022.55 1462.87,-853.17 1462.57,-792.79"/>
<polygon fill="#757575" stroke="#757575" points="1466.07,-792.47 1462.44,-782.52 1459.07,-792.57 1466.07,-792.47"/>
</g>
<!-- figures/Plot.ts&#45;&gt;figures/AbstractFigure.ts -->
<g id="edge53" class="edge">
<title>figures/Plot.ts&#45;&gt;figures/AbstractFigure.ts</title>
<path fill="none" stroke="#757575" d="M918.54,-1163.89C935.18,-1135.6 977.92,-1061.79 1009,-997.76 1055.78,-901.39 1103.28,-782.37 1121.85,-734.82"/>
<polygon fill="#757575" stroke="#757575" points="1125.19,-735.89 1125.56,-725.3 1118.67,-733.35 1125.19,-735.89"/>
</g>
<!-- figures/Point.ts&#45;&gt;Calculus.ts -->
<g id="edge55" class="edge">
<title>figures/Point.ts&#45;&gt;Calculus.ts</title>
<path fill="none" stroke="#757575" d="M743.5,-600.27C755.14,-602.92 766.71,-607.4 776,-614.76 806.55,-638.98 789.6,-662.84 812,-694.76 882.05,-794.59 936.09,-788 1009,-885.76 1061.95,-956.76 1104.43,-1054.19 1121.68,-1096.6"/>
<polygon fill="#757575" stroke="#757575" points="1118.54,-1098.17 1125.51,-1106.15 1125.03,-1095.56 1118.54,-1098.17"/>
</g>
<!-- figures/Point.ts&#45;&gt;pidraw.common.ts -->
<g id="edge58" class="edge">
<title>figures/Point.ts&#45;&gt;pidraw.common.ts</title>
<path fill="none" stroke="#757575" d="M696.07,-586.12C719.48,-547.76 794.01,-427.26 812,-417.76 972.25,-333.17 1051.49,-390.99 1217,-464.76 1288.64,-496.69 1310.05,-507.13 1361,-566.76 1410.15,-624.28 1442.27,-709.86 1455.35,-749.36"/>
<polygon fill="#757575" stroke="#757575" points="1452.06,-750.56 1458.46,-759 1458.72,-748.41 1452.06,-750.56"/>
</g>
<!-- figures/Point.ts&#45;&gt;figures/AbstractFigure.ts -->
<g id="edge56" class="edge">
<title>figures/Point.ts&#45;&gt;figures/AbstractFigure.ts</title>
<path fill="none" stroke="#757575" d="M743.79,-605.41C821.77,-616.63 960.7,-637.92 1009,-653.76 1042.44,-664.72 1078.26,-683.45 1102.17,-697.07"/>
<polygon fill="#757575" stroke="#757575" points="1100.62,-700.22 1111.03,-702.2 1104.13,-694.16 1100.62,-700.22"/>
</g>
<!-- figures/Point.ts&#45;&gt;figures/Line.ts -->
<g id="edge57" class="edge">
<title>figures/Point.ts&#45;&gt;figures/Line.ts</title>
<path fill="none" stroke="#757575" d="M715.03,-609.46C739.69,-620.27 777.9,-636.33 812,-647.76 824.71,-652.02 838.53,-656.05 851.66,-659.62"/>
<polygon fill="#757575" stroke="#757575" points="850.97,-663.06 861.54,-662.25 852.77,-656.29 850.97,-663.06"/>
</g>
<!-- figures/Polygon.ts&#45;&gt;Calculus.ts -->
<g id="edge59" class="edge">
<title>figures/Polygon.ts&#45;&gt;Calculus.ts</title>
<path fill="none" stroke="#757575" d="M923.56,-917.46C959.6,-952.42 1066.71,-1056.35 1110.76,-1099.09"/>
<polygon fill="#757575" stroke="#757575" points="1108.36,-1101.64 1117.98,-1106.09 1113.24,-1096.62 1108.36,-1101.64"/>
</g>
<!-- figures/Polygon.ts&#45;&gt;pidraw.common.ts -->
<g id="edge61" class="edge">
<title>figures/Polygon.ts&#45;&gt;pidraw.common.ts</title>
<path fill="none" stroke="#757575" d="M970.48,-894.19C1056.8,-876.86 1222.35,-842.05 1361,-803.76 1380.35,-798.41 1401.51,-791.65 1419.43,-785.64"/>
<polygon fill="#757575" stroke="#757575" points="1420.68,-788.91 1429.03,-782.39 1418.43,-782.28 1420.68,-788.91"/>
</g>
<!-- figures/Polygon.ts&#45;&gt;figures/AbstractFigure.ts -->
<g id="edge60" class="edge">
<title>figures/Polygon.ts&#45;&gt;figures/AbstractFigure.ts</title>
<path fill="none" stroke="#757575" d="M932.26,-894.06C952.68,-882.11 984.32,-862.43 1009,-841.76 1050.25,-807.21 1091.96,-759.68 1114.01,-733.34"/>
<polygon fill="#757575" stroke="#757575" points="1116.76,-735.51 1120.45,-725.58 1111.37,-731.04 1116.76,-735.51"/>
</g>
<!-- figures/Riemann.ts&#45;&gt;Calculus.ts -->
<g id="edge62" class="edge">
<title>figures/Riemann.ts&#45;&gt;Calculus.ts</title>
<path fill="none" stroke="#757575" d="M755.65,-1291.18C822.95,-1287.16 928.23,-1274.06 1009,-1232.76 1054.44,-1209.53 1094.62,-1163.84 1115.27,-1137.59"/>
<polygon fill="#757575" stroke="#757575" points="1118.18,-1139.55 1121.51,-1129.49 1112.64,-1135.28 1118.18,-1139.55"/>
</g>
<!-- figures/Riemann.ts&#45;&gt;pidraw.common.ts -->
<g id="edge65" class="edge">
<title>figures/Riemann.ts&#45;&gt;pidraw.common.ts</title>
<path fill="none" stroke="#757575" d="M692.01,-1304.6C701.87,-1340.64 737.02,-1449.07 812,-1490.76 1027.13,-1610.38 1212.44,-1614.02 1361,-1417.76 1438.14,-1315.86 1457.69,-893.89 1461.3,-792.66"/>
<polygon fill="#757575" stroke="#757575" points="1464.81,-792.54 1461.65,-782.42 1457.81,-792.3 1464.81,-792.54"/>
</g>
<!-- figures/Riemann.ts&#45;&gt;figures/AbstractFigure.ts -->
<g id="edge63" class="edge">
<title>figures/Riemann.ts&#45;&gt;figures/AbstractFigure.ts</title>
<path fill="none" stroke="#757575" d="M755.86,-1282.14C762.93,-1279.65 769.79,-1276.57 776,-1272.76 797.25,-1259.73 790.37,-1242.14 812,-1229.76 889.05,-1185.66 943.78,-1256.99 1009,-1196.76 1026.66,-1180.45 1105,-827.77 1125.22,-735.62"/>
<polygon fill="#757575" stroke="#757575" points="1128.67,-736.23 1127.39,-725.72 1121.83,-734.74 1128.67,-736.23"/>
</g>
<!-- figures/Riemann.ts&#45;&gt;figures/Plot.ts -->
<g id="edge64" class="edge">
<title>figures/Riemann.ts&#45;&gt;figures/Plot.ts</title>
<path fill="none" stroke="#757575" d="M755.92,-1283.85C763.14,-1281.06 770.02,-1277.44 776,-1272.76 803.87,-1250.96 784.51,-1224.03 812,-1201.76 822.47,-1193.28 835.44,-1187.54 848.48,-1183.68"/>
<polygon fill="#757575" stroke="#757575" points="849.63,-1186.99 858.41,-1181.06 847.85,-1180.22 849.63,-1186.99"/>
</g>
<!-- Parser.ts -->
<g id="node17" class="node">
<title>Parser.ts</title>
<path fill="none" stroke="#c6c5fe" d="M167.33,-300.26C167.33,-300.26 108.67,-300.26 108.67,-300.26 104.83,-300.26 101,-296.43 101,-292.59 101,-292.59 101,-284.93 101,-284.93 101,-281.09 104.83,-277.26 108.67,-277.26 108.67,-277.26 167.33,-277.26 167.33,-277.26 171.17,-277.26 175,-281.09 175,-284.93 175,-284.93 175,-292.59 175,-292.59 175,-296.43 171.17,-300.26 167.33,-300.26"/>
<text text-anchor="middle" x="138" y="-285.06" font-family="Arial" font-size="14.00" fill="#c6c5fe">Parser.ts</text>
</g>
<!-- Parser.ts&#45;&gt;pidraw.common.ts -->
<g id="edge23" class="edge">
<title>Parser.ts&#45;&gt;pidraw.common.ts</title>
<path fill="none" stroke="#757575" d="M143.72,-277.03C153.41,-254.17 177.48,-203.06 211,-170.76 311.16,-74.25 344.91,-17.76 484,-17.76 484,-17.76 484,-17.76 1132,-17.76 1234.17,-17.76 1286.98,32.66 1361,-37.76 1466.73,-138.35 1464.34,-637.78 1462.47,-748.85"/>
<polygon fill="#757575" stroke="#757575" points="1458.96,-749.08 1462.27,-759.14 1465.96,-749.21 1458.96,-749.08"/>
</g>
<!-- Parser.ts&#45;&gt;Graph.ts -->
<g id="edge17" class="edge">
<title>Parser.ts&#45;&gt;Graph.ts</title>
<path fill="none" stroke="#757575" d="M141.12,-300.53C148.65,-341.45 175.51,-481.11 211,-592.76 281.26,-813.77 287.72,-877.28 406,-1076.76 422.9,-1105.25 447.98,-1134.12 465.11,-1152.43"/>
<polygon fill="#757575" stroke="#757575" points="462.94,-1155.23 472.36,-1160.06 468.01,-1150.4 462.94,-1155.23"/>
</g>
<!-- Parser.ts&#45;&gt;figures/AbstractFigure.ts -->
<g id="edge18" class="edge">
<title>Parser.ts&#45;&gt;figures/AbstractFigure.ts</title>
<path fill="none" stroke="#757575" d="M166.88,-277.14C284.04,-230.35 742.81,-67.74 1009,-271.76 1078.05,-324.68 1117.43,-609.8 1127.44,-691.73"/>
<polygon fill="#757575" stroke="#757575" points="1123.99,-692.38 1128.66,-701.9 1130.95,-691.55 1123.99,-692.38"/>
</g>
<!-- Parser.ts&#45;&gt;figures/Point.ts -->
<g id="edge19" class="edge">
<title>Parser.ts&#45;&gt;figures/Point.ts</title>
<path fill="none" stroke="#757575" d="M142.8,-300.64C151.41,-326.04 174.54,-386.44 211,-424.76 322.63,-542.08 520.01,-580.13 621.98,-592.25"/>
<polygon fill="#757575" stroke="#757575" points="621.81,-595.75 632.14,-593.41 622.6,-588.8 621.81,-595.75"/>
</g>
<!-- Parser.ts&#45;&gt;labels/Label.ts -->
<g id="edge20" class="edge">
<title>Parser.ts&#45;&gt;labels/Label.ts</title>
<path fill="none" stroke="#757575" d="M145.72,-277.16C156.82,-259.12 180.8,-224.69 211,-207.76 287.81,-164.71 318.43,-181.92 406,-172.76 718.64,-140.04 1095.32,-179.07 1242.62,-197.33"/>
<polygon fill="#757575" stroke="#757575" points="1242.46,-200.84 1252.82,-198.61 1243.33,-193.89 1242.46,-200.84"/>
</g>
<!-- parser/parser.common.ts -->
<g id="node19" class="node">
<title>parser/parser.common.ts</title>
<path fill="none" stroke="#c6c5fe" d="M768.33,-415.26C768.33,-415.26 607.67,-415.26 607.67,-415.26 603.83,-415.26 600,-411.43 600,-407.59 600,-407.59 600,-399.93 600,-399.93 600,-396.09 603.83,-392.26 607.67,-392.26 607.67,-392.26 768.33,-392.26 768.33,-392.26 772.17,-392.26 776,-396.09 776,-399.93 776,-399.93 776,-407.59 776,-407.59 776,-411.43 772.17,-415.26 768.33,-415.26"/>
<text text-anchor="middle" x="688" y="-400.06" font-family="Arial" font-size="14.00" fill="#c6c5fe">parser/parser.common.ts</text>
</g>
<!-- Parser.ts&#45;&gt;parser/parser.common.ts -->
<g id="edge21" class="edge">
<title>Parser.ts&#45;&gt;parser/parser.common.ts</title>
<path fill="none" stroke="#757575" d="M175.08,-289.51C249.4,-291.89 424.32,-301.88 564,-343.76 598.51,-354.1 635.29,-373.24 659.54,-387.13"/>
<polygon fill="#757575" stroke="#757575" points="657.79,-390.16 668.2,-392.17 661.31,-384.11 657.79,-390.16"/>
</g>
<!-- parser/parser.config.ts -->
<g id="node20" class="node">
<title>parser/parser.config.ts</title>
<path fill="none" stroke="#c6c5fe" d="M362.33,-415.26C362.33,-415.26 218.67,-415.26 218.67,-415.26 214.83,-415.26 211,-411.43 211,-407.59 211,-407.59 211,-399.93 211,-399.93 211,-396.09 214.83,-392.26 218.67,-392.26 218.67,-392.26 362.33,-392.26 362.33,-392.26 366.17,-392.26 370,-396.09 370,-399.93 370,-399.93 370,-407.59 370,-407.59 370,-411.43 366.17,-415.26 362.33,-415.26"/>
<text text-anchor="middle" x="290.5" y="-400.06" font-family="Arial" font-size="14.00" fill="#c6c5fe">parser/parser.config.ts</text>
</g>
<!-- Parser.ts&#45;&gt;parser/parser.config.ts -->
<g id="edge22" class="edge">
<title>Parser.ts&#45;&gt;parser/parser.config.ts</title>
<path fill="none" stroke="#757575" d="M154.26,-300.42C180.63,-320.57 234.88,-362.02 266.06,-385.85"/>
<polygon fill="#757575" stroke="#757575" points="264.13,-388.78 274.2,-392.07 268.38,-383.22 264.13,-388.78"/>
</g>
<!-- labels/Label.ts&#45;&gt;pidraw.common.ts -->
<g id="edge68" class="edge">
<title>labels/Label.ts&#45;&gt;pidraw.common.ts</title>
<path fill="none" stroke="#757575" d="M1343.32,-217.34C1350.05,-221 1356.41,-225.72 1361,-231.76 1424.82,-315.71 1453.82,-657.97 1460.47,-748.63"/>
<polygon fill="#757575" stroke="#757575" points="1457,-749.12 1461.2,-758.85 1463.98,-748.62 1457,-749.12"/>
</g>
<!-- parser/parser.common.ts&#45;&gt;pidraw.common.ts -->
<g id="edge101" class="edge">
<title>parser/parser.common.ts&#45;&gt;pidraw.common.ts</title>
<path fill="none" stroke="#757575" d="M698.77,-392.09C725.16,-360.7 796.97,-276.37 812,-269.76 923.69,-220.67 1266.59,-192.48 1361,-269.76 1436.97,-331.94 1457.07,-661 1461.12,-749.07"/>
<polygon fill="#757575" stroke="#757575" points="1457.63,-749.38 1461.57,-759.22 1464.63,-749.07 1457.63,-749.38"/>
</g>
<!-- parser/parser.common.ts&#45;&gt;figures/AbstractFigure.ts -->
<g id="edge100" class="edge">
<title>parser/parser.common.ts&#45;&gt;figures/AbstractFigure.ts</title>
<path fill="none" stroke="#757575" d="M711.12,-415.32C735.33,-427.57 775.56,-446.78 812,-458.76 897.13,-486.75 936.77,-448.71 1009,-501.76 1075.91,-550.91 1111.27,-648.98 1124.19,-692.32"/>
<polygon fill="#757575" stroke="#757575" points="1120.87,-693.45 1126.99,-702.09 1127.6,-691.52 1120.87,-693.45"/>
</g>
<!-- parser/parser.config.ts&#45;&gt;pidraw.common.ts -->
<g id="edge109" class="edge">
<title>parser/parser.config.ts&#45;&gt;pidraw.common.ts</title>
<path fill="none" stroke="#757575" d="M301.99,-392.18C357.88,-331.8 628.76,-55.76 909.5,-55.76 909.5,-55.76 909.5,-55.76 1132,-55.76 1234.48,-55.76 1287.51,-11.33 1361,-82.76 1458.93,-177.95 1462.65,-642.29 1462.19,-748.91"/>
<polygon fill="#757575" stroke="#757575" points="1458.69,-749.08 1462.13,-759.1 1465.69,-749.12 1458.69,-749.08"/>
</g>
<!-- parser/parser.config.ts&#45;&gt;figures/AbstractFigure.ts -->
<g id="edge102" class="edge">
<title>parser/parser.config.ts&#45;&gt;figures/AbstractFigure.ts</title>
<path fill="none" stroke="#757575" d="M310.3,-392.13C332.48,-378.85 370.78,-357.22 406,-343.76 489.07,-312.01 511.75,-305.73 600,-294.76 783.72,-271.92 877.11,-243.83 1009,-373.76 1101.88,-465.25 1123.71,-632.65 1128.63,-692.1"/>
<polygon fill="#757575" stroke="#757575" points="1125.15,-692.49 1129.39,-702.2 1132.13,-691.97 1125.15,-692.49"/>
</g>
<!-- parser/parser.config.ts&#45;&gt;parser/parser.common.ts -->
<g id="edge108" class="edge">
<title>parser/parser.config.ts&#45;&gt;parser/parser.common.ts</title>
<path fill="none" stroke="#757575" d="M370.11,-403.76C433.21,-403.76 522.12,-403.76 589.71,-403.76"/>
<polygon fill="#757575" stroke="#757575" points="589.95,-407.26 599.95,-403.76 589.95,-400.26 589.95,-407.26"/>
</g>
<!-- parser/buildCircle.ts -->
<g id="node22" class="node">
<title>parser/buildCircle.ts</title>
<path fill="none" stroke="#c6c5fe" d="M548.83,-375.26C548.83,-375.26 421.17,-375.26 421.17,-375.26 417.33,-375.26 413.5,-371.43 413.5,-367.59 413.5,-367.59 413.5,-359.93 413.5,-359.93 413.5,-356.09 417.33,-352.26 421.17,-352.26 421.17,-352.26 548.83,-352.26 548.83,-352.26 552.67,-352.26 556.5,-356.09 556.5,-359.93 556.5,-359.93 556.5,-367.59 556.5,-367.59 556.5,-371.43 552.67,-375.26 548.83,-375.26"/>
<text text-anchor="middle" x="485" y="-360.06" font-family="Arial" font-size="14.00" fill="#c6c5fe">parser/buildCircle.ts</text>
</g>
<!-- parser/parser.config.ts&#45;&gt;parser/buildCircle.ts -->
<g id="edge103" class="edge">
<title>parser/parser.config.ts&#45;&gt;parser/buildCircle.ts</title>
<path fill="none" stroke="#757575" d="M346.92,-392.24C369.37,-387.58 395.46,-382.16 418.81,-377.3"/>
<polygon fill="#757575" stroke="#757575" points="419.56,-380.72 428.64,-375.26 418.13,-373.87 419.56,-380.72"/>
</g>
<!-- parser/buildLine.ts -->
<g id="node23" class="node">
<title>parser/buildLine.ts</title>
<path fill="none" stroke="#c6c5fe" d="M543.83,-531.26C543.83,-531.26 426.17,-531.26 426.17,-531.26 422.33,-531.26 418.5,-527.43 418.5,-523.59 418.5,-523.59 418.5,-515.93 418.5,-515.93 418.5,-512.09 422.33,-508.26 426.17,-508.26 426.17,-508.26 543.83,-508.26 543.83,-508.26 547.67,-508.26 551.5,-512.09 551.5,-515.93 551.5,-515.93 551.5,-523.59 551.5,-523.59 551.5,-527.43 547.67,-531.26 543.83,-531.26"/>
<text text-anchor="middle" x="485" y="-516.06" font-family="Arial" font-size="14.00" fill="#c6c5fe">parser/buildLine.ts</text>
</g>
<!-- parser/parser.config.ts&#45;&gt;parser/buildLine.ts -->
<g id="edge104" class="edge">
<title>parser/parser.config.ts&#45;&gt;parser/buildLine.ts</title>
<path fill="none" stroke="#757575" d="M306.54,-415.31C327.96,-431.47 368.77,-461.27 406,-482.76 419.16,-490.35 434.13,-497.74 447.42,-503.88"/>
<polygon fill="#757575" stroke="#757575" points="446.19,-507.17 456.74,-508.13 449.09,-500.8 446.19,-507.17"/>
</g>
<!-- parser/buildPlot.ts -->
<g id="node24" class="node">
<title>parser/buildPlot.ts</title>
<path fill="none" stroke="#c6c5fe" d="M542.83,-1067.26C542.83,-1067.26 427.17,-1067.26 427.17,-1067.26 423.33,-1067.26 419.5,-1063.43 419.5,-1059.59 419.5,-1059.59 419.5,-1051.93 419.5,-1051.93 419.5,-1048.09 423.33,-1044.26 427.17,-1044.26 427.17,-1044.26 542.83,-1044.26 542.83,-1044.26 546.67,-1044.26 550.5,-1048.09 550.5,-1051.93 550.5,-1051.93 550.5,-1059.59 550.5,-1059.59 550.5,-1063.43 546.67,-1067.26 542.83,-1067.26"/>
<text text-anchor="middle" x="485" y="-1052.06" font-family="Arial" font-size="14.00" fill="#c6c5fe">parser/buildPlot.ts</text>
</g>
<!-- parser/parser.config.ts&#45;&gt;parser/buildPlot.ts -->
<g id="edge105" class="edge">
<title>parser/parser.config.ts&#45;&gt;parser/buildPlot.ts</title>
<path fill="none" stroke="#757575" d="M294.92,-415.35C317.7,-492.5 447.37,-931.68 477.67,-1034.31"/>
<polygon fill="#757575" stroke="#757575" points="474.39,-1035.55 480.57,-1044.15 481.1,-1033.57 474.39,-1035.55"/>
</g>
<!-- parser/buildPoint.ts -->
<g id="node25" class="node">
<title>parser/buildPoint.ts</title>
<path fill="none" stroke="#c6c5fe" d="M546.33,-687.26C546.33,-687.26 423.67,-687.26 423.67,-687.26 419.83,-687.26 416,-683.43 416,-679.59 416,-679.59 416,-671.93 416,-671.93 416,-668.09 419.83,-664.26 423.67,-664.26 423.67,-664.26 546.33,-664.26 546.33,-664.26 550.17,-664.26 554,-668.09 554,-671.93 554,-671.93 554,-679.59 554,-679.59 554,-683.43 550.17,-687.26 546.33,-687.26"/>
<text text-anchor="middle" x="485" y="-672.06" font-family="Arial" font-size="14.00" fill="#c6c5fe">parser/buildPoint.ts</text>
</g>
<!-- parser/parser.config.ts&#45;&gt;parser/buildPoint.ts -->
<g id="edge106" class="edge">
<title>parser/parser.config.ts&#45;&gt;parser/buildPoint.ts</title>
<path fill="none" stroke="#757575" d="M299.77,-415.45C329.64,-457.64 432.12,-602.45 469.88,-655.81"/>
<polygon fill="#757575" stroke="#757575" points="467.13,-657.97 475.76,-664.11 472.84,-653.93 467.13,-657.97"/>
</g>
<!-- parser/buildPolygon.ts -->
<g id="node26" class="node">
<title>parser/buildPolygon.ts</title>
<path fill="none" stroke="#c6c5fe" d="M556.33,-473.26C556.33,-473.26 413.67,-473.26 413.67,-473.26 409.83,-473.26 406,-469.43 406,-465.59 406,-465.59 406,-457.93 406,-457.93 406,-454.09 409.83,-450.26 413.67,-450.26 413.67,-450.26 556.33,-450.26 556.33,-450.26 560.17,-450.26 564,-454.09 564,-457.93 564,-457.93 564,-465.59 564,-465.59 564,-469.43 560.17,-473.26 556.33,-473.26"/>
<text text-anchor="middle" x="485" y="-458.06" font-family="Arial" font-size="14.00" fill="#c6c5fe">parser/buildPolygon.ts</text>
</g>
<!-- parser/parser.config.ts&#45;&gt;parser/buildPolygon.ts -->
<g id="edge107" class="edge">
<title>parser/parser.config.ts&#45;&gt;parser/buildPolygon.ts</title>
<path fill="none" stroke="#757575" d="M329.99,-415.36C360.42,-424.52 403.07,-437.37 435.77,-447.23"/>
<polygon fill="#757575" stroke="#757575" points="434.99,-450.65 445.57,-450.18 437.01,-443.94 434.99,-450.65"/>
</g>
<!-- index.ts -->
<g id="node21" class="node">
<title>index.ts</title>
<path fill="none" stroke="#c6c5fe" d="M57.33,-473.26C57.33,-473.26 7.67,-473.26 7.67,-473.26 3.83,-473.26 0,-469.43 0,-465.59 0,-465.59 0,-457.93 0,-457.93 0,-454.09 3.83,-450.26 7.67,-450.26 7.67,-450.26 57.33,-450.26 57.33,-450.26 61.17,-450.26 65,-454.09 65,-457.93 65,-457.93 65,-465.59 65,-465.59 65,-469.43 61.17,-473.26 57.33,-473.26"/>
<text text-anchor="middle" x="32.5" y="-458.06" font-family="Arial" font-size="14.00" fill="#c6c5fe">index.ts</text>
</g>
<!-- index.ts&#45;&gt;Graph.ts -->
<g id="edge66" class="edge">
<title>index.ts&#45;&gt;Graph.ts</title>
<path fill="none" stroke="#757575" d="M38.47,-473.43C57.96,-518.7 131.93,-686.62 211,-814.76 287.23,-938.29 316.59,-962.41 406,-1076.76 426.84,-1103.41 451.78,-1133.49 467.75,-1152.52"/>
<polygon fill="#757575" stroke="#757575" points="465.1,-1154.8 474.21,-1160.2 470.45,-1150.3 465.1,-1154.8"/>
</g>
<!-- index.ts&#45;&gt;Parser.ts -->
<g id="edge67" class="edge">
<title>index.ts&#45;&gt;Parser.ts</title>
<path fill="none" stroke="#757575" d="M40.45,-450.14C57.76,-421.21 102.96,-345.66 124.81,-309.13"/>
<polygon fill="#757575" stroke="#757575" points="127.95,-310.71 130.08,-300.33 121.94,-307.11 127.95,-310.71"/>
</g>
<!-- parser/buildCircle.ts&#45;&gt;pidraw.common.ts -->
<g id="edge74" class="edge">
<title>parser/buildCircle.ts&#45;&gt;pidraw.common.ts</title>
<path fill="none" stroke="#757575" d="M500.36,-352.19C590.69,-280.87 1085.35,88.45 1361,-147.76 1454.53,-227.91 1461.68,-647.82 1462.03,-748.87"/>
<polygon fill="#757575" stroke="#757575" points="1458.53,-749.1 1462.05,-759.1 1465.53,-749.09 1458.53,-749.1"/>
</g>
<!-- parser/buildCircle.ts&#45;&gt;figures/AbstractFigure.ts -->
<g id="edge69" class="edge">
<title>parser/buildCircle.ts&#45;&gt;figures/AbstractFigure.ts</title>
<path fill="none" stroke="#757575" d="M508.42,-352.26C530.89,-341.41 566.84,-325.94 600,-319.76 676.9,-305.43 707.03,-282.85 776,-319.76 801.43,-333.37 788.21,-357.44 812,-373.76 885.98,-424.51 940.46,-359.88 1009,-417.76 1096.1,-491.31 1121.32,-637.33 1127.89,-692.22"/>
<polygon fill="#757575" stroke="#757575" points="1124.42,-692.66 1129,-702.22 1131.38,-691.89 1124.42,-692.66"/>
</g>
<!-- parser/buildCircle.ts&#45;&gt;figures/Arc.ts -->
<g id="edge70" class="edge">
<title>parser/buildCircle.ts&#45;&gt;figures/Arc.ts</title>
<path fill="none" stroke="#757575" d="M556.82,-360.68C631.03,-358.83 741.54,-360.39 776,-383.76 806.6,-404.52 793.1,-426.98 812,-458.76 837.62,-501.85 873.27,-548.5 893.6,-574.12"/>
<polygon fill="#757575" stroke="#757575" points="890.9,-576.34 899.87,-581.97 896.36,-571.97 890.9,-576.34"/>
</g>
<!-- parser/buildCircle.ts&#45;&gt;figures/Circle.ts -->
<g id="edge71" class="edge">
<title>parser/buildCircle.ts&#45;&gt;figures/Circle.ts</title>
<path fill="none" stroke="#757575" d="M516.46,-352.22C572.2,-333.16 692.56,-301.72 776,-349.76 803.61,-365.66 786.69,-392.41 812,-411.76 821.04,-418.67 831.77,-423.75 842.76,-427.48"/>
<polygon fill="#757575" stroke="#757575" points="841.85,-430.86 852.44,-430.42 843.89,-424.16 841.85,-430.86"/>
</g>
<!-- parser/buildCircle.ts&#45;&gt;figures/Point.ts -->
<g id="edge72" class="edge">
<title>parser/buildCircle.ts&#45;&gt;figures/Point.ts</title>
<path fill="none" stroke="#757575" d="M498.62,-375.49C514.43,-390.39 542.12,-417.14 564,-441.76 605.7,-488.69 650.29,-547.75 672.57,-577.97"/>
<polygon fill="#757575" stroke="#757575" points="669.76,-580.04 678.5,-586.03 675.4,-575.9 669.76,-580.04"/>
</g>
<!-- parser/buildCircle.ts&#45;&gt;parser/parser.common.ts -->
<g id="edge73" class="edge">
<title>parser/buildCircle.ts&#45;&gt;parser/parser.common.ts</title>
<path fill="none" stroke="#757575" d="M543.87,-375.27C567.41,-379.96 594.79,-385.41 619.26,-390.28"/>
<polygon fill="#757575" stroke="#757575" points="618.7,-393.74 629.19,-392.25 620.07,-386.87 618.7,-393.74"/>
</g>
<!-- parser/buildLine.ts&#45;&gt;Calculus.ts -->
<g id="edge75" class="edge">
<title>parser/buildLine.ts&#45;&gt;Calculus.ts</title>
<path fill="none" stroke="#757575" d="M493.16,-531.61C507.24,-555.05 539.3,-609.09 564,-655.76 581.11,-688.09 577.42,-700.99 600,-729.76 662.76,-809.7 706.99,-801.15 776,-875.76 794.84,-896.13 791.34,-908.24 812,-926.76 886.51,-993.54 923.72,-983.42 1009,-1035.76 1043.29,-1056.8 1081.51,-1083.23 1105.65,-1100.3"/>
<polygon fill="#757575" stroke="#757575" points="1103.69,-1103.2 1113.87,-1106.14 1107.74,-1097.5 1103.69,-1103.2"/>
</g>
<!-- parser/buildLine.ts&#45;&gt;pidraw.common.ts -->
<g id="edge80" class="edge">
<title>parser/buildLine.ts&#45;&gt;pidraw.common.ts</title>
<path fill="none" stroke="#757575" d="M551.56,-510.79C614.33,-499.49 709.13,-475.11 776,-424.76 798.75,-407.63 786.84,-385.09 812,-371.76 971.19,-287.45 1045.87,-331.49 1217,-387.76 1288.7,-411.33 1314.01,-418.7 1361,-477.76 1428.88,-563.08 1452.58,-696.9 1459.51,-748.99"/>
<polygon fill="#757575" stroke="#757575" points="1456.06,-749.6 1460.78,-759.08 1463.01,-748.73 1456.06,-749.6"/>
</g>
<!-- parser/buildLine.ts&#45;&gt;figures/AbstractFigure.ts -->
<g id="edge76" class="edge">
<title>parser/buildLine.ts&#45;&gt;figures/AbstractFigure.ts</title>
<path fill="none" stroke="#757575" d="M551.97,-520.1C674.66,-521.77 932.4,-530.5 1009,-573.76 1060.21,-602.68 1100.05,-661.83 1118.6,-693.18"/>
<polygon fill="#757575" stroke="#757575" points="1115.63,-695.04 1123.66,-701.96 1121.7,-691.55 1115.63,-695.04"/>
</g>
<!-- parser/buildLine.ts&#45;&gt;figures/Line.ts -->
<g id="edge77" class="edge">
<title>parser/buildLine.ts&#45;&gt;figures/Line.ts</title>
<path fill="none" stroke="#757575" d="M551.81,-528.3C625.06,-538.61 738.11,-557.15 776,-577.76 796.15,-588.72 794.04,-600.48 812,-614.76 832.59,-631.13 858.09,-646.41 877.85,-657.31"/>
<polygon fill="#757575" stroke="#757575" points="876.3,-660.46 886.76,-662.15 879.64,-654.3 876.3,-660.46"/>
</g>
<!-- parser/buildLine.ts&#45;&gt;figures/Point.ts -->
<g id="edge78" class="edge">
<title>parser/buildLine.ts&#45;&gt;figures/Point.ts</title>
<path fill="none" stroke="#757575" d="M508.75,-531.26C531.49,-542.49 567.62,-559.6 600,-571.76 610.96,-575.87 622.88,-579.79 634.28,-583.27"/>
<polygon fill="#757575" stroke="#757575" points="633.55,-586.71 644.13,-586.22 635.55,-580 633.55,-586.71"/>
</g>
<!-- parser/buildLine.ts&#45;&gt;parser/parser.common.ts -->
<g id="edge79" class="edge">
<title>parser/buildLine.ts&#45;&gt;parser/parser.common.ts</title>
<path fill="none" stroke="#757575" d="M520.18,-508.18C534.73,-502.13 551.25,-493.68 564,-482.76 585.62,-464.23 577.03,-446.59 600,-429.76 605.77,-425.53 612.23,-421.99 618.95,-419.01"/>
<polygon fill="#757575" stroke="#757575" points="620.25,-422.26 628.24,-415.3 617.65,-415.76 620.25,-422.26"/>
</g>
<!-- parser/buildPlot.ts&#45;&gt;pidraw.common.ts -->
<g id="edge88" class="edge">
<title>parser/buildPlot.ts&#45;&gt;pidraw.common.ts</title>
<path fill="none" stroke="#757575" d="M536.31,-1044.18C655.21,-1016.61 962.69,-944.1 1217,-873.76 1281.38,-855.95 1299.83,-857.57 1361,-830.76 1388.21,-818.83 1417.16,-801.05 1437.06,-787.94"/>
<polygon fill="#757575" stroke="#757575" points="1439.16,-790.74 1445.53,-782.28 1435.27,-784.92 1439.16,-790.74"/>
</g>
<!-- parser/buildPlot.ts&#45;&gt;figures/AbstractFigure.ts -->
<g id="edge81" class="edge">
<title>parser/buildPlot.ts&#45;&gt;figures/AbstractFigure.ts</title>
<path fill="none" stroke="#757575" d="M500.23,-1044.18C521.64,-1026.83 563.53,-993.2 600,-965.76 692.63,-896.04 708.29,-865.58 812,-813.76 895.47,-772.06 999.93,-743.22 1065.84,-727.58"/>
<polygon fill="#757575" stroke="#757575" points="1066.73,-730.97 1075.67,-725.28 1065.14,-724.15 1066.73,-730.97"/>
</g>
<!-- parser/buildPlot.ts&#45;&gt;figures/FillBetween.ts -->
<g id="edge82" class="edge">
<title>parser/buildPlot.ts&#45;&gt;figures/FillBetween.ts</title>
<path fill="none" stroke="#757575" d="M495.26,-1067.26C520.27,-1098.27 588.08,-1181.95 600,-1192.76 617.73,-1208.83 640.13,-1223.92 657.76,-1234.81"/>
<polygon fill="#757575" stroke="#757575" points="656.12,-1237.92 666.49,-1240.11 659.75,-1231.93 656.12,-1237.92"/>
</g>
<!-- parser/buildPlot.ts&#45;&gt;figures/Follow.ts -->
<g id="edge83" class="edge">
<title>parser/buildPlot.ts&#45;&gt;figures/Follow.ts</title>
<path fill="none" stroke="#757575" d="M506.01,-1067.31C541.73,-1087.92 616.62,-1131.14 658,-1155.02"/>
<polygon fill="#757575" stroke="#757575" points="656.36,-1158.12 666.78,-1160.09 659.86,-1152.06 656.36,-1158.12"/>
</g>
<!-- parser/buildPlot.ts&#45;&gt;figures/Parametric.ts -->
<g id="edge84" class="edge">
<title>parser/buildPlot.ts&#45;&gt;figures/Parametric.ts</title>
<path fill="none" stroke="#757575" d="M498.68,-1067.48C516.15,-1084.38 547.36,-1117.35 564,-1151.76 596.11,-1218.16 543.83,-1265.96 600,-1313.76 632.97,-1341.82 746.72,-1341.72 826.71,-1337.77"/>
<polygon fill="#757575" stroke="#757575" points="826.97,-1341.26 836.77,-1337.25 826.61,-1334.27 826.97,-1341.26"/>
</g>
<!-- parser/buildPlot.ts&#45;&gt;figures/Plot.ts -->
<g id="edge85" class="edge">
<title>parser/buildPlot.ts&#45;&gt;figures/Plot.ts</title>
<path fill="none" stroke="#757575" d="M526.61,-1067.26C604.37,-1089.3 774.12,-1137.4 859.03,-1161.46"/>
<polygon fill="#757575" stroke="#757575" points="858.13,-1164.84 868.71,-1164.2 860.04,-1158.11 858.13,-1164.84"/>
</g>
<!-- parser/buildPlot.ts&#45;&gt;figures/Riemann.ts -->
<g id="edge86" class="edge">
<title>parser/buildPlot.ts&#45;&gt;figures/Riemann.ts</title>
<path fill="none" stroke="#757575" d="M498.05,-1067.36C515.07,-1084.37 546.05,-1117.77 564,-1151.76 590.19,-1201.38 559.09,-1234.36 600,-1272.76 603.33,-1275.89 607.05,-1278.56 611.02,-1280.84"/>
<polygon fill="#757575" stroke="#757575" points="609.54,-1284.01 620.07,-1285.23 612.6,-1277.72 609.54,-1284.01"/>
</g>
<!-- parser/buildPlot.ts&#45;&gt;parser/parser.common.ts -->
<g id="edge87" class="edge">
<title>parser/buildPlot.ts&#45;&gt;parser/parser.common.ts</title>
<path fill="none" stroke="#757575" d="M488.42,-1043.99C501.73,-979.61 566.61,-669.56 600,-577.76 621.03,-519.94 656.18,-456.31 674.71,-424.41"/>
<polygon fill="#757575" stroke="#757575" points="677.85,-425.96 679.89,-415.57 671.81,-422.42 677.85,-425.96"/>
</g>
<!-- parser/buildPoint.ts&#45;&gt;Calculus.ts -->
<g id="edge89" class="edge">
<title>parser/buildPoint.ts&#45;&gt;Calculus.ts</title>
<path fill="none" stroke="#757575" d="M490.44,-687.43C503.42,-720.44 543.9,-816.18 600,-879.76 677.4,-967.47 706.33,-985.57 812,-1035.76 900.36,-1077.72 1013.12,-1100.27 1077.88,-1110.58"/>
<polygon fill="#757575" stroke="#757575" points="1077.43,-1114.05 1087.85,-1112.13 1078.51,-1107.13 1077.43,-1114.05"/>
</g>
<!-- parser/buildPoint.ts&#45;&gt;pidraw.common.ts -->
<g id="edge94" class="edge">
<title>parser/buildPoint.ts&#45;&gt;pidraw.common.ts</title>
<path fill="none" stroke="#757575" d="M520.26,-687.29C542.69,-694.36 572.77,-702.94 600,-707.76 886.62,-758.45 962.63,-737.61 1253,-757.76 1297.21,-760.83 1346.7,-763.92 1386.42,-766.32"/>
<polygon fill="#757575" stroke="#757575" points="1386.37,-769.82 1396.56,-766.93 1386.79,-762.83 1386.37,-769.82"/>
</g>
<!-- parser/buildPoint.ts&#45;&gt;figures/AbstractFigure.ts -->
<g id="edge90" class="edge">
<title>parser/buildPoint.ts&#45;&gt;figures/AbstractFigure.ts</title>
<path fill="none" stroke="#757575" d="M554.05,-684.27C569.16,-685.95 585.11,-687.56 600,-688.76 751.88,-700.99 928.77,-707.85 1034.93,-711.18"/>
<polygon fill="#757575" stroke="#757575" points="1034.88,-714.68 1044.98,-711.49 1035.09,-707.68 1034.88,-714.68"/>
</g>
<!-- parser/buildPoint.ts&#45;&gt;figures/Line.ts -->
<g id="edge91" class="edge">
<title>parser/buildPoint.ts&#45;&gt;figures/Line.ts</title>
<path fill="none" stroke="#757575" d="M554.04,-675.44C634.94,-675.06 768.81,-674.42 847.12,-674.05"/>
<polygon fill="#757575" stroke="#757575" points="847.34,-677.55 857.33,-674.01 847.31,-670.55 847.34,-677.55"/>
</g>
<!-- parser/buildPoint.ts&#45;&gt;figures/Point.ts -->
<g id="edge92" class="edge">
<title>parser/buildPoint.ts&#45;&gt;figures/Point.ts</title>
<path fill="none" stroke="#757575" d="M508.75,-664.26C531.49,-653.03 567.62,-635.92 600,-623.76 610.96,-619.64 622.88,-615.73 634.28,-612.24"/>
<polygon fill="#757575" stroke="#757575" points="635.55,-615.52 644.13,-609.3 633.55,-608.81 635.55,-615.52"/>
</g>
<!-- parser/buildPoint.ts&#45;&gt;parser/parser.common.ts -->
<g id="edge93" class="edge">
<title>parser/buildPoint.ts&#45;&gt;parser/parser.common.ts</title>
<path fill="none" stroke="#757575" d="M494.64,-664.07C525.82,-621.87 632.83,-477.07 672.26,-423.71"/>
<polygon fill="#757575" stroke="#757575" points="675.27,-425.53 678.4,-415.4 669.64,-421.36 675.27,-425.53"/>
</g>
<!-- parser/buildPolygon.ts&#45;&gt;pidraw.common.ts -->
<g id="edge99" class="edge">
<title>parser/buildPolygon.ts&#45;&gt;pidraw.common.ts</title>
<path fill="none" stroke="#757575" d="M497.01,-450.03C535.62,-409.78 670.25,-276.84 812,-223.76 926.53,-180.87 1267.46,-106.98 1361,-185.76 1449.15,-260 1460.37,-651 1461.79,-748.64"/>
<polygon fill="#757575" stroke="#757575" points="1458.29,-748.87 1461.92,-758.83 1465.29,-748.78 1458.29,-748.87"/>
</g>
<!-- parser/buildPolygon.ts&#45;&gt;figures/AbstractFigure.ts -->
<g id="edge95" class="edge">
<title>parser/buildPolygon.ts&#45;&gt;figures/AbstractFigure.ts</title>
<path fill="none" stroke="#757575" d="M564.23,-470.2C705.5,-485.68 990.37,-518.1 1009,-529.76 1071.34,-568.77 1108.32,-653.05 1122.84,-692.53"/>
<polygon fill="#757575" stroke="#757575" points="1119.63,-693.95 1126.28,-702.2 1126.23,-691.6 1119.63,-693.95"/>
</g>
<!-- parser/buildPolygon.ts&#45;&gt;figures/Point.ts -->
<g id="edge96" class="edge">
<title>parser/buildPolygon.ts&#45;&gt;figures/Point.ts</title>
<path fill="none" stroke="#757575" d="M513.5,-473.37C528.8,-480.26 547.95,-489.63 564,-499.76 602.62,-524.14 643.29,-558.5 666.84,-579.39"/>
<polygon fill="#757575" stroke="#757575" points="664.63,-582.12 674.42,-586.18 669.3,-576.9 664.63,-582.12"/>
</g>
<!-- parser/buildPolygon.ts&#45;&gt;figures/Polygon.ts -->
<g id="edge97" class="edge">
<title>parser/buildPolygon.ts&#45;&gt;figures/Polygon.ts</title>
<path fill="none" stroke="#757575" d="M525.1,-473.43C539.06,-479.33 553.84,-487.83 564,-499.76 599.83,-541.82 572.83,-570.64 600,-618.76 657.4,-720.42 708.47,-718.52 776,-813.76 795.33,-841.02 785.73,-859.11 812,-879.76 818.96,-885.22 826.96,-889.55 835.33,-892.96"/>
<polygon fill="#757575" stroke="#757575" points="834.31,-896.31 844.9,-896.44 836.7,-889.73 834.31,-896.31"/>
</g>
<!-- parser/buildPolygon.ts&#45;&gt;parser/parser.common.ts -->
<g id="edge98" class="edge">
<title>parser/buildPolygon.ts&#45;&gt;parser/parser.common.ts</title>
<path fill="none" stroke="#757575" d="M526.19,-450.16C558.1,-440.95 602.88,-428.03 637.08,-418.16"/>
<polygon fill="#757575" stroke="#757575" points="638.24,-421.47 646.88,-415.34 636.3,-414.75 638.24,-421.47"/>
</g>
</g>
</svg>
