<?xml version="1.0" encoding="UTF-8" standalone="no"?>
<!DOCTYPE svg PUBLIC "-//W3C//DTD SVG 1.1//EN"
 "http://www.w3.org/Graphics/SVG/1.1/DTD/svg11.dtd">
<!-- Generated by graphviz version 3.0.0 (20220226.1711)
 -->
<!-- Title: G Pages: 1 -->
<svg width="1437pt" height="1583pt"
 viewBox="0.00 0.00 1437.20 1583.45" xmlns="http://www.w3.org/2000/svg" xmlns:xlink="http://www.w3.org/1999/xlink">
<g id="graph0" class="graph" transform="scale(1 1) rotate(0) translate(21.6 1561.85)">
<title>G</title>
<polygon fill="#111111" stroke="transparent" points="-21.6,21.6 -21.6,-1561.85 1415.6,-1561.85 1415.6,21.6 -21.6,21.6"/>
<!-- Calculus.ts -->
<g id="node1" class="node">
<title>Calculus.ts</title>
<path fill="none" stroke="#c6c5fe" d="M1031.33,-1083.75C1031.33,-1083.75 960.67,-1083.75 960.67,-1083.75 956.83,-1083.75 953,-1079.92 953,-1076.08 953,-1076.08 953,-1068.42 953,-1068.42 953,-1064.58 956.83,-1060.75 960.67,-1060.75 960.67,-1060.75 1031.33,-1060.75 1031.33,-1060.75 1035.17,-1060.75 1039,-1064.58 1039,-1068.42 1039,-1068.42 1039,-1076.08 1039,-1076.08 1039,-1079.92 1035.17,-1083.75 1031.33,-1083.75"/>
<text text-anchor="middle" x="996" y="-1068.55" font-family="Arial" font-size="14.00" fill="#c6c5fe">Calculus.ts</text>
</g>
<!-- pidraw.common.ts -->
<g id="node2" class="node">
<title>pidraw.common.ts</title>
<path fill="none" stroke="#cfffac" d="M1386.33,-796.75C1386.33,-796.75 1269.67,-796.75 1269.67,-796.75 1265.83,-796.75 1262,-792.92 1262,-789.08 1262,-789.08 1262,-781.42 1262,-781.42 1262,-777.58 1265.83,-773.75 1269.67,-773.75 1269.67,-773.75 1386.33,-773.75 1386.33,-773.75 1390.17,-773.75 1394,-777.58 1394,-781.42 1394,-781.42 1394,-789.08 1394,-789.08 1394,-792.92 1390.17,-796.75 1386.33,-796.75"/>
<text text-anchor="middle" x="1328" y="-781.55" font-family="Arial" font-size="14.00" fill="#cfffac">pidraw.common.ts</text>
</g>
<!-- Calculus.ts&#45;&gt;pidraw.common.ts -->
<g id="edge1" class="edge">
<title>Calculus.ts&#45;&gt;pidraw.common.ts</title>
<path fill="none" stroke="#757575" d="M1039.38,-1079.54C1089.33,-1085.65 1172.31,-1087.69 1226,-1046.25 1303.78,-986.22 1321.7,-858.19 1325.8,-807.03"/>
<polygon fill="#757575" stroke="#757575" points="1329.31,-807.02 1326.51,-796.8 1322.32,-806.54 1329.31,-807.02"/>
</g>
<!-- Graph.ts -->
<g id="node3" class="node">
<title>Graph.ts</title>
<path fill="none" stroke="#c6c5fe" d="M347.83,-1095.75C347.83,-1095.75 292.17,-1095.75 292.17,-1095.75 288.33,-1095.75 284.5,-1091.92 284.5,-1088.08 284.5,-1088.08 284.5,-1080.42 284.5,-1080.42 284.5,-1076.58 288.33,-1072.75 292.17,-1072.75 292.17,-1072.75 347.83,-1072.75 347.83,-1072.75 351.67,-1072.75 355.5,-1076.58 355.5,-1080.42 355.5,-1080.42 355.5,-1088.08 355.5,-1088.08 355.5,-1091.92 351.67,-1095.75 347.83,-1095.75"/>
<text text-anchor="middle" x="320" y="-1080.55" font-family="Arial" font-size="14.00" fill="#c6c5fe">Graph.ts</text>
</g>
<!-- Graph.ts&#45;&gt;Calculus.ts -->
<g id="edge2" class="edge">
<title>Graph.ts&#45;&gt;Calculus.ts</title>
<path fill="none" stroke="#757575" d="M324.84,-1095.85C337.91,-1133.42 384.35,-1252.82 465,-1312.25 612.75,-1421.13 721.69,-1471.66 874,-1369.25 969.51,-1305.03 989.67,-1150.87 993.89,-1093.89"/>
<polygon fill="#757575" stroke="#757575" points="997.39,-1094.05 994.54,-1083.85 990.4,-1093.6 997.39,-1094.05"/>
</g>
<!-- Graph.ts&#45;&gt;pidraw.common.ts -->
<g id="edge15" class="edge">
<title>Graph.ts&#45;&gt;pidraw.common.ts</title>
<path fill="none" stroke="#757575" d="M323.55,-1095.8C333.61,-1138.88 374.6,-1292.1 465,-1376.25 573.71,-1477.45 625.98,-1502.25 774.5,-1502.25 774.5,-1502.25 774.5,-1502.25 997,-1502.25 1119.9,-1502.25 1158.98,-1450.27 1226,-1347.25 1286.07,-1254.92 1317.96,-899.38 1325.33,-807.19"/>
<polygon fill="#757575" stroke="#757575" points="1328.83,-807.31 1326.12,-797.07 1321.85,-806.76 1328.83,-807.31"/>
</g>
<!-- figures/AbstractFigure.ts -->
<g id="node4" class="node">
<title>figures/AbstractFigure.ts</title>
<path fill="none" stroke="#c6c5fe" d="M1074.33,-697.75C1074.33,-697.75 917.67,-697.75 917.67,-697.75 913.83,-697.75 910,-693.92 910,-690.08 910,-690.08 910,-682.42 910,-682.42 910,-678.58 913.83,-674.75 917.67,-674.75 917.67,-674.75 1074.33,-674.75 1074.33,-674.75 1078.17,-674.75 1082,-678.58 1082,-682.42 1082,-682.42 1082,-690.08 1082,-690.08 1082,-693.92 1078.17,-697.75 1074.33,-697.75"/>
<text text-anchor="middle" x="996" y="-682.55" font-family="Arial" font-size="14.00" fill="#c6c5fe">figures/AbstractFigure.ts</text>
</g>
<!-- Graph.ts&#45;&gt;figures/AbstractFigure.ts -->
<g id="edge3" class="edge">
<title>Graph.ts&#45;&gt;figures/AbstractFigure.ts</title>
<path fill="none" stroke="#757575" d="M355.61,-1087.35C379.48,-1087.47 410.17,-1083.31 429,-1064.25 494.95,-997.52 406.05,-929.24 465,-856.25 518,-790.63 572.2,-834.04 641,-785.25 660.78,-771.22 655.9,-756.2 677,-744.25 677.34,-744.06 827.66,-716.69 921.48,-699.62"/>
<polygon fill="#757575" stroke="#757575" points="922.29,-703.03 931.5,-697.8 921.03,-696.15 922.29,-703.03"/>
</g>
<!-- figures/Arc.ts -->
<g id="node5" class="node">
<title>figures/Arc.ts</title>
<path fill="none" stroke="#c6c5fe" d="M818.33,-1318.75C818.33,-1318.75 732.67,-1318.75 732.67,-1318.75 728.83,-1318.75 725,-1314.92 725,-1311.08 725,-1311.08 725,-1303.42 725,-1303.42 725,-1299.58 728.83,-1295.75 732.67,-1295.75 732.67,-1295.75 818.33,-1295.75 818.33,-1295.75 822.17,-1295.75 826,-1299.58 826,-1303.42 826,-1303.42 826,-1311.08 826,-1311.08 826,-1314.92 822.17,-1318.75 818.33,-1318.75"/>
<text text-anchor="middle" x="775.5" y="-1303.55" font-family="Arial" font-size="14.00" fill="#c6c5fe">figures/Arc.ts</text>
</g>
<!-- Graph.ts&#45;&gt;figures/Arc.ts -->
<g id="edge4" class="edge">
<title>Graph.ts&#45;&gt;figures/Arc.ts</title>
<path fill="none" stroke="#757575" d="M330.18,-1095.82C351.27,-1121.65 405.93,-1184.5 465,-1219.25 544.3,-1265.9 649.66,-1288.95 714.73,-1299.46"/>
<polygon fill="#757575" stroke="#757575" points="714.39,-1302.95 724.82,-1301.04 715.48,-1296.03 714.39,-1302.95"/>
</g>
<!-- figures/Circle.ts -->
<g id="node6" class="node">
<title>figures/Circle.ts</title>
<path fill="none" stroke="#c6c5fe" d="M603.33,-1166.75C603.33,-1166.75 502.67,-1166.75 502.67,-1166.75 498.83,-1166.75 495,-1162.92 495,-1159.08 495,-1159.08 495,-1151.42 495,-1151.42 495,-1147.58 498.83,-1143.75 502.67,-1143.75 502.67,-1143.75 603.33,-1143.75 603.33,-1143.75 607.17,-1143.75 611,-1147.58 611,-1151.42 611,-1151.42 611,-1159.08 611,-1159.08 611,-1162.92 607.17,-1166.75 603.33,-1166.75"/>
<text text-anchor="middle" x="553" y="-1151.55" font-family="Arial" font-size="14.00" fill="#c6c5fe">figures/Circle.ts</text>
</g>
<!-- Graph.ts&#45;&gt;figures/Circle.ts -->
<g id="edge5" class="edge">
<title>Graph.ts&#45;&gt;figures/Circle.ts</title>
<path fill="none" stroke="#757575" d="M355.66,-1095.72C376.91,-1102.86 404.61,-1112.34 429,-1121.25 445.12,-1127.15 448.59,-1130.2 465,-1135.25 471.93,-1137.38 479.22,-1139.4 486.52,-1141.28"/>
<polygon fill="#757575" stroke="#757575" points="485.9,-1144.73 496.45,-1143.75 487.59,-1137.94 485.9,-1144.73"/>
</g>
<!-- figures/CoordinateSystem.ts -->
<g id="node7" class="node">
<title>figures/CoordinateSystem.ts</title>
<path fill="none" stroke="#c6c5fe" d="M866.33,-1359.75C866.33,-1359.75 684.67,-1359.75 684.67,-1359.75 680.83,-1359.75 677,-1355.92 677,-1352.08 677,-1352.08 677,-1344.42 677,-1344.42 677,-1340.58 680.83,-1336.75 684.67,-1336.75 684.67,-1336.75 866.33,-1336.75 866.33,-1336.75 870.17,-1336.75 874,-1340.58 874,-1344.42 874,-1344.42 874,-1352.08 874,-1352.08 874,-1355.92 870.17,-1359.75 866.33,-1359.75"/>
<text text-anchor="middle" x="775.5" y="-1344.55" font-family="Arial" font-size="14.00" fill="#c6c5fe">figures/CoordinateSystem.ts</text>
</g>
<!-- Graph.ts&#45;&gt;figures/CoordinateSystem.ts -->
<g id="edge6" class="edge">
<title>Graph.ts&#45;&gt;figures/CoordinateSystem.ts</title>
<path fill="none" stroke="#757575" d="M326.99,-1096.03C343.98,-1128.24 395.77,-1218.52 465,-1265.25 524.96,-1305.73 603.87,-1326.5 667,-1337.14"/>
<polygon fill="#757575" stroke="#757575" points="666.56,-1340.62 676.99,-1338.76 667.68,-1333.71 666.56,-1340.62"/>
</g>
<!-- figures/FillBetween.ts -->
<g id="node8" class="node">
<title>figures/FillBetween.ts</title>
<path fill="none" stroke="#c6c5fe" d="M621.33,-931.75C621.33,-931.75 484.67,-931.75 484.67,-931.75 480.83,-931.75 477,-927.92 477,-924.08 477,-924.08 477,-916.42 477,-916.42 477,-912.58 480.83,-908.75 484.67,-908.75 484.67,-908.75 621.33,-908.75 621.33,-908.75 625.17,-908.75 629,-912.58 629,-916.42 629,-916.42 629,-924.08 629,-924.08 629,-927.92 625.17,-931.75 621.33,-931.75"/>
<text text-anchor="middle" x="553" y="-916.55" font-family="Arial" font-size="14.00" fill="#c6c5fe">figures/FillBetween.ts</text>
</g>
<!-- Graph.ts&#45;&gt;figures/FillBetween.ts -->
<g id="edge7" class="edge">
<title>Graph.ts&#45;&gt;figures/FillBetween.ts</title>
<path fill="none" stroke="#757575" d="M355.63,-1083.7C377.89,-1081.98 406.7,-1077.12 429,-1064.25 481.39,-1034.01 522,-972.87 540.71,-940.86"/>
<polygon fill="#757575" stroke="#757575" points="543.89,-942.34 545.8,-931.92 537.81,-938.88 543.89,-942.34"/>
</g>
<!-- figures/Follow.ts -->
<g id="node9" class="node">
<title>figures/Follow.ts</title>
<path fill="none" stroke="#c6c5fe" d="M605.33,-1125.75C605.33,-1125.75 500.67,-1125.75 500.67,-1125.75 496.83,-1125.75 493,-1121.92 493,-1118.08 493,-1118.08 493,-1110.42 493,-1110.42 493,-1106.58 496.83,-1102.75 500.67,-1102.75 500.67,-1102.75 605.33,-1102.75 605.33,-1102.75 609.17,-1102.75 613,-1106.58 613,-1110.42 613,-1110.42 613,-1118.08 613,-1118.08 613,-1121.92 609.17,-1125.75 605.33,-1125.75"/>
<text text-anchor="middle" x="553" y="-1110.55" font-family="Arial" font-size="14.00" fill="#c6c5fe">figures/Follow.ts</text>
</g>
<!-- Graph.ts&#45;&gt;figures/Follow.ts -->
<g id="edge8" class="edge">
<title>Graph.ts&#45;&gt;figures/Follow.ts</title>
<path fill="none" stroke="#757575" d="M355.58,-1088.74C389.07,-1093.09 440.79,-1099.81 482.76,-1105.26"/>
<polygon fill="#757575" stroke="#757575" points="482.56,-1108.76 492.92,-1106.58 483.46,-1101.82 482.56,-1108.76"/>
</g>
<!-- figures/Grid.ts -->
<g id="node10" class="node">
<title>figures/Grid.ts</title>
<path fill="none" stroke="#c6c5fe" d="M820.83,-1277.75C820.83,-1277.75 730.17,-1277.75 730.17,-1277.75 726.33,-1277.75 722.5,-1273.92 722.5,-1270.08 722.5,-1270.08 722.5,-1262.42 722.5,-1262.42 722.5,-1258.58 726.33,-1254.75 730.17,-1254.75 730.17,-1254.75 820.83,-1254.75 820.83,-1254.75 824.67,-1254.75 828.5,-1258.58 828.5,-1262.42 828.5,-1262.42 828.5,-1270.08 828.5,-1270.08 828.5,-1273.92 824.67,-1277.75 820.83,-1277.75"/>
<text text-anchor="middle" x="775.5" y="-1262.55" font-family="Arial" font-size="14.00" fill="#c6c5fe">figures/Grid.ts</text>
</g>
<!-- Graph.ts&#45;&gt;figures/Grid.ts -->
<g id="edge9" class="edge">
<title>Graph.ts&#45;&gt;figures/Grid.ts</title>
<path fill="none" stroke="#757575" d="M336.14,-1096.01C361.5,-1115.22 414.75,-1153.46 465,-1176.25 547.12,-1213.49 648.47,-1239.51 712.32,-1253.67"/>
<polygon fill="#757575" stroke="#757575" points="711.72,-1257.13 722.24,-1255.85 713.22,-1250.29 711.72,-1257.13"/>
</g>
<!-- figures/Line.ts -->
<g id="node11" class="node">
<title>figures/Line.ts</title>
<path fill="none" stroke="#c6c5fe" d="M820.83,-429.75C820.83,-429.75 730.17,-429.75 730.17,-429.75 726.33,-429.75 722.5,-425.92 722.5,-422.08 722.5,-422.08 722.5,-414.42 722.5,-414.42 722.5,-410.58 726.33,-406.75 730.17,-406.75 730.17,-406.75 820.83,-406.75 820.83,-406.75 824.67,-406.75 828.5,-410.58 828.5,-414.42 828.5,-414.42 828.5,-422.08 828.5,-422.08 828.5,-425.92 824.67,-429.75 820.83,-429.75"/>
<text text-anchor="middle" x="775.5" y="-414.55" font-family="Arial" font-size="14.00" fill="#c6c5fe">figures/Line.ts</text>
</g>
<!-- Graph.ts&#45;&gt;figures/Line.ts -->
<g id="edge10" class="edge">
<title>Graph.ts&#45;&gt;figures/Line.ts</title>
<path fill="none" stroke="#757575" d="M355.71,-1087.68C379.77,-1088 410.68,-1083.93 429,-1064.25 477.77,-1011.88 434.8,-809.12 465,-744.25 531.87,-600.62 687.32,-479.78 748.81,-435.91"/>
<polygon fill="#757575" stroke="#757575" points="751.02,-438.63 757.18,-430 746.99,-432.91 751.02,-438.63"/>
</g>
<!-- figures/Parametric.ts -->
<g id="node12" class="node">
<title>figures/Parametric.ts</title>
<path fill="none" stroke="#c6c5fe" d="M618.83,-775.75C618.83,-775.75 487.17,-775.75 487.17,-775.75 483.33,-775.75 479.5,-771.92 479.5,-768.08 479.5,-768.08 479.5,-760.42 479.5,-760.42 479.5,-756.58 483.33,-752.75 487.17,-752.75 487.17,-752.75 618.83,-752.75 618.83,-752.75 622.67,-752.75 626.5,-756.58 626.5,-760.42 626.5,-760.42 626.5,-768.08 626.5,-768.08 626.5,-771.92 622.67,-775.75 618.83,-775.75"/>
<text text-anchor="middle" x="553" y="-760.55" font-family="Arial" font-size="14.00" fill="#c6c5fe">figures/Parametric.ts</text>
</g>
<!-- Graph.ts&#45;&gt;figures/Parametric.ts -->
<g id="edge11" class="edge">
<title>Graph.ts&#45;&gt;figures/Parametric.ts</title>
<path fill="none" stroke="#757575" d="M355.73,-1087.46C379.65,-1087.64 410.36,-1083.49 429,-1064.25 502.83,-988.04 410.09,-919.04 465,-828.25 477.43,-807.71 499.19,-791.7 517.84,-780.84"/>
<polygon fill="#757575" stroke="#757575" points="519.65,-783.83 526.69,-775.92 516.25,-777.72 519.65,-783.83"/>
</g>
<!-- figures/Plot.ts -->
<g id="node13" class="node">
<title>figures/Plot.ts</title>
<path fill="none" stroke="#c6c5fe" d="M819.83,-1083.75C819.83,-1083.75 731.17,-1083.75 731.17,-1083.75 727.33,-1083.75 723.5,-1079.92 723.5,-1076.08 723.5,-1076.08 723.5,-1068.42 723.5,-1068.42 723.5,-1064.58 727.33,-1060.75 731.17,-1060.75 731.17,-1060.75 819.83,-1060.75 819.83,-1060.75 823.67,-1060.75 827.5,-1064.58 827.5,-1068.42 827.5,-1068.42 827.5,-1076.08 827.5,-1076.08 827.5,-1079.92 823.67,-1083.75 819.83,-1083.75"/>
<text text-anchor="middle" x="775.5" y="-1068.55" font-family="Arial" font-size="14.00" fill="#c6c5fe">figures/Plot.ts</text>
</g>
<!-- Graph.ts&#45;&gt;figures/Plot.ts -->
<g id="edge12" class="edge">
<title>Graph.ts&#45;&gt;figures/Plot.ts</title>
<path fill="none" stroke="#757575" d="M355.83,-1083.33C432.48,-1081.3 616.58,-1076.43 713.1,-1073.88"/>
<polygon fill="#757575" stroke="#757575" points="713.39,-1077.37 723.29,-1073.61 713.2,-1070.37 713.39,-1077.37"/>
</g>
<!-- figures/Point.ts -->
<g id="node14" class="node">
<title>figures/Point.ts</title>
<path fill="none" stroke="#c6c5fe" d="M600.83,-467.75C600.83,-467.75 505.17,-467.75 505.17,-467.75 501.33,-467.75 497.5,-463.92 497.5,-460.08 497.5,-460.08 497.5,-452.42 497.5,-452.42 497.5,-448.58 501.33,-444.75 505.17,-444.75 505.17,-444.75 600.83,-444.75 600.83,-444.75 604.67,-444.75 608.5,-448.58 608.5,-452.42 608.5,-452.42 608.5,-460.08 608.5,-460.08 608.5,-463.92 604.67,-467.75 600.83,-467.75"/>
<text text-anchor="middle" x="553" y="-452.55" font-family="Arial" font-size="14.00" fill="#c6c5fe">figures/Point.ts</text>
</g>
<!-- Graph.ts&#45;&gt;figures/Point.ts -->
<g id="edge13" class="edge">
<title>Graph.ts&#45;&gt;figures/Point.ts</title>
<path fill="none" stroke="#757575" d="M355.52,-1087.74C379.65,-1088.11 410.72,-1084.09 429,-1064.25 482.58,-1006.1 448.08,-787.49 465,-710.25 484.49,-621.29 524.91,-520.16 542.96,-477.26"/>
<polygon fill="#757575" stroke="#757575" points="546.25,-478.45 546.94,-467.88 539.81,-475.72 546.25,-478.45"/>
</g>
<!-- figures/Polygon.ts -->
<g id="node15" class="node">
<title>figures/Polygon.ts</title>
<path fill="none" stroke="#c6c5fe" d="M833.33,-775.75C833.33,-775.75 717.67,-775.75 717.67,-775.75 713.83,-775.75 710,-771.92 710,-768.08 710,-768.08 710,-760.42 710,-760.42 710,-756.58 713.83,-752.75 717.67,-752.75 717.67,-752.75 833.33,-752.75 833.33,-752.75 837.17,-752.75 841,-756.58 841,-760.42 841,-760.42 841,-768.08 841,-768.08 841,-771.92 837.17,-775.75 833.33,-775.75"/>
<text text-anchor="middle" x="775.5" y="-760.55" font-family="Arial" font-size="14.00" fill="#c6c5fe">figures/Polygon.ts</text>
</g>
<!-- Graph.ts&#45;&gt;figures/Polygon.ts -->
<g id="edge14" class="edge">
<title>Graph.ts&#45;&gt;figures/Polygon.ts</title>
<path fill="none" stroke="#757575" d="M355.61,-1087.09C379.31,-1087.06 409.81,-1082.81 429,-1064.25 482.63,-1012.36 413,-953.78 465,-900.25 521.18,-842.42 578.51,-907.21 641,-856.25 669.65,-832.88 647.52,-803.57 677,-781.25 683.84,-776.07 691.73,-772.26 699.99,-769.49"/>
<polygon fill="#757575" stroke="#757575" points="701.16,-772.8 709.82,-766.7 699.24,-766.07 701.16,-772.8"/>
</g>
<!-- figures/AbstractFigure.ts&#45;&gt;pidraw.common.ts -->
<g id="edge33" class="edge">
<title>figures/AbstractFigure.ts&#45;&gt;pidraw.common.ts</title>
<path fill="none" stroke="#757575" d="M1040.23,-697.86C1086.41,-710.41 1161.66,-731.3 1226,-751.25 1245.23,-757.21 1266.37,-764.25 1284.31,-770.37"/>
<polygon fill="#757575" stroke="#757575" points="1283.33,-773.74 1293.92,-773.67 1285.6,-767.11 1283.33,-773.74"/>
</g>
<!-- labels/Label.ts -->
<g id="node17" class="node">
<title>labels/Label.ts</title>
<path fill="none" stroke="#c6c5fe" d="M1218.33,-121.75C1218.33,-121.75 1125.67,-121.75 1125.67,-121.75 1121.83,-121.75 1118,-117.92 1118,-114.08 1118,-114.08 1118,-106.42 1118,-106.42 1118,-102.58 1121.83,-98.75 1125.67,-98.75 1125.67,-98.75 1218.33,-98.75 1218.33,-98.75 1222.17,-98.75 1226,-102.58 1226,-106.42 1226,-106.42 1226,-114.08 1226,-114.08 1226,-117.92 1222.17,-121.75 1218.33,-121.75"/>
<text text-anchor="middle" x="1172" y="-106.55" font-family="Arial" font-size="14.00" fill="#c6c5fe">labels/Label.ts</text>
</g>
<!-- figures/AbstractFigure.ts&#45;&gt;labels/Label.ts -->
<g id="edge32" class="edge">
<title>figures/AbstractFigure.ts&#45;&gt;labels/Label.ts</title>
<path fill="none" stroke="#757575" d="M1000.48,-674.75C1021.9,-603.82 1136.04,-226 1164.54,-131.62"/>
<polygon fill="#757575" stroke="#757575" points="1167.97,-132.37 1167.52,-121.78 1161.27,-130.34 1167.97,-132.37"/>
</g>
<!-- figures/Arc.ts&#45;&gt;Calculus.ts -->
<g id="edge34" class="edge">
<title>figures/Arc.ts&#45;&gt;Calculus.ts</title>
<path fill="none" stroke="#757575" d="M826.19,-1305.25C842.65,-1302.55 860.25,-1297.28 874,-1287.25 909.05,-1261.68 964.4,-1141.94 985.97,-1093.08"/>
<polygon fill="#757575" stroke="#757575" points="989.24,-1094.36 990.04,-1083.79 982.83,-1091.55 989.24,-1094.36"/>
</g>
<!-- figures/Arc.ts&#45;&gt;pidraw.common.ts -->
<g id="edge36" class="edge">
<title>figures/Arc.ts&#45;&gt;pidraw.common.ts</title>
<path fill="none" stroke="#757575" d="M826.04,-1304.14C921.17,-1295.26 1128.62,-1261.19 1226,-1131.25 1303.58,-1027.74 1321.72,-865.79 1325.84,-807.27"/>
<polygon fill="#757575" stroke="#757575" points="1329.35,-807.2 1326.49,-797 1322.36,-806.76 1329.35,-807.2"/>
</g>
<!-- figures/Arc.ts&#45;&gt;figures/AbstractFigure.ts -->
<g id="edge35" class="edge">
<title>figures/Arc.ts&#45;&gt;figures/AbstractFigure.ts</title>
<path fill="none" stroke="#757575" d="M826.21,-1308.18C843.56,-1305.91 861.74,-1300.15 874,-1287.25 910.41,-1248.97 900.02,-1104.13 910,-1052.25 935.37,-920.43 974.87,-764.04 989.4,-707.76"/>
<polygon fill="#757575" stroke="#757575" points="992.84,-708.43 991.96,-697.88 986.06,-706.68 992.84,-708.43"/>
</g>
<!-- figures/Circle.ts&#45;&gt;Calculus.ts -->
<g id="edge37" class="edge">
<title>figures/Circle.ts&#45;&gt;Calculus.ts</title>
<path fill="none" stroke="#757575" d="M611.15,-1162.02C676.25,-1167.79 785.11,-1171.49 874,-1145.25 911.97,-1134.04 950.16,-1107.95 973.19,-1090.2"/>
<polygon fill="#757575" stroke="#757575" points="975.56,-1092.79 981.25,-1083.85 971.23,-1087.29 975.56,-1092.79"/>
</g>
<!-- figures/Circle.ts&#45;&gt;pidraw.common.ts -->
<g id="edge39" class="edge">
<title>figures/Circle.ts&#45;&gt;pidraw.common.ts</title>
<path fill="none" stroke="#757575" d="M555.35,-1167.01C560.91,-1209.29 586.22,-1354.15 677,-1411.25 829.73,-1507.31 911.82,-1443.19 1082,-1383.25 1152.53,-1358.41 1183.09,-1357.49 1226,-1296.25 1283.3,-1214.48 1316.9,-893.57 1325.05,-806.92"/>
<polygon fill="#757575" stroke="#757575" points="1328.54,-807.19 1325.97,-796.91 1321.57,-806.55 1328.54,-807.19"/>
</g>
<!-- figures/Circle.ts&#45;&gt;figures/AbstractFigure.ts -->
<g id="edge38" class="edge">
<title>figures/Circle.ts&#45;&gt;figures/AbstractFigure.ts</title>
<path fill="none" stroke="#757575" d="M611.05,-1156.43C692.24,-1156.91 835.55,-1152.9 874,-1120.25 906.81,-1092.39 972.66,-791.58 990.47,-707.8"/>
<polygon fill="#757575" stroke="#757575" points="993.92,-708.38 992.57,-697.87 987.08,-706.93 993.92,-708.38"/>
</g>
<!-- figures/CoordinateSystem.ts&#45;&gt;Calculus.ts -->
<g id="edge40" class="edge">
<title>figures/CoordinateSystem.ts&#45;&gt;Calculus.ts</title>
<path fill="none" stroke="#757575" d="M860.29,-1336.73C865.17,-1334.36 869.79,-1331.56 874,-1328.25 951.81,-1267.13 982.07,-1143.87 991.44,-1093.96"/>
<polygon fill="#757575" stroke="#757575" points="994.92,-1094.42 993.22,-1083.96 988.03,-1093.19 994.92,-1094.42"/>
</g>
<!-- figures/CoordinateSystem.ts&#45;&gt;pidraw.common.ts -->
<g id="edge42" class="edge">
<title>figures/CoordinateSystem.ts&#45;&gt;pidraw.common.ts</title>
<path fill="none" stroke="#757575" d="M874.25,-1344.4C980.38,-1334.4 1145.48,-1300.6 1226,-1189.25 1315.32,-1065.73 1326.02,-871.63 1327.02,-807"/>
<polygon fill="#757575" stroke="#757575" points="1330.52,-806.83 1327.11,-796.8 1323.52,-806.77 1330.52,-806.83"/>
</g>
<!-- figures/CoordinateSystem.ts&#45;&gt;figures/AbstractFigure.ts -->
<g id="edge41" class="edge">
<title>figures/CoordinateSystem.ts&#45;&gt;figures/AbstractFigure.ts</title>
<path fill="none" stroke="#757575" d="M864.21,-1336.51C867.76,-1334.15 871.06,-1331.41 874,-1328.25 916.12,-1282.96 898.99,-1113.12 910,-1052.25 933.89,-920.16 974.3,-763.94 989.23,-707.73"/>
<polygon fill="#757575" stroke="#757575" points="992.67,-708.42 991.86,-697.86 985.9,-706.62 992.67,-708.42"/>
</g>
<!-- figures/FillBetween.ts&#45;&gt;Calculus.ts -->
<g id="edge43" class="edge">
<title>figures/FillBetween.ts&#45;&gt;Calculus.ts</title>
<path fill="none" stroke="#757575" d="M614.49,-931.82C623.97,-935.41 633.2,-940.1 641,-946.25 666.02,-965.98 651.1,-989.69 677,-1008.25 687.8,-1015.99 855.59,-1047.12 942.97,-1062.93"/>
<polygon fill="#757575" stroke="#757575" points="942.49,-1066.4 952.95,-1064.73 943.73,-1059.51 942.49,-1066.4"/>
</g>
<!-- figures/FillBetween.ts&#45;&gt;pidraw.common.ts -->
<g id="edge46" class="edge">
<title>figures/FillBetween.ts&#45;&gt;pidraw.common.ts</title>
<path fill="none" stroke="#757575" d="M627.25,-908.73C750.91,-889.09 1008.85,-847.23 1226,-806.25 1238.15,-803.96 1251.09,-801.37 1263.52,-798.82"/>
<polygon fill="#757575" stroke="#757575" points="1264.26,-802.24 1273.35,-796.79 1262.84,-795.39 1264.26,-802.24"/>
</g>
<!-- figures/FillBetween.ts&#45;&gt;figures/AbstractFigure.ts -->
<g id="edge44" class="edge">
<title>figures/FillBetween.ts&#45;&gt;figures/AbstractFigure.ts</title>
<path fill="none" stroke="#757575" d="M597.34,-908.66C611.42,-904.54 627.01,-899.58 641,-894.25 747.84,-853.55 777.24,-846.14 874,-785.25 912.43,-761.07 952.3,-726.22 975.32,-704.97"/>
<polygon fill="#757575" stroke="#757575" points="977.8,-707.44 982.73,-698.06 973.03,-702.32 977.8,-707.44"/>
</g>
<!-- figures/FillBetween.ts&#45;&gt;figures/Plot.ts -->
<g id="edge45" class="edge">
<title>figures/FillBetween.ts&#45;&gt;figures/Plot.ts</title>
<path fill="none" stroke="#757575" d="M618.15,-931.76C626.54,-935.36 634.47,-940.07 641,-946.25 675.31,-978.72 642.21,-1014.3 677,-1046.25 687.17,-1055.6 700.33,-1061.65 713.67,-1065.56"/>
<polygon fill="#757575" stroke="#757575" points="712.82,-1068.95 723.37,-1068.04 714.55,-1062.17 712.82,-1068.95"/>
</g>
<!-- figures/Follow.ts&#45;&gt;Calculus.ts -->
<g id="edge47" class="edge">
<title>figures/Follow.ts&#45;&gt;Calculus.ts</title>
<path fill="none" stroke="#757575" d="M613.14,-1125.06C677.93,-1134.92 784.55,-1145.3 874,-1126.25 907.57,-1119.1 943.11,-1101.94 966.92,-1088.87"/>
<polygon fill="#757575" stroke="#757575" points="968.74,-1091.86 975.75,-1083.92 965.32,-1085.76 968.74,-1091.86"/>
</g>
<!-- figures/Follow.ts&#45;&gt;pidraw.common.ts -->
<g id="edge50" class="edge">
<title>figures/Follow.ts&#45;&gt;pidraw.common.ts</title>
<path fill="none" stroke="#757575" d="M613.39,-1118.72C623.8,-1122.04 633.64,-1127.24 641,-1135.25 712.21,-1212.72 597.14,-1300.74 677,-1369.25 814.15,-1486.92 912.71,-1396.48 1082,-1333.25 1152.05,-1307.09 1182.46,-1307.04 1226,-1246.25 1278.17,-1173.41 1314.92,-888.54 1324.52,-807.11"/>
<polygon fill="#757575" stroke="#757575" points="1328.01,-807.35 1325.69,-797.01 1321.06,-806.54 1328.01,-807.35"/>
</g>
<!-- figures/Follow.ts&#45;&gt;figures/AbstractFigure.ts -->
<g id="edge48" class="edge">
<title>figures/Follow.ts&#45;&gt;figures/AbstractFigure.ts</title>
<path fill="none" stroke="#757575" d="M613.21,-1118.15C694.52,-1122.22 835.11,-1124.29 874,-1093.25 936.6,-1043.28 980.11,-784.87 991.83,-707.9"/>
<polygon fill="#757575" stroke="#757575" points="995.31,-708.32 993.33,-697.91 988.39,-707.28 995.31,-708.32"/>
</g>
<!-- figures/Follow.ts&#45;&gt;figures/Plot.ts -->
<g id="edge49" class="edge">
<title>figures/Follow.ts&#45;&gt;figures/Plot.ts</title>
<path fill="none" stroke="#757575" d="M613.09,-1103C644.17,-1097.08 682.22,-1089.83 713.57,-1083.86"/>
<polygon fill="#757575" stroke="#757575" points="714.32,-1087.28 723.49,-1081.97 713.01,-1080.4 714.32,-1087.28"/>
</g>
<!-- figures/Grid.ts&#45;&gt;Calculus.ts -->
<g id="edge51" class="edge">
<title>figures/Grid.ts&#45;&gt;Calculus.ts</title>
<path fill="none" stroke="#757575" d="M828.62,-1260.37C844.43,-1256.58 861.02,-1250.38 874,-1240.25 900.03,-1219.93 891.41,-1202.55 910,-1175.25 930.99,-1144.43 959.16,-1111.68 977.2,-1091.59"/>
<polygon fill="#757575" stroke="#757575" points="979.91,-1093.81 984.03,-1084.05 974.72,-1089.11 979.91,-1093.81"/>
</g>
<!-- figures/Grid.ts&#45;&gt;pidraw.common.ts -->
<g id="edge53" class="edge">
<title>figures/Grid.ts&#45;&gt;pidraw.common.ts</title>
<path fill="none" stroke="#757575" d="M828.8,-1258.45C921.69,-1241.88 1116.02,-1194.62 1226,-1077.25 1300.65,-997.59 1320.44,-860.03 1325.42,-806.99"/>
<polygon fill="#757575" stroke="#757575" points="1328.91,-807.26 1326.27,-797 1321.93,-806.67 1328.91,-807.26"/>
</g>
<!-- figures/Grid.ts&#45;&gt;figures/AbstractFigure.ts -->
<g id="edge52" class="edge">
<title>figures/Grid.ts&#45;&gt;figures/AbstractFigure.ts</title>
<path fill="none" stroke="#757575" d="M791.89,-1254.53C813.56,-1237.2 852.77,-1202.62 874,-1164.25 896.95,-1122.77 970.79,-795.15 990.26,-707.67"/>
<polygon fill="#757575" stroke="#757575" points="993.7,-708.32 992.45,-697.8 986.86,-706.8 993.7,-708.32"/>
</g>
<!-- figures/Line.ts&#45;&gt;Calculus.ts -->
<g id="edge54" class="edge">
<title>figures/Line.ts&#45;&gt;Calculus.ts</title>
<path fill="none" stroke="#757575" d="M780.39,-429.88C806.27,-507.34 953.72,-948.68 987.92,-1051.05"/>
<polygon fill="#757575" stroke="#757575" points="984.62,-1052.24 991.11,-1060.61 991.26,-1050.02 984.62,-1052.24"/>
</g>
<!-- figures/Line.ts&#45;&gt;pidraw.common.ts -->
<g id="edge56" class="edge">
<title>figures/Line.ts&#45;&gt;pidraw.common.ts</title>
<path fill="none" stroke="#757575" d="M828.72,-422.6C843.78,-425.1 859.93,-429.05 874,-435.25 1067.65,-520.62 1252.57,-706.13 1309.3,-766.12"/>
<polygon fill="#757575" stroke="#757575" points="1306.76,-768.53 1316.15,-773.42 1311.86,-763.74 1306.76,-768.53"/>
</g>
<!-- figures/Line.ts&#45;&gt;figures/AbstractFigure.ts -->
<g id="edge55" class="edge">
<title>figures/Line.ts&#45;&gt;figures/AbstractFigure.ts</title>
<path fill="none" stroke="#757575" d="M828.68,-422.65C844.85,-426.33 861.65,-432.84 874,-444.25 909.3,-476.88 889.42,-502.81 910,-546.25 931.24,-591.07 963,-639.81 981.08,-666.32"/>
<polygon fill="#757575" stroke="#757575" points="978.31,-668.47 986.87,-674.73 984.08,-664.51 978.31,-668.47"/>
</g>
<!-- figures/Parametric.ts&#45;&gt;Calculus.ts -->
<g id="edge57" class="edge">
<title>figures/Parametric.ts&#45;&gt;Calculus.ts</title>
<path fill="none" stroke="#757575" d="M615.08,-775.81C624.39,-779.4 633.41,-784.1 641,-790.25 666.96,-811.29 652.36,-833.68 677,-856.25 747.45,-920.78 796.05,-887.02 874,-942.25 918.95,-974.1 960.09,-1024.81 980.85,-1052.55"/>
<polygon fill="#757575" stroke="#757575" points="978.1,-1054.72 986.85,-1060.69 983.74,-1050.56 978.1,-1054.72"/>
</g>
<!-- figures/Parametric.ts&#45;&gt;pidraw.common.ts -->
<g id="edge59" class="edge">
<title>figures/Parametric.ts&#45;&gt;pidraw.common.ts</title>
<path fill="none" stroke="#757575" d="M610.4,-775.8C631.23,-779.56 655.1,-783.27 677,-785.25 884.22,-804 1130.12,-795.74 1251.49,-789.65"/>
<polygon fill="#757575" stroke="#757575" points="1251.97,-793.13 1261.78,-789.13 1251.62,-786.14 1251.97,-793.13"/>
</g>
<!-- figures/Parametric.ts&#45;&gt;figures/AbstractFigure.ts -->
<g id="edge58" class="edge">
<title>figures/Parametric.ts&#45;&gt;figures/AbstractFigure.ts</title>
<path fill="none" stroke="#757575" d="M604.01,-752.75C616.45,-748.97 629.51,-744.17 641,-738.25 659.02,-728.97 658.09,-717.55 677,-710.25 748.1,-682.82 834.66,-677.95 899.52,-679.31"/>
<polygon fill="#757575" stroke="#757575" points="899.65,-682.81 909.73,-679.58 899.83,-675.82 899.65,-682.81"/>
</g>
<!-- figures/Plot.ts&#45;&gt;Calculus.ts -->
<g id="edge60" class="edge">
<title>figures/Plot.ts&#45;&gt;Calculus.ts</title>
<path fill="none" stroke="#757575" d="M827.73,-1072.25C862.25,-1072.25 907.66,-1072.25 942.46,-1072.25"/>
<polygon fill="#757575" stroke="#757575" points="942.89,-1075.75 952.89,-1072.25 942.89,-1068.75 942.89,-1075.75"/>
</g>
<!-- figures/Plot.ts&#45;&gt;pidraw.common.ts -->
<g id="edge62" class="edge">
<title>figures/Plot.ts&#45;&gt;pidraw.common.ts</title>
<path fill="none" stroke="#757575" d="M827.51,-1064.48C852.39,-1060.73 882.75,-1056.19 910,-1052.25 980.17,-1042.11 1169.21,-1050.7 1226,-1008.25 1293.3,-957.94 1316.89,-852.34 1324.14,-806.85"/>
<polygon fill="#757575" stroke="#757575" points="1327.61,-807.3 1325.62,-796.89 1320.69,-806.27 1327.61,-807.3"/>
</g>
<!-- figures/Plot.ts&#45;&gt;figures/AbstractFigure.ts -->
<g id="edge61" class="edge">
<title>figures/Plot.ts&#45;&gt;figures/AbstractFigure.ts</title>
<path fill="none" stroke="#757575" d="M785.47,-1060.67C803.45,-1037.19 844.67,-982 874,-932.25 921.44,-851.78 967.26,-750.11 986.06,-707.04"/>
<polygon fill="#757575" stroke="#757575" points="989.28,-708.42 990.05,-697.85 982.85,-705.63 989.28,-708.42"/>
</g>
<!-- figures/Point.ts&#45;&gt;Calculus.ts -->
<g id="edge63" class="edge">
<title>figures/Point.ts&#45;&gt;Calculus.ts</title>
<path fill="none" stroke="#757575" d="M554.92,-468.02C559.22,-514.96 581.36,-690.74 677,-785.25 743.2,-850.67 803,-796.08 874,-856.25 938.09,-910.56 974.84,-1007.84 988.65,-1050.82"/>
<polygon fill="#757575" stroke="#757575" points="985.35,-1052.01 991.67,-1060.52 992.04,-1049.93 985.35,-1052.01"/>
</g>
<!-- figures/Point.ts&#45;&gt;pidraw.common.ts -->
<g id="edge66" class="edge">
<title>figures/Point.ts&#45;&gt;pidraw.common.ts</title>
<path fill="none" stroke="#757575" d="M608.74,-446.95C620.24,-443.15 631.69,-437.79 641,-430.25 666.96,-409.22 648.27,-381.31 677,-364.25 781.91,-301.97 1130.2,-288.71 1226,-364.25 1290.27,-414.93 1318.29,-684.08 1325.22,-763.3"/>
<polygon fill="#757575" stroke="#757575" points="1321.75,-763.89 1326.09,-773.56 1328.73,-763.3 1321.75,-763.89"/>
</g>
<!-- figures/Point.ts&#45;&gt;figures/AbstractFigure.ts -->
<g id="edge64" class="edge">
<title>figures/Point.ts&#45;&gt;figures/AbstractFigure.ts</title>
<path fill="none" stroke="#757575" d="M608.75,-464.97C694.22,-478.92 851.9,-506.11 874,-520.25 930.6,-556.46 969.43,-629.28 985.98,-665.22"/>
<polygon fill="#757575" stroke="#757575" points="982.95,-667.01 990.23,-674.71 989.34,-664.15 982.95,-667.01"/>
</g>
<!-- figures/Point.ts&#45;&gt;figures/Line.ts -->
<g id="edge65" class="edge">
<title>figures/Point.ts&#45;&gt;figures/Line.ts</title>
<path fill="none" stroke="#757575" d="M608.51,-446.86C639.94,-441.44 679.58,-434.61 712.24,-428.98"/>
<polygon fill="#757575" stroke="#757575" points="712.88,-432.42 722.14,-427.27 711.69,-425.52 712.88,-432.42"/>
</g>
<!-- figures/Polygon.ts&#45;&gt;Calculus.ts -->
<g id="edge67" class="edge">
<title>figures/Polygon.ts&#45;&gt;Calculus.ts</title>
<path fill="none" stroke="#757575" d="M801.59,-775.95C823.04,-786.97 853.59,-805.22 874,-828.25 935.99,-898.2 974.39,-1005.59 988.67,-1050.9"/>
<polygon fill="#757575" stroke="#757575" points="985.35,-1052.03 991.64,-1060.56 992.04,-1049.97 985.35,-1052.03"/>
</g>
<!-- figures/Polygon.ts&#45;&gt;pidraw.common.ts -->
<g id="edge69" class="edge">
<title>figures/Polygon.ts&#45;&gt;pidraw.common.ts</title>
<path fill="none" stroke="#757575" d="M841.27,-766.72C943.69,-770.63 1142.57,-778.22 1251.38,-782.37"/>
<polygon fill="#757575" stroke="#757575" points="1251.5,-785.87 1261.62,-782.76 1251.77,-778.88 1251.5,-785.87"/>
</g>
<!-- figures/Polygon.ts&#45;&gt;figures/AbstractFigure.ts -->
<g id="edge68" class="edge">
<title>figures/Polygon.ts&#45;&gt;figures/AbstractFigure.ts</title>
<path fill="none" stroke="#757575" d="M825.52,-752.66C841.16,-748.57 858.44,-743.64 874,-738.25 904.19,-727.8 937.48,-713.26 961.48,-702.22"/>
<polygon fill="#757575" stroke="#757575" points="963.25,-705.26 970.85,-697.87 960.3,-698.91 963.25,-705.26"/>
</g>
<!-- Parser.ts -->
<g id="node16" class="node">
<title>Parser.ts</title>
<path fill="none" stroke="#c6c5fe" d="M167.33,-735.75C167.33,-735.75 108.67,-735.75 108.67,-735.75 104.83,-735.75 101,-731.92 101,-728.08 101,-728.08 101,-720.42 101,-720.42 101,-716.58 104.83,-712.75 108.67,-712.75 108.67,-712.75 167.33,-712.75 167.33,-712.75 171.17,-712.75 175,-716.58 175,-720.42 175,-720.42 175,-728.08 175,-728.08 175,-731.92 171.17,-735.75 167.33,-735.75"/>
<text text-anchor="middle" x="138" y="-720.55" font-family="Arial" font-size="14.00" fill="#c6c5fe">Parser.ts</text>
</g>
<!-- Parser.ts&#45;&gt;pidraw.common.ts -->
<g id="edge31" class="edge">
<title>Parser.ts&#45;&gt;pidraw.common.ts</title>
<path fill="none" stroke="#757575" d="M139.6,-736.06C143.18,-803.5 163.23,-1140.08 211,-1230.25 306.88,-1411.24 347.18,-1540.25 552,-1540.25 552,-1540.25 552,-1540.25 997,-1540.25 1111.29,-1540.25 1163.63,-1519.03 1226,-1423.25 1294.64,-1317.83 1320.54,-907.18 1325.9,-807.26"/>
<polygon fill="#757575" stroke="#757575" points="1329.4,-807.29 1326.43,-797.12 1322.41,-806.93 1329.4,-807.29"/>
</g>
<!-- Parser.ts&#45;&gt;Graph.ts -->
<g id="edge16" class="edge">
<title>Parser.ts&#45;&gt;Graph.ts</title>
<path fill="none" stroke="#757575" d="M141.33,-736.12C153,-795.57 204.87,-1058.28 211,-1064.25 227.5,-1080.34 252.5,-1085.69 274.28,-1086.86"/>
<polygon fill="#757575" stroke="#757575" points="274.26,-1090.36 284.35,-1087.13 274.44,-1083.37 274.26,-1090.36"/>
</g>
<!-- Parser.ts&#45;&gt;figures/AbstractFigure.ts -->
<g id="edge17" class="edge">
<title>Parser.ts&#45;&gt;figures/AbstractFigure.ts</title>
<path fill="none" stroke="#757575" d="M175.35,-716.87C282.41,-696.08 605.91,-640.08 874,-664.25 893.38,-666 914.29,-669.29 933.19,-672.8"/>
<polygon fill="#757575" stroke="#757575" points="932.69,-676.27 943.17,-674.71 934,-669.39 932.69,-676.27"/>
</g>
<!-- Parser.ts&#45;&gt;figures/Arc.ts -->
<g id="edge18" class="edge">
<title>Parser.ts&#45;&gt;figures/Arc.ts</title>
<path fill="none" stroke="#757575" d="M139.51,-736.02C142.42,-797.72 158.59,-1083.44 211,-1151.25 332.12,-1307.96 595.94,-1316.41 714.59,-1311.57"/>
<polygon fill="#757575" stroke="#757575" points="715.09,-1315.05 724.92,-1311.1 714.77,-1308.06 715.09,-1315.05"/>
</g>
<!-- Parser.ts&#45;&gt;figures/Circle.ts -->
<g id="edge19" class="edge">
<title>Parser.ts&#45;&gt;figures/Circle.ts</title>
<path fill="none" stroke="#757575" d="M139.44,-735.77C141.9,-793.7 155.87,-1052.35 211,-1105.25 283.61,-1174.93 408.01,-1174.63 484.8,-1166.23"/>
<polygon fill="#757575" stroke="#757575" points="485.32,-1169.69 494.85,-1165.06 484.51,-1162.74 485.32,-1169.69"/>
</g>
<!-- Parser.ts&#45;&gt;figures/Parametric.ts -->
<g id="edge20" class="edge">
<title>Parser.ts&#45;&gt;figures/Parametric.ts</title>
<path fill="none" stroke="#757575" d="M175.27,-725.68C230.27,-728.08 338.01,-733.74 429,-744.25 445.02,-746.1 462.13,-748.57 478.35,-751.14"/>
<polygon fill="#757575" stroke="#757575" points="477.89,-754.61 488.32,-752.75 479,-747.7 477.89,-754.61"/>
</g>
<!-- Parser.ts&#45;&gt;figures/Plot.ts -->
<g id="edge21" class="edge">
<title>Parser.ts&#45;&gt;figures/Plot.ts</title>
<path fill="none" stroke="#757575" d="M149.21,-735.9C186.7,-777.94 322.09,-923.13 465,-995.25 545.47,-1035.86 648.75,-1055.96 713.29,-1065.21"/>
<polygon fill="#757575" stroke="#757575" points="712.92,-1068.69 723.31,-1066.6 713.89,-1061.76 712.92,-1068.69"/>
</g>
<!-- Parser.ts&#45;&gt;figures/Point.ts -->
<g id="edge22" class="edge">
<title>Parser.ts&#45;&gt;figures/Point.ts</title>
<path fill="none" stroke="#757575" d="M138.88,-712.69C139.18,-675.81 145.53,-560.16 211,-505.25 288.36,-440.37 411.97,-439.75 487.2,-446.85"/>
<polygon fill="#757575" stroke="#757575" points="487.18,-450.37 497.48,-447.9 487.89,-443.4 487.18,-450.37"/>
</g>
<!-- Parser.ts&#45;&gt;labels/Label.ts -->
<g id="edge23" class="edge">
<title>Parser.ts&#45;&gt;labels/Label.ts</title>
<path fill="none" stroke="#757575" d="M138.85,-712.42C138.23,-643.42 138.73,-293.48 211,-222.25 463.25,26.39 952.18,-58.85 1116,-96.42"/>
<polygon fill="#757575" stroke="#757575" points="1115.32,-99.86 1125.86,-98.71 1116.91,-93.04 1115.32,-99.86"/>
</g>
<!-- parser/buildCircle.ts -->
<g id="node18" class="node">
<title>parser/buildCircle.ts</title>
<path fill="none" stroke="#c6c5fe" d="M383.83,-581.75C383.83,-581.75 256.17,-581.75 256.17,-581.75 252.33,-581.75 248.5,-577.92 248.5,-574.08 248.5,-574.08 248.5,-566.42 248.5,-566.42 248.5,-562.58 252.33,-558.75 256.17,-558.75 256.17,-558.75 383.83,-558.75 383.83,-558.75 387.67,-558.75 391.5,-562.58 391.5,-566.42 391.5,-566.42 391.5,-574.08 391.5,-574.08 391.5,-577.92 387.67,-581.75 383.83,-581.75"/>
<text text-anchor="middle" x="320" y="-566.55" font-family="Arial" font-size="14.00" fill="#c6c5fe">parser/buildCircle.ts</text>
</g>
<!-- Parser.ts&#45;&gt;parser/buildCircle.ts -->
<g id="edge24" class="edge">
<title>Parser.ts&#45;&gt;parser/buildCircle.ts</title>
<path fill="none" stroke="#757575" d="M142.1,-712.59C149.47,-687.22 170.53,-626.85 211,-596.25 219.28,-589.99 228.85,-585.22 238.8,-581.58"/>
<polygon fill="#757575" stroke="#757575" points="240.01,-584.86 248.43,-578.42 237.83,-578.21 240.01,-584.86"/>
</g>
<!-- parser/buildLine.ts -->
<g id="node19" class="node">
<title>parser/buildLine.ts</title>
<path fill="none" stroke="#c6c5fe" d="M378.83,-387.75C378.83,-387.75 261.17,-387.75 261.17,-387.75 257.33,-387.75 253.5,-383.92 253.5,-380.08 253.5,-380.08 253.5,-372.42 253.5,-372.42 253.5,-368.58 257.33,-364.75 261.17,-364.75 261.17,-364.75 378.83,-364.75 378.83,-364.75 382.67,-364.75 386.5,-368.58 386.5,-372.42 386.5,-372.42 386.5,-380.08 386.5,-380.08 386.5,-383.92 382.67,-387.75 378.83,-387.75"/>
<text text-anchor="middle" x="320" y="-372.55" font-family="Arial" font-size="14.00" fill="#c6c5fe">parser/buildLine.ts</text>
</g>
<!-- Parser.ts&#45;&gt;parser/buildLine.ts -->
<g id="edge25" class="edge">
<title>Parser.ts&#45;&gt;parser/buildLine.ts</title>
<path fill="none" stroke="#757575" d="M140.09,-712.44C145.12,-660.51 167.67,-453.08 211,-407.25 219.97,-397.76 231.63,-391.12 243.97,-386.48"/>
<polygon fill="#757575" stroke="#757575" points="245.11,-389.78 253.5,-383.3 242.9,-383.14 245.11,-389.78"/>
</g>
<!-- parser/buildPlot.ts -->
<g id="node20" class="node">
<title>parser/buildPlot.ts</title>
<path fill="none" stroke="#c6c5fe" d="M377.83,-775.75C377.83,-775.75 262.17,-775.75 262.17,-775.75 258.33,-775.75 254.5,-771.92 254.5,-768.08 254.5,-768.08 254.5,-760.42 254.5,-760.42 254.5,-756.58 258.33,-752.75 262.17,-752.75 262.17,-752.75 377.83,-752.75 377.83,-752.75 381.67,-752.75 385.5,-756.58 385.5,-760.42 385.5,-760.42 385.5,-768.08 385.5,-768.08 385.5,-771.92 381.67,-775.75 377.83,-775.75"/>
<text text-anchor="middle" x="320" y="-760.55" font-family="Arial" font-size="14.00" fill="#c6c5fe">parser/buildPlot.ts</text>
</g>
<!-- Parser.ts&#45;&gt;parser/buildPlot.ts -->
<g id="edge26" class="edge">
<title>Parser.ts&#45;&gt;parser/buildPlot.ts</title>
<path fill="none" stroke="#757575" d="M175.43,-732.35C198.85,-737.55 229.88,-744.45 257.1,-750.5"/>
<polygon fill="#757575" stroke="#757575" points="256.42,-753.93 266.94,-752.68 257.93,-747.1 256.42,-753.93"/>
</g>
<!-- parser/buildPoint.ts -->
<g id="node21" class="node">
<title>parser/buildPoint.ts</title>
<path fill="none" stroke="#c6c5fe" d="M381.33,-253.75C381.33,-253.75 258.67,-253.75 258.67,-253.75 254.83,-253.75 251,-249.92 251,-246.08 251,-246.08 251,-238.42 251,-238.42 251,-234.58 254.83,-230.75 258.67,-230.75 258.67,-230.75 381.33,-230.75 381.33,-230.75 385.17,-230.75 389,-234.58 389,-238.42 389,-238.42 389,-246.08 389,-246.08 389,-249.92 385.17,-253.75 381.33,-253.75"/>
<text text-anchor="middle" x="320" y="-238.55" font-family="Arial" font-size="14.00" fill="#c6c5fe">parser/buildPoint.ts</text>
</g>
<!-- Parser.ts&#45;&gt;parser/buildPoint.ts -->
<g id="edge27" class="edge">
<title>Parser.ts&#45;&gt;parser/buildPoint.ts</title>
<path fill="none" stroke="#757575" d="M138.97,-712.67C139.32,-665.48 145.1,-484.14 211,-356.25 231.53,-316.41 270.24,-280.72 295.31,-260.28"/>
<polygon fill="#757575" stroke="#757575" points="297.6,-262.93 303.24,-253.96 293.24,-257.46 297.6,-262.93"/>
</g>
<!-- parser/buildPolygon.ts -->
<g id="node22" class="node">
<title>parser/buildPolygon.ts</title>
<path fill="none" stroke="#c6c5fe" d="M391.33,-536.75C391.33,-536.75 248.67,-536.75 248.67,-536.75 244.83,-536.75 241,-532.92 241,-529.08 241,-529.08 241,-521.42 241,-521.42 241,-517.58 244.83,-513.75 248.67,-513.75 248.67,-513.75 391.33,-513.75 391.33,-513.75 395.17,-513.75 399,-517.58 399,-521.42 399,-521.42 399,-529.08 399,-529.08 399,-532.92 395.17,-536.75 391.33,-536.75"/>
<text text-anchor="middle" x="320" y="-521.55" font-family="Arial" font-size="14.00" fill="#c6c5fe">parser/buildPolygon.ts</text>
</g>
<!-- Parser.ts&#45;&gt;parser/buildPolygon.ts -->
<g id="edge28" class="edge">
<title>Parser.ts&#45;&gt;parser/buildPolygon.ts</title>
<path fill="none" stroke="#757575" d="M140.23,-712.38C144.16,-680.76 159.37,-594 211,-550.25 217.09,-545.09 224.04,-540.94 231.42,-537.62"/>
<polygon fill="#757575" stroke="#757575" points="232.95,-540.78 240.96,-533.84 230.37,-534.27 232.95,-540.78"/>
</g>
<!-- parser/parser.common.ts -->
<g id="node23" class="node">
<title>parser/parser.common.ts</title>
<path fill="none" stroke="#c6c5fe" d="M633.33,-387.75C633.33,-387.75 472.67,-387.75 472.67,-387.75 468.83,-387.75 465,-383.92 465,-380.08 465,-380.08 465,-372.42 465,-372.42 465,-368.58 468.83,-364.75 472.67,-364.75 472.67,-364.75 633.33,-364.75 633.33,-364.75 637.17,-364.75 641,-368.58 641,-372.42 641,-372.42 641,-380.08 641,-380.08 641,-383.92 637.17,-387.75 633.33,-387.75"/>
<text text-anchor="middle" x="553" y="-372.55" font-family="Arial" font-size="14.00" fill="#c6c5fe">parser/parser.common.ts</text>
</g>
<!-- Parser.ts&#45;&gt;parser/parser.common.ts -->
<g id="edge29" class="edge">
<title>Parser.ts&#45;&gt;parser/parser.common.ts</title>
<path fill="none" stroke="#757575" d="M140.29,-712.55C145.88,-663.86 169.67,-477.99 211,-439.25 215.84,-434.72 375.56,-406.58 474.66,-389.48"/>
<polygon fill="#757575" stroke="#757575" points="475.39,-392.9 484.65,-387.76 474.2,-386.01 475.39,-392.9"/>
</g>
<!-- parser/parser_documentation.ts -->
<g id="node24" class="node">
<title>parser/parser_documentation.ts</title>
<path fill="none" stroke="#cfffac" d="M421.33,-1054.75C421.33,-1054.75 218.67,-1054.75 218.67,-1054.75 214.83,-1054.75 211,-1050.92 211,-1047.08 211,-1047.08 211,-1039.42 211,-1039.42 211,-1035.58 214.83,-1031.75 218.67,-1031.75 218.67,-1031.75 421.33,-1031.75 421.33,-1031.75 425.17,-1031.75 429,-1035.58 429,-1039.42 429,-1039.42 429,-1047.08 429,-1047.08 429,-1050.92 425.17,-1054.75 421.33,-1054.75"/>
<text text-anchor="middle" x="320" y="-1039.55" font-family="Arial" font-size="14.00" fill="#cfffac">parser/parser_documentation.ts</text>
</g>
<!-- Parser.ts&#45;&gt;parser/parser_documentation.ts -->
<g id="edge30" class="edge">
<title>Parser.ts&#45;&gt;parser/parser_documentation.ts</title>
<path fill="none" stroke="#757575" d="M141.12,-735.87C150.68,-787.75 190.21,-996.56 211,-1017.25 214.71,-1020.94 218.84,-1024.14 223.27,-1026.91"/>
<polygon fill="#757575" stroke="#757575" points="221.66,-1030.02 232.11,-1031.73 225.01,-1023.87 221.66,-1030.02"/>
</g>
<!-- labels/Label.ts&#45;&gt;pidraw.common.ts -->
<g id="edge72" class="edge">
<title>labels/Label.ts&#45;&gt;pidraw.common.ts</title>
<path fill="none" stroke="#757575" d="M1208.73,-121.88C1215.35,-125.52 1221.56,-130.23 1226,-136.25 1301.99,-239.49 1322.41,-661.99 1326.25,-763.33"/>
<polygon fill="#757575" stroke="#757575" points="1322.76,-763.71 1326.63,-773.58 1329.76,-763.46 1322.76,-763.71"/>
</g>
<!-- parser/buildCircle.ts&#45;&gt;pidraw.common.ts -->
<g id="edge78" class="edge">
<title>parser/buildCircle.ts&#45;&gt;pidraw.common.ts</title>
<path fill="none" stroke="#757575" d="M391.74,-565.43C405.37,-561.67 418.61,-555.67 429,-546.25 467.11,-511.7 426.88,-470.8 465,-436.25 524.37,-382.45 579.42,-448.5 641,-397.25 672.53,-371.01 642.99,-335.2 677,-312.25 778.14,-243.99 1134.53,-240.5 1226,-321.25 1293.8,-381.11 1319.57,-679.21 1325.56,-763.2"/>
<polygon fill="#757575" stroke="#757575" points="1322.08,-763.64 1326.26,-773.38 1329.06,-763.16 1322.08,-763.64"/>
</g>
<!-- parser/buildCircle.ts&#45;&gt;figures/AbstractFigure.ts -->
<g id="edge73" class="edge">
<title>parser/buildCircle.ts&#45;&gt;figures/AbstractFigure.ts</title>
<path fill="none" stroke="#757575" d="M391.62,-560.76C499.27,-549.07 709.28,-537.38 874,-596.25 915.72,-611.16 955.15,-645.68 977.1,-667.38"/>
<polygon fill="#757575" stroke="#757575" points="974.84,-670.07 984.36,-674.73 979.82,-665.15 974.84,-670.07"/>
</g>
<!-- parser/buildCircle.ts&#45;&gt;figures/Arc.ts -->
<g id="edge74" class="edge">
<title>parser/buildCircle.ts&#45;&gt;figures/Arc.ts</title>
<path fill="none" stroke="#757575" d="M330.57,-582.06C351.89,-609.02 403.41,-677.91 429,-744.25 461.03,-827.29 420.93,-863.92 465,-941.25 516.32,-1031.3 589.52,-1004.29 641,-1094.25 684.34,-1169.98 615.85,-1225 677,-1287.25 686.99,-1297.42 700.66,-1303.11 714.61,-1306.16"/>
<polygon fill="#757575" stroke="#757575" points="714.31,-1309.66 724.76,-1307.93 715.51,-1302.76 714.31,-1309.66"/>
</g>
<!-- parser/buildCircle.ts&#45;&gt;figures/Circle.ts -->
<g id="edge75" class="edge">
<title>parser/buildCircle.ts&#45;&gt;figures/Circle.ts</title>
<path fill="none" stroke="#757575" d="M331,-581.91C353.19,-608.56 406.39,-676.83 429,-744.25 456.75,-826.98 407.57,-1069.56 465,-1135.25 470.51,-1141.56 477.57,-1146.09 485.28,-1149.32"/>
<polygon fill="#757575" stroke="#757575" points="484.35,-1152.7 494.95,-1152.65 486.63,-1146.08 484.35,-1152.7"/>
</g>
<!-- parser/buildCircle.ts&#45;&gt;figures/Point.ts -->
<g id="edge76" class="edge">
<title>parser/buildCircle.ts&#45;&gt;figures/Point.ts</title>
<path fill="none" stroke="#757575" d="M391.53,-563.5C404.87,-559.84 418.05,-554.38 429,-546.25 455.21,-526.8 439.51,-502.63 465,-482.25 471.8,-476.82 479.71,-472.52 487.94,-469.11"/>
<polygon fill="#757575" stroke="#757575" points="489.17,-472.39 497.33,-465.64 486.74,-465.83 489.17,-472.39"/>
</g>
<!-- parser/buildCircle.ts&#45;&gt;parser/parser.common.ts -->
<g id="edge77" class="edge">
<title>parser/buildCircle.ts&#45;&gt;parser/parser.common.ts</title>
<path fill="none" stroke="#757575" d="M391.71,-566.15C405.5,-562.36 418.82,-556.17 429,-546.25 476.26,-500.22 419.42,-449.95 465,-402.25 468.58,-398.5 472.68,-395.28 477.11,-392.53"/>
<polygon fill="#757575" stroke="#757575" points="478.81,-395.59 485.97,-387.77 475.5,-389.42 478.81,-395.59"/>
</g>
<!-- parser/buildLine.ts&#45;&gt;Calculus.ts -->
<g id="edge79" class="edge">
<title>parser/buildLine.ts&#45;&gt;Calculus.ts</title>
<path fill="none" stroke="#757575" d="M335.15,-388.07C359.06,-408.95 406.99,-454.94 429,-505.25 479.29,-620.2 396.48,-680.15 465,-785.25 525.11,-877.45 579.78,-861.65 677,-913.25 762.19,-958.47 788.12,-960.37 874,-1004.25 906.35,-1020.78 942.55,-1041.42 966.86,-1055.6"/>
<polygon fill="#757575" stroke="#757575" points="965.16,-1058.66 975.56,-1060.7 968.7,-1052.62 965.16,-1058.66"/>
</g>
<!-- parser/buildLine.ts&#45;&gt;pidraw.common.ts -->
<g id="edge84" class="edge">
<title>parser/buildLine.ts&#45;&gt;pidraw.common.ts</title>
<path fill="none" stroke="#757575" d="M335.82,-364.62C382.55,-328.73 532.37,-219.76 677,-180.25 794.69,-148.1 1134.84,-99.17 1226,-180.25 1315.26,-259.64 1325.64,-664.55 1326.84,-763.44"/>
<polygon fill="#757575" stroke="#757575" points="1323.34,-763.51 1326.95,-773.47 1330.34,-763.44 1323.34,-763.51"/>
</g>
<!-- parser/buildLine.ts&#45;&gt;figures/AbstractFigure.ts -->
<g id="edge80" class="edge">
<title>parser/buildLine.ts&#45;&gt;figures/AbstractFigure.ts</title>
<path fill="none" stroke="#757575" d="M355.63,-364.74C451.18,-335.35 721.54,-268.67 874,-398.25 958.3,-469.9 985.08,-610.23 992.48,-664.29"/>
<polygon fill="#757575" stroke="#757575" points="989.04,-664.99 993.78,-674.46 995.99,-664.1 989.04,-664.99"/>
</g>
<!-- parser/buildLine.ts&#45;&gt;figures/Line.ts -->
<g id="edge81" class="edge">
<title>parser/buildLine.ts&#45;&gt;figures/Line.ts</title>
<path fill="none" stroke="#757575" d="M370.72,-364.7C434.22,-351.87 547.1,-335.51 641,-356.25 680.11,-364.89 721.38,-386.2 747.5,-401.42"/>
<polygon fill="#757575" stroke="#757575" points="746.02,-404.61 756.4,-406.71 749.6,-398.59 746.02,-404.61"/>
</g>
<!-- parser/buildLine.ts&#45;&gt;figures/Point.ts -->
<g id="edge82" class="edge">
<title>parser/buildLine.ts&#45;&gt;figures/Point.ts</title>
<path fill="none" stroke="#757575" d="M354.59,-387.88C395.42,-402.03 464.4,-425.91 509.05,-441.38"/>
<polygon fill="#757575" stroke="#757575" points="508.15,-444.77 518.74,-444.73 510.44,-438.15 508.15,-444.77"/>
</g>
<!-- parser/buildLine.ts&#45;&gt;parser/parser.common.ts -->
<g id="edge83" class="edge">
<title>parser/buildLine.ts&#45;&gt;parser/parser.common.ts</title>
<path fill="none" stroke="#757575" d="M386.58,-376.25C407.72,-376.25 431.64,-376.25 454.57,-376.25"/>
<polygon fill="#757575" stroke="#757575" points="454.68,-379.75 464.68,-376.25 454.68,-372.75 454.68,-379.75"/>
</g>
<!-- parser/buildPlot.ts&#45;&gt;pidraw.common.ts -->
<g id="edge91" class="edge">
<title>parser/buildPlot.ts&#45;&gt;pidraw.common.ts</title>
<path fill="none" stroke="#757575" d="M338.54,-752.53C390.84,-716.83 547.77,-604.15 641,-477.25 663.85,-446.16 644.55,-419.12 677,-398.25 750.64,-350.88 787.08,-387.75 874,-398.25 968.5,-409.67 998.9,-402.83 1082,-449.25 1160.47,-493.09 1172.6,-518.95 1226,-591.25 1268.69,-649.04 1303.45,-727.38 1318.68,-764.33"/>
<polygon fill="#757575" stroke="#757575" points="1315.44,-765.65 1322.45,-773.6 1321.92,-763.02 1315.44,-765.65"/>
</g>
<!-- parser/buildPlot.ts&#45;&gt;figures/AbstractFigure.ts -->
<g id="edge85" class="edge">
<title>parser/buildPlot.ts&#45;&gt;figures/AbstractFigure.ts</title>
<path fill="none" stroke="#757575" d="M354.83,-752.7C417.47,-731.99 556.17,-689.29 677,-674.25 763.89,-663.44 786.55,-669.93 874,-674.25 882.33,-674.66 890.98,-675.23 899.64,-675.91"/>
<polygon fill="#757575" stroke="#757575" points="899.55,-679.41 909.8,-676.74 900.12,-672.43 899.55,-679.41"/>
</g>
<!-- parser/buildPlot.ts&#45;&gt;figures/FillBetween.ts -->
<g id="edge86" class="edge">
<title>parser/buildPlot.ts&#45;&gt;figures/FillBetween.ts</title>
<path fill="none" stroke="#757575" d="M338.36,-775.98C378.68,-803.2 478.8,-870.82 526.26,-902.87"/>
<polygon fill="#757575" stroke="#757575" points="524.51,-905.91 534.75,-908.6 528.42,-900.11 524.51,-905.91"/>
</g>
<!-- parser/buildPlot.ts&#45;&gt;figures/Follow.ts -->
<g id="edge87" class="edge">
<title>parser/buildPlot.ts&#45;&gt;figures/Follow.ts</title>
<path fill="none" stroke="#757575" d="M326.76,-775.82C345,-812.03 403.86,-925.91 465,-1012.25 486.63,-1042.8 515.43,-1075.23 533.84,-1095.11"/>
<polygon fill="#757575" stroke="#757575" points="531.43,-1097.66 540.82,-1102.58 536.55,-1092.88 531.43,-1097.66"/>
</g>
<!-- parser/buildPlot.ts&#45;&gt;figures/Parametric.ts -->
<g id="edge88" class="edge">
<title>parser/buildPlot.ts&#45;&gt;figures/Parametric.ts</title>
<path fill="none" stroke="#757575" d="M385.65,-764.25C411.45,-764.25 441.48,-764.25 468.87,-764.25"/>
<polygon fill="#757575" stroke="#757575" points="469.23,-767.75 479.23,-764.25 469.23,-760.75 469.23,-767.75"/>
</g>
<!-- parser/buildPlot.ts&#45;&gt;figures/Plot.ts -->
<g id="edge89" class="edge">
<title>parser/buildPlot.ts&#45;&gt;figures/Plot.ts</title>
<path fill="none" stroke="#757575" d="M327.95,-776.15C346.57,-807.11 400.51,-891.24 465,-941.25 533.05,-994.02 564.2,-983.31 641,-1022.25 657.33,-1030.53 660.16,-1035.08 677,-1042.25 690.77,-1048.12 706.07,-1053.38 720.39,-1057.8"/>
<polygon fill="#757575" stroke="#757575" points="719.54,-1061.19 730.12,-1060.72 721.55,-1054.49 719.54,-1061.19"/>
</g>
<!-- parser/buildPlot.ts&#45;&gt;parser/parser.common.ts -->
<g id="edge90" class="edge">
<title>parser/buildPlot.ts&#45;&gt;parser/parser.common.ts</title>
<path fill="none" stroke="#757575" d="M330.35,-752.43C351.21,-725.46 401.87,-656.66 429,-591.25 456.09,-525.92 425.21,-494.72 465,-436.25 477.75,-417.52 498.44,-402.9 516.44,-392.78"/>
<polygon fill="#757575" stroke="#757575" points="518.39,-395.71 525.56,-387.91 515.09,-389.54 518.39,-395.71"/>
</g>
<!-- parser/buildPoint.ts&#45;&gt;pidraw.common.ts -->
<g id="edge96" class="edge">
<title>parser/buildPoint.ts&#45;&gt;pidraw.common.ts</title>
<path fill="none" stroke="#757575" d="M338.21,-230.63C438.09,-164.72 948.56,150.83 1226,-89.25 1330.67,-179.83 1329.16,-655.89 1327.45,-763.58"/>
<polygon fill="#757575" stroke="#757575" points="1323.95,-763.54 1327.27,-773.6 1330.95,-763.66 1323.95,-763.54"/>
</g>
<!-- parser/buildPoint.ts&#45;&gt;figures/AbstractFigure.ts -->
<g id="edge92" class="edge">
<title>parser/buildPoint.ts&#45;&gt;figures/AbstractFigure.ts</title>
<path fill="none" stroke="#757575" d="M385.49,-230.75C498.95,-214.47 735.34,-198.78 874,-319.25 980.54,-411.82 993.69,-600.08 994.99,-664.25"/>
<polygon fill="#757575" stroke="#757575" points="991.49,-664.46 995.12,-674.42 998.49,-664.38 991.49,-664.46"/>
</g>
<!-- parser/buildPoint.ts&#45;&gt;figures/Line.ts -->
<g id="edge93" class="edge">
<title>parser/buildPoint.ts&#45;&gt;figures/Line.ts</title>
<path fill="none" stroke="#757575" d="M369.05,-253.82C432.68,-269.91 547.73,-301.69 641,-342.25 679.94,-359.19 722.09,-384.46 748.39,-401.14"/>
<polygon fill="#757575" stroke="#757575" points="746.69,-404.21 757,-406.66 750.46,-398.32 746.69,-404.21"/>
</g>
<!-- parser/buildPoint.ts&#45;&gt;figures/Point.ts -->
<g id="edge94" class="edge">
<title>parser/buildPoint.ts&#45;&gt;figures/Point.ts</title>
<path fill="none" stroke="#757575" d="M332.19,-253.77C351.96,-274.19 394.28,-318.18 429,-356.25 445.34,-374.17 446.82,-381.21 465,-397.25 483.06,-413.19 505.63,-428.38 523.25,-439.35"/>
<polygon fill="#757575" stroke="#757575" points="521.61,-442.45 531.96,-444.69 525.26,-436.48 521.61,-442.45"/>
</g>
<!-- parser/buildPoint.ts&#45;&gt;parser/parser.common.ts -->
<g id="edge95" class="edge">
<title>parser/buildPoint.ts&#45;&gt;parser/parser.common.ts</title>
<path fill="none" stroke="#757575" d="M341.1,-253.91C382.16,-277.73 475.79,-332.04 523.27,-359.58"/>
<polygon fill="#757575" stroke="#757575" points="521.71,-362.73 532.12,-364.72 525.22,-356.67 521.71,-362.73"/>
</g>
<!-- parser/buildPolygon.ts&#45;&gt;pidraw.common.ts -->
<g id="edge101" class="edge">
<title>parser/buildPolygon.ts&#45;&gt;pidraw.common.ts</title>
<path fill="none" stroke="#757575" d="M330.73,-513.65C361.83,-476.58 457.24,-363.05 465,-356.25 549.38,-282.33 569.47,-251.22 677,-219.25 793.95,-184.48 1134.05,-144.06 1226,-224.25 1309.14,-296.75 1324.07,-668.43 1326.54,-763.22"/>
<polygon fill="#757575" stroke="#757575" points="1323.05,-763.46 1326.78,-773.37 1330.04,-763.29 1323.05,-763.46"/>
</g>
<!-- parser/buildPolygon.ts&#45;&gt;figures/AbstractFigure.ts -->
<g id="edge97" class="edge">
<title>parser/buildPolygon.ts&#45;&gt;figures/AbstractFigure.ts</title>
<path fill="none" stroke="#757575" d="M399.25,-521.79C531.35,-517.15 792.19,-513.48 874,-552.25 925.85,-576.82 965.42,-634.77 983.76,-665.8"/>
<polygon fill="#757575" stroke="#757575" points="980.74,-667.57 988.76,-674.5 986.81,-664.09 980.74,-667.57"/>
</g>
<!-- parser/buildPolygon.ts&#45;&gt;figures/Point.ts -->
<g id="edge98" class="edge">
<title>parser/buildPolygon.ts&#45;&gt;figures/Point.ts</title>
<path fill="none" stroke="#757575" d="M359.66,-513.7C399.22,-501.89 460.79,-483.49 503.57,-470.72"/>
<polygon fill="#757575" stroke="#757575" points="504.63,-474.05 513.21,-467.84 502.63,-467.35 504.63,-474.05"/>
</g>
<!-- parser/buildPolygon.ts&#45;&gt;figures/Polygon.ts -->
<g id="edge99" class="edge">
<title>parser/buildPolygon.ts&#45;&gt;figures/Polygon.ts</title>
<path fill="none" stroke="#757575" d="M386.61,-536.82C400.86,-540.33 415.66,-544.75 429,-550.25 560,-604.25 698.08,-705.22 751.52,-746.24"/>
<polygon fill="#757575" stroke="#757575" points="749.59,-749.17 759.64,-752.51 753.87,-743.63 749.59,-749.17"/>
</g>
<!-- parser/buildPolygon.ts&#45;&gt;parser/parser.common.ts -->
<g id="edge100" class="edge">
<title>parser/buildPolygon.ts&#45;&gt;parser/parser.common.ts</title>
<path fill="none" stroke="#757575" d="M335.51,-513.53C356.41,-496.55 396.11,-464 429,-435.25 445.34,-420.97 446.12,-412.96 465,-402.25 472.67,-397.9 481.14,-394.21 489.7,-391.09"/>
<polygon fill="#757575" stroke="#757575" points="491.01,-394.35 499.36,-387.82 488.77,-387.72 491.01,-394.35"/>
</g>
<!-- parser/parser.common.ts&#45;&gt;pidraw.common.ts -->
<g id="edge103" class="edge">
<title>parser/parser.common.ts&#45;&gt;pidraw.common.ts</title>
<path fill="none" stroke="#757575" d="M618.15,-364.74C626.54,-361.14 634.47,-356.43 641,-350.25 675.31,-317.78 638.35,-277.41 677,-250.25 726.91,-215.18 1179.04,-211.32 1226,-250.25 1306.86,-317.28 1323.44,-671.1 1326.41,-763.28"/>
<polygon fill="#757575" stroke="#757575" points="1322.92,-763.52 1326.72,-773.41 1329.91,-763.31 1322.92,-763.52"/>
</g>
<!-- parser/parser.common.ts&#45;&gt;figures/AbstractFigure.ts -->
<g id="edge102" class="edge">
<title>parser/parser.common.ts&#45;&gt;figures/AbstractFigure.ts</title>
<path fill="none" stroke="#757575" d="M572.39,-387.93C595.79,-402.24 637.86,-426.19 677,-439.25 761.28,-467.38 802.83,-420.06 874,-473.25 902.98,-494.91 892.6,-514.54 910,-546.25 933.86,-589.73 964.67,-638.96 981.88,-665.91"/>
<polygon fill="#757575" stroke="#757575" points="979.02,-667.94 987.37,-674.47 984.92,-664.16 979.02,-667.94"/>
</g>
<!-- index.ts -->
<g id="node25" class="node">
<title>index.ts</title>
<path fill="none" stroke="#c6c5fe" d="M57.33,-755.75C57.33,-755.75 7.67,-755.75 7.67,-755.75 3.83,-755.75 0,-751.92 0,-748.08 0,-748.08 0,-740.42 0,-740.42 0,-736.58 3.83,-732.75 7.67,-732.75 7.67,-732.75 57.33,-732.75 57.33,-732.75 61.17,-732.75 65,-736.58 65,-740.42 65,-740.42 65,-748.08 65,-748.08 65,-751.92 61.17,-755.75 57.33,-755.75"/>
<text text-anchor="middle" x="32.5" y="-740.55" font-family="Arial" font-size="14.00" fill="#c6c5fe">index.ts</text>
</g>
<!-- index.ts&#45;&gt;Graph.ts -->
<g id="edge70" class="edge">
<title>index.ts&#45;&gt;Graph.ts</title>
<path fill="none" stroke="#757575" d="M36.16,-755.96C47.56,-803.35 97.04,-982.25 211,-1064.25 229.14,-1077.3 253.31,-1082.6 274.18,-1084.5"/>
<polygon fill="#757575" stroke="#757575" points="274.22,-1088.01 284.43,-1085.2 274.69,-1081.03 274.22,-1088.01"/>
</g>
<!-- index.ts&#45;&gt;Parser.ts -->
<g id="edge71" class="edge">
<title>index.ts&#45;&gt;Parser.ts</title>
<path fill="none" stroke="#757575" d="M65.12,-738.14C73.23,-736.57 82.14,-734.85 90.83,-733.17"/>
<polygon fill="#757575" stroke="#757575" points="91.71,-736.57 100.87,-731.23 90.39,-729.69 91.71,-736.57"/>
</g>
</g>
</svg>
