<?xml version="1.0" encoding="UTF-8" standalone="no"?>
<!DOCTYPE svg PUBLIC "-//W3C//DTD SVG 1.1//EN"
 "http://www.w3.org/Graphics/SVG/1.1/DTD/svg11.dtd">
<!-- Generated by graphviz version 3.0.0 (20220226.1711)
 -->
<!-- Title: G Pages: 1 -->
<svg width="1631pt" height="1664pt"
 viewBox="0.00 0.00 1631.20 1664.20" xmlns="http://www.w3.org/2000/svg" xmlns:xlink="http://www.w3.org/1999/xlink">
<g id="graph0" class="graph" transform="scale(1 1) rotate(0) translate(21.6 1642.6)">
<title>G</title>
<polygon fill="#111111" stroke="transparent" points="-21.6,21.6 -21.6,-1642.6 1609.6,-1642.6 1609.6,21.6 -21.6,21.6"/>
<!-- Calculus.ts -->
<g id="node1" class="node">
<title>Calculus.ts</title>
<path fill="none" stroke="#c6c5fe" d="M1225.33,-1113.5C1225.33,-1113.5 1154.67,-1113.5 1154.67,-1113.5 1150.83,-1113.5 1147,-1109.67 1147,-1105.83 1147,-1105.83 1147,-1098.17 1147,-1098.17 1147,-1094.33 1150.83,-1090.5 1154.67,-1090.5 1154.67,-1090.5 1225.33,-1090.5 1225.33,-1090.5 1229.17,-1090.5 1233,-1094.33 1233,-1098.17 1233,-1098.17 1233,-1105.83 1233,-1105.83 1233,-1109.67 1229.17,-1113.5 1225.33,-1113.5"/>
<text text-anchor="middle" x="1190" y="-1098.3" font-family="Arial" font-size="14.00" fill="#c6c5fe">Calculus.ts</text>
</g>
<!-- pidraw.common.ts -->
<g id="node2" class="node">
<title>pidraw.common.ts</title>
<path fill="none" stroke="#cfffac" d="M1580.33,-968.5C1580.33,-968.5 1463.67,-968.5 1463.67,-968.5 1459.83,-968.5 1456,-964.67 1456,-960.83 1456,-960.83 1456,-953.17 1456,-953.17 1456,-949.33 1459.83,-945.5 1463.67,-945.5 1463.67,-945.5 1580.33,-945.5 1580.33,-945.5 1584.17,-945.5 1588,-949.33 1588,-953.17 1588,-953.17 1588,-960.83 1588,-960.83 1588,-964.67 1584.17,-968.5 1580.33,-968.5"/>
<text text-anchor="middle" x="1522" y="-953.3" font-family="Arial" font-size="14.00" fill="#cfffac">pidraw.common.ts</text>
</g>
<!-- Calculus.ts&#45;&gt;pidraw.common.ts -->
<g id="edge1" class="edge">
<title>Calculus.ts&#45;&gt;pidraw.common.ts</title>
<path fill="none" stroke="#757575" d="M1233.11,-1100.95C1280.98,-1098.18 1360.21,-1088.68 1420,-1057 1456.93,-1037.43 1489.2,-999.99 1506.81,-976.88"/>
<polygon fill="#757575" stroke="#757575" points="1509.67,-978.91 1512.83,-968.8 1504.05,-974.74 1509.67,-978.91"/>
</g>
<!-- Graph.ts -->
<g id="node3" class="node">
<title>Graph.ts</title>
<path fill="none" stroke="#c6c5fe" d="M571.83,-1095.5C571.83,-1095.5 516.17,-1095.5 516.17,-1095.5 512.33,-1095.5 508.5,-1091.67 508.5,-1087.83 508.5,-1087.83 508.5,-1080.17 508.5,-1080.17 508.5,-1076.33 512.33,-1072.5 516.17,-1072.5 516.17,-1072.5 571.83,-1072.5 571.83,-1072.5 575.67,-1072.5 579.5,-1076.33 579.5,-1080.17 579.5,-1080.17 579.5,-1087.83 579.5,-1087.83 579.5,-1091.67 575.67,-1095.5 571.83,-1095.5"/>
<text text-anchor="middle" x="544" y="-1080.3" font-family="Arial" font-size="14.00" fill="#c6c5fe">Graph.ts</text>
</g>
<!-- Graph.ts&#45;&gt;Calculus.ts -->
<g id="edge2" class="edge">
<title>Graph.ts&#45;&gt;Calculus.ts</title>
<path fill="none" stroke="#757575" d="M545.57,-1095.67C548.43,-1140.56 565.15,-1303.38 659,-1379 733.25,-1438.83 775.93,-1404.64 871,-1412 958.29,-1418.75 995.7,-1461.39 1068,-1412 1167.04,-1344.34 1185.02,-1182.53 1188.28,-1123.78"/>
<polygon fill="#757575" stroke="#757575" points="1191.78,-1123.91 1188.75,-1113.76 1184.79,-1123.59 1191.78,-1123.91"/>
</g>
<!-- Graph.ts&#45;&gt;pidraw.common.ts -->
<g id="edge16" class="edge">
<title>Graph.ts&#45;&gt;pidraw.common.ts</title>
<path fill="none" stroke="#757575" d="M546.08,-1095.58C550.86,-1141.04 573.84,-1309.79 659,-1411 760.32,-1531.41 811.13,-1583 968.5,-1583 968.5,-1583 968.5,-1583 1191,-1583 1470.14,-1583 1513.73,-1089.89 1520.01,-978.97"/>
<polygon fill="#757575" stroke="#757575" points="1523.52,-978.84 1520.54,-968.67 1516.53,-978.48 1523.52,-978.84"/>
</g>
<!-- figures/AbstractFigure.ts -->
<g id="node4" class="node">
<title>figures/AbstractFigure.ts</title>
<path fill="none" stroke="#c6c5fe" d="M1268.33,-775.5C1268.33,-775.5 1111.67,-775.5 1111.67,-775.5 1107.83,-775.5 1104,-771.67 1104,-767.83 1104,-767.83 1104,-760.17 1104,-760.17 1104,-756.33 1107.83,-752.5 1111.67,-752.5 1111.67,-752.5 1268.33,-752.5 1268.33,-752.5 1272.17,-752.5 1276,-756.33 1276,-760.17 1276,-760.17 1276,-767.83 1276,-767.83 1276,-771.67 1272.17,-775.5 1268.33,-775.5"/>
<text text-anchor="middle" x="1190" y="-760.3" font-family="Arial" font-size="14.00" fill="#c6c5fe">figures/AbstractFigure.ts</text>
</g>
<!-- Graph.ts&#45;&gt;figures/AbstractFigure.ts -->
<g id="edge3" class="edge">
<title>Graph.ts&#45;&gt;figures/AbstractFigure.ts</title>
<path fill="none" stroke="#757575" d="M547.81,-1072.33C557.11,-1036.09 590.32,-924.33 659,-864 721.53,-809.07 759.64,-835.33 835,-800 851.77,-792.14 853.24,-784.25 871,-779 943.57,-757.53 1029.48,-754.74 1093.7,-756.78"/>
<polygon fill="#757575" stroke="#757575" points="1093.7,-760.29 1103.82,-757.15 1093.95,-753.29 1093.7,-760.29"/>
</g>
<!-- figures/Arc.ts -->
<g id="node5" class="node">
<title>figures/Arc.ts</title>
<path fill="none" stroke="#c6c5fe" d="M1012.33,-1320.5C1012.33,-1320.5 926.67,-1320.5 926.67,-1320.5 922.83,-1320.5 919,-1316.67 919,-1312.83 919,-1312.83 919,-1305.17 919,-1305.17 919,-1301.33 922.83,-1297.5 926.67,-1297.5 926.67,-1297.5 1012.33,-1297.5 1012.33,-1297.5 1016.17,-1297.5 1020,-1301.33 1020,-1305.17 1020,-1305.17 1020,-1312.83 1020,-1312.83 1020,-1316.67 1016.17,-1320.5 1012.33,-1320.5"/>
<text text-anchor="middle" x="969.5" y="-1305.3" font-family="Arial" font-size="14.00" fill="#c6c5fe">figures/Arc.ts</text>
</g>
<!-- Graph.ts&#45;&gt;figures/Arc.ts -->
<g id="edge4" class="edge">
<title>Graph.ts&#45;&gt;figures/Arc.ts</title>
<path fill="none" stroke="#757575" d="M548.96,-1095.51C560.43,-1126.91 596.83,-1214.47 659,-1255 734.79,-1304.41 842.31,-1312.46 908.61,-1312.01"/>
<polygon fill="#757575" stroke="#757575" points="908.94,-1315.5 918.89,-1311.87 908.84,-1308.5 908.94,-1315.5"/>
</g>
<!-- figures/Circle.ts -->
<g id="node6" class="node">
<title>figures/Circle.ts</title>
<path fill="none" stroke="#c6c5fe" d="M797.33,-745.5C797.33,-745.5 696.67,-745.5 696.67,-745.5 692.83,-745.5 689,-741.67 689,-737.83 689,-737.83 689,-730.17 689,-730.17 689,-726.33 692.83,-722.5 696.67,-722.5 696.67,-722.5 797.33,-722.5 797.33,-722.5 801.17,-722.5 805,-726.33 805,-730.17 805,-730.17 805,-737.83 805,-737.83 805,-741.67 801.17,-745.5 797.33,-745.5"/>
<text text-anchor="middle" x="747" y="-730.3" font-family="Arial" font-size="14.00" fill="#c6c5fe">figures/Circle.ts</text>
</g>
<!-- Graph.ts&#45;&gt;figures/Circle.ts -->
<g id="edge5" class="edge">
<title>Graph.ts&#45;&gt;figures/Circle.ts</title>
<path fill="none" stroke="#757575" d="M549.06,-1072.3C562.03,-1035.72 604.79,-920.86 659,-836 679.04,-804.63 708.01,-772.64 726.92,-753.05"/>
<polygon fill="#757575" stroke="#757575" points="729.62,-755.29 734.11,-745.69 724.62,-750.4 729.62,-755.29"/>
</g>
<!-- figures/CoordinateSystem.ts -->
<g id="node7" class="node">
<title>figures/CoordinateSystem.ts</title>
<path fill="none" stroke="#c6c5fe" d="M1060.33,-1402.5C1060.33,-1402.5 878.67,-1402.5 878.67,-1402.5 874.83,-1402.5 871,-1398.67 871,-1394.83 871,-1394.83 871,-1387.17 871,-1387.17 871,-1383.33 874.83,-1379.5 878.67,-1379.5 878.67,-1379.5 1060.33,-1379.5 1060.33,-1379.5 1064.17,-1379.5 1068,-1383.33 1068,-1387.17 1068,-1387.17 1068,-1394.83 1068,-1394.83 1068,-1398.67 1064.17,-1402.5 1060.33,-1402.5"/>
<text text-anchor="middle" x="969.5" y="-1387.3" font-family="Arial" font-size="14.00" fill="#c6c5fe">figures/CoordinateSystem.ts</text>
</g>
<!-- Graph.ts&#45;&gt;figures/CoordinateSystem.ts -->
<g id="edge6" class="edge">
<title>Graph.ts&#45;&gt;figures/CoordinateSystem.ts</title>
<path fill="none" stroke="#757575" d="M546.42,-1095.64C552.04,-1136.31 576.61,-1273.04 659,-1337 715.75,-1381.05 796.02,-1394.07 860.6,-1396.32"/>
<polygon fill="#757575" stroke="#757575" points="860.73,-1399.83 870.82,-1396.6 860.92,-1392.83 860.73,-1399.83"/>
</g>
<!-- figures/FillBetween.ts -->
<g id="node8" class="node">
<title>figures/FillBetween.ts</title>
<path fill="none" stroke="#c6c5fe" d="M815.33,-1136.5C815.33,-1136.5 678.67,-1136.5 678.67,-1136.5 674.83,-1136.5 671,-1132.67 671,-1128.83 671,-1128.83 671,-1121.17 671,-1121.17 671,-1117.33 674.83,-1113.5 678.67,-1113.5 678.67,-1113.5 815.33,-1113.5 815.33,-1113.5 819.17,-1113.5 823,-1117.33 823,-1121.17 823,-1121.17 823,-1128.83 823,-1128.83 823,-1132.67 819.17,-1136.5 815.33,-1136.5"/>
<text text-anchor="middle" x="747" y="-1121.3" font-family="Arial" font-size="14.00" fill="#c6c5fe">figures/FillBetween.ts</text>
</g>
<!-- Graph.ts&#45;&gt;figures/FillBetween.ts -->
<g id="edge7" class="edge">
<title>Graph.ts&#45;&gt;figures/FillBetween.ts</title>
<path fill="none" stroke="#757575" d="M579.55,-1091.05C606.92,-1096.63 645.96,-1104.59 679.35,-1111.4"/>
<polygon fill="#757575" stroke="#757575" points="679.02,-1114.91 689.51,-1113.48 680.42,-1108.05 679.02,-1114.91"/>
</g>
<!-- figures/Follow.ts -->
<g id="node9" class="node">
<title>figures/Follow.ts</title>
<path fill="none" stroke="#c6c5fe" d="M799.33,-939.5C799.33,-939.5 694.67,-939.5 694.67,-939.5 690.83,-939.5 687,-935.67 687,-931.83 687,-931.83 687,-924.17 687,-924.17 687,-920.33 690.83,-916.5 694.67,-916.5 694.67,-916.5 799.33,-916.5 799.33,-916.5 803.17,-916.5 807,-920.33 807,-924.17 807,-924.17 807,-931.83 807,-931.83 807,-935.67 803.17,-939.5 799.33,-939.5"/>
<text text-anchor="middle" x="747" y="-924.3" font-family="Arial" font-size="14.00" fill="#c6c5fe">figures/Follow.ts</text>
</g>
<!-- Graph.ts&#45;&gt;figures/Follow.ts -->
<g id="edge8" class="edge">
<title>Graph.ts&#45;&gt;figures/Follow.ts</title>
<path fill="none" stroke="#757575" d="M560.11,-1072.27C595.04,-1045.16 681.58,-977.99 723.09,-945.78"/>
<polygon fill="#757575" stroke="#757575" points="725.24,-948.54 730.99,-939.65 720.95,-943.01 725.24,-948.54"/>
</g>
<!-- figures/Grid.ts -->
<g id="node10" class="node">
<title>figures/Grid.ts</title>
<path fill="none" stroke="#c6c5fe" d="M1014.83,-1361.5C1014.83,-1361.5 924.17,-1361.5 924.17,-1361.5 920.33,-1361.5 916.5,-1357.67 916.5,-1353.83 916.5,-1353.83 916.5,-1346.17 916.5,-1346.17 916.5,-1342.33 920.33,-1338.5 924.17,-1338.5 924.17,-1338.5 1014.83,-1338.5 1014.83,-1338.5 1018.67,-1338.5 1022.5,-1342.33 1022.5,-1346.17 1022.5,-1346.17 1022.5,-1353.83 1022.5,-1353.83 1022.5,-1357.67 1018.67,-1361.5 1014.83,-1361.5"/>
<text text-anchor="middle" x="969.5" y="-1346.3" font-family="Arial" font-size="14.00" fill="#c6c5fe">figures/Grid.ts</text>
</g>
<!-- Graph.ts&#45;&gt;figures/Grid.ts -->
<g id="edge9" class="edge">
<title>Graph.ts&#45;&gt;figures/Grid.ts</title>
<path fill="none" stroke="#757575" d="M547.54,-1095.72C556.08,-1132.01 587.28,-1243.18 659,-1295 731.9,-1347.67 839.19,-1355.32 906.39,-1354.09"/>
<polygon fill="#757575" stroke="#757575" points="906.51,-1357.59 916.41,-1353.83 906.33,-1350.59 906.51,-1357.59"/>
</g>
<!-- figures/Line.ts -->
<g id="node11" class="node">
<title>figures/Line.ts</title>
<path fill="none" stroke="#c6c5fe" d="M1014.83,-507.5C1014.83,-507.5 924.17,-507.5 924.17,-507.5 920.33,-507.5 916.5,-503.67 916.5,-499.83 916.5,-499.83 916.5,-492.17 916.5,-492.17 916.5,-488.33 920.33,-484.5 924.17,-484.5 924.17,-484.5 1014.83,-484.5 1014.83,-484.5 1018.67,-484.5 1022.5,-488.33 1022.5,-492.17 1022.5,-492.17 1022.5,-499.83 1022.5,-499.83 1022.5,-503.67 1018.67,-507.5 1014.83,-507.5"/>
<text text-anchor="middle" x="969.5" y="-492.3" font-family="Arial" font-size="14.00" fill="#c6c5fe">figures/Line.ts</text>
</g>
<!-- Graph.ts&#45;&gt;figures/Line.ts -->
<g id="edge10" class="edge">
<title>Graph.ts&#45;&gt;figures/Line.ts</title>
<path fill="none" stroke="#757575" d="M550.72,-1072.08C564.84,-1042.24 601.75,-961.6 623,-891 646.14,-814.13 613.91,-780.42 659,-714 711.48,-636.69 763.66,-659.34 835,-599 853.01,-583.77 853.01,-575.25 871,-560 892.3,-541.95 918.94,-524.78 938.99,-512.77"/>
<polygon fill="#757575" stroke="#757575" points="940.86,-515.73 947.69,-507.64 937.3,-509.7 940.86,-515.73"/>
</g>
<!-- figures/Parametric.ts -->
<g id="node12" class="node">
<title>figures/Parametric.ts</title>
<path fill="none" stroke="#c6c5fe" d="M1035.33,-1279.5C1035.33,-1279.5 903.67,-1279.5 903.67,-1279.5 899.83,-1279.5 896,-1275.67 896,-1271.83 896,-1271.83 896,-1264.17 896,-1264.17 896,-1260.33 899.83,-1256.5 903.67,-1256.5 903.67,-1256.5 1035.33,-1256.5 1035.33,-1256.5 1039.17,-1256.5 1043,-1260.33 1043,-1264.17 1043,-1264.17 1043,-1271.83 1043,-1271.83 1043,-1275.67 1039.17,-1279.5 1035.33,-1279.5"/>
<text text-anchor="middle" x="969.5" y="-1264.3" font-family="Arial" font-size="14.00" fill="#c6c5fe">figures/Parametric.ts</text>
</g>
<!-- Graph.ts&#45;&gt;figures/Parametric.ts -->
<g id="edge11" class="edge">
<title>Graph.ts&#45;&gt;figures/Parametric.ts</title>
<path fill="none" stroke="#757575" d="M555.8,-1095.75C574.78,-1115.72 616.2,-1156.32 659,-1179 731.92,-1217.65 823.64,-1241.32 888.24,-1254.43"/>
<polygon fill="#757575" stroke="#757575" points="887.88,-1257.93 898.37,-1256.44 889.25,-1251.06 887.88,-1257.93"/>
</g>
<!-- figures/Plot.ts -->
<g id="node13" class="node">
<title>figures/Plot.ts</title>
<path fill="none" stroke="#c6c5fe" d="M1013.83,-1123.5C1013.83,-1123.5 925.17,-1123.5 925.17,-1123.5 921.33,-1123.5 917.5,-1119.67 917.5,-1115.83 917.5,-1115.83 917.5,-1108.17 917.5,-1108.17 917.5,-1104.33 921.33,-1100.5 925.17,-1100.5 925.17,-1100.5 1013.83,-1100.5 1013.83,-1100.5 1017.67,-1100.5 1021.5,-1104.33 1021.5,-1108.17 1021.5,-1108.17 1021.5,-1115.83 1021.5,-1115.83 1021.5,-1119.67 1017.67,-1123.5 1013.83,-1123.5"/>
<text text-anchor="middle" x="969.5" y="-1108.3" font-family="Arial" font-size="14.00" fill="#c6c5fe">figures/Plot.ts</text>
</g>
<!-- Graph.ts&#45;&gt;figures/Plot.ts -->
<g id="edge12" class="edge">
<title>Graph.ts&#45;&gt;figures/Plot.ts</title>
<path fill="none" stroke="#757575" d="M579.7,-1074.18C634.9,-1060.18 745.61,-1038.85 835,-1064 853.05,-1069.08 853.76,-1078.62 871,-1086 882.56,-1090.95 895.31,-1095.17 907.67,-1098.68"/>
<polygon fill="#757575" stroke="#757575" points="906.9,-1102.1 917.46,-1101.34 908.73,-1095.34 906.9,-1102.1"/>
</g>
<!-- figures/Point.ts -->
<g id="node14" class="node">
<title>figures/Point.ts</title>
<path fill="none" stroke="#c6c5fe" d="M794.83,-589.5C794.83,-589.5 699.17,-589.5 699.17,-589.5 695.33,-589.5 691.5,-585.67 691.5,-581.83 691.5,-581.83 691.5,-574.17 691.5,-574.17 691.5,-570.33 695.33,-566.5 699.17,-566.5 699.17,-566.5 794.83,-566.5 794.83,-566.5 798.67,-566.5 802.5,-570.33 802.5,-574.17 802.5,-574.17 802.5,-581.83 802.5,-581.83 802.5,-585.67 798.67,-589.5 794.83,-589.5"/>
<text text-anchor="middle" x="747" y="-574.3" font-family="Arial" font-size="14.00" fill="#c6c5fe">figures/Point.ts</text>
</g>
<!-- Graph.ts&#45;&gt;figures/Point.ts -->
<g id="edge13" class="edge">
<title>Graph.ts&#45;&gt;figures/Point.ts</title>
<path fill="none" stroke="#757575" d="M550.97,-1072.16C565.66,-1042.47 603.77,-962.17 623,-891 652.16,-783.05 601.5,-737.9 659,-642 671.35,-621.41 693.11,-605.4 711.78,-594.55"/>
<polygon fill="#757575" stroke="#757575" points="713.59,-597.55 720.64,-589.64 710.2,-591.42 713.59,-597.55"/>
</g>
<!-- figures/Polygon.ts -->
<g id="node15" class="node">
<title>figures/Polygon.ts</title>
<path fill="none" stroke="#c6c5fe" d="M1027.33,-853.5C1027.33,-853.5 911.67,-853.5 911.67,-853.5 907.83,-853.5 904,-849.67 904,-845.83 904,-845.83 904,-838.17 904,-838.17 904,-834.33 907.83,-830.5 911.67,-830.5 911.67,-830.5 1027.33,-830.5 1027.33,-830.5 1031.17,-830.5 1035,-834.33 1035,-838.17 1035,-838.17 1035,-845.83 1035,-845.83 1035,-849.67 1031.17,-853.5 1027.33,-853.5"/>
<text text-anchor="middle" x="969.5" y="-838.3" font-family="Arial" font-size="14.00" fill="#c6c5fe">figures/Polygon.ts</text>
</g>
<!-- Graph.ts&#45;&gt;figures/Polygon.ts -->
<g id="edge14" class="edge">
<title>Graph.ts&#45;&gt;figures/Polygon.ts</title>
<path fill="none" stroke="#757575" d="M548.94,-1072.29C560.35,-1040.29 596.63,-950.95 659,-908 678.26,-894.74 808.8,-869.92 894.08,-854.79"/>
<polygon fill="#757575" stroke="#757575" points="894.75,-858.22 903.99,-853.04 893.53,-851.33 894.75,-858.22"/>
</g>
<!-- figures/Riemann.ts -->
<g id="node16" class="node">
<title>figures/Riemann.ts</title>
<path fill="none" stroke="#c6c5fe" d="M806.83,-1095.5C806.83,-1095.5 687.17,-1095.5 687.17,-1095.5 683.33,-1095.5 679.5,-1091.67 679.5,-1087.83 679.5,-1087.83 679.5,-1080.17 679.5,-1080.17 679.5,-1076.33 683.33,-1072.5 687.17,-1072.5 687.17,-1072.5 806.83,-1072.5 806.83,-1072.5 810.67,-1072.5 814.5,-1076.33 814.5,-1080.17 814.5,-1080.17 814.5,-1087.83 814.5,-1087.83 814.5,-1091.67 810.67,-1095.5 806.83,-1095.5"/>
<text text-anchor="middle" x="747" y="-1080.3" font-family="Arial" font-size="14.00" fill="#c6c5fe">figures/Riemann.ts</text>
</g>
<!-- Graph.ts&#45;&gt;figures/Riemann.ts -->
<g id="edge15" class="edge">
<title>Graph.ts&#45;&gt;figures/Riemann.ts</title>
<path fill="none" stroke="#757575" d="M579.55,-1084C604.16,-1084 638.21,-1084 669.1,-1084"/>
<polygon fill="#757575" stroke="#757575" points="669.44,-1087.5 679.44,-1084 669.44,-1080.5 669.44,-1087.5"/>
</g>
<!-- figures/AbstractFigure.ts&#45;&gt;pidraw.common.ts -->
<g id="edge34" class="edge">
<title>figures/AbstractFigure.ts&#45;&gt;pidraw.common.ts</title>
<path fill="none" stroke="#757575" d="M1225.69,-775.57C1272.09,-791.89 1355.95,-824.38 1420,-866 1452.18,-886.91 1484.23,-917.97 1503.33,-937.85"/>
<polygon fill="#757575" stroke="#757575" points="1501.03,-940.52 1510.45,-945.37 1506.12,-935.71 1501.03,-940.52"/>
</g>
<!-- labels/Label.ts -->
<g id="node18" class="node">
<title>labels/Label.ts</title>
<path fill="none" stroke="#c6c5fe" d="M1412.33,-1269.5C1412.33,-1269.5 1319.67,-1269.5 1319.67,-1269.5 1315.83,-1269.5 1312,-1265.67 1312,-1261.83 1312,-1261.83 1312,-1254.17 1312,-1254.17 1312,-1250.33 1315.83,-1246.5 1319.67,-1246.5 1319.67,-1246.5 1412.33,-1246.5 1412.33,-1246.5 1416.17,-1246.5 1420,-1250.33 1420,-1254.17 1420,-1254.17 1420,-1261.83 1420,-1261.83 1420,-1265.67 1416.17,-1269.5 1412.33,-1269.5"/>
<text text-anchor="middle" x="1366" y="-1254.3" font-family="Arial" font-size="14.00" fill="#c6c5fe">labels/Label.ts</text>
</g>
<!-- figures/AbstractFigure.ts&#45;&gt;labels/Label.ts -->
<g id="edge33" class="edge">
<title>figures/AbstractFigure.ts&#45;&gt;labels/Label.ts</title>
<path fill="none" stroke="#757575" d="M1195.13,-775.72C1217.83,-840.18 1327.51,-1151.58 1357.44,-1236.54"/>
<polygon fill="#757575" stroke="#757575" points="1354.21,-1237.9 1360.83,-1246.17 1360.81,-1235.57 1354.21,-1237.9"/>
</g>
<!-- figures/Arc.ts&#45;&gt;Calculus.ts -->
<g id="edge35" class="edge">
<title>figures/Arc.ts&#45;&gt;Calculus.ts</title>
<path fill="none" stroke="#757575" d="M1020.07,-1308.92C1037.1,-1306.48 1055.1,-1300.88 1068,-1289 1109.9,-1250.42 1071.6,-1212.85 1104,-1166 1117.6,-1146.33 1139.18,-1130.19 1157.19,-1119.04"/>
<polygon fill="#757575" stroke="#757575" points="1159.41,-1121.79 1166.22,-1113.67 1155.84,-1115.77 1159.41,-1121.79"/>
</g>
<!-- figures/Arc.ts&#45;&gt;pidraw.common.ts -->
<g id="edge37" class="edge">
<title>figures/Arc.ts&#45;&gt;pidraw.common.ts</title>
<path fill="none" stroke="#757575" d="M1020.1,-1307.97C1036.83,-1305.4 1054.63,-1299.95 1068,-1289 1099.74,-1263 1072.68,-1230.5 1104,-1204 1164,-1153.25 1200.03,-1183.12 1276,-1163 1340.44,-1145.93 1366.98,-1161.41 1420,-1121 1469.65,-1083.16 1500.6,-1013.29 1513.72,-978.23"/>
<polygon fill="#757575" stroke="#757575" points="1517.11,-979.14 1517.22,-968.55 1510.53,-976.76 1517.11,-979.14"/>
</g>
<!-- figures/Arc.ts&#45;&gt;figures/AbstractFigure.ts -->
<g id="edge36" class="edge">
<title>figures/Arc.ts&#45;&gt;figures/AbstractFigure.ts</title>
<path fill="none" stroke="#757575" d="M1020.07,-1309.8C1037.4,-1307.51 1055.61,-1301.77 1068,-1289 1133.03,-1221.98 1083.92,-1173.2 1104,-1082 1128.83,-969.19 1167.44,-836.28 1182.59,-785.34"/>
<polygon fill="#757575" stroke="#757575" points="1185.95,-786.33 1185.45,-775.75 1179.24,-784.33 1185.95,-786.33"/>
</g>
<!-- figures/Circle.ts&#45;&gt;Calculus.ts -->
<g id="edge38" class="edge">
<title>figures/Circle.ts&#45;&gt;Calculus.ts</title>
<path fill="none" stroke="#757575" d="M805.44,-741.7C816.52,-745.6 827.12,-751.4 835,-760 888.38,-818.2 821.25,-872.67 871,-934 931.19,-1008.19 984.33,-973.9 1068,-1020 1103.63,-1039.63 1142.09,-1066.83 1165.86,-1084.42"/>
<polygon fill="#757575" stroke="#757575" points="1163.81,-1087.26 1173.92,-1090.44 1168,-1081.65 1163.81,-1087.26"/>
</g>
<!-- figures/Circle.ts&#45;&gt;pidraw.common.ts -->
<g id="edge40" class="edge">
<title>figures/Circle.ts&#45;&gt;pidraw.common.ts</title>
<path fill="none" stroke="#757575" d="M786.67,-722.42C819.46,-712.69 862.51,-700.18 871,-699 1050.37,-673.98 1103.68,-688.28 1276,-744 1342.47,-765.49 1366.36,-762.25 1420,-807 1463.94,-843.66 1496.51,-904.16 1511.63,-935.96"/>
<polygon fill="#757575" stroke="#757575" points="1508.53,-937.61 1515.91,-945.22 1514.89,-934.67 1508.53,-937.61"/>
</g>
<!-- figures/Circle.ts&#45;&gt;figures/AbstractFigure.ts -->
<g id="edge39" class="edge">
<title>figures/Circle.ts&#45;&gt;figures/AbstractFigure.ts</title>
<path fill="none" stroke="#757575" d="M797.07,-722.49C860.35,-709.5 973.5,-692.55 1068,-712 1101.02,-718.79 1136.14,-735.01 1159.99,-747.54"/>
<polygon fill="#757575" stroke="#757575" points="1158.39,-750.66 1168.86,-752.31 1161.7,-744.49 1158.39,-750.66"/>
</g>
<!-- figures/CoordinateSystem.ts&#45;&gt;Calculus.ts -->
<g id="edge41" class="edge">
<title>figures/CoordinateSystem.ts&#45;&gt;Calculus.ts</title>
<path fill="none" stroke="#757575" d="M1054.84,-1379.34C1059.52,-1377 1063.95,-1374.24 1068,-1371 1109.58,-1337.7 1163.49,-1180.86 1182.23,-1123.27"/>
<polygon fill="#757575" stroke="#757575" points="1185.57,-1124.32 1185.31,-1113.73 1178.91,-1122.17 1185.57,-1124.32"/>
</g>
<!-- figures/CoordinateSystem.ts&#45;&gt;pidraw.common.ts -->
<g id="edge43" class="edge">
<title>figures/CoordinateSystem.ts&#45;&gt;pidraw.common.ts</title>
<path fill="none" stroke="#757575" d="M1068.25,-1393.19C1169.29,-1390.05 1325.24,-1369.29 1420,-1279 1507.68,-1195.45 1519.62,-1036.87 1520.96,-978.92"/>
<polygon fill="#757575" stroke="#757575" points="1524.46,-978.77 1521.11,-968.72 1517.46,-978.67 1524.46,-978.77"/>
</g>
<!-- figures/CoordinateSystem.ts&#45;&gt;figures/AbstractFigure.ts -->
<g id="edge42" class="edge">
<title>figures/CoordinateSystem.ts&#45;&gt;figures/AbstractFigure.ts</title>
<path fill="none" stroke="#757575" d="M1058.23,-1379.28C1061.78,-1376.92 1065.07,-1374.17 1068,-1371 1111.93,-1323.48 1091.61,-1145.52 1104,-1082 1126.1,-968.63 1166.29,-836.05 1182.23,-785.26"/>
<polygon fill="#757575" stroke="#757575" points="1185.57,-786.29 1185.24,-775.7 1178.9,-784.19 1185.57,-786.29"/>
</g>
<!-- figures/FillBetween.ts&#45;&gt;Calculus.ts -->
<g id="edge44" class="edge">
<title>figures/FillBetween.ts&#45;&gt;Calculus.ts</title>
<path fill="none" stroke="#757575" d="M786.64,-1136.54C810.67,-1143.11 842.34,-1150.67 871,-1154 957.97,-1164.11 984.69,-1180.94 1068,-1154 1086.78,-1147.93 1086.33,-1136.78 1104,-1128 1114.37,-1122.85 1125.96,-1118.48 1137.17,-1114.89"/>
<polygon fill="#757575" stroke="#757575" points="1138.33,-1118.19 1146.88,-1111.92 1136.29,-1111.49 1138.33,-1118.19"/>
</g>
<!-- figures/FillBetween.ts&#45;&gt;pidraw.common.ts -->
<g id="edge47" class="edge">
<title>figures/FillBetween.ts&#45;&gt;pidraw.common.ts</title>
<path fill="none" stroke="#757575" d="M748.05,-1136.79C748.96,-1186.09 759.77,-1376.84 871,-1454 1019.11,-1556.75 1102.01,-1479.16 1276,-1432 1343.77,-1413.63 1375.08,-1420.97 1420,-1367 1470.74,-1306.04 1507.87,-1055.19 1518.14,-979.03"/>
<polygon fill="#757575" stroke="#757575" points="1521.66,-979.1 1519.51,-968.73 1514.72,-978.18 1521.66,-979.1"/>
</g>
<!-- figures/FillBetween.ts&#45;&gt;figures/AbstractFigure.ts -->
<g id="edge45" class="edge">
<title>figures/FillBetween.ts&#45;&gt;figures/AbstractFigure.ts</title>
<path fill="none" stroke="#757575" d="M819.49,-1136.54C901.56,-1148.13 1029.8,-1160.67 1068,-1133 1097.6,-1111.56 1163.87,-861.71 1183.45,-785.76"/>
<polygon fill="#757575" stroke="#757575" points="1186.89,-786.42 1185.99,-775.87 1180.11,-784.68 1186.89,-786.42"/>
</g>
<!-- figures/FillBetween.ts&#45;&gt;figures/Plot.ts -->
<g id="edge46" class="edge">
<title>figures/FillBetween.ts&#45;&gt;figures/Plot.ts</title>
<path fill="none" stroke="#757575" d="M823.27,-1120.56C850.69,-1118.95 881.34,-1117.14 907.39,-1115.6"/>
<polygon fill="#757575" stroke="#757575" points="907.72,-1119.09 917.5,-1115.01 907.31,-1112.1 907.72,-1119.09"/>
</g>
<!-- figures/Follow.ts&#45;&gt;Calculus.ts -->
<g id="edge48" class="edge">
<title>figures/Follow.ts&#45;&gt;Calculus.ts</title>
<path fill="none" stroke="#757575" d="M807.13,-937.68C817.32,-941.46 827.14,-946.71 835,-954 867.8,-984.42 836.4,-1019.64 871,-1048 891.26,-1064.61 1051.84,-1085.79 1136.75,-1095.99"/>
<polygon fill="#757575" stroke="#757575" points="1136.38,-1099.47 1146.72,-1097.17 1137.21,-1092.51 1136.38,-1099.47"/>
</g>
<!-- figures/Follow.ts&#45;&gt;pidraw.common.ts -->
<g id="edge51" class="edge">
<title>figures/Follow.ts&#45;&gt;pidraw.common.ts</title>
<path fill="none" stroke="#757575" d="M807.05,-930.22C945.74,-935.42 1292.12,-948.41 1445.67,-954.17"/>
<polygon fill="#757575" stroke="#757575" points="1445.82,-957.68 1455.94,-954.56 1446.08,-950.69 1445.82,-957.68"/>
</g>
<!-- figures/Follow.ts&#45;&gt;figures/AbstractFigure.ts -->
<g id="edge49" class="edge">
<title>figures/Follow.ts&#45;&gt;figures/AbstractFigure.ts</title>
<path fill="none" stroke="#757575" d="M766.25,-916.36C784.52,-904.31 813.01,-884.41 835,-864 853.02,-847.27 849.68,-834.24 871,-822 890.77,-810.65 1013.55,-790.34 1100.62,-777.02"/>
<polygon fill="#757575" stroke="#757575" points="1101.16,-780.48 1110.52,-775.51 1100.1,-773.56 1101.16,-780.48"/>
</g>
<!-- figures/Follow.ts&#45;&gt;figures/Plot.ts -->
<g id="edge50" class="edge">
<title>figures/Follow.ts&#45;&gt;figures/Plot.ts</title>
<path fill="none" stroke="#757575" d="M807.28,-936.89C817.58,-940.74 827.4,-946.22 835,-954 877.48,-997.51 827.88,-1043.12 871,-1086 880.9,-1095.84 894.07,-1102.07 907.53,-1105.99"/>
<polygon fill="#757575" stroke="#757575" points="906.79,-1109.42 917.34,-1108.46 908.5,-1102.63 906.79,-1109.42"/>
</g>
<!-- figures/Grid.ts&#45;&gt;Calculus.ts -->
<g id="edge52" class="edge">
<title>figures/Grid.ts&#45;&gt;Calculus.ts</title>
<path fill="none" stroke="#757575" d="M1022.64,-1349.58C1038.91,-1346.97 1055.77,-1341.33 1068,-1330 1110.72,-1290.41 1076.77,-1255.48 1104,-1204 1121.15,-1171.58 1149.81,-1140.07 1169.05,-1120.85"/>
<polygon fill="#757575" stroke="#757575" points="1171.72,-1123.14 1176.41,-1113.64 1166.82,-1118.14 1171.72,-1123.14"/>
</g>
<!-- figures/Grid.ts&#45;&gt;pidraw.common.ts -->
<g id="edge54" class="edge">
<title>figures/Grid.ts&#45;&gt;pidraw.common.ts</title>
<path fill="none" stroke="#757575" d="M1022.55,-1341.98C1037.45,-1338.97 1053.56,-1335.03 1068,-1330 1150.77,-1301.16 1357.72,-1213.68 1420,-1152 1471.75,-1100.75 1502.51,-1017.4 1514.79,-978.4"/>
<polygon fill="#757575" stroke="#757575" points="1518.19,-979.22 1517.76,-968.64 1511.5,-977.18 1518.19,-979.22"/>
</g>
<!-- figures/Grid.ts&#45;&gt;figures/AbstractFigure.ts -->
<g id="edge53" class="edge">
<title>figures/Grid.ts&#45;&gt;figures/AbstractFigure.ts</title>
<path fill="none" stroke="#757575" d="M1022.54,-1350.66C1039.19,-1348.19 1056.32,-1342.38 1068,-1330 1106.22,-1289.49 1092.79,-1136.55 1104,-1082 1127.25,-968.86 1166.77,-836.14 1182.38,-785.29"/>
<polygon fill="#757575" stroke="#757575" points="1185.73,-786.31 1185.33,-775.72 1179.04,-784.24 1185.73,-786.31"/>
</g>
<!-- figures/Line.ts&#45;&gt;Calculus.ts -->
<g id="edge55" class="edge">
<title>figures/Line.ts&#45;&gt;Calculus.ts</title>
<path fill="none" stroke="#757575" d="M974.67,-507.56C1001.17,-581.06 1146.12,-983.08 1181.3,-1080.66"/>
<polygon fill="#757575" stroke="#757575" points="1178.1,-1082.09 1184.79,-1090.31 1184.69,-1079.72 1178.1,-1082.09"/>
</g>
<!-- figures/Line.ts&#45;&gt;pidraw.common.ts -->
<g id="edge57" class="edge">
<title>figures/Line.ts&#45;&gt;pidraw.common.ts</title>
<path fill="none" stroke="#757575" d="M1009.42,-484.47C1094.9,-461.75 1300.9,-421.64 1420,-522 1484.7,-576.52 1512.49,-854.29 1519.28,-934.99"/>
<polygon fill="#757575" stroke="#757575" points="1515.83,-935.73 1520.13,-945.41 1522.81,-935.16 1515.83,-935.73"/>
</g>
<!-- figures/Line.ts&#45;&gt;figures/AbstractFigure.ts -->
<g id="edge56" class="edge">
<title>figures/Line.ts&#45;&gt;figures/AbstractFigure.ts</title>
<path fill="none" stroke="#757575" d="M982.75,-507.76C1001.78,-526.26 1039.24,-563.61 1068,-598 1110.06,-648.3 1154.11,-711.97 1175.61,-743.86"/>
<polygon fill="#757575" stroke="#757575" points="1172.81,-745.98 1181.29,-752.33 1178.62,-742.08 1172.81,-745.98"/>
</g>
<!-- figures/Parametric.ts&#45;&gt;Calculus.ts -->
<g id="edge58" class="edge">
<title>figures/Parametric.ts&#45;&gt;Calculus.ts</title>
<path fill="none" stroke="#757575" d="M1043.06,-1257.6C1052.25,-1253.84 1060.91,-1248.78 1068,-1242 1106.41,-1205.29 1066.26,-1165.4 1104,-1128 1113,-1119.09 1124.96,-1113.22 1137.06,-1109.35"/>
<polygon fill="#757575" stroke="#757575" points="1138.04,-1112.71 1146.74,-1106.67 1136.17,-1105.97 1138.04,-1112.71"/>
</g>
<!-- figures/Parametric.ts&#45;&gt;pidraw.common.ts -->
<g id="edge60" class="edge">
<title>figures/Parametric.ts&#45;&gt;pidraw.common.ts</title>
<path fill="none" stroke="#757575" d="M982.24,-1256.29C1004.2,-1235.05 1053.8,-1190.17 1104,-1166 1234.44,-1103.2 1298.72,-1166.05 1420,-1087 1462.81,-1059.1 1495.09,-1006.76 1510.66,-977.73"/>
<polygon fill="#757575" stroke="#757575" points="1513.77,-979.33 1515.29,-968.85 1507.57,-976.09 1513.77,-979.33"/>
</g>
<!-- figures/Parametric.ts&#45;&gt;figures/AbstractFigure.ts -->
<g id="edge59" class="edge">
<title>figures/Parametric.ts&#45;&gt;figures/AbstractFigure.ts</title>
<path fill="none" stroke="#757575" d="M985.31,-1256.44C1006.62,-1239.05 1045.8,-1204.1 1068,-1166 1107.62,-1098.02 1166.48,-858.74 1183.94,-785.48"/>
<polygon fill="#757575" stroke="#757575" points="1187.39,-786.09 1186.3,-775.56 1180.58,-784.48 1187.39,-786.09"/>
</g>
<!-- figures/Plot.ts&#45;&gt;Calculus.ts -->
<g id="edge61" class="edge">
<title>figures/Plot.ts&#45;&gt;Calculus.ts</title>
<path fill="none" stroke="#757575" d="M1021.73,-1109.66C1056.25,-1108.08 1101.66,-1106 1136.46,-1104.4"/>
<polygon fill="#757575" stroke="#757575" points="1137.06,-1107.88 1146.89,-1103.93 1136.74,-1100.89 1137.06,-1107.88"/>
</g>
<!-- figures/Plot.ts&#45;&gt;pidraw.common.ts -->
<g id="edge63" class="edge">
<title>figures/Plot.ts&#45;&gt;pidraw.common.ts</title>
<path fill="none" stroke="#757575" d="M1021.86,-1100.43C1138.82,-1074.09 1415.27,-1011.75 1420,-1010 1445.98,-1000.42 1473.72,-985.49 1493.54,-973.91"/>
<polygon fill="#757575" stroke="#757575" points="1495.51,-976.82 1502.32,-968.7 1491.94,-970.8 1495.51,-976.82"/>
</g>
<!-- figures/Plot.ts&#45;&gt;figures/AbstractFigure.ts -->
<g id="edge62" class="edge">
<title>figures/Plot.ts&#45;&gt;figures/AbstractFigure.ts</title>
<path fill="none" stroke="#757575" d="M977.77,-1100.42C1009.46,-1049.95 1135.75,-848.81 1176.35,-784.14"/>
<polygon fill="#757575" stroke="#757575" points="1179.35,-785.95 1181.7,-775.62 1173.42,-782.23 1179.35,-785.95"/>
</g>
<!-- figures/Point.ts&#45;&gt;Calculus.ts -->
<g id="edge64" class="edge">
<title>figures/Point.ts&#45;&gt;Calculus.ts</title>
<path fill="none" stroke="#757575" d="M757.36,-589.61C775.11,-612.21 813.78,-664.24 835,-714 861.72,-776.67 825.52,-812.28 871,-863 933.13,-932.29 993.7,-877.95 1068,-934 1121.8,-974.58 1161.7,-1045.84 1179.2,-1081.06"/>
<polygon fill="#757575" stroke="#757575" points="1176.21,-1082.91 1183.72,-1090.38 1182.5,-1079.86 1176.21,-1082.91"/>
</g>
<!-- figures/Point.ts&#45;&gt;pidraw.common.ts -->
<g id="edge67" class="edge">
<title>figures/Point.ts&#45;&gt;pidraw.common.ts</title>
<path fill="none" stroke="#757575" d="M757.7,-566.25C776.77,-544.12 821.59,-496.62 871,-476 1096.22,-382.01 1237.45,-303.03 1420,-465 1492.02,-528.9 1514.94,-848.63 1519.88,-935.3"/>
<polygon fill="#757575" stroke="#757575" points="1516.39,-935.52 1520.43,-945.31 1523.38,-935.14 1516.39,-935.52"/>
</g>
<!-- figures/Point.ts&#45;&gt;figures/AbstractFigure.ts -->
<g id="edge65" class="edge">
<title>figures/Point.ts&#45;&gt;figures/AbstractFigure.ts</title>
<path fill="none" stroke="#757575" d="M802.62,-577.74C869.18,-579.62 983.23,-590.08 1068,-636 1116.53,-662.28 1156.77,-715.12 1176.29,-744.01"/>
<polygon fill="#757575" stroke="#757575" points="1173.45,-746.07 1181.88,-752.49 1179.29,-742.21 1173.45,-746.07"/>
</g>
<!-- figures/Point.ts&#45;&gt;figures/Line.ts -->
<g id="edge66" class="edge">
<title>figures/Point.ts&#45;&gt;figures/Line.ts</title>
<path fill="none" stroke="#757575" d="M799.07,-566.49C811.22,-562.74 823.89,-557.96 835,-552 853.35,-542.15 852.5,-531.57 871,-522 882.05,-516.28 894.47,-511.73 906.65,-508.15"/>
<polygon fill="#757575" stroke="#757575" points="907.63,-511.51 916.34,-505.48 905.77,-504.76 907.63,-511.51"/>
</g>
<!-- figures/Polygon.ts&#45;&gt;Calculus.ts -->
<g id="edge68" class="edge">
<title>figures/Polygon.ts&#45;&gt;Calculus.ts</title>
<path fill="none" stroke="#757575" d="M993.84,-853.52C1014.99,-864.79 1046.12,-883.5 1068,-906 1121.24,-960.74 1162.37,-1042.86 1179.84,-1081.06"/>
<polygon fill="#757575" stroke="#757575" points="1176.66,-1082.52 1183.95,-1090.2 1183.04,-1079.65 1176.66,-1082.52"/>
</g>
<!-- figures/Polygon.ts&#45;&gt;pidraw.common.ts -->
<g id="edge70" class="edge">
<title>figures/Polygon.ts&#45;&gt;pidraw.common.ts</title>
<path fill="none" stroke="#757575" d="M1035.08,-852.88C1046.08,-854.84 1057.38,-856.93 1068,-859 1209.3,-886.59 1374.36,-923.48 1460.95,-943.2"/>
<polygon fill="#757575" stroke="#757575" points="1460.33,-946.65 1470.86,-945.46 1461.89,-939.82 1460.33,-946.65"/>
</g>
<!-- figures/Polygon.ts&#45;&gt;figures/AbstractFigure.ts -->
<g id="edge69" class="edge">
<title>figures/Polygon.ts&#45;&gt;figures/AbstractFigure.ts</title>
<path fill="none" stroke="#757575" d="M1019.52,-830.41C1035.16,-826.32 1052.44,-821.39 1068,-816 1098.19,-805.55 1131.48,-791.01 1155.48,-779.96"/>
<polygon fill="#757575" stroke="#757575" points="1157.25,-783 1164.85,-775.62 1154.3,-776.66 1157.25,-783"/>
</g>
<!-- figures/Riemann.ts&#45;&gt;Calculus.ts -->
<g id="edge71" class="edge">
<title>figures/Riemann.ts&#45;&gt;Calculus.ts</title>
<path fill="none" stroke="#757575" d="M809.98,-1095.51C818.59,-1098.09 827.16,-1101.22 835,-1105 853.26,-1113.8 851.83,-1126.42 871,-1133 953.82,-1161.41 981.13,-1143.95 1068,-1133 1093.58,-1129.77 1121.5,-1122.86 1144.07,-1116.37"/>
<polygon fill="#757575" stroke="#757575" points="1145.11,-1119.72 1153.72,-1113.54 1143.13,-1113 1145.11,-1119.72"/>
</g>
<!-- figures/Riemann.ts&#45;&gt;pidraw.common.ts -->
<g id="edge74" class="edge">
<title>figures/Riemann.ts&#45;&gt;pidraw.common.ts</title>
<path fill="none" stroke="#757575" d="M814.62,-1090.86C822.34,-1094.16 829.43,-1098.72 835,-1105 880.57,-1156.4 819.68,-1366.35 871,-1412 1005.7,-1531.83 1101.83,-1435.57 1276,-1389 1343.49,-1370.96 1374.32,-1378.85 1420,-1326 1510.98,-1220.75 1520.69,-1040.7 1521.22,-978.71"/>
<polygon fill="#757575" stroke="#757575" points="1524.72,-978.56 1521.23,-968.56 1517.72,-978.56 1524.72,-978.56"/>
</g>
<!-- figures/Riemann.ts&#45;&gt;figures/AbstractFigure.ts -->
<g id="edge72" class="edge">
<title>figures/Riemann.ts&#45;&gt;figures/AbstractFigure.ts</title>
<path fill="none" stroke="#757575" d="M766.05,-1072.28C815.35,-1040.11 956.05,-947.23 1068,-863 1103.89,-835.99 1143.94,-802.53 1167.78,-782.25"/>
<polygon fill="#757575" stroke="#757575" points="1170.17,-784.81 1175.5,-775.65 1165.62,-779.49 1170.17,-784.81"/>
</g>
<!-- figures/Riemann.ts&#45;&gt;figures/Plot.ts -->
<g id="edge73" class="edge">
<title>figures/Riemann.ts&#45;&gt;figures/Plot.ts</title>
<path fill="none" stroke="#757575" d="M814.76,-1092.48C844.24,-1096.22 878.66,-1100.59 907.45,-1104.25"/>
<polygon fill="#757575" stroke="#757575" points="907.02,-1107.72 917.38,-1105.51 907.9,-1100.78 907.02,-1107.72"/>
</g>
<!-- Parser.ts -->
<g id="node17" class="node">
<title>Parser.ts</title>
<path fill="none" stroke="#c6c5fe" d="M167.33,-745.5C167.33,-745.5 108.67,-745.5 108.67,-745.5 104.83,-745.5 101,-741.67 101,-737.83 101,-737.83 101,-730.17 101,-730.17 101,-726.33 104.83,-722.5 108.67,-722.5 108.67,-722.5 167.33,-722.5 167.33,-722.5 171.17,-722.5 175,-726.33 175,-730.17 175,-730.17 175,-737.83 175,-737.83 175,-741.67 171.17,-745.5 167.33,-745.5"/>
<text text-anchor="middle" x="138" y="-730.3" font-family="Arial" font-size="14.00" fill="#c6c5fe">Parser.ts</text>
</g>
<!-- Parser.ts&#45;&gt;pidraw.common.ts -->
<g id="edge32" class="edge">
<title>Parser.ts&#45;&gt;pidraw.common.ts</title>
<path fill="none" stroke="#757575" d="M138.75,-745.54C137.17,-849.51 139,-1621 543,-1621 543,-1621 543,-1621 1191,-1621 1308.03,-1621 1357.68,-1590.06 1420,-1491 1475.65,-1402.54 1510.62,-1067.32 1519.03,-978.63"/>
<polygon fill="#757575" stroke="#757575" points="1522.51,-978.93 1519.96,-968.64 1515.54,-978.28 1522.51,-978.93"/>
</g>
<!-- Parser.ts&#45;&gt;Graph.ts -->
<g id="edge17" class="edge">
<title>Parser.ts&#45;&gt;Graph.ts</title>
<path fill="none" stroke="#757575" d="M140.29,-745.73C145.88,-794.55 169.7,-980.96 211,-1020 289.61,-1094.31 427.09,-1094.8 497.95,-1089.24"/>
<polygon fill="#757575" stroke="#757575" points="498.65,-1092.69 508.32,-1088.35 498.05,-1085.72 498.65,-1092.69"/>
</g>
<!-- Parser.ts&#45;&gt;figures/AbstractFigure.ts -->
<g id="edge18" class="edge">
<title>Parser.ts&#45;&gt;figures/AbstractFigure.ts</title>
<path fill="none" stroke="#757575" d="M139.44,-722.34C142.16,-654.26 158.43,-308.02 211,-218 300.02,-65.57 366.48,0 543,0 543,0 543,0 748,0 911.18,0 971.69,-48.28 1068,-180 1136.12,-273.17 1177.36,-646.96 1186.88,-741.96"/>
<polygon fill="#757575" stroke="#757575" points="1183.41,-742.51 1187.88,-752.12 1190.38,-741.83 1183.41,-742.51"/>
</g>
<!-- Parser.ts&#45;&gt;figures/Arc.ts -->
<g id="edge19" class="edge">
<title>Parser.ts&#45;&gt;figures/Arc.ts</title>
<path fill="none" stroke="#757575" d="M139.51,-745.56C142.37,-806.14 158.34,-1086.62 211,-1152 382.85,-1365.35 761.76,-1338.39 908.66,-1318.62"/>
<polygon fill="#757575" stroke="#757575" points="909.41,-1322.05 918.83,-1317.21 908.45,-1315.11 909.41,-1322.05"/>
</g>
<!-- Parser.ts&#45;&gt;figures/Circle.ts -->
<g id="edge20" class="edge">
<title>Parser.ts&#45;&gt;figures/Circle.ts</title>
<path fill="none" stroke="#757575" d="M175.15,-734C274.05,-734 550.24,-734 678.7,-734"/>
<polygon fill="#757575" stroke="#757575" points="678.81,-737.5 688.81,-734 678.81,-730.5 678.81,-737.5"/>
</g>
<!-- Parser.ts&#45;&gt;figures/Parametric.ts -->
<g id="edge21" class="edge">
<title>Parser.ts&#45;&gt;figures/Parametric.ts</title>
<path fill="none" stroke="#757575" d="M139.99,-745.7C144.73,-799.07 166.73,-1019.01 211,-1069 385.2,-1265.74 728.08,-1278.85 885.69,-1273.45"/>
<polygon fill="#757575" stroke="#757575" points="885.94,-1276.95 895.8,-1273.07 885.67,-1269.95 885.94,-1276.95"/>
</g>
<!-- Parser.ts&#45;&gt;figures/Plot.ts -->
<g id="edge22" class="edge">
<title>Parser.ts&#45;&gt;figures/Plot.ts</title>
<path fill="none" stroke="#757575" d="M147.58,-745.5C160,-761.46 184.43,-790.34 211,-808 389.15,-926.43 458.91,-908.33 659,-984 736.85,-1013.44 763.84,-1004.82 835,-1048 853.56,-1059.26 852.22,-1070.12 871,-1081 882.45,-1087.63 895.5,-1093.03 908.24,-1097.35"/>
<polygon fill="#757575" stroke="#757575" points="907.3,-1100.72 917.89,-1100.45 909.44,-1094.06 907.3,-1100.72"/>
</g>
<!-- Parser.ts&#45;&gt;figures/Point.ts -->
<g id="edge23" class="edge">
<title>Parser.ts&#45;&gt;figures/Point.ts</title>
<path fill="none" stroke="#757575" d="M145.21,-722.36C155.94,-703.48 179.83,-666.44 211,-648 360.82,-559.4 575.01,-562.54 681.19,-570.92"/>
<polygon fill="#757575" stroke="#757575" points="681.18,-574.43 691.43,-571.77 681.76,-567.45 681.18,-574.43"/>
</g>
<!-- Parser.ts&#45;&gt;labels/Label.ts -->
<g id="edge24" class="edge">
<title>Parser.ts&#45;&gt;labels/Label.ts</title>
<path fill="none" stroke="#757575" d="M139.7,-745.83C143.48,-806.59 163.11,-1083.28 211,-1152 342.49,-1340.7 440.91,-1337.97 659,-1411 831.72,-1468.83 892.51,-1485.79 1068,-1437 1182.94,-1405.04 1297.9,-1315.3 1343.97,-1276.39"/>
<polygon fill="#757575" stroke="#757575" points="1346.43,-1278.89 1351.76,-1269.74 1341.88,-1273.57 1346.43,-1278.89"/>
</g>
<!-- parser/buildCircle.ts -->
<g id="node19" class="node">
<title>parser/buildCircle.ts</title>
<path fill="none" stroke="#c6c5fe" d="M607.83,-629.5C607.83,-629.5 480.17,-629.5 480.17,-629.5 476.33,-629.5 472.5,-625.67 472.5,-621.83 472.5,-621.83 472.5,-614.17 472.5,-614.17 472.5,-610.33 476.33,-606.5 480.17,-606.5 480.17,-606.5 607.83,-606.5 607.83,-606.5 611.67,-606.5 615.5,-610.33 615.5,-614.17 615.5,-614.17 615.5,-621.83 615.5,-621.83 615.5,-625.67 611.67,-629.5 607.83,-629.5"/>
<text text-anchor="middle" x="544" y="-614.3" font-family="Arial" font-size="14.00" fill="#c6c5fe">parser/buildCircle.ts</text>
</g>
<!-- Parser.ts&#45;&gt;parser/buildCircle.ts -->
<g id="edge25" class="edge">
<title>Parser.ts&#45;&gt;parser/buildCircle.ts</title>
<path fill="none" stroke="#757575" d="M175.21,-723.6C247.7,-702.79 410.75,-655.97 493.22,-632.29"/>
<polygon fill="#757575" stroke="#757575" points="494.22,-635.65 502.87,-629.52 492.29,-628.92 494.22,-635.65"/>
</g>
<!-- parser/buildLine.ts -->
<g id="node20" class="node">
<title>parser/buildLine.ts</title>
<path fill="none" stroke="#c6c5fe" d="M602.83,-530.5C602.83,-530.5 485.17,-530.5 485.17,-530.5 481.33,-530.5 477.5,-526.67 477.5,-522.83 477.5,-522.83 477.5,-515.17 477.5,-515.17 477.5,-511.33 481.33,-507.5 485.17,-507.5 485.17,-507.5 602.83,-507.5 602.83,-507.5 606.67,-507.5 610.5,-511.33 610.5,-515.17 610.5,-515.17 610.5,-522.83 610.5,-522.83 610.5,-526.67 606.67,-530.5 602.83,-530.5"/>
<text text-anchor="middle" x="544" y="-515.3" font-family="Arial" font-size="14.00" fill="#c6c5fe">parser/buildLine.ts</text>
</g>
<!-- Parser.ts&#45;&gt;parser/buildLine.ts -->
<g id="edge26" class="edge">
<title>Parser.ts&#45;&gt;parser/buildLine.ts</title>
<path fill="none" stroke="#757575" d="M140.11,-722.13C143.74,-690.57 158.28,-604.28 211,-564 284.28,-508.01 394.13,-504.11 467.15,-509.26"/>
<polygon fill="#757575" stroke="#757575" points="466.96,-512.75 477.2,-510.04 467.5,-505.77 466.96,-512.75"/>
</g>
<!-- parser/buildPlot.ts -->
<g id="node21" class="node">
<title>parser/buildPlot.ts</title>
<path fill="none" stroke="#c6c5fe" d="M601.83,-881.5C601.83,-881.5 486.17,-881.5 486.17,-881.5 482.33,-881.5 478.5,-877.67 478.5,-873.83 478.5,-873.83 478.5,-866.17 478.5,-866.17 478.5,-862.33 482.33,-858.5 486.17,-858.5 486.17,-858.5 601.83,-858.5 601.83,-858.5 605.67,-858.5 609.5,-862.33 609.5,-866.17 609.5,-866.17 609.5,-873.83 609.5,-873.83 609.5,-877.67 605.67,-881.5 601.83,-881.5"/>
<text text-anchor="middle" x="544" y="-866.3" font-family="Arial" font-size="14.00" fill="#c6c5fe">parser/buildPlot.ts</text>
</g>
<!-- Parser.ts&#45;&gt;parser/buildPlot.ts -->
<g id="edge27" class="edge">
<title>Parser.ts&#45;&gt;parser/buildPlot.ts</title>
<path fill="none" stroke="#757575" d="M173.44,-745.6C246.64,-770.24 417.59,-827.78 498.74,-855.1"/>
<polygon fill="#757575" stroke="#757575" points="498.05,-858.56 508.64,-858.43 500.28,-851.93 498.05,-858.56"/>
</g>
<!-- parser/buildPoint.ts -->
<g id="node22" class="node">
<title>parser/buildPoint.ts</title>
<path fill="none" stroke="#c6c5fe" d="M605.33,-260.5C605.33,-260.5 482.67,-260.5 482.67,-260.5 478.83,-260.5 475,-256.67 475,-252.83 475,-252.83 475,-245.17 475,-245.17 475,-241.33 478.83,-237.5 482.67,-237.5 482.67,-237.5 605.33,-237.5 605.33,-237.5 609.17,-237.5 613,-241.33 613,-245.17 613,-245.17 613,-252.83 613,-252.83 613,-256.67 609.17,-260.5 605.33,-260.5"/>
<text text-anchor="middle" x="544" y="-245.3" font-family="Arial" font-size="14.00" fill="#c6c5fe">parser/buildPoint.ts</text>
</g>
<!-- Parser.ts&#45;&gt;parser/buildPoint.ts -->
<g id="edge28" class="edge">
<title>Parser.ts&#45;&gt;parser/buildPoint.ts</title>
<path fill="none" stroke="#757575" d="M138.97,-722.28C139.07,-656.91 143.07,-337.87 211,-275 286.48,-205.15 417.36,-219.82 490.21,-235.27"/>
<polygon fill="#757575" stroke="#757575" points="489.57,-238.72 500.09,-237.45 491.08,-231.88 489.57,-238.72"/>
</g>
<!-- parser/buildPolygon.ts -->
<g id="node23" class="node">
<title>parser/buildPolygon.ts</title>
<path fill="none" stroke="#c6c5fe" d="M615.33,-340.5C615.33,-340.5 472.67,-340.5 472.67,-340.5 468.83,-340.5 465,-336.67 465,-332.83 465,-332.83 465,-325.17 465,-325.17 465,-321.33 468.83,-317.5 472.67,-317.5 472.67,-317.5 615.33,-317.5 615.33,-317.5 619.17,-317.5 623,-321.33 623,-325.17 623,-325.17 623,-332.83 623,-332.83 623,-336.67 619.17,-340.5 615.33,-340.5"/>
<text text-anchor="middle" x="544" y="-325.3" font-family="Arial" font-size="14.00" fill="#c6c5fe">parser/buildPolygon.ts</text>
</g>
<!-- Parser.ts&#45;&gt;parser/buildPolygon.ts -->
<g id="edge29" class="edge">
<title>Parser.ts&#45;&gt;parser/buildPolygon.ts</title>
<path fill="none" stroke="#757575" d="M139.7,-722.45C143.26,-667.74 161.18,-435.27 211,-387 274.82,-325.17 379.74,-316.29 454.56,-319.29"/>
<polygon fill="#757575" stroke="#757575" points="454.75,-322.8 464.9,-319.79 455.08,-315.81 454.75,-322.8"/>
</g>
<!-- parser/parser.common.ts -->
<g id="node24" class="node">
<title>parser/parser.common.ts</title>
<path fill="none" stroke="#c6c5fe" d="M827.33,-319.5C827.33,-319.5 666.67,-319.5 666.67,-319.5 662.83,-319.5 659,-315.67 659,-311.83 659,-311.83 659,-304.17 659,-304.17 659,-300.33 662.83,-296.5 666.67,-296.5 666.67,-296.5 827.33,-296.5 827.33,-296.5 831.17,-296.5 835,-300.33 835,-304.17 835,-304.17 835,-311.83 835,-311.83 835,-315.67 831.17,-319.5 827.33,-319.5"/>
<text text-anchor="middle" x="747" y="-304.3" font-family="Arial" font-size="14.00" fill="#c6c5fe">parser/parser.common.ts</text>
</g>
<!-- Parser.ts&#45;&gt;parser/parser.common.ts -->
<g id="edge30" class="edge">
<title>Parser.ts&#45;&gt;parser/parser.common.ts</title>
<path fill="none" stroke="#757575" d="M139.1,-722.41C139.87,-660.45 146.92,-369.12 211,-314 274.94,-259.01 517.33,-279.01 652.86,-295.28"/>
<polygon fill="#757575" stroke="#757575" points="652.48,-298.76 662.83,-296.5 653.33,-291.82 652.48,-298.76"/>
</g>
<!-- parser/parser_documentation.ts -->
<g id="node25" class="node">
<title>parser/parser_documentation.ts</title>
<path fill="none" stroke="#c6c5fe" d="M421.33,-418.5C421.33,-418.5 218.67,-418.5 218.67,-418.5 214.83,-418.5 211,-414.67 211,-410.83 211,-410.83 211,-403.17 211,-403.17 211,-399.33 214.83,-395.5 218.67,-395.5 218.67,-395.5 421.33,-395.5 421.33,-395.5 425.17,-395.5 429,-399.33 429,-403.17 429,-403.17 429,-410.83 429,-410.83 429,-414.67 425.17,-418.5 421.33,-418.5"/>
<text text-anchor="middle" x="320" y="-403.3" font-family="Arial" font-size="14.00" fill="#c6c5fe">parser/parser_documentation.ts</text>
</g>
<!-- Parser.ts&#45;&gt;parser/parser_documentation.ts -->
<g id="edge31" class="edge">
<title>Parser.ts&#45;&gt;parser/parser_documentation.ts</title>
<path fill="none" stroke="#757575" d="M140.9,-722.33C146.83,-688.34 167.26,-587.36 211,-516 233.67,-479.02 271.18,-444.99 295.49,-425.12"/>
<polygon fill="#757575" stroke="#757575" points="297.89,-427.68 303.5,-418.7 293.51,-422.22 297.89,-427.68"/>
</g>
<!-- labels/Label.ts&#45;&gt;pidraw.common.ts -->
<g id="edge77" class="edge">
<title>labels/Label.ts&#45;&gt;pidraw.common.ts</title>
<path fill="none" stroke="#757575" d="M1400.48,-1246.38C1407.64,-1242.67 1414.65,-1237.94 1420,-1232 1488.52,-1155.94 1511.73,-1029.49 1518.52,-978.9"/>
<polygon fill="#757575" stroke="#757575" points="1522.02,-979.14 1519.79,-968.78 1515.07,-978.26 1522.02,-979.14"/>
</g>
<!-- parser/buildCircle.ts&#45;&gt;pidraw.common.ts -->
<g id="edge83" class="edge">
<title>parser/buildCircle.ts&#45;&gt;pidraw.common.ts</title>
<path fill="none" stroke="#757575" d="M565.63,-606.42C623.92,-573.51 788.57,-479.2 835,-438 854.16,-421 848.57,-405.36 871,-393 1084.71,-275.25 1245.93,-219.01 1420,-390 1499.51,-468.1 1517.13,-840.17 1520.36,-934.98"/>
<polygon fill="#757575" stroke="#757575" points="1516.87,-935.24 1520.69,-945.13 1523.86,-935.02 1516.87,-935.24"/>
</g>
<!-- parser/buildCircle.ts&#45;&gt;figures/AbstractFigure.ts -->
<g id="edge78" class="edge">
<title>parser/buildCircle.ts&#45;&gt;figures/AbstractFigure.ts</title>
<path fill="none" stroke="#757575" d="M615.73,-621.37C717.95,-627.91 911.84,-646.68 1068,-699 1102.89,-710.69 1139.67,-731.9 1163.4,-746.91"/>
<polygon fill="#757575" stroke="#757575" points="1161.51,-749.86 1171.82,-752.32 1165.3,-743.97 1161.51,-749.86"/>
</g>
<!-- parser/buildCircle.ts&#45;&gt;figures/Arc.ts -->
<g id="edge79" class="edge">
<title>parser/buildCircle.ts&#45;&gt;figures/Arc.ts</title>
<path fill="none" stroke="#757575" d="M549.94,-629.83C563.81,-663.56 603.39,-763.38 623,-850 652.27,-979.25 587.63,-1034.33 659,-1146 708.55,-1223.53 762.07,-1198.9 835,-1255 852.44,-1268.42 851.47,-1278.85 871,-1289 882.67,-1295.07 896.01,-1299.29 909.01,-1302.24"/>
<polygon fill="#757575" stroke="#757575" points="908.35,-1305.68 918.85,-1304.25 909.75,-1298.82 908.35,-1305.68"/>
</g>
<!-- parser/buildCircle.ts&#45;&gt;figures/Circle.ts -->
<g id="edge80" class="edge">
<title>parser/buildCircle.ts&#45;&gt;figures/Circle.ts</title>
<path fill="none" stroke="#757575" d="M565.01,-629.55C600.73,-650.16 675.62,-693.39 717,-717.26"/>
<polygon fill="#757575" stroke="#757575" points="715.36,-720.36 725.78,-722.33 718.86,-714.3 715.36,-720.36"/>
</g>
<!-- parser/buildCircle.ts&#45;&gt;figures/Point.ts -->
<g id="edge81" class="edge">
<title>parser/buildCircle.ts&#45;&gt;figures/Point.ts</title>
<path fill="none" stroke="#757575" d="M602.87,-606.48C627.44,-601.59 656.19,-595.87 681.44,-590.85"/>
<polygon fill="#757575" stroke="#757575" points="682.18,-594.27 691.3,-588.89 680.81,-587.4 682.18,-594.27"/>
</g>
<!-- parser/buildCircle.ts&#45;&gt;parser/parser.common.ts -->
<g id="edge82" class="edge">
<title>parser/buildCircle.ts&#45;&gt;parser/parser.common.ts</title>
<path fill="none" stroke="#757575" d="M559.76,-606.48C576.97,-592.4 605.29,-567.09 623,-540 647.03,-503.25 639.33,-487.26 659,-448 681.36,-403.37 713.64,-354.56 731.94,-327.99"/>
<polygon fill="#757575" stroke="#757575" points="734.97,-329.77 737.79,-319.56 729.22,-325.78 734.97,-329.77"/>
</g>
<!-- parser/buildLine.ts&#45;&gt;Calculus.ts -->
<g id="edge84" class="edge">
<title>parser/buildLine.ts&#45;&gt;Calculus.ts</title>
<path fill="none" stroke="#757575" d="M560.79,-530.53C578.69,-544.46 607.41,-569.62 623,-598 657.46,-660.75 622.18,-693.61 659,-755 712.32,-843.88 773.75,-824.39 835,-908 858.76,-940.44 840.81,-964.44 871,-991 939.43,-1051.21 982.4,-1016.69 1068,-1048 1098.71,-1059.23 1132.61,-1074.64 1156.7,-1086.12"/>
<polygon fill="#757575" stroke="#757575" points="1155.22,-1089.29 1165.75,-1090.47 1158.25,-1082.98 1155.22,-1089.29"/>
</g>
<!-- parser/buildLine.ts&#45;&gt;pidraw.common.ts -->
<g id="edge89" class="edge">
<title>parser/buildLine.ts&#45;&gt;pidraw.common.ts</title>
<path fill="none" stroke="#757575" d="M560.64,-507.41C582.41,-491.39 623.2,-461.77 659,-438 735.65,-387.11 760.8,-383.41 835,-329 852.03,-316.51 851.54,-306.19 871,-298 1095.95,-203.35 1252.46,-131.55 1420,-309 1508.06,-402.26 1519.35,-833.28 1520.79,-935.31"/>
<polygon fill="#757575" stroke="#757575" points="1517.29,-935.4 1520.91,-945.36 1524.29,-935.32 1517.29,-935.4"/>
</g>
<!-- parser/buildLine.ts&#45;&gt;figures/AbstractFigure.ts -->
<g id="edge85" class="edge">
<title>parser/buildLine.ts&#45;&gt;figures/AbstractFigure.ts</title>
<path fill="none" stroke="#757575" d="M593.91,-507.46C708.64,-481.57 991.17,-424.95 1068,-476 1160.97,-537.78 1182.66,-686.38 1187.59,-742.26"/>
<polygon fill="#757575" stroke="#757575" points="1184.12,-742.74 1188.39,-752.43 1191.1,-742.19 1184.12,-742.74"/>
</g>
<!-- parser/buildLine.ts&#45;&gt;figures/Line.ts -->
<g id="edge86" class="edge">
<title>parser/buildLine.ts&#45;&gt;figures/Line.ts</title>
<path fill="none" stroke="#757575" d="M610.75,-520.05C669.6,-520.47 758.18,-519.82 835,-514 858.36,-512.23 883.87,-509.09 906.28,-505.92"/>
<polygon fill="#757575" stroke="#757575" points="906.95,-509.36 916.34,-504.47 905.94,-502.43 906.95,-509.36"/>
</g>
<!-- parser/buildLine.ts&#45;&gt;figures/Point.ts -->
<g id="edge87" class="edge">
<title>parser/buildLine.ts&#45;&gt;figures/Point.ts</title>
<path fill="none" stroke="#757575" d="M584.23,-530.52C616.36,-539.95 662,-553.34 696.62,-563.51"/>
<polygon fill="#757575" stroke="#757575" points="695.94,-566.95 706.52,-566.41 697.91,-560.24 695.94,-566.95"/>
</g>
<!-- parser/buildLine.ts&#45;&gt;parser/parser.common.ts -->
<g id="edge88" class="edge">
<title>parser/buildLine.ts&#45;&gt;parser/parser.common.ts</title>
<path fill="none" stroke="#757575" d="M556.09,-507.36C589.11,-472.7 686.96,-369.97 727.79,-327.12"/>
<polygon fill="#757575" stroke="#757575" points="730.58,-329.26 734.94,-319.61 725.51,-324.44 730.58,-329.26"/>
</g>
<!-- parser/buildPlot.ts&#45;&gt;pidraw.common.ts -->
<g id="edge97" class="edge">
<title>parser/buildPlot.ts&#45;&gt;pidraw.common.ts</title>
<path fill="none" stroke="#757575" d="M549.76,-858.12C562.43,-828.18 600.11,-749.5 659,-714 894,-572.35 1007.81,-633.98 1276,-692 1343.44,-706.59 1369.51,-702.98 1420,-750 1476.68,-802.79 1505.41,-894.19 1516.04,-935.56"/>
<polygon fill="#757575" stroke="#757575" points="1512.67,-936.52 1518.46,-945.39 1519.46,-934.84 1512.67,-936.52"/>
</g>
<!-- parser/buildPlot.ts&#45;&gt;figures/AbstractFigure.ts -->
<g id="edge90" class="edge">
<title>parser/buildPlot.ts&#45;&gt;figures/AbstractFigure.ts</title>
<path fill="none" stroke="#757575" d="M567.93,-858.32C620.07,-832.5 752.25,-771.16 871,-750 957.2,-734.64 980.59,-744.96 1068,-750 1076.35,-750.48 1085,-751.15 1093.67,-751.93"/>
<polygon fill="#757575" stroke="#757575" points="1093.54,-755.43 1103.83,-752.9 1094.21,-748.47 1093.54,-755.43"/>
</g>
<!-- parser/buildPlot.ts&#45;&gt;figures/FillBetween.ts -->
<g id="edge91" class="edge">
<title>parser/buildPlot.ts&#45;&gt;figures/FillBetween.ts</title>
<path fill="none" stroke="#757575" d="M549.13,-881.66C564.6,-924.76 620.25,-1074.14 659,-1105 660.42,-1106.13 661.89,-1107.2 663.4,-1108.2"/>
<polygon fill="#757575" stroke="#757575" points="662.07,-1111.48 672.5,-1113.37 665.53,-1105.39 662.07,-1111.48"/>
</g>
<!-- parser/buildPlot.ts&#45;&gt;figures/Follow.ts -->
<g id="edge92" class="edge">
<title>parser/buildPlot.ts&#45;&gt;figures/Follow.ts</title>
<path fill="none" stroke="#757575" d="M585.19,-881.6C617.1,-890.8 661.88,-903.73 696.08,-913.6"/>
<polygon fill="#757575" stroke="#757575" points="695.3,-917.01 705.88,-916.42 697.24,-910.29 695.3,-917.01"/>
</g>
<!-- parser/buildPlot.ts&#45;&gt;figures/Parametric.ts -->
<g id="edge93" class="edge">
<title>parser/buildPlot.ts&#45;&gt;figures/Parametric.ts</title>
<path fill="none" stroke="#757575" d="M549.63,-881.64C570.31,-933.54 653.37,-1141.42 659,-1146 720.77,-1196.18 761.29,-1148.99 835,-1179 878.34,-1196.65 922.3,-1229.46 947.39,-1249.94"/>
<polygon fill="#757575" stroke="#757575" points="945.21,-1252.68 955.15,-1256.37 949.68,-1247.29 945.21,-1252.68"/>
</g>
<!-- parser/buildPlot.ts&#45;&gt;figures/Plot.ts -->
<g id="edge94" class="edge">
<title>parser/buildPlot.ts&#45;&gt;figures/Plot.ts</title>
<path fill="none" stroke="#757575" d="M558.39,-881.76C578.72,-899.03 619.25,-931.12 659,-949 732.43,-982.04 774.09,-939.33 835,-992 867.27,-1019.91 839.7,-1052 871,-1081 881.22,-1090.47 894.34,-1097.05 907.61,-1101.61"/>
<polygon fill="#757575" stroke="#757575" points="906.68,-1104.99 917.27,-1104.6 908.75,-1098.3 906.68,-1104.99"/>
</g>
<!-- parser/buildPlot.ts&#45;&gt;figures/Riemann.ts -->
<g id="edge95" class="edge">
<title>parser/buildPlot.ts&#45;&gt;figures/Riemann.ts</title>
<path fill="none" stroke="#757575" d="M555.81,-881.51C588.66,-916.49 687.59,-1021.82 728.25,-1065.11"/>
<polygon fill="#757575" stroke="#757575" points="725.74,-1067.54 735.14,-1072.44 730.84,-1062.75 725.74,-1067.54"/>
</g>
<!-- parser/buildPlot.ts&#45;&gt;parser/parser.common.ts -->
<g id="edge96" class="edge">
<title>parser/buildPlot.ts&#45;&gt;parser/parser.common.ts</title>
<path fill="none" stroke="#757575" d="M549.2,-858.26C574.36,-787.91 705.21,-422.06 738.36,-329.36"/>
<polygon fill="#757575" stroke="#757575" points="741.75,-330.27 741.82,-319.67 735.16,-327.91 741.75,-330.27"/>
</g>
<!-- parser/buildPoint.ts&#45;&gt;pidraw.common.ts -->
<g id="edge102" class="edge">
<title>parser/buildPoint.ts&#45;&gt;pidraw.common.ts</title>
<path fill="none" stroke="#757575" d="M552.89,-237.49C569.54,-214.2 610.71,-161.52 659,-136 782.88,-70.52 828.38,-76 968.5,-76 968.5,-76 968.5,-76 1191,-76 1293.34,-76 1347.17,-28.11 1420,-100 1481.45,-160.66 1514.13,-807.09 1520.03,-935.06"/>
<polygon fill="#757575" stroke="#757575" points="1516.54,-935.37 1520.49,-945.2 1523.53,-935.05 1516.54,-935.37"/>
</g>
<!-- parser/buildPoint.ts&#45;&gt;figures/AbstractFigure.ts -->
<g id="edge98" class="edge">
<title>parser/buildPoint.ts&#45;&gt;figures/AbstractFigure.ts</title>
<path fill="none" stroke="#757575" d="M574.79,-237.48C662.23,-205.79 921.27,-127.52 1068,-250 1145.96,-315.07 1179.6,-652.41 1187.25,-742.09"/>
<polygon fill="#757575" stroke="#757575" points="1183.77,-742.52 1188.09,-752.19 1190.75,-741.94 1183.77,-742.52"/>
</g>
<!-- parser/buildPoint.ts&#45;&gt;figures/Line.ts -->
<g id="edge99" class="edge">
<title>parser/buildPoint.ts&#45;&gt;figures/Line.ts</title>
<path fill="none" stroke="#757575" d="M613.18,-242.7C675.68,-240.3 768.36,-245.58 835,-288 906.06,-333.24 946.64,-431.41 961.7,-474.73"/>
<polygon fill="#757575" stroke="#757575" points="958.4,-475.9 964.91,-484.27 965.04,-473.67 958.4,-475.9"/>
</g>
<!-- parser/buildPoint.ts&#45;&gt;figures/Point.ts -->
<g id="edge100" class="edge">
<title>parser/buildPoint.ts&#45;&gt;figures/Point.ts</title>
<path fill="none" stroke="#757575" d="M565.16,-260.6C582.37,-271.34 606.83,-288.68 623,-309 687.05,-389.51 726.18,-508.76 740.17,-556.8"/>
<polygon fill="#757575" stroke="#757575" points="736.81,-557.78 742.91,-566.44 743.54,-555.86 736.81,-557.78"/>
</g>
<!-- parser/buildPoint.ts&#45;&gt;parser/parser.common.ts -->
<g id="edge101" class="edge">
<title>parser/buildPoint.ts&#45;&gt;parser/parser.common.ts</title>
<path fill="none" stroke="#757575" d="M584.23,-260.52C616.36,-269.95 662,-283.34 696.62,-293.51"/>
<polygon fill="#757575" stroke="#757575" points="695.94,-296.95 706.52,-296.41 697.91,-290.24 695.94,-296.95"/>
</g>
<!-- parser/buildPolygon.ts&#45;&gt;pidraw.common.ts -->
<g id="edge107" class="edge">
<title>parser/buildPolygon.ts&#45;&gt;pidraw.common.ts</title>
<path fill="none" stroke="#757575" d="M560.36,-317.35C581.8,-301.36 622.21,-272.18 659,-251 789.37,-175.95 818.07,-114 968.5,-114 968.5,-114 968.5,-114 1191,-114 1294.03,-114 1348.3,-76.01 1420,-150 1476.46,-208.26 1512.95,-812.33 1519.82,-935.24"/>
<polygon fill="#757575" stroke="#757575" points="1516.33,-935.53 1520.38,-945.32 1523.32,-935.14 1516.33,-935.53"/>
</g>
<!-- parser/buildPolygon.ts&#45;&gt;figures/AbstractFigure.ts -->
<g id="edge103" class="edge">
<title>parser/buildPolygon.ts&#45;&gt;figures/AbstractFigure.ts</title>
<path fill="none" stroke="#757575" d="M572.33,-317.45C657.82,-283.36 923.06,-193.26 1068,-321 1133.41,-378.65 1175.37,-661.14 1186.21,-742.21"/>
<polygon fill="#757575" stroke="#757575" points="1182.76,-742.81 1187.53,-752.27 1189.7,-741.9 1182.76,-742.81"/>
</g>
<!-- parser/buildPolygon.ts&#45;&gt;figures/Point.ts -->
<g id="edge104" class="edge">
<title>parser/buildPolygon.ts&#45;&gt;figures/Point.ts</title>
<path fill="none" stroke="#757575" d="M554.43,-340.68C586.27,-380.13 690.13,-508.79 730.11,-558.32"/>
<polygon fill="#757575" stroke="#757575" points="727.59,-560.77 736.6,-566.35 733.04,-556.37 727.59,-560.77"/>
</g>
<!-- parser/buildPolygon.ts&#45;&gt;figures/Polygon.ts -->
<g id="edge105" class="edge">
<title>parser/buildPolygon.ts&#45;&gt;figures/Polygon.ts</title>
<path fill="none" stroke="#757575" d="M565.58,-340.6C617.13,-370.53 753.44,-455.24 835,-558 903.32,-644.07 946.85,-770.81 962.25,-820.71"/>
<polygon fill="#757575" stroke="#757575" points="958.94,-821.84 965.18,-830.4 965.64,-819.82 958.94,-821.84"/>
</g>
<!-- parser/buildPolygon.ts&#45;&gt;parser/parser.common.ts -->
<g id="edge106" class="edge">
<title>parser/buildPolygon.ts&#45;&gt;parser/parser.common.ts</title>
<path fill="none" stroke="#757575" d="M623.29,-320.82C631.69,-319.94 640.3,-319.04 648.88,-318.15"/>
<polygon fill="#757575" stroke="#757575" points="649.35,-321.62 658.93,-317.1 648.62,-314.66 649.35,-321.62"/>
</g>
<!-- parser/parser.common.ts&#45;&gt;pidraw.common.ts -->
<g id="edge109" class="edge">
<title>parser/parser.common.ts&#45;&gt;pidraw.common.ts</title>
<path fill="none" stroke="#757575" d="M754.36,-296.23C769.94,-268.83 812.98,-201.24 871,-176 926.94,-151.67 1374.18,-135.73 1420,-176 1478.88,-227.75 1513.33,-813.64 1519.86,-935.06"/>
<polygon fill="#757575" stroke="#757575" points="1516.38,-935.52 1520.4,-945.32 1523.37,-935.15 1516.38,-935.52"/>
</g>
<!-- parser/parser.common.ts&#45;&gt;figures/AbstractFigure.ts -->
<g id="edge108" class="edge">
<title>parser/parser.common.ts&#45;&gt;figures/AbstractFigure.ts</title>
<path fill="none" stroke="#757575" d="M835.18,-319.07C923.86,-331.07 1050.68,-350.58 1068,-366 1182.47,-467.92 1190.3,-674.38 1189.64,-742.01"/>
<polygon fill="#757575" stroke="#757575" points="1186.13,-742.24 1189.45,-752.3 1193.13,-742.37 1186.13,-742.24"/>
</g>
<!-- parser/parser_documentation.ts&#45;&gt;pidraw.common.ts -->
<g id="edge117" class="edge">
<title>parser/parser_documentation.ts&#45;&gt;pidraw.common.ts</title>
<path fill="none" stroke="#757575" d="M326.93,-395.14C359.43,-331.98 522.72,-38 746,-38 746,-38 746,-38 1191,-38 1293.09,-38 1346.62,14.98 1420,-56 1485.41,-119.27 1515.06,-803.5 1520.19,-935.15"/>
<polygon fill="#757575" stroke="#757575" points="1516.69,-935.37 1520.57,-945.23 1523.69,-935.1 1516.69,-935.37"/>
</g>
<!-- parser/parser_documentation.ts&#45;&gt;figures/AbstractFigure.ts -->
<g id="edge110" class="edge">
<title>parser/parser_documentation.ts&#45;&gt;figures/AbstractFigure.ts</title>
<path fill="none" stroke="#757575" d="M429.15,-399.49C611.31,-389.07 969.16,-378.87 1068,-451 1165.51,-522.15 1184.44,-683.15 1188.12,-741.96"/>
<polygon fill="#757575" stroke="#757575" points="1184.64,-742.5 1188.67,-752.3 1191.63,-742.13 1184.64,-742.5"/>
</g>
<!-- parser/parser_documentation.ts&#45;&gt;parser/buildCircle.ts -->
<g id="edge111" class="edge">
<title>parser/parser_documentation.ts&#45;&gt;parser/buildCircle.ts</title>
<path fill="none" stroke="#757575" d="M333.25,-418.64C369.87,-453.45 478.7,-556.88 523.45,-599.42"/>
<polygon fill="#757575" stroke="#757575" points="521.13,-602.04 530.79,-606.39 525.95,-596.96 521.13,-602.04"/>
</g>
<!-- parser/parser_documentation.ts&#45;&gt;parser/buildLine.ts -->
<g id="edge112" class="edge">
<title>parser/parser_documentation.ts&#45;&gt;parser/buildLine.ts</title>
<path fill="none" stroke="#757575" d="M343.92,-418.56C383.74,-438.65 465.76,-480.03 511.11,-502.91"/>
<polygon fill="#757575" stroke="#757575" points="509.7,-506.12 520.2,-507.5 512.85,-499.87 509.7,-506.12"/>
</g>
<!-- parser/parser_documentation.ts&#45;&gt;parser/buildPlot.ts -->
<g id="edge113" class="edge">
<title>parser/parser_documentation.ts&#45;&gt;parser/buildPlot.ts</title>
<path fill="none" stroke="#757575" d="M326.71,-418.91C356.52,-481.08 494.35,-768.54 532.94,-849.01"/>
<polygon fill="#757575" stroke="#757575" points="529.85,-850.66 537.33,-858.17 536.16,-847.64 529.85,-850.66"/>
</g>
<!-- parser/parser_documentation.ts&#45;&gt;parser/buildPoint.ts -->
<g id="edge114" class="edge">
<title>parser/parser_documentation.ts&#45;&gt;parser/buildPoint.ts</title>
<path fill="none" stroke="#757575" d="M337.32,-395.38C375.89,-367.93 472.83,-298.94 518.49,-266.44"/>
<polygon fill="#757575" stroke="#757575" points="520.53,-269.29 526.65,-260.64 516.48,-263.58 520.53,-269.29"/>
</g>
<!-- parser/parser_documentation.ts&#45;&gt;parser/buildPolygon.ts -->
<g id="edge115" class="edge">
<title>parser/parser_documentation.ts&#45;&gt;parser/buildPolygon.ts</title>
<path fill="none" stroke="#757575" d="M352.38,-395.41C381.5,-384.72 426.08,-368.51 465,-355 475.63,-351.31 487.12,-347.42 497.92,-343.82"/>
<polygon fill="#757575" stroke="#757575" points="499.22,-347.07 507.6,-340.59 497.01,-340.43 499.22,-347.07"/>
</g>
<!-- parser/parser_documentation.ts&#45;&gt;parser/parser.common.ts -->
<g id="edge116" class="edge">
<title>parser/parser_documentation.ts&#45;&gt;parser/parser.common.ts</title>
<path fill="none" stroke="#757575" d="M411.87,-395.46C472.53,-386.4 553.6,-371.65 623,-350 639.71,-344.79 642.58,-340.07 659,-334 669.98,-329.94 681.91,-326.05 693.31,-322.57"/>
<polygon fill="#757575" stroke="#757575" points="694.58,-325.84 703.16,-319.62 692.58,-319.13 694.58,-325.84"/>
</g>
<!-- index.ts -->
<g id="node26" class="node">
<title>index.ts</title>
<path fill="none" stroke="#c6c5fe" d="M57.33,-1207.5C57.33,-1207.5 7.67,-1207.5 7.67,-1207.5 3.83,-1207.5 0,-1203.67 0,-1199.83 0,-1199.83 0,-1192.17 0,-1192.17 0,-1188.33 3.83,-1184.5 7.67,-1184.5 7.67,-1184.5 57.33,-1184.5 57.33,-1184.5 61.17,-1184.5 65,-1188.33 65,-1192.17 65,-1192.17 65,-1199.83 65,-1199.83 65,-1203.67 61.17,-1207.5 57.33,-1207.5"/>
<text text-anchor="middle" x="32.5" y="-1192.3" font-family="Arial" font-size="14.00" fill="#c6c5fe">index.ts</text>
</g>
<!-- index.ts&#45;&gt;Graph.ts -->
<g id="edge75" class="edge">
<title>index.ts&#45;&gt;Graph.ts</title>
<path fill="none" stroke="#757575" d="M65.37,-1188.99C152.99,-1169.73 397.67,-1115.95 498.6,-1093.76"/>
<polygon fill="#757575" stroke="#757575" points="499.47,-1097.15 508.48,-1091.59 497.96,-1090.32 499.47,-1097.15"/>
</g>
<!-- index.ts&#45;&gt;Parser.ts -->
<g id="edge76" class="edge">
<title>index.ts&#45;&gt;Parser.ts</title>
<path fill="none" stroke="#757575" d="M36.16,-1184.12C50,-1122.33 113.8,-837.57 132.09,-755.93"/>
<polygon fill="#757575" stroke="#757575" points="135.58,-756.33 134.36,-745.81 128.75,-754.8 135.58,-756.33"/>
</g>
</g>
</svg>
