<?xml version="1.0" encoding="UTF-8" standalone="no"?>
<!DOCTYPE svg PUBLIC "-//W3C//DTD SVG 1.1//EN"
 "http://www.w3.org/Graphics/SVG/1.1/DTD/svg11.dtd">
<!-- Generated by graphviz version 3.0.0 (20220226.1711)
 -->
<!-- Title: G Pages: 1 -->
<svg width="1572pt" height="1600pt"
 viewBox="0.00 0.00 1572.20 1600.00" xmlns="http://www.w3.org/2000/svg" xmlns:xlink="http://www.w3.org/1999/xlink">
<g id="graph0" class="graph" transform="scale(1 1) rotate(0) translate(21.6 1578.4)">
<title>G</title>
<polygon fill="#111111" stroke="transparent" points="-21.6,21.6 -21.6,-1578.4 1550.6,-1578.4 1550.6,21.6 -21.6,21.6"/>
<!-- Calculus.ts -->
<g id="node1" class="node">
<title>Calculus.ts</title>
<path fill="none" stroke="#c6c5fe" d="M1166.33,-411.3C1166.33,-411.3 1095.67,-411.3 1095.67,-411.3 1091.83,-411.3 1088,-407.47 1088,-403.63 1088,-403.63 1088,-395.97 1088,-395.97 1088,-392.13 1091.83,-388.3 1095.67,-388.3 1095.67,-388.3 1166.33,-388.3 1166.33,-388.3 1170.17,-388.3 1174,-392.13 1174,-395.97 1174,-395.97 1174,-403.63 1174,-403.63 1174,-407.47 1170.17,-411.3 1166.33,-411.3"/>
<text text-anchor="middle" x="1131" y="-396.1" font-family="Arial" font-size="14.00" fill="#c6c5fe">Calculus.ts</text>
</g>
<!-- pidraw.common.ts -->
<g id="node2" class="node">
<title>pidraw.common.ts</title>
<path fill="none" stroke="#cfffac" d="M1521.33,-780.3C1521.33,-780.3 1404.67,-780.3 1404.67,-780.3 1400.83,-780.3 1397,-776.47 1397,-772.63 1397,-772.63 1397,-764.97 1397,-764.97 1397,-761.13 1400.83,-757.3 1404.67,-757.3 1404.67,-757.3 1521.33,-757.3 1521.33,-757.3 1525.17,-757.3 1529,-761.13 1529,-764.97 1529,-764.97 1529,-772.63 1529,-772.63 1529,-776.47 1525.17,-780.3 1521.33,-780.3"/>
<text text-anchor="middle" x="1463" y="-765.1" font-family="Arial" font-size="14.00" fill="#cfffac">pidraw.common.ts</text>
</g>
<!-- Calculus.ts&#45;&gt;pidraw.common.ts -->
<g id="edge1" class="edge">
<title>Calculus.ts&#45;&gt;pidraw.common.ts</title>
<path fill="none" stroke="#757575" d="M1163.18,-411.33C1211.52,-430.64 1304.82,-473.78 1361,-537.8 1417.56,-602.25 1446.7,-703.33 1457.27,-747.24"/>
<polygon fill="#757575" stroke="#757575" points="1453.89,-748.16 1459.56,-757.11 1460.71,-746.58 1453.89,-748.16"/>
</g>
<!-- Graph.ts -->
<g id="node3" class="node">
<title>Graph.ts</title>
<path fill="none" stroke="#c6c5fe" d="M512.83,-469.3C512.83,-469.3 457.17,-469.3 457.17,-469.3 453.33,-469.3 449.5,-465.47 449.5,-461.63 449.5,-461.63 449.5,-453.97 449.5,-453.97 449.5,-450.13 453.33,-446.3 457.17,-446.3 457.17,-446.3 512.83,-446.3 512.83,-446.3 516.67,-446.3 520.5,-450.13 520.5,-453.97 520.5,-453.97 520.5,-461.63 520.5,-461.63 520.5,-465.47 516.67,-469.3 512.83,-469.3"/>
<text text-anchor="middle" x="485" y="-454.1" font-family="Arial" font-size="14.00" fill="#c6c5fe">Graph.ts</text>
</g>
<!-- Graph.ts&#45;&gt;Calculus.ts -->
<g id="edge2" class="edge">
<title>Graph.ts&#45;&gt;Calculus.ts</title>
<path fill="none" stroke="#757575" d="M487.36,-446.1C492.75,-405.93 516.51,-273.29 600,-220.8 621.47,-207.3 978.55,-205.6 1009,-221.8 1072.45,-255.57 1108.87,-339.09 1123.05,-378.53"/>
<polygon fill="#757575" stroke="#757575" points="1119.82,-379.89 1126.39,-388.2 1126.43,-377.6 1119.82,-379.89"/>
</g>
<!-- Graph.ts&#45;&gt;pidraw.common.ts -->
<g id="edge16" class="edge">
<title>Graph.ts&#45;&gt;pidraw.common.ts</title>
<path fill="none" stroke="#757575" d="M485.93,-445.98C486.3,-395.5 494.61,-195.82 600,-91.8 701.7,8.57 766.61,-4.8 909.5,-4.8 909.5,-4.8 909.5,-4.8 1132,-4.8 1236.27,-4.8 1290.22,20.76 1361,-55.8 1457.21,-159.87 1462.23,-638.86 1462.11,-747.05"/>
<polygon fill="#757575" stroke="#757575" points="1458.61,-747.1 1462.09,-757.11 1465.61,-747.12 1458.61,-747.1"/>
</g>
<!-- figures/AbstractFigure.ts -->
<g id="node4" class="node">
<title>figures/AbstractFigure.ts</title>
<path fill="none" stroke="#c6c5fe" d="M1209.33,-840.3C1209.33,-840.3 1052.67,-840.3 1052.67,-840.3 1048.83,-840.3 1045,-836.47 1045,-832.63 1045,-832.63 1045,-824.97 1045,-824.97 1045,-821.13 1048.83,-817.3 1052.67,-817.3 1052.67,-817.3 1209.33,-817.3 1209.33,-817.3 1213.17,-817.3 1217,-821.13 1217,-824.97 1217,-824.97 1217,-832.63 1217,-832.63 1217,-836.47 1213.17,-840.3 1209.33,-840.3"/>
<text text-anchor="middle" x="1131" y="-825.1" font-family="Arial" font-size="14.00" fill="#c6c5fe">figures/AbstractFigure.ts</text>
</g>
<!-- Graph.ts&#45;&gt;figures/AbstractFigure.ts -->
<g id="edge3" class="edge">
<title>Graph.ts&#45;&gt;figures/AbstractFigure.ts</title>
<path fill="none" stroke="#757575" d="M520.89,-459.63C535.93,-462.15 552.64,-467.55 564,-478.8 606.28,-520.7 556.68,-566.98 600,-607.8 658.24,-662.68 719.32,-589.31 776,-645.8 828.86,-698.48 755.27,-761.32 812,-809.8 844.41,-837.5 953.1,-838.73 1034.45,-835.32"/>
<polygon fill="#757575" stroke="#757575" points="1034.89,-838.81 1044.73,-834.86 1034.58,-831.81 1034.89,-838.81"/>
</g>
<!-- figures/Arc.ts -->
<g id="node5" class="node">
<title>figures/Arc.ts</title>
<path fill="none" stroke="#c6c5fe" d="M953.33,-720.3C953.33,-720.3 867.67,-720.3 867.67,-720.3 863.83,-720.3 860,-716.47 860,-712.63 860,-712.63 860,-704.97 860,-704.97 860,-701.13 863.83,-697.3 867.67,-697.3 867.67,-697.3 953.33,-697.3 953.33,-697.3 957.17,-697.3 961,-701.13 961,-704.97 961,-704.97 961,-712.63 961,-712.63 961,-716.47 957.17,-720.3 953.33,-720.3"/>
<text text-anchor="middle" x="910.5" y="-705.1" font-family="Arial" font-size="14.00" fill="#c6c5fe">figures/Arc.ts</text>
</g>
<!-- Graph.ts&#45;&gt;figures/Arc.ts -->
<g id="edge4" class="edge">
<title>Graph.ts&#45;&gt;figures/Arc.ts</title>
<path fill="none" stroke="#757575" d="M520.59,-461.59C535.06,-464.51 551.4,-469.67 564,-478.8 587.66,-495.95 576.28,-516.74 600,-533.8 665.64,-581 717.05,-524.47 776,-579.8 813.2,-614.72 773.88,-654.89 812,-688.8 822.49,-698.14 836.15,-703.56 849.9,-706.61"/>
<polygon fill="#757575" stroke="#757575" points="849.43,-710.08 859.89,-708.44 850.69,-703.2 849.43,-710.08"/>
</g>
<!-- figures/Circle.ts -->
<g id="node6" class="node">
<title>figures/Circle.ts</title>
<path fill="none" stroke="#c6c5fe" d="M960.83,-800.3C960.83,-800.3 860.17,-800.3 860.17,-800.3 856.33,-800.3 852.5,-796.47 852.5,-792.63 852.5,-792.63 852.5,-784.97 852.5,-784.97 852.5,-781.13 856.33,-777.3 860.17,-777.3 860.17,-777.3 960.83,-777.3 960.83,-777.3 964.67,-777.3 968.5,-781.13 968.5,-784.97 968.5,-784.97 968.5,-792.63 968.5,-792.63 968.5,-796.47 964.67,-800.3 960.83,-800.3"/>
<text text-anchor="middle" x="910.5" y="-785.1" font-family="Arial" font-size="14.00" fill="#c6c5fe">figures/Circle.ts</text>
</g>
<!-- Graph.ts&#45;&gt;figures/Circle.ts -->
<g id="edge5" class="edge">
<title>Graph.ts&#45;&gt;figures/Circle.ts</title>
<path fill="none" stroke="#757575" d="M520.77,-460.24C535.61,-462.9 552.2,-468.23 564,-478.8 596.71,-508.1 567.26,-541.54 600,-570.8 660.37,-624.76 719.26,-560.05 776,-617.8 822.54,-665.17 765.45,-715.45 812,-762.8 820.39,-771.34 831.26,-777.18 842.67,-781.14"/>
<polygon fill="#757575" stroke="#757575" points="841.77,-784.52 852.35,-784.05 843.78,-777.82 841.77,-784.52"/>
</g>
<!-- figures/CoordinateSystem.ts -->
<g id="node7" class="node">
<title>figures/CoordinateSystem.ts</title>
<path fill="none" stroke="#c6c5fe" d="M1001.33,-173.3C1001.33,-173.3 819.67,-173.3 819.67,-173.3 815.83,-173.3 812,-169.47 812,-165.63 812,-165.63 812,-157.97 812,-157.97 812,-154.13 815.83,-150.3 819.67,-150.3 819.67,-150.3 1001.33,-150.3 1001.33,-150.3 1005.17,-150.3 1009,-154.13 1009,-157.97 1009,-157.97 1009,-165.63 1009,-165.63 1009,-169.47 1005.17,-173.3 1001.33,-173.3"/>
<text text-anchor="middle" x="910.5" y="-158.1" font-family="Arial" font-size="14.00" fill="#c6c5fe">figures/CoordinateSystem.ts</text>
</g>
<!-- Graph.ts&#45;&gt;figures/CoordinateSystem.ts -->
<g id="edge6" class="edge">
<title>Graph.ts&#45;&gt;figures/CoordinateSystem.ts</title>
<path fill="none" stroke="#757575" d="M486.85,-446.03C490.68,-402.93 510.21,-252.93 600,-187.8 670.27,-136.83 774.55,-139.69 842.28,-148.82"/>
<polygon fill="#757575" stroke="#757575" points="842.02,-152.32 852.42,-150.27 843.01,-145.39 842.02,-152.32"/>
</g>
<!-- figures/FillBetween.ts -->
<g id="node8" class="node">
<title>figures/FillBetween.ts</title>
<path fill="none" stroke="#c6c5fe" d="M756.33,-489.3C756.33,-489.3 619.67,-489.3 619.67,-489.3 615.83,-489.3 612,-485.47 612,-481.63 612,-481.63 612,-473.97 612,-473.97 612,-470.13 615.83,-466.3 619.67,-466.3 619.67,-466.3 756.33,-466.3 756.33,-466.3 760.17,-466.3 764,-470.13 764,-473.97 764,-473.97 764,-481.63 764,-481.63 764,-485.47 760.17,-489.3 756.33,-489.3"/>
<text text-anchor="middle" x="688" y="-474.1" font-family="Arial" font-size="14.00" fill="#c6c5fe">figures/FillBetween.ts</text>
</g>
<!-- Graph.ts&#45;&gt;figures/FillBetween.ts -->
<g id="edge7" class="edge">
<title>Graph.ts&#45;&gt;figures/FillBetween.ts</title>
<path fill="none" stroke="#757575" d="M520.55,-461.24C542.94,-463.47 573.15,-466.47 601.69,-469.31"/>
<polygon fill="#757575" stroke="#757575" points="601.4,-472.8 611.7,-470.31 602.09,-465.84 601.4,-472.8"/>
</g>
<!-- figures/Follow.ts -->
<g id="node9" class="node">
<title>figures/Follow.ts</title>
<path fill="none" stroke="#c6c5fe" d="M740.33,-330.3C740.33,-330.3 635.67,-330.3 635.67,-330.3 631.83,-330.3 628,-326.47 628,-322.63 628,-322.63 628,-314.97 628,-314.97 628,-311.13 631.83,-307.3 635.67,-307.3 635.67,-307.3 740.33,-307.3 740.33,-307.3 744.17,-307.3 748,-311.13 748,-314.97 748,-314.97 748,-322.63 748,-322.63 748,-326.47 744.17,-330.3 740.33,-330.3"/>
<text text-anchor="middle" x="688" y="-315.1" font-family="Arial" font-size="14.00" fill="#c6c5fe">figures/Follow.ts</text>
</g>
<!-- Graph.ts&#45;&gt;figures/Follow.ts -->
<g id="edge8" class="edge">
<title>Graph.ts&#45;&gt;figures/Follow.ts</title>
<path fill="none" stroke="#757575" d="M493.87,-445.96C510.46,-421.97 551.54,-367.53 600,-339.8 605.58,-336.61 611.62,-333.9 617.83,-331.61"/>
<polygon fill="#757575" stroke="#757575" points="619.32,-334.8 627.7,-328.32 617.11,-328.16 619.32,-334.8"/>
</g>
<!-- figures/Grid.ts -->
<g id="node10" class="node">
<title>figures/Grid.ts</title>
<path fill="none" stroke="#c6c5fe" d="M955.83,-132.3C955.83,-132.3 865.17,-132.3 865.17,-132.3 861.33,-132.3 857.5,-128.47 857.5,-124.63 857.5,-124.63 857.5,-116.97 857.5,-116.97 857.5,-113.13 861.33,-109.3 865.17,-109.3 865.17,-109.3 955.83,-109.3 955.83,-109.3 959.67,-109.3 963.5,-113.13 963.5,-116.97 963.5,-116.97 963.5,-124.63 963.5,-124.63 963.5,-128.47 959.67,-132.3 955.83,-132.3"/>
<text text-anchor="middle" x="910.5" y="-117.1" font-family="Arial" font-size="14.00" fill="#c6c5fe">figures/Grid.ts</text>
</g>
<!-- Graph.ts&#45;&gt;figures/Grid.ts -->
<g id="edge9" class="edge">
<title>Graph.ts&#45;&gt;figures/Grid.ts</title>
<path fill="none" stroke="#757575" d="M485.97,-446.24C486.55,-398.66 495.73,-216.89 600,-138.8 673.76,-83.56 787.29,-94.16 854.41,-107.24"/>
<polygon fill="#757575" stroke="#757575" points="853.87,-110.7 864.37,-109.26 855.26,-103.84 853.87,-110.7"/>
</g>
<!-- figures/Line.ts -->
<g id="node11" class="node">
<title>figures/Line.ts</title>
<path fill="none" stroke="#c6c5fe" d="M955.83,-1032.3C955.83,-1032.3 865.17,-1032.3 865.17,-1032.3 861.33,-1032.3 857.5,-1028.47 857.5,-1024.63 857.5,-1024.63 857.5,-1016.97 857.5,-1016.97 857.5,-1013.13 861.33,-1009.3 865.17,-1009.3 865.17,-1009.3 955.83,-1009.3 955.83,-1009.3 959.67,-1009.3 963.5,-1013.13 963.5,-1016.97 963.5,-1016.97 963.5,-1024.63 963.5,-1024.63 963.5,-1028.47 959.67,-1032.3 955.83,-1032.3"/>
<text text-anchor="middle" x="910.5" y="-1017.1" font-family="Arial" font-size="14.00" fill="#c6c5fe">figures/Line.ts</text>
</g>
<!-- Graph.ts&#45;&gt;figures/Line.ts -->
<g id="edge10" class="edge">
<title>Graph.ts&#45;&gt;figures/Line.ts</title>
<path fill="none" stroke="#757575" d="M520.81,-459.26C536.02,-461.69 552.89,-467.11 564,-478.8 616.31,-533.83 566.9,-577.47 600,-645.8 676.3,-803.29 831.98,-951.62 888.45,-1002.35"/>
<polygon fill="#757575" stroke="#757575" points="886.24,-1005.08 896.04,-1009.12 890.9,-999.85 886.24,-1005.08"/>
</g>
<!-- figures/Parametric.ts -->
<g id="node12" class="node">
<title>figures/Parametric.ts</title>
<path fill="none" stroke="#c6c5fe" d="M976.33,-253.3C976.33,-253.3 844.67,-253.3 844.67,-253.3 840.83,-253.3 837,-249.47 837,-245.63 837,-245.63 837,-237.97 837,-237.97 837,-234.13 840.83,-230.3 844.67,-230.3 844.67,-230.3 976.33,-230.3 976.33,-230.3 980.17,-230.3 984,-234.13 984,-237.97 984,-237.97 984,-245.63 984,-245.63 984,-249.47 980.17,-253.3 976.33,-253.3"/>
<text text-anchor="middle" x="910.5" y="-238.1" font-family="Arial" font-size="14.00" fill="#c6c5fe">figures/Parametric.ts</text>
</g>
<!-- Graph.ts&#45;&gt;figures/Parametric.ts -->
<g id="edge11" class="edge">
<title>Graph.ts&#45;&gt;figures/Parametric.ts</title>
<path fill="none" stroke="#757575" d="M488.8,-446.27C497.88,-411.63 530.08,-308.22 600,-264.8 670.75,-220.87 768.89,-221.6 835.56,-229.08"/>
<polygon fill="#757575" stroke="#757575" points="835.22,-232.56 845.57,-230.28 836.05,-225.61 835.22,-232.56"/>
</g>
<!-- figures/Plot.ts -->
<g id="node13" class="node">
<title>figures/Plot.ts</title>
<path fill="none" stroke="#c6c5fe" d="M954.83,-371.3C954.83,-371.3 866.17,-371.3 866.17,-371.3 862.33,-371.3 858.5,-367.47 858.5,-363.63 858.5,-363.63 858.5,-355.97 858.5,-355.97 858.5,-352.13 862.33,-348.3 866.17,-348.3 866.17,-348.3 954.83,-348.3 954.83,-348.3 958.67,-348.3 962.5,-352.13 962.5,-355.97 962.5,-355.97 962.5,-363.63 962.5,-363.63 962.5,-367.47 958.67,-371.3 954.83,-371.3"/>
<text text-anchor="middle" x="910.5" y="-356.1" font-family="Arial" font-size="14.00" fill="#c6c5fe">figures/Plot.ts</text>
</g>
<!-- Graph.ts&#45;&gt;figures/Plot.ts -->
<g id="edge12" class="edge">
<title>Graph.ts&#45;&gt;figures/Plot.ts</title>
<path fill="none" stroke="#757575" d="M520.71,-446.6C543.19,-439.56 573.16,-430.56 600,-423.8 685.43,-402.27 785.44,-382.57 848.15,-370.88"/>
<polygon fill="#757575" stroke="#757575" points="849.07,-374.27 858.26,-369 847.79,-367.38 849.07,-374.27"/>
</g>
<!-- figures/Point.ts -->
<g id="node14" class="node">
<title>figures/Point.ts</title>
<path fill="none" stroke="#c6c5fe" d="M735.83,-1068.3C735.83,-1068.3 640.17,-1068.3 640.17,-1068.3 636.33,-1068.3 632.5,-1064.47 632.5,-1060.63 632.5,-1060.63 632.5,-1052.97 632.5,-1052.97 632.5,-1049.13 636.33,-1045.3 640.17,-1045.3 640.17,-1045.3 735.83,-1045.3 735.83,-1045.3 739.67,-1045.3 743.5,-1049.13 743.5,-1052.97 743.5,-1052.97 743.5,-1060.63 743.5,-1060.63 743.5,-1064.47 739.67,-1068.3 735.83,-1068.3"/>
<text text-anchor="middle" x="688" y="-1053.1" font-family="Arial" font-size="14.00" fill="#c6c5fe">figures/Point.ts</text>
</g>
<!-- Graph.ts&#45;&gt;figures/Point.ts -->
<g id="edge13" class="edge">
<title>Graph.ts&#45;&gt;figures/Point.ts</title>
<path fill="none" stroke="#757575" d="M520.76,-458.87C536.15,-461.2 553.18,-466.65 564,-478.8 600.3,-519.57 589.12,-668.31 600,-721.8 624.36,-841.62 664.96,-982.61 680.59,-1035.42"/>
<polygon fill="#757575" stroke="#757575" points="677.25,-1036.45 683.46,-1045.04 683.96,-1034.46 677.25,-1036.45"/>
</g>
<!-- figures/Polygon.ts -->
<g id="node15" class="node">
<title>figures/Polygon.ts</title>
<path fill="none" stroke="#c6c5fe" d="M968.33,-679.3C968.33,-679.3 852.67,-679.3 852.67,-679.3 848.83,-679.3 845,-675.47 845,-671.63 845,-671.63 845,-663.97 845,-663.97 845,-660.13 848.83,-656.3 852.67,-656.3 852.67,-656.3 968.33,-656.3 968.33,-656.3 972.17,-656.3 976,-660.13 976,-663.97 976,-663.97 976,-671.63 976,-671.63 976,-675.47 972.17,-679.3 968.33,-679.3"/>
<text text-anchor="middle" x="910.5" y="-664.1" font-family="Arial" font-size="14.00" fill="#c6c5fe">figures/Polygon.ts</text>
</g>
<!-- Graph.ts&#45;&gt;figures/Polygon.ts -->
<g id="edge14" class="edge">
<title>Graph.ts&#45;&gt;figures/Polygon.ts</title>
<path fill="none" stroke="#757575" d="M520.77,-465.23C534.48,-468.66 550.22,-473.22 564,-478.8 580.96,-485.68 582.96,-492.13 600,-498.8 674.98,-528.17 705.26,-503.33 776,-541.8 802.33,-556.12 862.02,-617.4 891.85,-648.91"/>
<polygon fill="#757575" stroke="#757575" points="889.34,-651.36 898.75,-656.24 894.44,-646.56 889.34,-651.36"/>
</g>
<!-- figures/Riemann.ts -->
<g id="node16" class="node">
<title>figures/Riemann.ts</title>
<path fill="none" stroke="#c6c5fe" d="M747.83,-371.3C747.83,-371.3 628.17,-371.3 628.17,-371.3 624.33,-371.3 620.5,-367.47 620.5,-363.63 620.5,-363.63 620.5,-355.97 620.5,-355.97 620.5,-352.13 624.33,-348.3 628.17,-348.3 628.17,-348.3 747.83,-348.3 747.83,-348.3 751.67,-348.3 755.5,-352.13 755.5,-355.97 755.5,-355.97 755.5,-363.63 755.5,-363.63 755.5,-367.47 751.67,-371.3 747.83,-371.3"/>
<text text-anchor="middle" x="688" y="-356.1" font-family="Arial" font-size="14.00" fill="#c6c5fe">figures/Riemann.ts</text>
</g>
<!-- Graph.ts&#45;&gt;figures/Riemann.ts -->
<g id="edge15" class="edge">
<title>Graph.ts&#45;&gt;figures/Riemann.ts</title>
<path fill="none" stroke="#757575" d="M501.45,-446.1C522.68,-430.49 562.5,-402.86 600,-385.8 609.46,-381.5 619.82,-377.69 629.98,-374.4"/>
<polygon fill="#757575" stroke="#757575" points="631.12,-377.71 639.64,-371.41 629.05,-371.03 631.12,-377.71"/>
</g>
<!-- figures/AbstractFigure.ts&#45;&gt;pidraw.common.ts -->
<g id="edge25" class="edge">
<title>figures/AbstractFigure.ts&#45;&gt;pidraw.common.ts</title>
<path fill="none" stroke="#757575" d="M1215.49,-817.26C1259.01,-810.85 1313.03,-802.26 1361,-792.8 1375.94,-789.86 1392.02,-786.24 1406.87,-782.72"/>
<polygon fill="#757575" stroke="#757575" points="1408.01,-786.04 1416.91,-780.3 1406.37,-779.24 1408.01,-786.04"/>
</g>
<!-- labels/Label.ts -->
<g id="node18" class="node">
<title>labels/Label.ts</title>
<path fill="none" stroke="#c6c5fe" d="M1353.33,-1002.3C1353.33,-1002.3 1260.67,-1002.3 1260.67,-1002.3 1256.83,-1002.3 1253,-998.47 1253,-994.63 1253,-994.63 1253,-986.97 1253,-986.97 1253,-983.13 1256.83,-979.3 1260.67,-979.3 1260.67,-979.3 1353.33,-979.3 1353.33,-979.3 1357.17,-979.3 1361,-983.13 1361,-986.97 1361,-986.97 1361,-994.63 1361,-994.63 1361,-998.47 1357.17,-1002.3 1353.33,-1002.3"/>
<text text-anchor="middle" x="1307" y="-987.1" font-family="Arial" font-size="14.00" fill="#c6c5fe">labels/Label.ts</text>
</g>
<!-- figures/AbstractFigure.ts&#45;&gt;labels/Label.ts -->
<g id="edge24" class="edge">
<title>figures/AbstractFigure.ts&#45;&gt;labels/Label.ts</title>
<path fill="none" stroke="#757575" d="M1144.51,-840.45C1174.36,-868.24 1249.93,-938.6 1286.1,-972.28"/>
<polygon fill="#757575" stroke="#757575" points="1283.9,-975 1293.6,-979.26 1288.67,-969.88 1283.9,-975"/>
</g>
<!-- figures/Arc.ts&#45;&gt;Calculus.ts -->
<g id="edge26" class="edge">
<title>figures/Arc.ts&#45;&gt;Calculus.ts</title>
<path fill="none" stroke="#757575" d="M961.12,-707.8C977.86,-705.23 995.65,-699.78 1009,-688.8 1094.89,-618.16 1120.77,-476.01 1127.71,-421.64"/>
<polygon fill="#757575" stroke="#757575" points="1131.21,-421.77 1128.91,-411.43 1124.26,-420.94 1131.21,-421.77"/>
</g>
<!-- figures/Arc.ts&#45;&gt;pidraw.common.ts -->
<g id="edge28" class="edge">
<title>figures/Arc.ts&#45;&gt;pidraw.common.ts</title>
<path fill="none" stroke="#757575" d="M961.32,-714.23C1058.18,-724.79 1272.36,-748.13 1386.67,-760.59"/>
<polygon fill="#757575" stroke="#757575" points="1386.42,-764.08 1396.74,-761.69 1387.18,-757.13 1386.42,-764.08"/>
</g>
<!-- figures/Arc.ts&#45;&gt;figures/AbstractFigure.ts -->
<g id="edge27" class="edge">
<title>figures/Arc.ts&#45;&gt;figures/AbstractFigure.ts</title>
<path fill="none" stroke="#757575" d="M961.24,-718C977,-721.98 994.17,-727.44 1009,-734.8 1048.9,-754.6 1088.37,-788.71 1110.9,-809.94"/>
<polygon fill="#757575" stroke="#757575" points="1108.76,-812.74 1118.41,-817.13 1113.61,-807.69 1108.76,-812.74"/>
</g>
<!-- figures/Circle.ts&#45;&gt;Calculus.ts -->
<g id="edge29" class="edge">
<title>figures/Circle.ts&#45;&gt;Calculus.ts</title>
<path fill="none" stroke="#757575" d="M941.21,-777.23C962.7,-767.49 991.01,-751.64 1009,-729.8 1089.02,-632.66 1118.64,-477.84 1127.13,-421.34"/>
<polygon fill="#757575" stroke="#757575" points="1130.6,-421.79 1128.56,-411.4 1123.67,-420.8 1130.6,-421.79"/>
</g>
<!-- figures/Circle.ts&#45;&gt;pidraw.common.ts -->
<g id="edge31" class="edge">
<title>figures/Circle.ts&#45;&gt;pidraw.common.ts</title>
<path fill="none" stroke="#757575" d="M968.6,-786.73C1068.48,-783.1 1274.91,-775.6 1386.48,-771.55"/>
<polygon fill="#757575" stroke="#757575" points="1386.78,-775.04 1396.64,-771.18 1386.52,-768.04 1386.78,-775.04"/>
</g>
<!-- figures/Circle.ts&#45;&gt;figures/AbstractFigure.ts -->
<g id="edge30" class="edge">
<title>figures/Circle.ts&#45;&gt;figures/AbstractFigure.ts</title>
<path fill="none" stroke="#757575" d="M968.62,-799.26C995.66,-804.21 1028.25,-810.17 1057.05,-815.45"/>
<polygon fill="#757575" stroke="#757575" points="1056.59,-818.92 1067.06,-817.28 1057.86,-812.04 1056.59,-818.92"/>
</g>
<!-- figures/CoordinateSystem.ts&#45;&gt;Calculus.ts -->
<g id="edge32" class="edge">
<title>figures/CoordinateSystem.ts&#45;&gt;Calculus.ts</title>
<path fill="none" stroke="#757575" d="M982.06,-173.37C991.71,-176.96 1001.02,-181.65 1009,-187.8 1074.61,-238.34 1110.57,-335.27 1123.9,-378.31"/>
<polygon fill="#757575" stroke="#757575" points="1120.59,-379.45 1126.81,-388.02 1127.3,-377.44 1120.59,-379.45"/>
</g>
<!-- figures/CoordinateSystem.ts&#45;&gt;pidraw.common.ts -->
<g id="edge34" class="edge">
<title>figures/CoordinateSystem.ts&#45;&gt;pidraw.common.ts</title>
<path fill="none" stroke="#757575" d="M978.36,-173.31C1090.97,-194.11 1311.08,-241.25 1361,-299.8 1420.28,-369.33 1452.14,-664.2 1460.03,-747.06"/>
<polygon fill="#757575" stroke="#757575" points="1456.56,-747.47 1460.97,-757.1 1463.53,-746.82 1456.56,-747.47"/>
</g>
<!-- figures/CoordinateSystem.ts&#45;&gt;figures/AbstractFigure.ts -->
<g id="edge33" class="edge">
<title>figures/CoordinateSystem.ts&#45;&gt;figures/AbstractFigure.ts</title>
<path fill="none" stroke="#757575" d="M943.75,-173.44C965.62,-183.03 993.31,-198.82 1009,-221.8 1059.68,-296.03 1027.83,-332.58 1045,-420.8 1073.82,-568.9 1112.08,-746.43 1125.29,-807.19"/>
<polygon fill="#757575" stroke="#757575" points="1121.91,-808.11 1127.45,-817.14 1128.75,-806.62 1121.91,-808.11"/>
</g>
<!-- figures/FillBetween.ts&#45;&gt;Calculus.ts -->
<g id="edge35" class="edge">
<title>figures/FillBetween.ts&#45;&gt;Calculus.ts</title>
<path fill="none" stroke="#757575" d="M739.01,-466.3C751.45,-462.52 764.51,-457.72 776,-451.8 794.02,-442.52 793.09,-431.1 812,-423.8 900.44,-389.68 1012.83,-390.47 1077.57,-394.73"/>
<polygon fill="#757575" stroke="#757575" points="1077.7,-398.25 1087.93,-395.47 1078.2,-391.26 1077.7,-398.25"/>
</g>
<!-- figures/FillBetween.ts&#45;&gt;pidraw.common.ts -->
<g id="edge38" class="edge">
<title>figures/FillBetween.ts&#45;&gt;pidraw.common.ts</title>
<path fill="none" stroke="#757575" d="M764.05,-468.1C897.35,-454.99 1178.5,-446.41 1361,-575.8 1420.63,-618.08 1447.79,-706.53 1457.52,-747.34"/>
<polygon fill="#757575" stroke="#757575" points="1454.15,-748.3 1459.77,-757.29 1460.98,-746.76 1454.15,-748.3"/>
</g>
<!-- figures/FillBetween.ts&#45;&gt;figures/AbstractFigure.ts -->
<g id="edge36" class="edge">
<title>figures/FillBetween.ts&#45;&gt;figures/AbstractFigure.ts</title>
<path fill="none" stroke="#757575" d="M704.9,-489.43C724.74,-504.84 758.22,-533.92 776,-566.8 811.29,-632.06 758.97,-677.92 812,-729.8 875.8,-792.22 924.5,-740.06 1009,-768.8 1042.12,-780.07 1077.73,-798.58 1101.68,-812.07"/>
<polygon fill="#757575" stroke="#757575" points="1100.15,-815.22 1110.57,-817.14 1103.62,-809.15 1100.15,-815.22"/>
</g>
<!-- figures/FillBetween.ts&#45;&gt;figures/Plot.ts -->
<g id="edge37" class="edge">
<title>figures/FillBetween.ts&#45;&gt;figures/Plot.ts</title>
<path fill="none" stroke="#757575" d="M750.08,-466.24C759.39,-462.65 768.41,-457.95 776,-451.8 801.96,-430.77 785.73,-406.45 812,-385.8 822.54,-377.52 835.48,-371.87 848.46,-368.01"/>
<polygon fill="#757575" stroke="#757575" points="849.57,-371.34 858.35,-365.4 847.78,-364.57 849.57,-371.34"/>
</g>
<!-- figures/Follow.ts&#45;&gt;Calculus.ts -->
<g id="edge39" class="edge">
<title>figures/Follow.ts&#45;&gt;Calculus.ts</title>
<path fill="none" stroke="#757575" d="M748.22,-310.7C813.55,-303.87 921.06,-298.86 1009,-324.8 1047.47,-336.15 1085.78,-363.24 1108.69,-381.56"/>
<polygon fill="#757575" stroke="#757575" points="1106.72,-384.48 1116.68,-388.1 1111.16,-379.06 1106.72,-384.48"/>
</g>
<!-- figures/Follow.ts&#45;&gt;pidraw.common.ts -->
<g id="edge42" class="edge">
<title>figures/Follow.ts&#45;&gt;pidraw.common.ts</title>
<path fill="none" stroke="#757575" d="M690.21,-307.08C695.36,-264.23 719.54,-115.54 812,-56.8 887.97,-8.54 1127.75,-45.22 1217,-56.8 1282.64,-65.32 1316.82,-45.51 1361,-94.8 1450.15,-194.27 1460.61,-642.57 1461.84,-747.01"/>
<polygon fill="#757575" stroke="#757575" points="1458.34,-747.3 1461.94,-757.27 1465.34,-747.23 1458.34,-747.3"/>
</g>
<!-- figures/Follow.ts&#45;&gt;figures/AbstractFigure.ts -->
<g id="edge40" class="edge">
<title>figures/Follow.ts&#45;&gt;figures/AbstractFigure.ts</title>
<path fill="none" stroke="#757575" d="M748.04,-327.84C757.8,-330.77 767.49,-334.66 776,-339.8 796.75,-352.34 793.11,-365.59 812,-380.8 889.94,-443.55 944.22,-413.53 1009,-489.8 1092.63,-588.26 1120.1,-748.75 1127.57,-806.9"/>
<polygon fill="#757575" stroke="#757575" points="1124.13,-807.61 1128.81,-817.11 1131.08,-806.76 1124.13,-807.61"/>
</g>
<!-- figures/Follow.ts&#45;&gt;figures/Plot.ts -->
<g id="edge41" class="edge">
<title>figures/Follow.ts&#45;&gt;figures/Plot.ts</title>
<path fill="none" stroke="#757575" d="M748.09,-329.79C779.17,-335.57 817.22,-342.64 848.57,-348.47"/>
<polygon fill="#757575" stroke="#757575" points="848.02,-351.93 858.49,-350.32 849.3,-345.05 848.02,-351.93"/>
</g>
<!-- figures/Grid.ts&#45;&gt;Calculus.ts -->
<g id="edge43" class="edge">
<title>figures/Grid.ts&#45;&gt;Calculus.ts</title>
<path fill="none" stroke="#757575" d="M963.66,-123.16C979.56,-126.08 996.2,-131.61 1009,-141.8 1086.92,-203.81 1117.11,-327.8 1126.46,-377.97"/>
<polygon fill="#757575" stroke="#757575" points="1123.05,-378.79 1128.23,-388.03 1129.94,-377.58 1123.05,-378.79"/>
</g>
<!-- figures/Grid.ts&#45;&gt;pidraw.common.ts -->
<g id="edge45" class="edge">
<title>figures/Grid.ts&#45;&gt;pidraw.common.ts</title>
<path fill="none" stroke="#757575" d="M963.53,-116.9C1059.14,-112.91 1262.03,-119.89 1361,-238.8 1427.37,-318.55 1454.5,-657.14 1460.61,-746.89"/>
<polygon fill="#757575" stroke="#757575" points="1457.13,-747.26 1461.28,-757 1464.11,-746.79 1457.13,-747.26"/>
</g>
<!-- figures/Grid.ts&#45;&gt;figures/AbstractFigure.ts -->
<g id="edge44" class="edge">
<title>figures/Grid.ts&#45;&gt;figures/AbstractFigure.ts</title>
<path fill="none" stroke="#757575" d="M963.7,-120.61C980.36,-123.24 997.46,-129.25 1009,-141.8 1051.31,-187.82 1034.62,-359.16 1045,-420.8 1070.06,-569.58 1110.69,-746.68 1124.9,-807.26"/>
<polygon fill="#757575" stroke="#757575" points="1121.54,-808.25 1127.24,-817.18 1128.35,-806.64 1121.54,-808.25"/>
</g>
<!-- figures/Line.ts&#45;&gt;Calculus.ts -->
<g id="edge46" class="edge">
<title>figures/Line.ts&#45;&gt;Calculus.ts</title>
<path fill="none" stroke="#757575" d="M917.62,-1009.16C933.99,-977.69 979.58,-887.98 1009,-809.8 1063.63,-664.63 1109.7,-483.24 1124.78,-421.51"/>
<polygon fill="#757575" stroke="#757575" points="1128.28,-421.96 1127.23,-411.42 1121.48,-420.31 1128.28,-421.96"/>
</g>
<!-- figures/Line.ts&#45;&gt;pidraw.common.ts -->
<g id="edge48" class="edge">
<title>figures/Line.ts&#45;&gt;pidraw.common.ts</title>
<path fill="none" stroke="#757575" d="M948.1,-1032.32C1030.22,-1055.77 1232.02,-1099.75 1361,-1011.8 1436.82,-960.11 1455.84,-839.94 1460.51,-790.57"/>
<polygon fill="#757575" stroke="#757575" points="1464.02,-790.65 1461.37,-780.39 1457.04,-790.07 1464.02,-790.65"/>
</g>
<!-- figures/Line.ts&#45;&gt;figures/AbstractFigure.ts -->
<g id="edge47" class="edge">
<title>figures/Line.ts&#45;&gt;figures/AbstractFigure.ts</title>
<path fill="none" stroke="#757575" d="M932.26,-1009.1C952.68,-997.15 984.32,-977.47 1009,-956.8 1050.25,-922.25 1091.96,-874.73 1114.01,-848.38"/>
<polygon fill="#757575" stroke="#757575" points="1116.76,-850.55 1120.45,-840.62 1111.37,-846.08 1116.76,-850.55"/>
</g>
<!-- figures/Parametric.ts&#45;&gt;Calculus.ts -->
<g id="edge49" class="edge">
<title>figures/Parametric.ts&#45;&gt;Calculus.ts</title>
<path fill="none" stroke="#757575" d="M975.79,-253.37C987.33,-256.97 998.89,-261.67 1009,-267.8 1034.02,-282.96 1087.64,-347.16 1114.29,-380.11"/>
<polygon fill="#757575" stroke="#757575" points="1111.76,-382.54 1120.75,-388.14 1117.21,-378.15 1111.76,-382.54"/>
</g>
<!-- figures/Parametric.ts&#45;&gt;pidraw.common.ts -->
<g id="edge51" class="edge">
<title>figures/Parametric.ts&#45;&gt;pidraw.common.ts</title>
<path fill="none" stroke="#757575" d="M984.1,-242.5C1083.43,-247.52 1260.76,-271.66 1361,-375.8 1413.74,-430.59 1449.36,-672.52 1459.23,-746.94"/>
<polygon fill="#757575" stroke="#757575" points="1455.78,-747.57 1460.54,-757.03 1462.72,-746.66 1455.78,-747.57"/>
</g>
<!-- figures/Parametric.ts&#45;&gt;figures/AbstractFigure.ts -->
<g id="edge50" class="edge">
<title>figures/Parametric.ts&#45;&gt;figures/AbstractFigure.ts</title>
<path fill="none" stroke="#757575" d="M927.67,-253.46C949.53,-270.11 988.16,-302.78 1009,-339.8 1056.11,-423.5 1111.45,-723.53 1126.22,-807.07"/>
<polygon fill="#757575" stroke="#757575" points="1122.78,-807.73 1127.96,-816.98 1129.68,-806.52 1122.78,-807.73"/>
</g>
<!-- figures/Plot.ts&#45;&gt;Calculus.ts -->
<g id="edge52" class="edge">
<title>figures/Plot.ts&#45;&gt;Calculus.ts</title>
<path fill="none" stroke="#757575" d="M962.73,-369.18C997.4,-375.53 1043.05,-383.88 1077.9,-390.26"/>
<polygon fill="#757575" stroke="#757575" points="1077.42,-393.73 1087.89,-392.09 1078.68,-386.85 1077.42,-393.73"/>
</g>
<!-- figures/Plot.ts&#45;&gt;pidraw.common.ts -->
<g id="edge54" class="edge">
<title>figures/Plot.ts&#45;&gt;pidraw.common.ts</title>
<path fill="none" stroke="#757575" d="M962.76,-352.53C1058.02,-342.26 1261.66,-336.17 1361,-452.8 1437.69,-542.84 1456.33,-691.76 1460.71,-747.16"/>
<polygon fill="#757575" stroke="#757575" points="1457.22,-747.5 1461.43,-757.23 1464.21,-747.01 1457.22,-747.5"/>
</g>
<!-- figures/Plot.ts&#45;&gt;figures/AbstractFigure.ts -->
<g id="edge53" class="edge">
<title>figures/Plot.ts&#45;&gt;figures/AbstractFigure.ts</title>
<path fill="none" stroke="#757575" d="M926.18,-371.44C947.32,-388.93 986.3,-424 1009,-461.8 1080.69,-581.22 1115.68,-748.33 1126.35,-807.23"/>
<polygon fill="#757575" stroke="#757575" points="1122.93,-807.98 1128.11,-817.23 1129.82,-806.77 1122.93,-807.98"/>
</g>
<!-- figures/Point.ts&#45;&gt;Calculus.ts -->
<g id="edge55" class="edge">
<title>figures/Point.ts&#45;&gt;Calculus.ts</title>
<path fill="none" stroke="#757575" d="M692.36,-1045.27C711.49,-979.73 805.98,-656.6 812,-647.8 889.12,-535.15 1033.25,-450.23 1097.56,-416.15"/>
<polygon fill="#757575" stroke="#757575" points="1099.58,-419.04 1106.82,-411.31 1096.34,-412.84 1099.58,-419.04"/>
</g>
<!-- figures/Point.ts&#45;&gt;pidraw.common.ts -->
<g id="edge58" class="edge">
<title>figures/Point.ts&#45;&gt;pidraw.common.ts</title>
<path fill="none" stroke="#757575" d="M720.06,-1068.43C824.78,-1105.41 1168.98,-1208.69 1361,-1046.8 1440.73,-979.58 1457.52,-844.04 1461.06,-790.9"/>
<polygon fill="#757575" stroke="#757575" points="1464.57,-790.77 1461.64,-780.59 1457.58,-790.38 1464.57,-790.77"/>
</g>
<!-- figures/Point.ts&#45;&gt;figures/AbstractFigure.ts -->
<g id="edge56" class="edge">
<title>figures/Point.ts&#45;&gt;figures/AbstractFigure.ts</title>
<path fill="none" stroke="#757575" d="M738.78,-1068.32C805.61,-1080.89 925.58,-1093.01 1009,-1041.8 1080.49,-997.92 1113.65,-895.22 1125.1,-850.38"/>
<polygon fill="#757575" stroke="#757575" points="1128.53,-851.08 1127.5,-840.54 1121.73,-849.42 1128.53,-851.08"/>
</g>
<!-- figures/Point.ts&#45;&gt;figures/Line.ts -->
<g id="edge57" class="edge">
<title>figures/Point.ts&#45;&gt;figures/Line.ts</title>
<path fill="none" stroke="#757575" d="M743.51,-1047.9C774.94,-1042.77 814.58,-1036.3 847.24,-1030.97"/>
<polygon fill="#757575" stroke="#757575" points="847.83,-1034.42 857.14,-1029.35 846.71,-1027.51 847.83,-1034.42"/>
</g>
<!-- figures/Polygon.ts&#45;&gt;Calculus.ts -->
<g id="edge59" class="edge">
<title>figures/Polygon.ts&#45;&gt;Calculus.ts</title>
<path fill="none" stroke="#757575" d="M976.06,-658.84C987.9,-655 999.49,-649.55 1009,-641.8 1081.62,-582.61 1114.53,-468.74 1125.53,-421.34"/>
<polygon fill="#757575" stroke="#757575" points="1128.96,-422.05 1127.71,-411.53 1122.12,-420.53 1128.96,-422.05"/>
</g>
<!-- figures/Polygon.ts&#45;&gt;pidraw.common.ts -->
<g id="edge61" class="edge">
<title>figures/Polygon.ts&#45;&gt;pidraw.common.ts</title>
<path fill="none" stroke="#757575" d="M976.26,-676.43C1063.95,-688.57 1225.12,-712.53 1361,-741.8 1377.9,-745.44 1396.2,-750.11 1412.53,-754.54"/>
<polygon fill="#757575" stroke="#757575" points="1411.83,-757.98 1422.4,-757.25 1413.69,-751.23 1411.83,-757.98"/>
</g>
<!-- figures/Polygon.ts&#45;&gt;figures/AbstractFigure.ts -->
<g id="edge60" class="edge">
<title>figures/Polygon.ts&#45;&gt;figures/AbstractFigure.ts</title>
<path fill="none" stroke="#757575" d="M976.14,-675.57C987.59,-678.63 999.02,-682.89 1009,-688.8 1059.59,-718.79 1099.7,-777.48 1118.45,-808.49"/>
<polygon fill="#757575" stroke="#757575" points="1115.47,-810.33 1123.57,-817.16 1121.5,-806.77 1115.47,-810.33"/>
</g>
<!-- figures/Riemann.ts&#45;&gt;Calculus.ts -->
<g id="edge62" class="edge">
<title>figures/Riemann.ts&#45;&gt;Calculus.ts</title>
<path fill="none" stroke="#757575" d="M736.89,-348.27C800.1,-334.98 914.43,-317.64 1009,-339.8 1044.07,-348.02 1080.62,-367.98 1104.24,-382.63"/>
<polygon fill="#757575" stroke="#757575" points="1102.62,-385.74 1112.94,-388.14 1106.37,-379.83 1102.62,-385.74"/>
</g>
<!-- figures/Riemann.ts&#45;&gt;pidraw.common.ts -->
<g id="edge65" class="edge">
<title>figures/Riemann.ts&#45;&gt;pidraw.common.ts</title>
<path fill="none" stroke="#757575" d="M755.83,-353.39C763.42,-350.22 770.42,-345.83 776,-339.8 849,-261 730.58,-170.87 812,-100.8 904.97,-20.79 1280.5,-65.25 1361,-157.8 1440.07,-248.71 1458.11,-648.76 1461.37,-746.97"/>
<polygon fill="#757575" stroke="#757575" points="1457.88,-747.3 1461.69,-757.18 1464.87,-747.08 1457.88,-747.3"/>
</g>
<!-- figures/Riemann.ts&#45;&gt;figures/AbstractFigure.ts -->
<g id="edge63" class="edge">
<title>figures/Riemann.ts&#45;&gt;figures/AbstractFigure.ts</title>
<path fill="none" stroke="#757575" d="M699.03,-371.43C719.4,-394.81 767.44,-448.75 812,-489.8 894.54,-565.86 933.15,-565.07 1009,-647.8 1056.87,-700.01 1099.49,-772.76 1118.9,-808.01"/>
<polygon fill="#757575" stroke="#757575" points="1115.89,-809.8 1123.74,-816.91 1122.03,-806.46 1115.89,-809.8"/>
</g>
<!-- figures/Riemann.ts&#45;&gt;figures/Plot.ts -->
<g id="edge64" class="edge">
<title>figures/Riemann.ts&#45;&gt;figures/Plot.ts</title>
<path fill="none" stroke="#757575" d="M755.76,-359.8C785.11,-359.8 819.36,-359.8 848.07,-359.8"/>
<polygon fill="#757575" stroke="#757575" points="848.38,-363.3 858.38,-359.8 848.38,-356.3 848.38,-363.3"/>
</g>
<!-- Parser.ts -->
<g id="node17" class="node">
<title>Parser.ts</title>
<path fill="none" stroke="#c6c5fe" d="M167.33,-1126.3C167.33,-1126.3 108.67,-1126.3 108.67,-1126.3 104.83,-1126.3 101,-1122.47 101,-1118.63 101,-1118.63 101,-1110.97 101,-1110.97 101,-1107.13 104.83,-1103.3 108.67,-1103.3 108.67,-1103.3 167.33,-1103.3 167.33,-1103.3 171.17,-1103.3 175,-1107.13 175,-1110.97 175,-1110.97 175,-1118.63 175,-1118.63 175,-1122.47 171.17,-1126.3 167.33,-1126.3"/>
<text text-anchor="middle" x="138" y="-1111.1" font-family="Arial" font-size="14.00" fill="#c6c5fe">Parser.ts</text>
</g>
<!-- Parser.ts&#45;&gt;pidraw.common.ts -->
<g id="edge23" class="edge">
<title>Parser.ts&#45;&gt;pidraw.common.ts</title>
<path fill="none" stroke="#757575" d="M140.24,-1126.53C144.47,-1162.09 161,-1270.64 211,-1342.8 298.8,-1469.52 329.83,-1556.8 484,-1556.8 484,-1556.8 484,-1556.8 1132,-1556.8 1177.59,-1556.8 1358.12,-1483.36 1361,-1479.8 1449.74,-1369.98 1460.52,-897.92 1461.82,-790.58"/>
<polygon fill="#757575" stroke="#757575" points="1465.32,-790.37 1461.93,-780.33 1458.32,-790.29 1465.32,-790.37"/>
</g>
<!-- Parser.ts&#45;&gt;Graph.ts -->
<g id="edge17" class="edge">
<title>Parser.ts&#45;&gt;Graph.ts</title>
<path fill="none" stroke="#757575" d="M141.93,-1103.27C150.66,-1069.59 177.92,-968.7 211,-888.8 269.92,-746.46 308.89,-722.21 370,-580.8 389.07,-536.67 370.73,-511.47 406,-478.8 415.16,-470.31 427.39,-465.19 439.44,-462.12"/>
<polygon fill="#757575" stroke="#757575" points="440.4,-465.49 449.45,-459.99 438.94,-458.64 440.4,-465.49"/>
</g>
<!-- Parser.ts&#45;&gt;figures/AbstractFigure.ts -->
<g id="edge18" class="edge">
<title>Parser.ts&#45;&gt;figures/AbstractFigure.ts</title>
<path fill="none" stroke="#757575" d="M159.53,-1103.29C173.79,-1095.46 193.33,-1085.06 211,-1076.8 295.85,-1037.12 317.46,-1027.4 406,-996.8 665.29,-907.18 742.36,-929.38 1009,-864.8 1034.42,-858.64 1062.44,-850.4 1085.1,-843.36"/>
<polygon fill="#757575" stroke="#757575" points="1086.29,-846.66 1094.79,-840.32 1084.2,-839.98 1086.29,-846.66"/>
</g>
<!-- Parser.ts&#45;&gt;figures/Point.ts -->
<g id="edge19" class="edge">
<title>Parser.ts&#45;&gt;figures/Point.ts</title>
<path fill="none" stroke="#757575" d="M175.18,-1108.83C226.42,-1100.56 323.13,-1085.64 406,-1076.8 479.83,-1068.93 564.9,-1063.36 621.93,-1060.13"/>
<polygon fill="#757575" stroke="#757575" points="622.45,-1063.61 632.24,-1059.56 622.06,-1056.62 622.45,-1063.61"/>
</g>
<!-- Parser.ts&#45;&gt;labels/Label.ts -->
<g id="edge20" class="edge">
<title>Parser.ts&#45;&gt;labels/Label.ts</title>
<path fill="none" stroke="#757575" d="M144.06,-1126.48C170.23,-1184.9 296.4,-1442.8 484,-1442.8 484,-1442.8 484,-1442.8 689,-1442.8 837.87,-1442.8 884.94,-1426.09 1009,-1343.8 1149.35,-1250.7 1259.53,-1072.35 1294.4,-1011.64"/>
<polygon fill="#757575" stroke="#757575" points="1297.62,-1013.05 1299.52,-1002.63 1291.54,-1009.6 1297.62,-1013.05"/>
</g>
<!-- parser/parser.common.ts -->
<g id="node19" class="node">
<title>parser/parser.common.ts</title>
<path fill="none" stroke="#c6c5fe" d="M768.33,-1262.3C768.33,-1262.3 607.67,-1262.3 607.67,-1262.3 603.83,-1262.3 600,-1258.47 600,-1254.63 600,-1254.63 600,-1246.97 600,-1246.97 600,-1243.13 603.83,-1239.3 607.67,-1239.3 607.67,-1239.3 768.33,-1239.3 768.33,-1239.3 772.17,-1239.3 776,-1243.13 776,-1246.97 776,-1246.97 776,-1254.63 776,-1254.63 776,-1258.47 772.17,-1262.3 768.33,-1262.3"/>
<text text-anchor="middle" x="688" y="-1247.1" font-family="Arial" font-size="14.00" fill="#c6c5fe">parser/parser.common.ts</text>
</g>
<!-- Parser.ts&#45;&gt;parser/parser.common.ts -->
<g id="edge21" class="edge">
<title>Parser.ts&#45;&gt;parser/parser.common.ts</title>
<path fill="none" stroke="#757575" d="M145.92,-1126.49C157.14,-1144.28 181.07,-1177.75 211,-1193.8 329.78,-1257.49 488.76,-1263.41 589.55,-1259.17"/>
<polygon fill="#757575" stroke="#757575" points="589.89,-1262.65 599.72,-1258.69 589.57,-1255.66 589.89,-1262.65"/>
</g>
<!-- parser/parser.config.ts -->
<g id="node20" class="node">
<title>parser/parser.config.ts</title>
<path fill="none" stroke="#c6c5fe" d="M362.33,-1184.3C362.33,-1184.3 218.67,-1184.3 218.67,-1184.3 214.83,-1184.3 211,-1180.47 211,-1176.63 211,-1176.63 211,-1168.97 211,-1168.97 211,-1165.13 214.83,-1161.3 218.67,-1161.3 218.67,-1161.3 362.33,-1161.3 362.33,-1161.3 366.17,-1161.3 370,-1165.13 370,-1168.97 370,-1168.97 370,-1176.63 370,-1176.63 370,-1180.47 366.17,-1184.3 362.33,-1184.3"/>
<text text-anchor="middle" x="290.5" y="-1169.1" font-family="Arial" font-size="14.00" fill="#c6c5fe">parser/parser.config.ts</text>
</g>
<!-- Parser.ts&#45;&gt;parser/parser.config.ts -->
<g id="edge22" class="edge">
<title>Parser.ts&#45;&gt;parser/parser.config.ts</title>
<path fill="none" stroke="#757575" d="M169.09,-1126.4C192.27,-1135.33 224.51,-1147.75 249.79,-1157.5"/>
<polygon fill="#757575" stroke="#757575" points="248.87,-1160.89 259.46,-1161.22 251.39,-1154.36 248.87,-1160.89"/>
</g>
<!-- labels/Label.ts&#45;&gt;pidraw.common.ts -->
<g id="edge68" class="edge">
<title>labels/Label.ts&#45;&gt;pidraw.common.ts</title>
<path fill="none" stroke="#757575" d="M1339.85,-979.25C1347.4,-975.47 1355,-970.68 1361,-964.8 1413.33,-913.49 1443.88,-829.31 1455.95,-790.12"/>
<polygon fill="#757575" stroke="#757575" points="1459.31,-791.11 1458.81,-780.53 1452.6,-789.11 1459.31,-791.11"/>
</g>
<!-- parser/parser.common.ts&#45;&gt;pidraw.common.ts -->
<g id="edge100" class="edge">
<title>parser/parser.common.ts&#45;&gt;pidraw.common.ts</title>
<path fill="none" stroke="#757575" d="M716.34,-1262.41C816.01,-1302.71 1164.22,-1425.55 1361,-1264.8 1436.14,-1203.42 1456.8,-878.88 1461.06,-790.85"/>
<polygon fill="#757575" stroke="#757575" points="1464.56,-790.83 1461.53,-780.68 1457.57,-790.51 1464.56,-790.83"/>
</g>
<!-- parser/parser.common.ts&#45;&gt;figures/AbstractFigure.ts -->
<g id="edge99" class="edge">
<title>parser/parser.common.ts&#45;&gt;figures/AbstractFigure.ts</title>
<path fill="none" stroke="#757575" d="M776.3,-1244.39C847.36,-1234.75 945.89,-1210.71 1009,-1150.8 1098.53,-1065.8 1122.37,-908.12 1128.23,-850.56"/>
<polygon fill="#757575" stroke="#757575" points="1131.73,-850.71 1129.17,-840.43 1124.76,-850.06 1131.73,-850.71"/>
</g>
<!-- parser/parser.config.ts&#45;&gt;pidraw.common.ts -->
<g id="edge108" class="edge">
<title>parser/parser.config.ts&#45;&gt;pidraw.common.ts</title>
<path fill="none" stroke="#757575" d="M295.62,-1184.7C307.51,-1217.3 344.91,-1308.91 406,-1358.8 469,-1410.26 895.85,-1518.8 909.5,-1518.8 909.5,-1518.8 909.5,-1518.8 1132,-1518.8 1242.02,-1518.8 1295.69,-1513.34 1361,-1424.8 1437.98,-1320.44 1457.67,-892.5 1461.3,-790.64"/>
<polygon fill="#757575" stroke="#757575" points="1464.81,-790.46 1461.66,-780.35 1457.82,-790.22 1464.81,-790.46"/>
</g>
<!-- parser/parser.config.ts&#45;&gt;figures/AbstractFigure.ts -->
<g id="edge101" class="edge">
<title>parser/parser.config.ts&#45;&gt;figures/AbstractFigure.ts</title>
<path fill="none" stroke="#757575" d="M296.93,-1184.48C310.62,-1212.4 349.54,-1282.81 406,-1311.8 645.02,-1434.52 815.95,-1455.68 1009,-1268.8 1040.32,-1238.48 1107.24,-935 1125.38,-850.52"/>
<polygon fill="#757575" stroke="#757575" points="1128.85,-851.03 1127.52,-840.51 1122.01,-849.56 1128.85,-851.03"/>
</g>
<!-- parser/parser.config.ts&#45;&gt;parser/parser.common.ts -->
<g id="edge107" class="edge">
<title>parser/parser.config.ts&#45;&gt;parser/parser.common.ts</title>
<path fill="none" stroke="#757575" d="M349.86,-1184.31C421.42,-1198.42 542.54,-1222.31 618.46,-1237.28"/>
<polygon fill="#757575" stroke="#757575" points="617.91,-1240.74 628.4,-1239.24 619.27,-1233.88 617.91,-1240.74"/>
</g>
<!-- parser/buildCircle.ts -->
<g id="node22" class="node">
<title>parser/buildCircle.ts</title>
<path fill="none" stroke="#c6c5fe" d="M548.83,-1108.3C548.83,-1108.3 421.17,-1108.3 421.17,-1108.3 417.33,-1108.3 413.5,-1104.47 413.5,-1100.63 413.5,-1100.63 413.5,-1092.97 413.5,-1092.97 413.5,-1089.13 417.33,-1085.3 421.17,-1085.3 421.17,-1085.3 548.83,-1085.3 548.83,-1085.3 552.67,-1085.3 556.5,-1089.13 556.5,-1092.97 556.5,-1092.97 556.5,-1100.63 556.5,-1100.63 556.5,-1104.47 552.67,-1108.3 548.83,-1108.3"/>
<text text-anchor="middle" x="485" y="-1093.1" font-family="Arial" font-size="14.00" fill="#c6c5fe">parser/buildCircle.ts</text>
</g>
<!-- parser/parser.config.ts&#45;&gt;parser/buildCircle.ts -->
<g id="edge102" class="edge">
<title>parser/parser.config.ts&#45;&gt;parser/buildCircle.ts</title>
<path fill="none" stroke="#757575" d="M320.74,-1161.26C354.05,-1148.11 408.61,-1126.56 445.4,-1112.04"/>
<polygon fill="#757575" stroke="#757575" points="446.79,-1115.26 454.8,-1108.33 444.22,-1108.74 446.79,-1115.26"/>
</g>
<!-- parser/buildLine.ts -->
<g id="node23" class="node">
<title>parser/buildLine.ts</title>
<path fill="none" stroke="#c6c5fe" d="M543.83,-1028.3C543.83,-1028.3 426.17,-1028.3 426.17,-1028.3 422.33,-1028.3 418.5,-1024.47 418.5,-1020.63 418.5,-1020.63 418.5,-1012.97 418.5,-1012.97 418.5,-1009.13 422.33,-1005.3 426.17,-1005.3 426.17,-1005.3 543.83,-1005.3 543.83,-1005.3 547.67,-1005.3 551.5,-1009.13 551.5,-1012.97 551.5,-1012.97 551.5,-1020.63 551.5,-1020.63 551.5,-1024.47 547.67,-1028.3 543.83,-1028.3"/>
<text text-anchor="middle" x="485" y="-1013.1" font-family="Arial" font-size="14.00" fill="#c6c5fe">parser/buildLine.ts</text>
</g>
<!-- parser/parser.config.ts&#45;&gt;parser/buildLine.ts -->
<g id="edge103" class="edge">
<title>parser/parser.config.ts&#45;&gt;parser/buildLine.ts</title>
<path fill="none" stroke="#757575" d="M305.09,-1161.09C326.38,-1142.81 368.99,-1106.53 406,-1076.8 424.09,-1062.27 444.95,-1046.26 460.54,-1034.44"/>
<polygon fill="#757575" stroke="#757575" points="462.74,-1037.16 468.61,-1028.34 458.52,-1031.58 462.74,-1037.16"/>
</g>
<!-- parser/buildPlot.ts -->
<g id="node24" class="node">
<title>parser/buildPlot.ts</title>
<path fill="none" stroke="#c6c5fe" d="M542.83,-510.3C542.83,-510.3 427.17,-510.3 427.17,-510.3 423.33,-510.3 419.5,-506.47 419.5,-502.63 419.5,-502.63 419.5,-494.97 419.5,-494.97 419.5,-491.13 423.33,-487.3 427.17,-487.3 427.17,-487.3 542.83,-487.3 542.83,-487.3 546.67,-487.3 550.5,-491.13 550.5,-494.97 550.5,-494.97 550.5,-502.63 550.5,-502.63 550.5,-506.47 546.67,-510.3 542.83,-510.3"/>
<text text-anchor="middle" x="485" y="-495.1" font-family="Arial" font-size="14.00" fill="#c6c5fe">parser/buildPlot.ts</text>
</g>
<!-- parser/parser.config.ts&#45;&gt;parser/buildPlot.ts -->
<g id="edge104" class="edge">
<title>parser/parser.config.ts&#45;&gt;parser/buildPlot.ts</title>
<path fill="none" stroke="#757575" d="M294.84,-1161.1C317.43,-1082.01 447.83,-625.43 477.84,-520.36"/>
<polygon fill="#757575" stroke="#757575" points="481.26,-521.13 480.64,-510.56 474.53,-519.21 481.26,-521.13"/>
</g>
<!-- parser/buildPoint.ts -->
<g id="node25" class="node">
<title>parser/buildPoint.ts</title>
<path fill="none" stroke="#c6c5fe" d="M546.33,-1184.3C546.33,-1184.3 423.67,-1184.3 423.67,-1184.3 419.83,-1184.3 416,-1180.47 416,-1176.63 416,-1176.63 416,-1168.97 416,-1168.97 416,-1165.13 419.83,-1161.3 423.67,-1161.3 423.67,-1161.3 546.33,-1161.3 546.33,-1161.3 550.17,-1161.3 554,-1165.13 554,-1168.97 554,-1168.97 554,-1176.63 554,-1176.63 554,-1180.47 550.17,-1184.3 546.33,-1184.3"/>
<text text-anchor="middle" x="485" y="-1169.1" font-family="Arial" font-size="14.00" fill="#c6c5fe">parser/buildPoint.ts</text>
</g>
<!-- parser/parser.config.ts&#45;&gt;parser/buildPoint.ts -->
<g id="edge105" class="edge">
<title>parser/parser.config.ts&#45;&gt;parser/buildPoint.ts</title>
<path fill="none" stroke="#757575" d="M370.07,-1172.8C381.81,-1172.8 393.92,-1172.8 405.65,-1172.8"/>
<polygon fill="#757575" stroke="#757575" points="405.85,-1176.3 415.85,-1172.8 405.85,-1169.3 405.85,-1176.3"/>
</g>
<!-- parser/buildPolygon.ts -->
<g id="node26" class="node">
<title>parser/buildPolygon.ts</title>
<path fill="none" stroke="#c6c5fe" d="M556.33,-1302.3C556.33,-1302.3 413.67,-1302.3 413.67,-1302.3 409.83,-1302.3 406,-1298.47 406,-1294.63 406,-1294.63 406,-1286.97 406,-1286.97 406,-1283.13 409.83,-1279.3 413.67,-1279.3 413.67,-1279.3 556.33,-1279.3 556.33,-1279.3 560.17,-1279.3 564,-1283.13 564,-1286.97 564,-1286.97 564,-1294.63 564,-1294.63 564,-1298.47 560.17,-1302.3 556.33,-1302.3"/>
<text text-anchor="middle" x="485" y="-1287.1" font-family="Arial" font-size="14.00" fill="#c6c5fe">parser/buildPolygon.ts</text>
</g>
<!-- parser/parser.config.ts&#45;&gt;parser/buildPolygon.ts -->
<g id="edge106" class="edge">
<title>parser/parser.config.ts&#45;&gt;parser/buildPolygon.ts</title>
<path fill="none" stroke="#757575" d="M310.31,-1184.33C344.45,-1205.26 416.76,-1249.58 456.46,-1273.92"/>
<polygon fill="#757575" stroke="#757575" points="454.76,-1276.98 465.12,-1279.23 458.42,-1271.02 454.76,-1276.98"/>
</g>
<!-- index.ts -->
<g id="node21" class="node">
<title>index.ts</title>
<path fill="none" stroke="#c6c5fe" d="M57.33,-693.3C57.33,-693.3 7.67,-693.3 7.67,-693.3 3.83,-693.3 0,-689.47 0,-685.63 0,-685.63 0,-677.97 0,-677.97 0,-674.13 3.83,-670.3 7.67,-670.3 7.67,-670.3 57.33,-670.3 57.33,-670.3 61.17,-670.3 65,-674.13 65,-677.97 65,-677.97 65,-685.63 65,-685.63 65,-689.47 61.17,-693.3 57.33,-693.3"/>
<text text-anchor="middle" x="32.5" y="-678.1" font-family="Arial" font-size="14.00" fill="#c6c5fe">index.ts</text>
</g>
<!-- index.ts&#45;&gt;Graph.ts -->
<g id="edge66" class="edge">
<title>index.ts&#45;&gt;Graph.ts</title>
<path fill="none" stroke="#757575" d="M50.93,-670.19C102.81,-636.11 261.6,-535.22 406,-478.8 416.6,-474.66 428.32,-471.03 439.38,-468.01"/>
<polygon fill="#757575" stroke="#757575" points="440.52,-471.33 449.31,-465.41 438.74,-464.56 440.52,-471.33"/>
</g>
<!-- index.ts&#45;&gt;Parser.ts -->
<g id="edge67" class="edge">
<title>index.ts&#45;&gt;Parser.ts</title>
<path fill="none" stroke="#757575" d="M36.27,-693.38C50.24,-751.84 113.08,-1014.72 131.75,-1092.84"/>
<polygon fill="#757575" stroke="#757575" points="128.45,-1094.07 134.17,-1102.98 135.25,-1092.44 128.45,-1094.07"/>
</g>
<!-- parser/buildCircle.ts&#45;&gt;pidraw.common.ts -->
<g id="edge74" class="edge">
<title>parser/buildCircle.ts&#45;&gt;pidraw.common.ts</title>
<path fill="none" stroke="#757575" d="M532.3,-1108.33C552.9,-1113 577.53,-1117.95 600,-1120.8 872.18,-1155.34 946.6,-1187.27 1217,-1140.8 1283.91,-1129.3 1313.85,-1138.66 1361,-1089.8 1444.68,-1003.1 1459.08,-847.74 1461.52,-790.63"/>
<polygon fill="#757575" stroke="#757575" points="1465.02,-790.69 1461.86,-780.57 1458.02,-790.45 1465.02,-790.69"/>
</g>
<!-- parser/buildCircle.ts&#45;&gt;figures/AbstractFigure.ts -->
<g id="edge69" class="edge">
<title>parser/buildCircle.ts&#45;&gt;figures/AbstractFigure.ts</title>
<path fill="none" stroke="#757575" d="M556.95,-1102.34C682.29,-1110.74 936.49,-1121.1 1009,-1073.8 1088.97,-1021.63 1117.99,-900.05 1126.74,-850.45"/>
<polygon fill="#757575" stroke="#757575" points="1130.21,-850.93 1128.39,-840.49 1123.3,-849.78 1130.21,-850.93"/>
</g>
<!-- parser/buildCircle.ts&#45;&gt;figures/Arc.ts -->
<g id="edge70" class="edge">
<title>parser/buildCircle.ts&#45;&gt;figures/Arc.ts</title>
<path fill="none" stroke="#757575" d="M508.98,-1085.2C526.7,-1075.08 550.4,-1058.73 564,-1037.8 602.31,-978.87 557.86,-940.06 600,-883.8 636.48,-835.1 800.33,-757.62 873.73,-724.57"/>
<polygon fill="#757575" stroke="#757575" points="875.36,-727.68 883.05,-720.4 872.5,-721.29 875.36,-727.68"/>
</g>
<!-- parser/buildCircle.ts&#45;&gt;figures/Circle.ts -->
<g id="edge71" class="edge">
<title>parser/buildCircle.ts&#45;&gt;figures/Circle.ts</title>
<path fill="none" stroke="#757575" d="M501.83,-1085.29C566.03,-1038.6 807.26,-863.16 885.11,-806.54"/>
<polygon fill="#757575" stroke="#757575" points="887.34,-809.25 893.37,-800.54 883.22,-803.59 887.34,-809.25"/>
</g>
<!-- parser/buildCircle.ts&#45;&gt;figures/Point.ts -->
<g id="edge72" class="edge">
<title>parser/buildCircle.ts&#45;&gt;figures/Point.ts</title>
<path fill="none" stroke="#757575" d="M543.87,-1085.29C568.44,-1080.4 597.19,-1074.67 622.44,-1069.65"/>
<polygon fill="#757575" stroke="#757575" points="623.18,-1073.07 632.3,-1067.69 621.81,-1066.21 623.18,-1073.07"/>
</g>
<!-- parser/buildCircle.ts&#45;&gt;parser/parser.common.ts -->
<g id="edge73" class="edge">
<title>parser/buildCircle.ts&#45;&gt;parser/parser.common.ts</title>
<path fill="none" stroke="#757575" d="M503.54,-1108.4C519.68,-1119.3 544.07,-1136.36 564,-1152.8 580.98,-1166.81 583.1,-1172.7 600,-1186.8 619.86,-1203.38 643.58,-1220.67 661.23,-1233.1"/>
<polygon fill="#757575" stroke="#757575" points="659.65,-1236.27 669.86,-1239.12 663.66,-1230.53 659.65,-1236.27"/>
</g>
<!-- parser/buildLine.ts&#45;&gt;Calculus.ts -->
<g id="edge75" class="edge">
<title>parser/buildLine.ts&#45;&gt;Calculus.ts</title>
<path fill="none" stroke="#757575" d="M490.51,-1005.02C504.63,-968.65 549.99,-855.31 600,-767.8 620.43,-732.05 777.56,-486.38 812,-463.8 823.1,-456.53 990.33,-425.25 1077.7,-409.28"/>
<polygon fill="#757575" stroke="#757575" points="1078.48,-412.69 1087.69,-407.45 1077.22,-405.81 1078.48,-412.69"/>
</g>
<!-- parser/buildLine.ts&#45;&gt;pidraw.common.ts -->
<g id="edge80" class="edge">
<title>parser/buildLine.ts&#45;&gt;pidraw.common.ts</title>
<path fill="none" stroke="#757575" d="M551.71,-1012.94C651.71,-1006 847.51,-988.17 1009,-947.8 1171.09,-907.28 1206.92,-880.43 1361,-815.8 1384.14,-806.09 1409.78,-794.15 1429.43,-784.73"/>
<polygon fill="#757575" stroke="#757575" points="1431.07,-787.83 1438.56,-780.33 1428.03,-781.52 1431.07,-787.83"/>
</g>
<!-- parser/buildLine.ts&#45;&gt;figures/AbstractFigure.ts -->
<g id="edge76" class="edge">
<title>parser/buildLine.ts&#45;&gt;figures/AbstractFigure.ts</title>
<path fill="none" stroke="#757575" d="M506.27,-1005.17C528.5,-992.98 565.62,-974.32 600,-964.8 776.3,-916.01 838.84,-985.93 1009,-918.8 1049.99,-902.63 1089.39,-868.81 1111.57,-847.55"/>
<polygon fill="#757575" stroke="#757575" points="1114.24,-849.83 1118.93,-840.34 1109.34,-844.83 1114.24,-849.83"/>
</g>
<!-- parser/buildLine.ts&#45;&gt;figures/Line.ts -->
<g id="edge77" class="edge">
<title>parser/buildLine.ts&#45;&gt;figures/Line.ts</title>
<path fill="none" stroke="#757575" d="M551.71,-1017.42C632.31,-1018.18 767.95,-1019.46 847.04,-1020.21"/>
<polygon fill="#757575" stroke="#757575" points="847.31,-1023.71 857.34,-1020.31 847.37,-1016.71 847.31,-1023.71"/>
</g>
<!-- parser/buildLine.ts&#45;&gt;figures/Point.ts -->
<g id="edge78" class="edge">
<title>parser/buildLine.ts&#45;&gt;figures/Point.ts</title>
<path fill="none" stroke="#757575" d="M543.87,-1028.32C568.44,-1033.21 597.19,-1038.93 622.44,-1043.95"/>
<polygon fill="#757575" stroke="#757575" points="621.81,-1047.4 632.3,-1045.92 623.18,-1040.53 621.81,-1047.4"/>
</g>
<!-- parser/buildLine.ts&#45;&gt;parser/parser.common.ts -->
<g id="edge79" class="edge">
<title>parser/buildLine.ts&#45;&gt;parser/parser.common.ts</title>
<path fill="none" stroke="#757575" d="M503.96,-1028.32C520.61,-1039.5 545.54,-1057.58 564,-1076.8 611.58,-1126.34 654.84,-1195.55 675.02,-1229.84"/>
<polygon fill="#757575" stroke="#757575" points="672.25,-1232.03 680.31,-1238.92 678.3,-1228.51 672.25,-1232.03"/>
</g>
<!-- parser/buildPlot.ts&#45;&gt;pidraw.common.ts -->
<g id="edge88" class="edge">
<title>parser/buildPlot.ts&#45;&gt;pidraw.common.ts</title>
<path fill="none" stroke="#757575" d="M550.67,-509.61C697.81,-535.33 1067.58,-606.42 1361,-716.8 1386.66,-726.45 1414.23,-740.95 1434.07,-752.19"/>
<polygon fill="#757575" stroke="#757575" points="1432.46,-755.3 1442.87,-757.25 1435.95,-749.23 1432.46,-755.3"/>
</g>
<!-- parser/buildPlot.ts&#45;&gt;figures/AbstractFigure.ts -->
<g id="edge81" class="edge">
<title>parser/buildPlot.ts&#45;&gt;figures/AbstractFigure.ts</title>
<path fill="none" stroke="#757575" d="M491.35,-510.65C505.72,-541.59 547.61,-626.4 600,-683.8 679.4,-770.79 700.27,-805.56 812,-842.8 901.08,-872.49 1011.99,-856.6 1076.52,-842.56"/>
<polygon fill="#757575" stroke="#757575" points="1077.48,-845.93 1086.47,-840.33 1075.94,-839.1 1077.48,-845.93"/>
</g>
<!-- parser/buildPlot.ts&#45;&gt;figures/FillBetween.ts -->
<g id="edge82" class="edge">
<title>parser/buildPlot.ts&#45;&gt;figures/FillBetween.ts</title>
<path fill="none" stroke="#757575" d="M550.7,-492.04C567.01,-490.34 584.77,-488.48 601.91,-486.69"/>
<polygon fill="#757575" stroke="#757575" points="602.34,-490.17 611.92,-485.65 601.61,-483.2 602.34,-490.17"/>
</g>
<!-- parser/buildPlot.ts&#45;&gt;figures/Follow.ts -->
<g id="edge83" class="edge">
<title>parser/buildPlot.ts&#45;&gt;figures/Follow.ts</title>
<path fill="none" stroke="#757575" d="M550.8,-488.35C555.65,-485.79 560.14,-482.65 564,-478.8 609.18,-433.73 554.5,-384.55 600,-339.8 605.25,-334.63 611.55,-330.66 618.32,-327.61"/>
<polygon fill="#757575" stroke="#757575" points="619.69,-330.84 627.79,-324.01 617.2,-324.3 619.69,-330.84"/>
</g>
<!-- parser/buildPlot.ts&#45;&gt;figures/Parametric.ts -->
<g id="edge84" class="edge">
<title>parser/buildPlot.ts&#45;&gt;figures/Parametric.ts</title>
<path fill="none" stroke="#757575" d="M550.67,-488.78C555.6,-486.14 560.15,-482.86 564,-478.8 620.12,-419.59 541.87,-356.05 600,-298.8 616.1,-282.94 740.66,-263.78 826.77,-252.2"/>
<polygon fill="#757575" stroke="#757575" points="827.36,-255.65 836.81,-250.86 826.43,-248.71 827.36,-255.65"/>
</g>
<!-- parser/buildPlot.ts&#45;&gt;figures/Plot.ts -->
<g id="edge85" class="edge">
<title>parser/buildPlot.ts&#45;&gt;figures/Plot.ts</title>
<path fill="none" stroke="#757575" d="M539.51,-487.18C547.83,-484.78 556.24,-481.99 564,-478.8 581.14,-471.77 582.77,-464.6 600,-457.8 674.62,-428.36 704.09,-453.35 776,-417.8 794.67,-408.57 793.6,-397.55 812,-387.8 823.3,-381.82 836.03,-376.97 848.47,-373.11"/>
<polygon fill="#757575" stroke="#757575" points="849.74,-376.38 858.35,-370.21 847.77,-369.66 849.74,-376.38"/>
</g>
<!-- parser/buildPlot.ts&#45;&gt;figures/Riemann.ts -->
<g id="edge86" class="edge">
<title>parser/buildPlot.ts&#45;&gt;figures/Riemann.ts</title>
<path fill="none" stroke="#757575" d="M548.78,-487.23C554.17,-484.92 559.34,-482.14 564,-478.8 587.76,-461.8 579.91,-445.02 600,-423.8 617.24,-405.6 640.2,-388.95 658.2,-377.2"/>
<polygon fill="#757575" stroke="#757575" points="660.56,-379.85 667.11,-371.52 656.8,-373.95 660.56,-379.85"/>
</g>
<!-- parser/buildPlot.ts&#45;&gt;parser/parser.common.ts -->
<g id="edge87" class="edge">
<title>parser/buildPlot.ts&#45;&gt;parser/parser.common.ts</title>
<path fill="none" stroke="#757575" d="M487.11,-510.53C493.14,-571.45 524.43,-857.32 600,-1077.8 619.85,-1135.73 655.5,-1198.81 674.42,-1230.38"/>
<polygon fill="#757575" stroke="#757575" points="671.54,-1232.39 679.71,-1239.13 677.53,-1228.76 671.54,-1232.39"/>
</g>
<!-- parser/buildPoint.ts&#45;&gt;pidraw.common.ts -->
<g id="edge93" class="edge">
<title>parser/buildPoint.ts&#45;&gt;pidraw.common.ts</title>
<path fill="none" stroke="#757575" d="M496.88,-1184.31C542.41,-1231.12 723.81,-1404.8 909.5,-1404.8 909.5,-1404.8 909.5,-1404.8 1132,-1404.8 1242.71,-1404.8 1291.73,-1393.16 1361,-1306.8 1426.86,-1224.69 1454.37,-881.83 1460.58,-790.98"/>
<polygon fill="#757575" stroke="#757575" points="1464.09,-790.95 1461.26,-780.74 1457.11,-790.49 1464.09,-790.95"/>
</g>
<!-- parser/buildPoint.ts&#45;&gt;figures/AbstractFigure.ts -->
<g id="edge89" class="edge">
<title>parser/buildPoint.ts&#45;&gt;figures/AbstractFigure.ts</title>
<path fill="none" stroke="#757575" d="M554.08,-1167.68C687.43,-1157.12 973.22,-1131.63 1009,-1104.8 1094.38,-1040.77 1120.52,-903.54 1127.62,-850.42"/>
<polygon fill="#757575" stroke="#757575" points="1131.1,-850.77 1128.86,-840.42 1124.16,-849.91 1131.1,-850.77"/>
</g>
<!-- parser/buildPoint.ts&#45;&gt;figures/Line.ts -->
<g id="edge90" class="edge">
<title>parser/buildPoint.ts&#45;&gt;figures/Line.ts</title>
<path fill="none" stroke="#757575" d="M524.84,-1161.26C580.83,-1144.35 687.25,-1111.21 776,-1077.8 810.03,-1064.99 848.11,-1048.51 874.86,-1036.57"/>
<polygon fill="#757575" stroke="#757575" points="876.48,-1039.68 884.17,-1032.39 873.62,-1033.29 876.48,-1039.68"/>
</g>
<!-- parser/buildPoint.ts&#45;&gt;figures/Point.ts -->
<g id="edge91" class="edge">
<title>parser/buildPoint.ts&#45;&gt;figures/Point.ts</title>
<path fill="none" stroke="#757575" d="M506.01,-1161.25C541.73,-1140.64 616.62,-1097.42 658,-1073.54"/>
<polygon fill="#757575" stroke="#757575" points="659.86,-1076.5 666.78,-1068.47 656.36,-1070.44 659.86,-1076.5"/>
</g>
<!-- parser/buildPoint.ts&#45;&gt;parser/parser.common.ts -->
<g id="edge92" class="edge">
<title>parser/buildPoint.ts&#45;&gt;parser/parser.common.ts</title>
<path fill="none" stroke="#757575" d="M528.65,-1184.43C540.4,-1188.32 552.95,-1193.14 564,-1198.8 581.56,-1207.8 582.3,-1216.08 600,-1224.8 608.91,-1229.19 618.7,-1233 628.4,-1236.24"/>
<polygon fill="#757575" stroke="#757575" points="627.45,-1239.61 638.04,-1239.29 629.56,-1232.93 627.45,-1239.61"/>
</g>
<!-- parser/buildPolygon.ts&#45;&gt;pidraw.common.ts -->
<g id="edge98" class="edge">
<title>parser/buildPolygon.ts&#45;&gt;pidraw.common.ts</title>
<path fill="none" stroke="#757575" d="M499.96,-1302.4C551.08,-1343.65 734.23,-1480.8 909.5,-1480.8 909.5,-1480.8 909.5,-1480.8 1132,-1480.8 1246.5,-1480.8 1293.39,-1455.2 1361,-1362.8 1430,-1268.5 1455.49,-886.38 1460.86,-790.64"/>
<polygon fill="#757575" stroke="#757575" points="1464.37,-790.59 1461.42,-780.42 1457.38,-790.21 1464.37,-790.59"/>
</g>
<!-- parser/buildPolygon.ts&#45;&gt;figures/AbstractFigure.ts -->
<g id="edge94" class="edge">
<title>parser/buildPolygon.ts&#45;&gt;figures/AbstractFigure.ts</title>
<path fill="none" stroke="#757575" d="M547.65,-1302.36C658.06,-1319.11 889.14,-1335.5 1009,-1207.8 1108.44,-1101.86 1126.16,-914.1 1129.32,-850.53"/>
<polygon fill="#757575" stroke="#757575" points="1132.82,-850.61 1129.74,-840.47 1125.82,-850.32 1132.82,-850.61"/>
</g>
<!-- parser/buildPolygon.ts&#45;&gt;figures/Point.ts -->
<g id="edge95" class="edge">
<title>parser/buildPolygon.ts&#45;&gt;figures/Point.ts</title>
<path fill="none" stroke="#757575" d="M495.97,-1279.2C528.25,-1241.61 630.17,-1122.96 670.42,-1076.11"/>
<polygon fill="#757575" stroke="#757575" points="673.11,-1078.34 676.97,-1068.48 667.8,-1073.78 673.11,-1078.34"/>
</g>
<!-- parser/buildPolygon.ts&#45;&gt;figures/Polygon.ts -->
<g id="edge96" class="edge">
<title>parser/buildPolygon.ts&#45;&gt;figures/Polygon.ts</title>
<path fill="none" stroke="#757575" d="M564.33,-1296.78C640.02,-1300.67 747.33,-1300.58 776,-1271.8 867.61,-1179.85 727.37,-787.22 812,-688.8 818.28,-681.49 826.44,-676.37 835.37,-672.83"/>
<polygon fill="#757575" stroke="#757575" points="836.5,-676.14 844.9,-669.68 834.31,-669.49 836.5,-676.14"/>
</g>
<!-- parser/buildPolygon.ts&#45;&gt;parser/parser.common.ts -->
<g id="edge97" class="edge">
<title>parser/buildPolygon.ts&#45;&gt;parser/parser.common.ts</title>
<path fill="none" stroke="#757575" d="M543.87,-1279.29C567.41,-1274.6 594.79,-1269.15 619.26,-1264.28"/>
<polygon fill="#757575" stroke="#757575" points="620.07,-1267.69 629.19,-1262.31 618.7,-1260.82 620.07,-1267.69"/>
</g>
</g>
</svg>
